<?xml version="1.0" encoding="UTF-8"?>
<svg width="22px" height="22px" viewBox="0 0 22 22" version="1.1" xmlns="http://www.w3.org/2000/svg" xmlns:xlink="http://www.w3.org/1999/xlink">
    <!-- Generator: Sketch 63.1 (92452) - https://sketch.com -->
    <title>邮件</title>
    <desc>Created with Sketch.</desc>
    <g id="邮件" stroke="none" stroke-width="1" fill="none" fill-rule="evenodd">
        <g id="编组-74" fill-rule="nonzero">
            <rect id="矩形" fill="#4689F5" x="0" y="0" width="22" height="22" rx="4"></rect>
            <path d="M17,8.76152828 L17,13.9807064 C17,15.0960736 16.1187453,16 15.0312851,16 L15.0312851,16 L6.96870116,16 C5.8812547,16 5,15.0960736 5,13.9807064 L5,13.9807064 L5,8.76152828 L10.7993663,12.4801285 C10.8617213,12.5191668 10.9293938,12.5384323 10.9997183,12.5384323 C11.0679268,12.5384323 11.1382513,12.5191527 11.1979542,12.4801285 L11.1979542,12.4801285 L17,8.76152828 Z M15.0312851,6 C15.8316625,6 16.5194355,6.49155815 16.8276239,7.19531822 L16.8276239,7.19531822 L10.9997183,10.9315069 L5.17234861,7.19531822 C5.47946522,6.49155815 6.16620769,6 6.96870116,6 L6.96870116,6 Z" id="形状结合" fill="#FFFFFF"></path>
        </g>
    </g>
</svg>