<?xml version="1.0" encoding="UTF-8"?>
<svg width="22px" height="22px" viewBox="0 0 22 22" version="1.1" xmlns="http://www.w3.org/2000/svg" xmlns:xlink="http://www.w3.org/1999/xlink">
    <!-- Generator: Sketch 63.1 (92452) - https://sketch.com -->
    <title>钉钉</title>
    <desc>Created with Sketch.</desc>
    <g id="设计配置" stroke="none" stroke-width="1" fill="none" fill-rule="evenodd">
        <g id="7.2-消息推送-新增模板-配置服务" transform="translate(-1251.000000, -535.000000)">
            <g id="编组-6" transform="translate(1207.000000, 338.000000)">
                <g id="编组-3备份-16" transform="translate(0.000000, 190.000000)">
                    <g id="钉钉" transform="translate(44.000000, 7.000000)">
                        <rect id="矩形" fill="#5A80ED" x="0" y="0" width="22" height="22" rx="4"></rect>
                        <path d="M16.9730177,8.98169849 C16.9261398,9.15200336 16.8651986,9.31762096 16.7901939,9.47698882 L16.7917565,9.47698882 L16.782381,9.49730041 C16.2495356,10.6941218 14.8572624,13.0440166 14.8572624,13.0440166 L14.851012,13.0283923 L14.444737,13.772109 L16.4042327,13.772109 L12.660252,19 L13.5103044,15.4439092 L11.9664593,15.4439092 L12.5024298,13.092452 C12.068028,13.2018221 11.557059,13.3533778 10.9492091,13.5580561 C10.9492091,13.5580561 10.1288461,14.062721 8.58343836,12.5862246 C8.58343836,12.5862246 7.54118665,11.6237677 8.1459114,11.3815911 C8.40217719,11.2800331 9.39286322,11.1503514 10.1725988,11.0378565 C11.224226,10.8878632 11.8727035,10.8081792 11.8727035,10.8081792 C11.8727035,10.8081792 8.62719104,10.8597394 7.85683109,10.7316202 C7.08647113,10.6050633 6.11141105,9.25512375 5.90202316,8.06923935 C5.90202316,8.06923935 5.58012832,7.41770602 6.5926907,7.72550472 C7.60681568,8.03330344 11.8023867,8.925451 11.8023867,8.92545102 C11.8023867,8.92545104 6.34736309,7.17084207 5.98484076,6.74273623 C5.62231844,6.31463038 4.91602492,4.40221601 5.00821808,3.22883103 C5.00821808,3.22883103 5.04884559,2.93509419 5.33480071,3.01321569 C5.33480071,3.01321569 9.36942427,4.95062895 12.1274067,6.0083941 C14.8853891,7.06928412 17.2824118,7.60988491 16.9730177,8.98169849 Z" id="路径" fill="#FFFFFF" fill-rule="nonzero"></path>
                    </g>
                </g>
            </g>
        </g>
    </g>
</svg>