<?xml version="1.0" encoding="UTF-8"?>
<svg width="30px" height="30px" viewBox="0 0 30 30" version="1.1" xmlns="http://www.w3.org/2000/svg" xmlns:xlink="http://www.w3.org/1999/xlink">
    <!-- Generator: Sketch 63.1 (92452) - https://sketch.com -->
    <title>日期</title>
    <desc>Created with Sketch.</desc>
    <g id="日期" stroke="none" stroke-width="1" fill="none" fill-rule="evenodd">
        <g id="编组-21">
            <rect id="矩形备份-14" x="0" y="0" width="30" height="30"></rect>
            <path d="M26.7592353,11.3879513 L3.24076474,11.3879513 C3.13377607,11.3879513 3.01338029,11.4949976 3.01338029,11.6153777 L3.01338029,24.7658977 C3.01338029,25.9966621 4.01666056,27 5.2473521,27 L24.7660014,27 C25.9967197,27 27,25.9966621 27,24.7658977 L27,11.6153777 C26.9866465,11.4949707 26.8796042,11.3879513 26.7592084,11.3879513 L26.7592353,11.3879513 Z M13.2838909,20.1511012 L13.2838909,21.8681349 L6.4194546,21.8681349 L6.4194546,20.1511012 L13.2838909,20.1511012 Z M20.1483272,15.6868135 L20.1483272,17.4038472 L6.4194546,17.4038472 L6.4194546,15.6868135 L20.1483272,15.6868135 Z M10.5454099,3 C10.8798366,3 11.1072479,3.22742648 11.1072479,3.56187246 L11.1072479,5.23410235 L20.0165086,5.23410235 L20.0165086,3.56187246 C20.0165086,3.22742648 20.2438931,3 20.5783466,3 L21.6886424,3 C22.0230692,3 22.2505072,3.22742648 22.2505072,3.56187246 L22.2505072,5.23410235 L24.7526479,5.23410235 C25.9833394,5.23410235 26.9866465,6.23746711 26.9866465,7.46823152 L26.9866465,9.47490739 C26.9866465,9.59531438 26.879631,9.70233387 26.652193,9.70233387 L3.22741127,9.70233387 C3.10701549,9.70233387 3,9.58192688 3,9.47490739 L3,7.46823152 C3,6.23746711 4.00328027,5.23410235 5.23399862,5.23410235 L8.87322244,5.23410235 L8.87322244,3.56187246 C8.87322244,3.22742648 9.10063371,3 9.43506047,3 L10.5454099,3 Z" id="形状" fill="#34C7BE"></path>
        </g>
    </g>
</svg>