<?xml version="1.0" encoding="UTF-8"?>
<svg width="30px" height="30px" viewBox="0 0 30 30" version="1.1" xmlns="http://www.w3.org/2000/svg" xmlns:xlink="http://www.w3.org/1999/xlink">
    <!-- Generator: Sketch 63.1 (92452) - https://sketch.com -->
    <title>下拉框</title>
    <desc>Created with Sketch.</desc>
    <g id="下拉框" stroke="none" stroke-width="1" fill="none" fill-rule="evenodd">
        <g id="编组-33">
            <rect id="矩形备份-26" x="0" y="0" width="30" height="30"></rect>
            <path d="M25,3 C26.1045695,3 27,3.8954305 27,5 L27,25 C27,26.1045695 26.1045695,27 25,27 L5,27 C3.8954305,27 3,26.1045695 3,25 L3,5 C3,3.8954305 3.8954305,3 5,3 L25,3 Z M20.7167833,12 L10.3333333,12 C10.0765568,12 9.82961979,12.0987748 9.64367816,12.2758621 C9.24374782,12.6567481 9.22830937,13.2897248 9.6091954,13.6896552 L9.6091954,13.6896552 L14.8833287,19.2274952 C14.8981832,19.2430924 14.9135377,19.2582056 14.9293683,19.2728111 C15.3352816,19.6473145 15.9679344,19.6218517 16.3424378,19.2159384 L16.3424378,19.2159384 L21.4517545,13.6780984 C21.6221638,13.4933967 21.7167833,13.2513047 21.7167833,13 C21.7167833,12.4477153 21.2690681,12 20.7167833,12 L20.7167833,12 Z" id="通用下拉框-面备份" fill="#EE5E5E"></path>
        </g>
    </g>
</svg>