<?xml version="1.0" encoding="UTF-8"?>
<svg width="30px" height="30px" viewBox="0 0 30 30" version="1.1" xmlns="http://www.w3.org/2000/svg" xmlns:xlink="http://www.w3.org/1999/xlink">
    <!-- Generator: Sketch 63.1 (92452) - https://sketch.com -->
    <title>label框</title>
    <desc>Created with Sketch.</desc>
    <g id="label框" stroke="none" stroke-width="1" fill="none" fill-rule="evenodd">
        <g id="编组-37">
            <rect id="矩形备份-30" x="0" y="0" width="30" height="30"></rect>
            <path d="M5,3 L25,3 C26.1045695,3 27,3.8954305 27,5 L27,25 C27,26.1045695 26.1045695,27 25,27 L5,27 C3.8954305,27 3,26.1045695 3,25 L3,5 C3,3.8954305 3.8954305,3 5,3 Z M8.5,9 L21.5,9 C22.3284271,9 23,9.67157288 23,10.5 C23,11.3284271 22.3284271,12 21.5,12 L8.5,12 C7.67157288,12 7,11.3284271 7,10.5 C7,9.67157288 7.67157288,9 8.5,9 Z M13.5,12 L16.5,12 L16.5,21.5 C16.5,22.3284271 15.8284271,23 15,23 C14.1715729,23 13.5,22.3284271 13.5,21.5 L13.5,12 L13.5,12 Z" id="数据选择框--面备份" fill="#34C7BE"></path>
        </g>
    </g>
</svg>