<?xml version="1.0" encoding="UTF-8"?>
<svg width="30px" height="30px" viewBox="0 0 30 30" version="1.1" xmlns="http://www.w3.org/2000/svg" xmlns:xlink="http://www.w3.org/1999/xlink">
    <!-- Generator: Sketch 63.1 (92452) - https://sketch.com -->
    <title>数值</title>
    <desc>Created with Sketch.</desc>
    <g id="数值" stroke="none" stroke-width="1" fill="none" fill-rule="evenodd">
        <g id="编组-24">
            <rect id="矩形备份-15" x="0" y="0" width="30" height="30"></rect>
            <path d="M25,3 C26.1045695,3 27,3.8954305 27,5 L27,25 C27,26.1045695 26.1045695,27 25,27 L5,27 C3.8954305,27 3,26.1045695 3,25 L3,5 C3,3.8954305 3.8954305,3 5,3 L25,3 Z M21.288,10.5 C20.448,10.5 19.764,10.728 19.236,11.208 C18.672,11.688 18.36,12.348 18.288,13.2 L19.572,13.2 C19.62,12.672 19.8,12.276 20.088,12.012 C20.376,11.748 20.784,11.616 21.3,11.616 C21.804,11.616 22.2,11.724 22.464,11.964 C22.704,12.192 22.836,12.516 22.836,12.948 C22.836,13.38 22.692,13.716 22.428,13.944 C22.164,14.172 21.768,14.292 21.24,14.292 L20.628,14.292 L20.628,15.276 L21.252,15.276 C21.816,15.276 22.248,15.396 22.536,15.636 C22.848,15.876 23.004,16.248 23.004,16.752 C23.004,17.184 22.848,17.532 22.56,17.82 C22.224,18.132 21.78,18.3 21.228,18.3 C20.724,18.3 20.316,18.156 20.004,17.868 C19.644,17.556 19.464,17.112 19.44,16.536 L18.12,16.536 C18.192,17.496 18.528,18.228 19.128,18.732 C19.656,19.176 20.364,19.404 21.24,19.404 C22.152,19.404 22.908,19.14 23.484,18.636 C24.024,18.132 24.3,17.484 24.3,16.692 C24.3,16.188 24.156,15.768 23.868,15.444 C23.604,15.132 23.22,14.892 22.716,14.736 C23.652,14.424 24.132,13.788 24.132,12.852 C24.132,12.12 23.868,11.544 23.364,11.124 C22.836,10.704 22.152,10.5 21.288,10.5 Z M9.276,10.668 L8.292,10.668 C8.004,10.98 7.644,11.256 7.212,11.52 C6.78,11.76 6.384,11.928 6,12.024 L6,13.32 C6.792,13.092 7.452,12.732 7.968,12.24 L7.968,19.236 L9.276,19.236 L9.276,10.668 Z M14.136,10.5 C13.224,10.5 12.48,10.8 11.928,11.424 C11.388,12 11.112,12.768 11.1,13.728 L12.408,13.728 C12.432,13.032 12.576,12.516 12.864,12.156 C13.14,11.784 13.548,11.604 14.088,11.604 C14.592,11.604 14.988,11.724 15.252,11.964 C15.516,12.204 15.648,12.564 15.648,13.044 C15.648,13.548 15.444,14.016 15.06,14.448 C14.82,14.7 14.412,15.024 13.836,15.432 C12.864,16.104 12.216,16.62 11.904,16.992 C11.328,17.64 11.052,18.384 11.052,19.236 L16.956,19.236 L16.956,18.084 L12.672,18.084 C12.852,17.616 13.404,17.076 14.328,16.464 C15.18,15.888 15.768,15.432 16.104,15.084 C16.656,14.472 16.944,13.8 16.944,13.056 C16.944,12.3 16.68,11.688 16.164,11.208 C15.636,10.728 14.952,10.5 14.136,10.5 Z" id="数字备份" fill="#5A80ED"></path>
        </g>
    </g>
</svg>