<?xml version="1.0" encoding="UTF-8"?>
<svg width="30px" height="30px" viewBox="0 0 30 30" version="1.1" xmlns="http://www.w3.org/2000/svg" xmlns:xlink="http://www.w3.org/1999/xlink">
    <!-- Generator: Sketch 63.1 (92452) - https://sketch.com -->
    <title>搜索框</title>
    <desc>Created with Sketch.</desc>
    <g id="搜索框" stroke="none" stroke-width="1" fill="none" fill-rule="evenodd">
        <g id="编组-35">
            <rect id="矩形备份-28" x="0" y="0" width="30" height="30"></rect>
            <path d="M5,3 L25,3 C26.1045695,3 27,3.8954305 27,5 L27,25 C27,26.1045695 26.1045695,27 25,27 L5,27 C3.8954305,27 3,26.1045695 3,25 L3,5 C3,3.8954305 3.8954305,3 5,3 Z M22.4421199,19.7477443 L19.8620575,17.167896 C20.4039981,16.1864558 20.7142857,15.0579094 20.7142857,13.8569076 C20.7142857,10.0694707 17.6432888,7 13.8560802,7 C10.0688716,7 7,10.0694707 7,13.8569076 C7,17.6443446 10.0688716,20.7138152 13.8560802,20.7138152 C15.0568506,20.7138152 16.1853623,20.4042334 17.1672312,19.8597207 L19.7472936,22.4417647 C20.4911337,23.1860784 21.6982799,23.1860784 22.4421199,22.4417647 C23.18596,21.6996466 23.18596,20.492058 22.4421199,19.7477443 L22.4421199,19.7477443 Z M8.90423059,13.8569076 C8.90423059,11.1255618 11.1251245,8.90359875 13.8560802,8.90359875 C16.5870359,8.90359875 18.8079299,11.1255618 18.8079299,13.8569076 C18.8079299,16.5882535 16.5870359,18.8102165 13.8560802,18.8102165 C11.1251245,18.8102165 8.90423059,16.5882535 8.90423059,13.8569076 Z" id="数据选择框--面备份" fill="#FC8256"></path>
        </g>
    </g>
</svg>