<?xml version="1.0" encoding="UTF-8"?>
<svg width="30px" height="30px" viewBox="0 0 30 30" version="1.1" xmlns="http://www.w3.org/2000/svg" xmlns:xlink="http://www.w3.org/1999/xlink">
    <!-- Generator: Sketch 63.1 (92452) - https://sketch.com -->
    <title>文本提示</title>
    <desc>Created with Sketch.</desc>
    <g id="文本提示" stroke="none" stroke-width="1" fill="none" fill-rule="evenodd">
        <g id="编组-35">
            <rect id="矩形备份-28" x="0" y="0" width="30" height="30"></rect>
            <path d="M15,3 C21.627417,3 27,8.372583 27,15 C27,21.627417 21.627417,27 15,27 C8.372583,27 3,21.627417 3,15 C3,8.372583 8.372583,3 15,3 Z M15,13 C14.1715729,13 13.5,13.6715729 13.5,14.5 L13.5,14.5 L13.5,21.5 C13.5,22.3284271 14.1715729,23 15,23 C15.8284271,23 16.5,22.3284271 16.5,21.5 L16.5,21.5 L16.5,14.5 C16.5,13.6715729 15.8284271,13 15,13 Z M15,7 C13.8954305,7 13,7.8954305 13,9 C13,10.1045695 13.8954305,11 15,11 C16.1045695,11 17,10.1045695 17,9 C17,7.8954305 16.1045695,7 15,7 Z" id="形状结合" fill="#FAB71C"></path>
        </g>
    </g>
</svg>