<?xml version="1.0" encoding="UTF-8"?>
<svg width="30px" height="30px" viewBox="0 0 30 30" version="1.1" xmlns="http://www.w3.org/2000/svg" xmlns:xlink="http://www.w3.org/1999/xlink">
    <!-- Generator: Sketch 63.1 (92452) - https://sketch.com -->
    <title>分割线</title>
    <desc>Created with Sketch.</desc>
    <g id="分割线" stroke="none" stroke-width="1" fill="none" fill-rule="evenodd">
        <g id="编组-28">
            <rect id="矩形备份-23" x="0" y="0" width="30" height="30"></rect>
            <path d="M25.2857143,18.4285714 C26.2324881,18.4285714 27,19.1960833 27,20.1428571 L27,25.2857143 C27,26.2324881 26.2324881,27 25.2857143,27 L4.71428571,27 C3.76751186,27 3,26.2324881 3,25.2857143 L3,20.1428571 C3,19.1960833 3.76751186,18.4285714 4.71428571,18.4285714 L25.2857143,18.4285714 Z M25.2577731,14.1428571 C25.73116,14.1428571 26.1149159,14.5266131 26.1149159,15 C26.1149159,15.4733869 25.73116,15.8571429 25.2577731,15.8571429 L25.2577731,15.8571429 L4.71428571,15.8571429 C4.24089879,15.8571429 3.85714286,15.4733869 3.85714286,15 C3.85714286,14.5266131 4.24089879,14.1428571 4.71428571,14.1428571 L4.71428571,14.1428571 Z M25.2857143,3 C26.2324881,3 27,3.76751186 27,4.71428571 L27,9.85714286 C27,10.8039167 26.2324881,11.5714286 25.2857143,11.5714286 L4.71428571,11.5714286 C3.76751186,11.5714286 3,10.8039167 3,9.85714286 L3,4.71428571 C3,3.76751186 3.76751186,3 4.71428571,3 L25.2857143,3 Z" id="分割线-面备份" fill="#34C7BE"></path>
        </g>
    </g>
</svg>