<?xml version="1.0" encoding="UTF-8"?>
<svg width="30px" height="30px" viewBox="0 0 30 30" version="1.1" xmlns="http://www.w3.org/2000/svg" xmlns:xlink="http://www.w3.org/1999/xlink">
    <!-- Generator: Sketch 63.1 (92452) - https://sketch.com -->
    <title>开关</title>
    <desc>Created with Sketch.</desc>
    <g id="开关" stroke="none" stroke-width="1" fill="none" fill-rule="evenodd">
        <g id="编组-34">
            <rect id="矩形备份-29" x="0" y="0" width="30" height="30"></rect>
            <path d="M21.1923077,7 C25.5043771,7 29,10.4956229 29,14.8076923 L29,15.1923077 C29,19.5043771 25.5043771,23 21.1923077,23 L8.80769231,23 C4.49562291,23 1,19.5043771 1,15.1923077 L1,14.8076923 C1,10.4956229 4.49562291,7 8.80769231,7 L21.1923077,7 Z M21.1923077,9.28571429 C18.1122581,9.28571429 15.6153846,11.8440871 15.6153846,15 C15.6153846,18.1559129 18.1122581,20.7142857 21.1923077,20.7142857 C24.2723573,20.7142857 26.7692308,18.1559129 26.7692308,15 C26.7692308,11.8440871 24.2723573,9.28571429 21.1923077,9.28571429 Z" id="开关备份" fill="#34C7BE"></path>
        </g>
    </g>
</svg>