<?xml version="1.0" encoding="UTF-8"?>
<svg width="30px" height="30px" viewBox="0 0 30 30" version="1.1" xmlns="http://www.w3.org/2000/svg" xmlns:xlink="http://www.w3.org/1999/xlink">
    <title>流程日志</title>
    <g id="流程日志" stroke="none" stroke-width="1" fill="none" fill-rule="evenodd">
        <g id="编组-40">
            <rect id="矩形备份-33" x="0" y="0" width="30" height="30"></rect>
            <path d="M22.3219975,3 C23.7953525,3 24.9898559,4.19396985 24.9903921,5.66666667 L24.9903921,5.66666667 L24.9903921,13.4686097 C24.9903921,13.6184255 24.8319294,13.7141039 24.6984024,13.6460302 C24.5264198,13.5581546 24.3513077,13.4765376 24.1734108,13.40134 C23.1682047,12.9762814 22.1015976,12.760804 21.0033516,12.760804 C19.9051056,12.760804 18.8384985,12.9762814 17.8332924,13.40134 C16.8634789,13.8113903 15.9928723,14.398057 15.245872,15.1447236 C14.4986035,15.8913903 13.9119428,16.761608 13.5017093,17.7309883 C13.0764607,18.7357454 12.8608871,19.801876 12.8608871,20.8996315 C12.8608871,21.9973869 13.0764607,23.0635176 13.5014412,24.0680067 C13.9116747,25.0373869 14.4986035,25.9076047 15.2456038,26.6542714 L15.2456038,26.6542714 C15.3756452,26.7842546 15.2874316,27 15.1085912,27 L15.1085912,27 L5.66785834,27 C4.19450341,27 3,25.8060302 3,24.3333333 L3,24.3333333 L3,5.66666667 C3,4.19396985 4.19450341,3 5.66785834,3 L5.66785834,3 Z M21.0030835,14.9051256 C24.3149816,14.9051256 27,17.5889447 27,20.8996315 C27,24.2103183 24.3152497,26.8941374 21.0030835,26.8941374 C17.6909172,26.8941374 15.0058988,24.2103183 15.0058988,20.8996315 C15.0058988,17.5889447 17.6909172,14.9051256 21.0030835,14.9051256 Z" id="形状结合" fill="#FAB71C" fill-rule="nonzero"></path>
            <path d="M11.3612557,15.4282747 L7.55305552,15.4282747 C6.96076416,15.4282747 6.48054966,14.9482747 6.48054966,14.3562479 C6.48054966,13.7642211 6.96076416,13.2842211 7.55305552,13.2842211 L11.3612557,13.2842211 C11.9535471,13.2842211 12.4337616,13.7642211 12.4337616,14.3562479 C12.4337616,14.9482747 11.9535471,15.4282747 11.3612557,15.4282747 Z" id="路径" fill="#FFFFFF" fill-rule="nonzero"></path>
            <path d="M20.82612,10.2825461 L7.55305552,10.2825461 C6.96076416,10.2825461 6.48054966,9.80254606 6.48054966,9.21051926 C6.48054966,8.61849246 6.96076416,8.13849246 7.55305552,8.13849246 L20.82612,8.13849246 C21.4184114,8.13849246 21.8986259,8.61849246 21.8986259,9.21051926 C21.8986259,9.80254606 21.4184114,10.2825461 20.82612,10.2825461 Z" id="路径" fill="#FFFFFF" fill-rule="nonzero"></path>
            <path d="M20.0058988,17.9051256 C20.5581835,17.9051256 21.0058988,18.3528409 21.0058988,18.9051256 L21.0058988,20.9051256 L23.0058988,20.9051256 C23.5581835,20.9051256 24.0058988,21.3528409 24.0058988,21.9051256 C24.0058988,22.4574104 23.5581835,22.9051256 23.0058988,22.9051256 L20.0058988,22.9051256 L20.0058988,22.9051256 C19.453614,22.9051256 19.0058988,22.4574104 19.0058988,21.9051256 L19.0058988,18.9051256 C19.0058988,18.3528409 19.453614,17.9051256 20.0058988,17.9051256 Z" id="形状结合" fill="#FFFFFF" fill-rule="nonzero"></path>
        </g>
    </g>
</svg>