<?xml version="1.0" encoding="UTF-8"?>
<svg width="30px" height="30px" viewBox="0 0 30 30" version="1.1" xmlns="http://www.w3.org/2000/svg" xmlns:xlink="http://www.w3.org/1999/xlink">
    <!-- Generator: Sketch 63.1 (92452) - https://sketch.com -->
    <title>关联资料</title>
    <desc>Created with Sketch.</desc>
    <g id="关联资料" stroke="none" stroke-width="1" fill="none" fill-rule="evenodd">
        <g id="编组-24">
            <rect id="矩形备份-15" x="0" y="0" width="30" height="30"></rect>
            <path d="M22.5,3 C23.6045695,3 24.5,3.8954305 24.5,5 L24.5010816,14.0336288 C23.0891617,13.387439 21.3784805,13.6062287 20.1688724,14.6899976 L20.0071068,14.8431458 L13.6431458,21.2071068 C12.1331185,22.717134 12.0827842,25.1340983 13.492143,26.704588 L13.6431458,26.863961 L13.78,27 L6.5,27 C5.3954305,27 4.5,26.1045695 4.5,25 L4.5,5 C4.5,3.8954305 5.3954305,3 6.5,3 L22.5,3 Z M21.8439899,18.8816172 L21.980344,18.9812116 C22.0971935,19.0644339 22.207263,19.1565743 22.3095419,19.256787 C22.8502139,19.7892217 23.153669,20.5126891 23.1526815,21.2669002 C23.1538575,22.0136904 22.856668,22.7307634 22.3256981,23.2622682 L22.3095419,23.2783153 L19.385118,26.1669474 C18.8376103,26.7041738 18.1053083,26.998386 17.3528684,26.998386 C16.5890353,26.999747 15.8560523,26.7007259 15.3157204,26.1673153 C14.7752442,25.6337652 14.4717422,24.909744 14.4721279,24.1548814 C14.4715772,23.4083345 14.7684158,22.6915619 15.2984756,22.1595135 L15.3146032,22.143438 L17.0313254,20.4506074 C17.0176921,20.4905021 16.9781316,20.6795473 16.9126441,21.0177428 C16.8144128,21.5250361 16.8144128,22.1487021 17.1563294,22.8087304 L17.1667851,22.8287399 L17.2339596,22.9562399 L17.1311783,23.0578436 L16.684418,23.4961267 C16.5030326,23.6760984 16.4089884,23.9051738 16.4089884,24.1548814 C16.4069053,24.4016937 16.5060211,24.6388308 16.6837591,24.8122776 C16.8651445,24.9902399 17.0996106,25.0845418 17.3515507,25.0845418 C17.5960715,25.0851078 17.8309386,24.9911455 18.0061938,24.8231172 L18.0166495,24.8129285 L18.9249227,23.9151361 L20.5198365,22.3413248 L20.9403859,21.9263059 C21.1173379,21.7515517 21.2167178,21.5149422 21.216503,21.2682304 C21.2158155,21.0191738 21.1211124,20.7887965 20.9403859,20.6094757 C20.870977,20.5408719 20.7856125,20.4868719 20.673063,20.435787 L20.657537,20.4288531 L20.393537,20.3126455 L21.8439899,18.8816172 Z M23.048862,15.6775676 C23.8137251,15.675894 24.5476828,15.9755618 25.0881585,16.5102304 C25.6283394,17.0435829 25.9314159,17.7674408 25.9304649,18.5219568 C25.9310657,19.2681295 25.6339766,19.9844699 25.1035986,20.5156833 L25.087471,20.5317021 L23.4447558,22.1532532 C23.4864253,22.0351405 23.5318798,21.8202761 23.5811191,21.50866 C23.6549782,21.0412358 23.588578,20.5270889 23.2467474,19.8665512 L23.2362917,19.8465135 L23.1691172,19.7190418 L23.2725286,19.617438 L23.7178853,19.1792682 C23.8985832,18.9999757 23.9932863,18.7695984 23.9932863,18.5219568 C23.9932863,18.2729568 23.8978957,18.0412493 23.7185728,17.8639663 C23.5378749,17.6853814 23.3034661,17.5917587 23.0522422,17.5911078 C22.8067188,17.5917587 22.5760053,17.6816738 22.3974559,17.8527304 L22.3865705,17.8633153 L21.849232,18.3931267 L21.76593,18.4761361 L19.4633784,20.7501644 C19.2833393,20.9267682 19.1879774,21.1598059 19.1879774,21.4067965 C19.186292,21.6542116 19.285565,21.8918647 19.4633784,22.0660889 C19.5407918,22.1389723 19.6307581,22.1976099 19.7290398,22.2392399 L19.7454825,22.2460323 L20.0108001,22.3602304 L18.5619515,23.7943436 L18.4249385,23.6947493 C18.3026781,23.6064474 18.1938526,23.5168153 18.0944516,23.4192304 C17.5537518,22.886435 17.2499153,22.1629521 17.2499153,21.4084663 C17.2499153,20.6618216 17.5474855,19.9452044 18.0782953,19.4137493 L18.0944516,19.3977021 L21.0190187,16.5075135 C21.5644352,15.9717304 22.2972528,15.6775676 23.048862,15.6775676 Z M14.8,11 L9.8,11 C9.24771525,11 8.8,11.4477153 8.8,12 C8.8,12.5128358 9.18604019,12.9355072 9.68337887,12.9932723 L9.8,13 L14.8,13 C15.3522847,13 15.8,12.5522847 15.8,12 C15.8,11.4477153 15.3522847,11 14.8,11 Z M19.8,7 L9.8,7 C9.24771525,7 8.8,7.44771525 8.8,8 C8.8,8.51283584 9.18604019,8.93550716 9.68337887,8.99327227 L9.8,9 L19.8,9 C20.3522847,9 20.8,8.55228475 20.8,8 C20.8,7.44771525 20.3522847,7 19.8,7 Z" id="形状结合" fill="#34C7BE"></path>
        </g>
    </g>
</svg>