<?xml version="1.0" encoding="UTF-8"?>
<svg width="30px" height="30px" viewBox="0 0 30 30" version="1.1" xmlns="http://www.w3.org/2000/svg" xmlns:xlink="http://www.w3.org/1999/xlink">
    <!-- Generator: Sketch 63.1 (92452) - https://sketch.com -->
    <title>人员</title>
    <desc>Created with Sketch.</desc>
    <g id="人员" stroke="none" stroke-width="1" fill="none" fill-rule="evenodd">
        <g id="编组-44">
            <rect id="矩形备份-37" x="0" y="0" width="30" height="30"></rect>
            <path d="M13.5422727,15.3622734 C13.6268182,15.1883822 13.8272727,15.108337 14.0086364,15.1732012 C17.2159091,16.3200552 19.5136364,19.4142149 19.5136364,23.0521297 L19.5136364,23.0521297 L19.5136364,23.5020388 C19.5136364,25.2671727 14.2922727,26 11.2568182,26 C8.22136364,26 3,25.2671727 3,23.5020388 L3,23.5020388 L3,23.0521297 C3,19.4142149 5.29772727,16.3200552 8.505,15.1732012 C8.685,15.1097171 8.88545455,15.1883822 8.97136364,15.3622734 L8.97136364,15.3622734 L10.8736364,20.2146666 C11.0113636,20.5652092 11.5022727,20.5652092 11.64,20.2146666 L11.64,20.2146666 Z M20.2690909,15.0669343 C23.9863636,15.0669343 27,18.1169312 27,21.8762938 L27,21.8762938 L27,22.2433975 C27,23.52136 23.6454545,24.1354997 21.1609091,24.2569475 C21.2304545,24.0154319 21.2686364,23.7642557 21.2686364,23.4992786 L21.2686364,23.4992786 L21.2686364,23.0521297 C21.2686364,20.0932187 19.9977273,17.370303 17.9209091,15.4933818 C18.6518182,15.2187441 19.4427273,15.0669343 20.2690909,15.0669343 Z M11.2568182,4 C13.986109,4 16.1986364,6.23922222 16.1986364,9.00144282 C16.1986364,10.7882863 15.2567312,12.4393977 13.7277273,13.3328194 C12.1987234,14.2262411 10.3149129,14.2262411 8.78590907,13.3328194 C7.25690519,12.4393977 6.315,10.7882863 6.315,9.00144282 C6.315,6.23922222 8.52752736,4 11.2568182,4 Z M20.2690909,5.42149175 C22.4931818,5.42149175 24.2972727,7.24596951 24.2972727,9.49827489 C24.2972727,11.7492002 22.4945455,13.575058 20.2690909,13.575058 C19.0363636,13.575058 17.9331818,13.0133618 17.1940909,12.1314849 C17.6781818,11.1957845 17.9536364,10.1317358 17.9536364,9.00282291 C17.9538026,8.16130373 17.7984019,7.32718107 17.4954545,6.54350417 C18.2181818,5.84931937 19.1931818,5.42149175 20.2690909,5.42149175 Z" id="形状结合" fill="#EE5E5E"></path>
        </g>
    </g>
</svg>