<?xml version="1.0" encoding="UTF-8"?>
<svg width="30px" height="30px" viewBox="0 0 30 30" version="1.1" xmlns="http://www.w3.org/2000/svg" xmlns:xlink="http://www.w3.org/1999/xlink">
    <!-- Generator: Sketch 63.1 (92452) - https://sketch.com -->
    <title>地址</title>
    <desc>Created with Sketch.</desc>
    <g id="地址" stroke="none" stroke-width="1" fill="none" fill-rule="evenodd">
        <g id="编组-40">
            <rect id="矩形备份-33" x="0" y="0" width="30" height="30"></rect>
            <path d="M15.3355155,26.3228474 C19.3112773,26.3409825 22.484972,26.7093308 22.484972,27.1610738 C22.484972,27.6244 19.1464371,28 15.0281457,28 C10.9098542,28 7.5713194,27.6244 7.5713194,27.1610738 C7.5713194,26.6977477 10.9098542,26.3221477 15.0281457,26.3221477 Z M7.29886525,6.54760905 C11.2886959,1.81746365 18.7098094,1.81746365 22.69964,6.54760905 L22.69964,6.54760905 C25.5952313,9.97741888 25.8066509,14.2447567 23.0524821,17.7850252 C21.2882713,20.051524 19.1969315,22.8381571 16.7856053,24.7578999 C15.7458251,25.5791527 14.2607342,25.5762373 13.224328,24.7509088 C10.8844273,22.8828999 8.8573705,20.2165128 7.16172822,18.1289849 C4.23899516,14.5299916 4.28327901,10.1228328 7.27458058,6.57697147 L7.27458058,6.57697147 Z M14.9999669,8.5931907 C12.6331327,8.5931907 10.7144345,10.4711909 10.7144345,12.7878216 C10.7144345,15.1044522 12.6331327,16.9824524 14.9999669,16.9824524 C17.366801,16.9824524 19.2854992,15.1044522 19.2854992,12.7878216 C19.2854992,10.4711909 17.366801,8.5931907 14.9999669,8.5931907 Z" id="地理位置备份" fill="#5A80ED"></path>
        </g>
    </g>
</svg>