<?xml version="1.0" encoding="UTF-8"?>
<svg width="60px" height="60px" viewBox="0 0 60 60" version="1.1" xmlns="http://www.w3.org/2000/svg" xmlns:xlink="http://www.w3.org/1999/xlink">
    <!-- Generator: Sketch 63.1 (92452) - https://sketch.com -->
    <title>知识库(60)/最近(常态)</title>
    <desc>Created with Sketch.</desc>
    <g id="知识库(60)/最近(常态)" stroke="none" stroke-width="1" fill="none" fill-rule="evenodd">
        <g id="编组">
            <rect id="Rectangle-26-Copy" x="0" y="0" width="60" height="60"></rect>
            <path d="M28.0891599,11.321531 L11.1099869,25.0957638 C10.4078067,25.6654025 10,26.5213564 10,27.4255385 L10,46.8823529 C10,48.5392072 11.3431458,49.8823529 13,49.8823529 L45.873609,49.8823529 C47.5304632,49.8823529 48.873609,48.5392072 48.873609,46.8823529 L48.873609,27.4061734 C48.873609,26.5353587 48.4952262,25.7075147 47.8367447,25.1376721 L31.9423088,11.3828045 C30.8425703,10.4311031 29.2186029,10.4052784 28.0891599,11.321531 Z M29.958,14.955 L44.873,27.863 L44.873,45.882 L13.999,45.882 L13.999,27.903 L29.958,14.955 Z" id="路径-2" fill="#BBC3CD" fill-rule="nonzero"></path>
            <path d="M37.1584515,35.5204338 C38.263021,35.5204338 39.1584515,36.4158643 39.1584515,37.5204338 C39.1584515,38.5747956 38.3425737,39.4385989 37.3077138,39.5149481 L37.1584515,39.5204338 L22.2127598,39.5204338 C21.1081903,39.5204338 20.2127598,38.6250033 20.2127598,37.5204338 C20.2127598,36.466072 21.0286376,35.6022687 22.0634974,35.5259195 L22.2127598,35.5204338 L37.1584515,35.5204338 Z" id="路径-3" fill="#BBC3CD" fill-rule="nonzero"></path>
        </g>
    </g>
</svg>