<?xml version="1.0" encoding="UTF-8"?>
<svg width="28px" height="32px" viewBox="0 0 28 32" version="1.1" xmlns="http://www.w3.org/2000/svg" xmlns:xlink="http://www.w3.org/1999/xlink">
    <!-- Generator: Sketch 63.1 (92452) - https://sketch.com -->
    <title>浙政钉</title>
    <desc>Created with Sketch.</desc>
    <g id="优化" stroke="none" stroke-width="1" fill="none" fill-rule="evenodd">
        <g id="1.1-登录页-账号密码登录-浙政钉登录" transform="translate(-796.000000, -170.000000)" fill-rule="nonzero">
            <g id="编组-9">
                <g id="编组-8" transform="translate(255.000000, 108.750000)">
                    <g id="编组-4" transform="translate(541.000000, 60.000000)">
                        <g id="编组">
                            <g id="浙政钉" transform="translate(0.000000, 2.000000)">
                                <path d="M15.9831809,0.521971244 L26.0099608,6.20670409 C27.2411993,6.90474301 28,8.19677657 28,9.59526838 L28,20.9501088 C28,22.3486006 27.2411993,23.6406342 26.0099608,24.3386731 L15.9831809,30.023406 C14.7556064,30.7193676 13.2443936,30.7193676 12.0168191,30.023406 L1.99003918,24.3386731 C0.758800712,23.6406342 -8.8171894e-14,22.3486006 -8.8171894e-14,20.9501088 L-8.8171894e-14,9.59526838 C-8.8171894e-14,8.19677657 0.758800712,6.90474301 1.99003918,6.20670409 L12.0168191,0.521971244 C13.2443936,-0.173990415 14.7556064,-0.173990415 15.9831809,0.521971244 Z" id="路径" fill="#4689F5"></path>
                                <path d="M13.9750152,6.45420877 C10.17643,6.43606571 6.45575371,7.53118752 3.2726871,9.60426855 C3.09695283,14.9240174 5.16129272,20.0734394 8.96304505,23.7986629 C10.3292415,25.165472 11.8881751,26.3249123 13.5902579,27.2401032 C15.5932544,26.2756 17.4189649,24.979726 18.9903603,23.4071554 C22.6908753,19.7779644 24.7505089,14.796081 24.6930935,9.61326872 C21.5079766,7.53325932 17.782482,6.43368296 13.9783902,6.4506361 L13.9750152,6.45420877 Z" id="路径" fill="#FFFFFF"></path>
                                <path d="M8.01015197,8.81787863 C8.01015197,8.81787863 11.8352245,10.5717869 14.4587743,11.5336802 C17.0823241,12.4955734 19.3548672,12.9860827 19.0612367,14.2337314 C19.0167462,14.3886678 18.9583841,14.5392797 18.8868584,14.6837399 L18.8756081,14.7017403 C18.3693485,15.7885109 17.0485735,17.9159263 17.0485735,17.9159263 C17.0465776,17.911433 17.0439234,17.9072621 17.0406983,17.903551 L16.654816,18.5785638 L18.5156013,18.5785638 L14.9639089,23.3149037 L15.7716742,20.0917175 L14.3102715,20.0917175 L14.8176561,17.954177 C14.3211467,18.0771793 13.8295124,18.217432 13.3427531,18.374935 C12.8567439,18.533563 12.5619883,18.8328187 11.0927105,17.4940432 C11.0927105,17.4940432 10.1038167,16.6199017 10.6775776,16.4027725 C11.3119617,16.2623905 11.953915,16.1587163 12.6002391,16.0922666 C13.599258,15.9561391 14.2146447,15.8852627 14.2146447,15.8852627 C14.2146447,15.8852627 11.1343362,15.9302636 10.4030724,15.8166364 C9.67180853,15.7030093 8.74479092,14.477861 8.54678717,13.4023406 C8.54678717,13.4023406 8.24190639,12.8117044 9.20379964,13.0918347 C10.1656929,13.3719651 14.1538936,14.1797304 14.1538935,14.1797304 C12.2717324,13.6378149 10.4262814,12.9756922 8.62891372,12.1974428 C8.03203235,11.2412207 7.71120324,10.1385653 7.70189613,9.01138229 C7.70999769,8.94101139 7.74953949,8.87809785 7.8094355,8.8402803 C7.86933151,8.80246274 7.94313417,8.79381207 8.01015197,8.81675361 L8.01015197,8.81787863 Z" id="路径" fill="#4689F5"></path>
                            </g>
                        </g>
                    </g>
                </g>
            </g>
        </g>
    </g>
</svg>