<?xml version="1.0" encoding="UTF-8"?>
<svg width="80px" height="80px" viewBox="0 0 80 80" version="1.1" xmlns="http://www.w3.org/2000/svg" xmlns:xlink="http://www.w3.org/1999/xlink">
    <!-- Generator: Sketch 63.1 (92452) - https://sketch.com -->
    <title>微信登录</title>
    <desc>Created with Sketch.</desc>
    <g id="微信登录" stroke="none" stroke-width="1" fill="none" fill-rule="evenodd">
        <g id="微信备份">
            <circle id="椭圆形" fill="#07CC65" cx="40" cy="40" r="40"></circle>
            <path d="M49.464449,32.8924008 C49.9808361,32.8924008 50.4907871,32.9296628 50.9980911,32.9853265 C49.6202112,26.682328 42.7594623,22 34.9276005,22 C26.1725327,22 19,27.8610021 19,35.3034248 C19,39.59942 21.3860518,43.1271337 25.3741025,45.8632195 L23.7811867,50.5689446 L29.3478797,47.8265889 C31.3412822,48.214196 32.9392845,48.6118959 34.9275486,48.6118959 C35.427119,48.6118959 35.9229003,48.5878871 36.414789,48.5499624 C36.1031609,47.5040758 35.9229003,46.4088462 35.9229003,45.2726335 C35.9230042,38.4384339 41.8979694,32.8924008 49.464449,32.8924008 Z M40.8999187,28.6513555 C42.0988875,28.6513555 42.8933212,29.425958 42.8933212,30.6033068 C42.8933212,31.7757111 42.0988356,32.5609671 40.8999187,32.5609671 C39.706192,32.5609671 38.5086765,31.7756602 38.5086765,30.6033068 C38.5087284,29.425958 39.706244,28.6513555 40.8999187,28.6513555 Z M29.7536087,32.5610181 C28.5598302,32.5610181 27.3545811,31.7757111 27.3545811,30.6033577 C27.3545811,29.4260089 28.5598821,28.6514065 29.7536087,28.6514065 C30.9472834,28.6514065 31.7418209,29.4260089 31.7418209,30.6033577 C31.7418209,31.7757111 30.9472834,32.5610181 29.7536087,32.5610181 Z M64,45.0842333 C64,38.8305266 57.6285446,33.7327088 50.471479,33.7327088 C42.8933731,33.7327088 36.9248438,38.8305266 36.9248438,45.0842333 C36.9248438,51.3492561 42.8933731,56.4356048 50.471479,56.4356048 C52.0579069,56.4356048 53.6585562,56.0422377 55.2514201,55.6502978 L59.6193519,58 L58.4217325,54.0910001 C61.6191385,51.7355378 64,48.6118959 64,45.0842333 Z M46.0803465,43.1271336 C45.2871586,43.1271336 44.4861851,42.3525822 44.4861851,41.5621777 C44.4861851,40.7825289 45.2871586,39.9977826 46.0803465,39.9977826 C47.2844019,39.9977826 48.073749,40.7825798 48.073749,41.5621777 C48.073749,42.3525822 47.2844019,43.1271336 46.0803465,43.1271336 Z M54.8406046,43.1271336 C54.0525032,43.1271336 53.2580696,42.3525822 53.2580696,41.5621777 C53.2580696,40.7825289 54.0525551,39.9977826 54.8406046,39.9977826 C56.0343312,39.9977826 56.8339033,40.7825798 56.8339033,41.5621777 C56.8339552,42.3525822 56.0343312,43.1271336 54.8406046,43.1271336 Z" id="形状" fill="#FFFFFF" fill-rule="nonzero"></path>
        </g>
    </g>
</svg>