<?xml version="1.0" encoding="UTF-8"?>
<svg width="80px" height="80px" viewBox="0 0 80 80" version="1.1" xmlns="http://www.w3.org/2000/svg" xmlns:xlink="http://www.w3.org/1999/xlink">
    <!-- Generator: Sketch 63.1 (92452) - https://sketch.com -->
    <title>账号</title>
    <desc>Created with Sketch.</desc>
    <g id="账号" stroke="none" stroke-width="1" fill="none" fill-rule="evenodd">
        <g id="账号备份">
            <circle id="椭圆形备份-2" fill="#FF6D4B" cx="40" cy="40" r="40"></circle>
            <path d="M33.6364938,37.3647181 C36.2116273,39.9389332 40.0823849,40.7079106 43.4447891,39.3132662 C46.8071932,37.9186219 48.9995084,34.6348277 49,30.9923054 C49.0004914,27.3497831 46.8090625,24.0653964 43.4470348,22.6698434 C41.2830637,21.7767189 38.7217411,21.7767189 36.5577699,22.6698434 C33.7799389,23.8214863 31.7598895,26.2848287 31.1732026,29.236036 C30.5865156,32.1872432 31.5106325,35.236762 33.6364938,37.3647181 L33.6364938,37.3647181 Z M31,43 L49,43 C53.418278,43 57,46.581722 57,51 C57,55.418278 53.418278,59 49,59 L31,59 C26.581722,59 23,55.418278 23,51 C23,46.581722 26.581722,43 31,43 Z" id="形状" fill="#FFFFFF" fill-rule="nonzero"></path>
        </g>
    </g>
</svg>