<?xml version="1.0" encoding="UTF-8"?>
<svg width="30px" height="30px" viewBox="0 0 30 30" version="1.1" xmlns="http://www.w3.org/2000/svg" xmlns:xlink="http://www.w3.org/1999/xlink">
    <!-- Generator: Sketch 63.1 (92452) - https://sketch.com -->
    <title>查询区</title>
    <desc>Created with Sketch.</desc>
    <g id="查询区" stroke="none" stroke-width="1" fill="none" fill-rule="evenodd">
        <g id="编组-39">
            <rect id="矩形备份-32" x="0" y="0" width="30" height="30"></rect>
            <path d="M7,3 C8.1045695,3 9,3.8954305 9,5 L9,25 C9,26.1045695 8.1045695,27 7,27 L5,27 C3.8954305,27 3,26.1045695 3,25 L3,5 C3,3.8954305 3.8954305,3 5,3 L7,3 Z M25,3 C26.1045695,3 27,3.8954305 27,5 L27,25 C27,26.1045695 26.1045695,27 25,27 L13,27 C11.8954305,27 11,26.1045695 11,25 L11,5 C11,3.8954305 11.8954305,3 13,3 L25,3 Z" id="形状结合" fill="#FAB71C"></path>
            <path d="M26.58159,24.5608083 L24.6465431,22.625922 C25.0529986,21.8898418 25.2857143,21.043432 25.2857143,20.1426807 C25.2857143,17.302103 22.9824666,15 20.1420602,15 C17.3016537,15 15,17.302103 15,20.1426807 C15,22.9832584 17.3016537,25.2853614 20.1420602,25.2853614 C21.042638,25.2853614 21.8890217,25.0531751 22.6254234,24.6447906 L24.5604702,26.5813235 C25.1183503,27.1395588 26.0237099,27.1395588 26.58159,26.5813235 C27.13947,26.024735 27.13947,25.1190435 26.58159,24.5608083 L26.58159,24.5608083 Z M16.4281729,20.1426807 C16.4281729,18.0941713 18.0938434,16.4276991 20.1420602,16.4276991 C22.1902769,16.4276991 23.8559474,18.0941713 23.8559474,20.1426807 C23.8559474,22.1911901 22.1902769,23.8576624 20.1420602,23.8576624 C18.0938434,23.8576624 16.4281729,22.1911901 16.4281729,20.1426807 Z" id="形状" fill="#FFFFFF" fill-rule="nonzero"></path>
        </g>
    </g>
</svg>