<?xml version="1.0" encoding="UTF-8"?>
<svg width="135px" height="30px" viewBox="0 0 135 30" version="1.1" xmlns="http://www.w3.org/2000/svg" xmlns:xlink="http://www.w3.org/1999/xlink">
    <title>编组 11</title>
    <g id="设计配置" stroke="none" stroke-width="1" fill="none" fill-rule="evenodd">
        <g id="1.13-菜单设计-原型模式" transform="translate(-1085.000000, -54.000000)">
            <g id="编组-11" transform="translate(1085.000000, 54.000000)">
                <path d="M4,0 L135,0 L135,0 L125,30 L4,30 C1.790861,30 2.705415e-16,28.209139 0,26 L0,4 C-2.705415e-16,1.790861 1.790861,4.05812251e-16 4,0 Z" id="矩形" fill="#E5F0FF"></path>
                <g id="原型" transform="translate(10.000000, 8.000000)" fill-rule="nonzero">
                    <path d="M1,0 L12.8900372,0 C13.442322,6.57557125e-16 13.8900372,0.44771525 13.8900372,1 L13.8900372,1.78032245 C13.8900372,2.3326072 13.442322,2.78032245 12.8900372,2.78032245 L1,2.78032245 C0.44771525,2.78032245 2.01876771e-16,2.3326072 0,1.78032245 L0,1 C-1.78657678e-16,0.44771525 0.44771525,-9.5692398e-18 1,0 Z" id="路径" fill="#95BCFA"></path>
                    <path d="M4.19780075,5.10890451 L4.19780075,12.6550641 C4.19780075,13.2073488 3.7500855,13.6550641 3.19780075,13.6550641 L1,13.6550641 C0.44771525,13.6550641 6.76353751e-17,13.2073488 0,12.6550641 L0,5.10913601 C5.51498086e-05,4.5568728 0.447736789,4.10916647 0.999999998,4.10908086 L3.19780075,4.10895966 C3.7500855,4.10887405 4.19782544,4.55656461 4.19785589,5.10884936 C4.1978559,5.10886774 4.1978559,5.10888613 4.19780075,5.10890451 Z" id="路径" fill="#75A7F8"></path>
                    <path d="M13.7356263,5.10890451 L13.7356263,12.6550641 C13.7356263,13.2073488 13.287911,13.6550641 12.7356263,13.6550641 L6.37081438,13.6550641 C5.81852963,13.6550641 5.37081438,13.2073488 5.37081438,12.6550641 L5.37081438,5.10913601 C5.37084206,4.55686207 5.81854044,4.1091513 6.37081438,4.10910834 L12.7356263,4.10893219 C13.287911,4.10888923 13.7356387,4.55659209 13.735654,5.10887683 C13.735654,5.10888606 13.735654,5.10889529 13.7356263,5.10890451 Z" id="路径" fill="#4689F5"></path>
                </g>
            </g>
        </g>
    </g>
</svg>