<?xml version="1.0" encoding="UTF-8"?>
<svg width="72px" height="20px" viewBox="0 0 72 20" version="1.1" xmlns="http://www.w3.org/2000/svg" xmlns:xlink="http://www.w3.org/1999/xlink">
    <!-- Generator: Sketch 63.1 (92452) - https://sketch.com -->
    <title>编组 16</title>
    <desc>Created with Sketch.</desc>
    <defs>
        <linearGradient x1="7.70093385%" y1="46.1419753%" x2="100%" y2="53.8580247%" id="linearGradient-1">
            <stop stop-color="#6D5625" offset="0%"></stop>
            <stop stop-color="#C7A55C" offset="77.7634079%"></stop>
            <stop stop-color="#9A7A34" offset="100%"></stop>
        </linearGradient>
        <linearGradient x1="15.2312112%" y1="24.1802591%" x2="77.9681028%" y2="74.3336589%" id="linearGradient-2">
            <stop stop-color="#D4BB62" offset="0%"></stop>
            <stop stop-color="#F1D98F" offset="27.6672093%"></stop>
            <stop stop-color="#FFFDF8" offset="45.4088074%"></stop>
            <stop stop-color="#ECC963" offset="69.7318412%"></stop>
            <stop stop-color="#C19B3A" offset="100%"></stop>
        </linearGradient>
        <path d="M13.8323771,4 C14.0992621,4 14.3552091,4.11170967 14.528028,4.30616724 L14.528028,4.30616724 L17.7831491,7.86432711 C18.0740974,8.18911264 18.0719098,8.66698178 17.7787739,8.98762991 L17.7787739,8.98762991 L11.690735,15.7502024 C11.3407219,16.081194 10.6647593,16.0853314 10.3103711,15.7502024 L10.3103711,15.7502024 L4.22233216,8.98762991 C3.92919626,8.66491308 3.92482109,8.18911264 4.21576941,7.86432711 L4.21576941,7.86432711 L7.4708905,4.30616724 C7.64370942,4.11170967 7.89746886,4 8.16654137,4 L8.16654137,4 Z M8.42030081,7.96983069 L6.96337162,7.96983069 C6.88243111,7.96983069 6.81680367,8.03189162 6.81680367,8.10843343 L6.81680367,8.10843343 L6.81680367,8.84488977 C6.81680367,8.92143159 6.88243111,8.98349251 6.96337162,8.98349251 L6.96337162,8.98349251 L7.10993957,8.98349251 C7.30463431,8.98349251 7.30463431,9.02900386 7.40088789,9.12209525 C8.13154007,9.99715434 10.9972717,13.631856 10.9972717,13.631856 C10.9972717,13.631856 13.9133176,9.99715434 14.5936554,9.12209525 C14.689909,9.02900386 14.689909,8.98349251 14.8846038,8.98349251 L14.8846038,8.98349251 L15.0311717,8.98349251 C15.1296129,8.98349251 15.1777397,8.89040112 15.2258665,8.84488977 L15.2258665,8.84488977 L15.2214913,8.84488977 L15.2214913,8.10843343 C15.2214913,8.03189162 15.1558639,7.96983069 15.0749233,7.96983069 L15.0749233,7.96983069 L13.6179942,7.96983069 C13.5217406,7.96983069 13.4232994,7.96983069 13.3270458,8.10843343 L13.3270458,8.10843343 L11.0432109,11.1907929 L8.71124913,8.10843343 C8.61499555,7.96983069 8.51655439,7.96983069 8.42030081,7.96983069 L8.42030081,7.96983069 Z" id="path-3"></path>
        <filter x="-14.3%" y="-8.3%" width="128.6%" height="133.3%" filterUnits="objectBoundingBox" id="filter-4">
            <feOffset dx="0" dy="1" in="SourceAlpha" result="shadowOffsetOuter1"></feOffset>
            <feGaussianBlur stdDeviation="0.5" in="shadowOffsetOuter1" result="shadowBlurOuter1"></feGaussianBlur>
            <feColorMatrix values="0 0 0 0 0.380434783   0 0 0 0 0.312105612   0 0 0 0 0.13444977  0 0 0 0.495137675 0" type="matrix" in="shadowBlurOuter1"></feColorMatrix>
        </filter>
    </defs>
    <g id="组件" stroke="none" stroke-width="1" fill="none" fill-rule="evenodd">
        <g id="菜单栏/-深-蓝色备份" transform="translate(-1354.000000, -15.000000)">
            <g id="菜单栏/顶部备份">
                <g id="编组-14" transform="translate(1156.000000, 0.000000)">
                    <g id="编组-9" transform="translate(64.000000, 0.000000)">
                        <g id="编组-16" transform="translate(134.000000, 15.000000)">
                            <path d="M2,0 L70,0 C71.1045695,-2.02906125e-16 72,0.8954305 72,2 L72,18 C72,19.1045695 71.1045695,20 70,20 L2,20 C0.8954305,20 1.3527075e-16,19.1045695 0,18 L0,2 C-1.3527075e-16,0.8954305 0.8954305,2.02906125e-16 2,0 Z" id="矩形" fill="url(#linearGradient-1)"></path>
                            <path d="M2,0 L26,0 L26,0 L18,20 L2,20 C0.8954305,20 1.3527075e-16,19.1045695 0,18 L0,2 C-1.3527075e-16,0.8954305 0.8954305,2.02906125e-16 2,0 Z" id="矩形" fill="#BA9850"></path>
                            <path d="M35.712,15.332 L36.336,14.348 C35.736,14.084 35.112,13.832 34.464,13.592 C35.616,12.764 36.468,11.948 37.02,11.132 L37.02,10.148 L31.464,10.148 C31.608,9.728 31.74,9.284 31.884,8.804 L38.424,8.804 L38.424,7.712 L32.184,7.712 C32.28,7.328 32.376,6.92 32.472,6.5 L37.716,6.5 L37.716,5.432 L32.7,5.432 C32.772,5.024 32.856,4.592 32.94,4.148 L31.764,4.052 L31.488,5.432 L31.488,5.432 L28.392,5.432 L28.392,6.5 L31.248,6.5 L30.948,7.712 L30.948,7.712 L27.576,7.712 L27.576,8.804 L30.636,8.804 C30.384,9.632 30.12,10.424 29.832,11.192 L35.64,11.192 C35.052,11.864 34.248,12.512 33.228,13.16 C32.46,12.896 31.656,12.668 30.816,12.452 L30.216,13.34 C32.088,13.82 33.924,14.492 35.712,15.332 Z M50.352,14.804 L50.352,13.688 L46.848,13.688 L46.848,4.256 L45.708,4.256 L45.708,13.688 L44.268,13.688 L44.268,4.256 L43.128,4.256 L43.128,13.688 L39.648,13.688 L39.648,14.804 L50.352,14.804 Z M41.448,12.236 L42.492,11.972 C42.012,9.908 41.472,8.072 40.86,6.464 L39.888,6.776 C40.512,8.528 41.04,10.352 41.448,12.236 Z M48.336,12.188 C49.056,10.64 49.644,8.84 50.1,6.776 L49.092,6.488 C48.588,8.648 47.988,10.436 47.316,11.828 L48.336,12.188 Z M57.648,15.272 C58.512,14.804 59.256,14.216 59.88,13.52 C60.456,14.24 61.164,14.828 62.016,15.26 L62.58,14.264 C61.8,13.868 61.14,13.304 60.588,12.584 C61.308,11.48 61.788,10.124 62.052,8.54 L62.052,7.568 L57.672,7.568 L57.672,5.972 C59.376,5.9 60.912,5.66 62.304,5.252 L61.752,4.232 C60.24,4.712 58.536,4.964 56.628,5 L56.628,9.656 C56.58,11.648 56.268,13.22 55.668,14.348 L56.448,15.176 C57.216,13.808 57.624,11.96 57.672,9.656 L57.672,8.648 L57.948,8.648 C58.188,10.184 58.608,11.48 59.22,12.548 C58.644,13.22 57.948,13.796 57.108,14.264 L57.648,15.272 Z M55.608,15.188 L55.608,9.92 L53.304,9.92 C53.316,9.608 53.328,9.284 53.328,8.948 L53.328,8.492 L56.028,8.492 L56.028,7.376 L55.452,7.376 L55.452,4.292 L54.336,4.292 L54.336,7.376 L53.328,7.376 L53.328,4.532 L52.212,4.532 L52.212,8.948 C52.2,11.396 51.936,13.172 51.432,14.3 L52.296,15.044 C52.776,14.108 53.1,12.764 53.244,11.012 L54.492,11.012 L54.492,15.188 L55.608,15.188 Z M59.928,11.54 C59.496,10.724 59.184,9.752 58.968,8.648 L60.96,8.648 C60.768,9.728 60.42,10.688 59.928,11.54 Z" id="专业版" fill="#FFF8DF" fill-rule="nonzero"></path>
                            <g id="形状结合" fill-rule="nonzero">
                                <use fill="black" fill-opacity="1" filter="url(#filter-4)" xlink:href="#path-3"></use>
                                <use fill="url(#linearGradient-2)" xlink:href="#path-3"></use>
                            </g>
                            <polygon id="星形" fill="#FFFFFF" points="14.5868981 5.52687332 12.5724828 7.35676275 13.7091297 4.88222346 11.4265848 3.64855881 13.9003895 3.83003716 14.4265848 1.35676275 15.040588 3.83003716 17.4265848 3.64855881 15.3536358 4.88222346 16.2806867 7.35676275"></polygon>
                        </g>
                    </g>
                </g>
            </g>
        </g>
    </g>
</svg>