<?xml version="1.0" encoding="UTF-8"?>
<svg width="30px" height="30px" viewBox="0 0 30 30" version="1.1" xmlns="http://www.w3.org/2000/svg" xmlns:xlink="http://www.w3.org/1999/xlink">
    <!-- Generator: Sketch 63.1 (92452) - https://sketch.com -->
    <title>级联选择器</title>
    <desc>Created with Sketch.</desc>
    <g id="级联选择器" stroke="none" stroke-width="1" fill="none" fill-rule="evenodd">
        <g id="编组-35">
            <rect id="矩形备份-28" x="0" y="0" width="30" height="30"></rect>
            <rect id="矩形" fill="#FC8256" x="15" y="3" width="12" height="24" rx="2"></rect>
            <rect id="矩形" fill="#FC8256" x="3" y="3" width="10" height="24" rx="2"></rect>
            <path d="M9.27136844,10.2418361 C9.64687925,9.83685448 10.2795933,9.81296371 10.6845749,10.1884745 C11.0584041,10.5350999 11.1075168,11.1008807 10.8175112,11.5044019 L10.7379365,11.601681 L8.78391559,13.7311109 C8.42562194,14.1175241 7.83633271,14.1551444 7.43336712,13.8381057 L7.33674897,13.7514538 L5.28611768,11.6609464 C4.89937178,11.2666799 4.90546842,10.6335443 5.2997349,10.2467984 C5.66367319,9.88980218 6.23114495,9.8675357 6.62048094,10.1763238 L6.7138829,10.2604156 L8.03100029,11.601681 L9.27136844,10.2418361 Z" id="路径-5" fill="#FFFFFF" fill-rule="nonzero"></path>
            <path d="M23.8081106,11 C24.2628841,11 24.6315508,11.4477153 24.6315508,12 C24.6315508,12.5128358 24.3136698,12.9355072 23.9041411,12.9932723 L23.8081106,13 L18.454991,13 C18.0002175,13 17.6315508,12.5522847 17.6315508,12 C17.6315508,11.4871642 17.9494318,11.0644928 18.3589605,11.0067277 L18.454991,11 L23.8081106,11 Z" id="路径-6" fill="#FFFFFF" fill-rule="nonzero"></path>
            <path d="M23.8081106,18 C24.2628841,18 24.6315508,18.4477153 24.6315508,19 C24.6315508,19.5128358 24.3136698,19.9355072 23.9041411,19.9932723 L23.8081106,20 L18.454991,20 C18.0002175,20 17.6315508,19.5522847 17.6315508,19 C17.6315508,18.4871642 17.9494318,18.0644928 18.3589605,18.0067277 L18.454991,18 L23.8081106,18 Z" id="路径-6备份" fill="#FFFFFF" fill-rule="nonzero"></path>
        </g>
    </g>
</svg>