<?xml version="1.0" encoding="UTF-8"?>
<svg width="30px" height="30px" viewBox="0 0 30 30" version="1.1" xmlns="http://www.w3.org/2000/svg" xmlns:xlink="http://www.w3.org/1999/xlink">
    <!-- Generator: Sketch 63.1 (92452) - https://sketch.com -->
    <title>上传图片</title>
    <desc>Created with Sketch.</desc>
    <g id="上传图片" stroke="none" stroke-width="1" fill="none" fill-rule="evenodd">
        <g id="编组-38">
            <rect id="矩形备份-31" x="0" y="0" width="30" height="30"></rect>
            <rect id="矩形" fill="#34C7BE" x="3" y="3" width="24" height="24" rx="2"></rect>
            <path d="M18.9293831,11.8990878 L22.8558495,20.4502123 C23.2619288,21.1469243 22.7614124,22.0092225 21.9618453,21.9998497 L7.6189717,21.9998497 C7.14678643,21.9998497 6.84458785,21.4843453 7.08382839,21.0719418 L10.0397082,15.9481405 C10.4269002,15.2764227 11.2957211,15.2764227 11.6860609,15.9481405 L12.772087,17.8258262 L16.1907085,11.8990878 C16.8265846,10.7899723 18.2935069,10.7899723 18.9293831,11.8990878 Z M11.009262,8 C11.8780829,8 12.5832129,8.69983627 12.5832129,9.56213454 C12.5832129,10.4244328 11.8780829,11.1242691 11.009262,11.1242691 C10.1404411,11.1242691 9.43531107,10.4244328 9.43531107,9.56213454 C9.43531107,8.69983627 10.1404411,8 11.009262,8 Z" id="形状结合" fill="#FFFFFF"></path>
        </g>
    </g>
</svg>