<?xml version="1.0" encoding="UTF-8"?>
<svg width="30px" height="30px" viewBox="0 0 30 30" version="1.1" xmlns="http://www.w3.org/2000/svg" xmlns:xlink="http://www.w3.org/1999/xlink">
    <!-- Generator: Sketch 63.1 (92452) - https://sketch.com -->
    <title>进度条</title>
    <desc>Created with Sketch.</desc>
    <g id="进度条" stroke="none" stroke-width="1" fill="none" fill-rule="evenodd">
        <g id="编组-44">
            <rect id="矩形备份-37" x="0" y="0" width="30" height="30"></rect>
            <path d="M22.8076923,17.0000002 C25.6753247,17.0000002 28,19.3544898 28,22.2588998 C28,25.1633099 25.6753247,27.5177995 22.8076923,27.5177995 L7.19230769,27.5177995 C4.32467534,27.5177995 2,25.1633099 2,22.2588998 C2,19.3544898 4.32467534,17.0000002 7.19230769,17.0000002 L22.8076923,17.0000002 Z M14.4605548,19.1025643 C15.1535183,19.8037507 15.5,20.8558626 15.5,22.2588998 C15.5,23.6619371 15.1535183,24.714049 14.4605548,25.4152354 L22.8076923,25.4142397 C24.5282717,25.4142397 25.9230769,24.0015459 25.9230769,22.2588998 C25.9230769,20.5162538 24.5282717,19.10356 22.8076923,19.10356 L14.4605548,19.1025643 Z M21.0749692,3.05561302 C21.4654935,3.44613731 21.4654935,4.07930229 21.0749692,4.46982658 L10.4683675,15.0764283 C10.0778432,15.4669526 9.44467822,15.4669526 9.05415392,15.0764283 C8.66362963,14.685904 8.66362963,14.052739 9.05415392,13.6622147 L19.6607556,3.05561302 C20.0512799,2.66508873 20.6844449,2.66508873 21.0749692,3.05561302 Z M19.4290983,8.68932057 C21.1496777,8.68932057 22.5444829,10.1020143 22.5444829,11.8446604 C22.5444829,13.5873064 21.1496777,15.0000002 19.4290983,15.0000002 C17.7085188,15.0000002 16.3137136,13.5873064 16.3137136,11.8446604 C16.3137136,10.1020143 17.7085188,8.68932057 19.4290983,8.68932057 Z M19.4290983,10.7928804 C18.8555718,10.7928804 18.3906367,11.2637784 18.3906367,11.8446604 C18.3906367,12.4255424 18.8555718,12.8964403 19.4290983,12.8964403 C20.0026247,12.8964403 20.4675598,12.4255424 20.4675598,11.8446604 C20.4675598,11.2637784 20.0026247,10.7928804 19.4290983,10.7928804 Z M11.121406,2.37864096 C12.8419854,2.37864096 14.2367906,3.79133471 14.2367906,5.53398076 C14.2367906,7.27662682 12.8419854,8.68932057 11.121406,8.68932057 C9.40082654,8.68932057 8.00602134,7.27662682 8.00602134,5.53398076 C8.00602134,3.79133471 9.40082654,2.37864096 11.121406,2.37864096 Z M11.121406,4.48220083 C10.5478795,4.48220083 10.0829444,4.95309875 10.0829444,5.53398076 C10.0829444,6.11486278 10.5478795,6.5857607 11.121406,6.5857607 C11.6949324,6.5857607 12.1598675,6.11486278 12.1598675,5.53398076 C12.1598675,4.95309875 11.6949324,4.48220083 11.121406,4.48220083 Z" id="形状结合" fill="#5A80ED" fill-rule="nonzero"></path>
        </g>
    </g>
</svg>