<?xml version="1.0" encoding="UTF-8"?>
<svg width="30px" height="30px" viewBox="0 0 30 30" version="1.1" xmlns="http://www.w3.org/2000/svg" xmlns:xlink="http://www.w3.org/1999/xlink">
    <!-- Generator: Sketch 63.1 (92452) - https://sketch.com -->
    <title>移动扫描</title>
    <desc>Created with Sketch.</desc>
    <g id="移动扫描" stroke="none" stroke-width="1" fill="none" fill-rule="evenodd">
        <g id="编组-45">
            <rect id="矩形备份-38" x="0" y="0" width="30" height="30"></rect>
            <path d="M4.6,4.58693388 L4.6,6.46683472 C4.6,6.74297709 4.37614237,6.96683472 4.1,6.96683472 L3.5,6.96683472 C3.22385763,6.96683472 3,6.74297709 3,6.46683472 L3,3.5 C3,3.22385763 3.22385763,3 3.5,3 L6.5,3 C6.77614237,3 7,3.22385763 7,3.5 L7,4.08693388 C7,4.36307625 6.77614237,4.58693388 6.5,4.58693388 L4.6,4.58693388 L4.6,4.58693388 Z M25.4,3 L26.5,3 C26.7761424,3 27,3.22385763 27,3.5 L27,6.46683472 C27,6.74297709 26.7761424,6.96683472 26.5,6.96683472 L25.9,6.96683472 C25.6238576,6.96683472 25.4,6.74297709 25.4,6.46683472 L25.4,4.58693388 L25.4,4.58693388 L23.5,4.58693388 C23.2238576,4.58693388 23,4.36307625 23,4.08693388 L23,3.5 C23,3.22385763 23.2238576,3 23.5,3 L25.4,3 L25.4,3 Z M4.6,25.2130745 L6.5,25.2130745 C6.77614237,25.2130745 7,25.4369321 7,25.7130745 L7,26.3010083 C7,26.5771507 6.77614237,26.8010083 6.5,26.8010083 L3.5,26.8010083 C3.22385763,26.8010083 3,26.5771507 3,26.3010083 L3,23.3341736 C3,23.0580312 3.22385763,22.8341736 3.5,22.8341736 L4.1,22.8341736 C4.37614237,22.8341736 4.6,23.0580312 4.6,23.3341736 L4.6,25.2130745 L4.6,25.2130745 Z M25.9,22.8331736 L26.5,22.8331736 C26.7761424,22.8331736 27,23.0570312 27,23.3331736 L27,26.3010083 C27,26.5771507 26.7761424,26.8010083 26.5,26.8010083 L23.5,26.8010083 C23.2238576,26.8010083 23,26.5771507 23,26.3010083 L23,25.7140744 C23,25.437932 23.2238576,25.2140744 23.5,25.2140744 L25.4,25.2140744 L25.4,25.2140744 L25.4,23.3331736 C25.4,23.0570312 25.6238576,22.8331736 25.9,22.8331736 Z M4.599,14.9055039 C4.599,14.3565268 4.796,13.9585434 5.19,13.7115537 L24.83,13.7115537 C25.21,13.9055456 25.4,14.2915295 25.4,14.8705054 C25.4,15.4484813 25.21,15.8554644 24.83,16.0914545 L5.191,16.0914545 C4.796,15.8504646 4.599,15.4544811 4.599,14.9055039 Z M19.54,12.8085913 L10.46,12.8085913 L10.46,12.1596183 C10.46,10.7196783 11.511,9.54672722 12.802,9.54672722 L14.206,9.54672722 C12.924,9.1967418 11.973,8.04378984 11.973,6.66284738 C11.973,5.00791634 13.331,3.66097246 15,3.66097246 C16.669,3.66097246 18.027,5.00791634 18.027,6.66284738 C18.027,8.04278988 17.077,9.19774176 15.794,9.54672722 L17.197,9.54672722 C18.489,9.54672722 19.54,10.7196783 19.54,12.1596183 L19.54,12.8085913 Z M10.459,16.8094246 L19.539,16.8094246 L19.539,18.0393734 C19.539,19.2293238 18.822,20.2372818 17.843,20.5512687 L17.843,24.385109 C17.843,25.8270489 16.793,27 15.5,27 L14.5,27 C13.208,27 12.157,25.8270489 12.157,24.385109 L12.157,20.5392692 C11.161,20.2122828 10.461,19.2143244 10.461,18.0383734 L10.459,16.8094246 Z" id="形状" fill="#FAB71C"></path>
        </g>
    </g>
</svg>