<?xml version="1.0" encoding="UTF-8"?>
<svg width="30px" height="30px" viewBox="0 0 30 30" version="1.1" xmlns="http://www.w3.org/2000/svg" xmlns:xlink="http://www.w3.org/1999/xlink">
    <!-- Generator: Sketch 63.1 (92452) - https://sketch.com -->
    <title>用户</title>
    <desc>Created with Sketch.</desc>
    <g id="用户" stroke="none" stroke-width="1" fill="none" fill-rule="evenodd">
        <g id="编组-44">
            <rect id="矩形备份-37" x="0" y="0" width="30" height="30"></rect>
            <path d="M8.51833602,16.5754948 C8.44163728,16.8020527 8.4003579,17.0447067 8.4003579,17.2965584 L8.4003579,19.595391 C8.40035102,20.205392 8.64900412,20.7904112 9.09161562,21.2217494 C9.53422712,21.6530876 10.1345401,21.8954112 10.7604907,21.8954112 L13.1206235,21.8954112 C13.7465741,21.8954112 14.346887,21.6530876 14.7894985,21.2217494 C15.23211,20.7904112 15.4807631,20.205392 15.4807563,19.595391 L15.4807563,17.2965584 C15.4807563,17.0435443 15.439451,16.8020527 15.3627522,16.5743577 C18.8840749,17.4920613 21.3811142,19.786295 21.3811142,22.4703973 L21.3811142,24.2000051 C21.3811142,24.810006 21.1324545,25.3950226 20.6898381,25.826356 C20.2472217,26.2576895 19.6469061,26.5 19.0209554,26.5 L4.86013279,26.5 C3.55666744,26.5 2.5,25.4702572 2.5,24.2000051 L2.5,22.4703973 C2.5,19.786295 4.99701333,17.4920613 8.51833602,16.5743577 L8.51833602,16.5754948 Z M23.636463,24.2195629 C23.8490572,23.866764 23.9607119,23.4648752 23.9598008,23.0557435 L23.9598008,21.3249987 C23.9598008,18.7950093 21.6020276,16.6100116 18.1963494,15.5991428 C19.5593208,14.3341482 20.4196016,12.4746095 20.4196016,10.4000101 C20.4196016,9.14764969 20.1057021,7.97349548 19.558128,6.96148961 C22.0162215,7.1408964 23.9598008,9.38454245 23.9598008,12.1249937 C23.9598008,13.9132497 23.1337466,15.4899069 21.8746219,16.4191076 C25.1445863,17.109091 27.5,19.0445617 27.5,21.3249987 L27.5,23.0695402 C27.5,23.3745385 27.3756854,23.6670475 27.1543849,23.8827186 C26.9330844,24.0983897 26.6329326,24.2195629 26.3199595,24.2195629 L23.6364111,24.2195629 L23.636463,24.2195629 Z M11.9405571,17.2965584 C12.5922695,17.2965584 13.1205832,17.8114243 13.1206106,18.4465306 L13.1206106,19.5965534 C13.1225799,20.0086875 12.8980976,20.3903445 12.5321734,20.5969713 C12.1662492,20.8035981 11.714839,20.8035981 11.3489148,20.5969713 C10.9829907,20.3903445 10.7585083,20.0086875 10.7604777,19.5965534 L10.7604777,18.4465559 C10.7604777,17.8114397 11.2888086,17.2965584 11.9405312,17.2965584 L11.9405571,17.2965584 Z M11.9405571,16.1465609 C8.68236449,16.1465609 6.04019918,13.315244 6.04019918,9.82386165 C6.04019918,6.33129171 8.68239042,3.5 11.9405571,3.5 C15.1987237,3.5 17.8408891,6.33129171 17.8408891,9.82383638 C17.8408891,13.315244 15.1986978,16.1465609 11.9405571,16.1465609 L11.9405571,16.1465609 Z" id="形状" fill="#FAB71C" fill-rule="nonzero"></path>
        </g>
    </g>
</svg>