<?xml version="1.0" encoding="UTF-8"?>
<svg width="30px" height="30px" viewBox="0 0 30 30" version="1.1" xmlns="http://www.w3.org/2000/svg" xmlns:xlink="http://www.w3.org/1999/xlink">
    <!-- Generator: Sketch 63.1 (92452) - https://sketch.com -->
    <title>Webview</title>
    <desc>Created with Sketch.</desc>
    <g id="Webview" stroke="none" stroke-width="1" fill="none" fill-rule="evenodd">
        <g id="编组-35">
            <rect id="矩形备份-28" x="0" y="0" width="30" height="30"></rect>
            <path d="M25,3 C26.1045695,3 27,3.8954305 27,5 L27,25 C27,26.1045695 26.1045695,27 25,27 L5,27 C3.8954305,27 3,26.1045695 3,25 L3,5 C3,3.8954305 3.8954305,3 5,3 L25,3 Z M24,12 L6,12 L6,24 L24,24 L24,12 Z M13.5,6 L11.5,6 C11.2238576,6 11,6.22385763 11,6.5 L11,6.5 L11,8.5 C11,8.77614237 11.2238576,9 11.5,9 L11.5,9 L13.5,9 C13.7761424,9 14,8.77614237 14,8.5 L14,8.5 L14,6.5 C14,6.22385763 13.7761424,6 13.5,6 L13.5,6 Z M18.5,6 L16.5,6 C16.2238576,6 16,6.22385763 16,6.5 L16,6.5 L16,8.5 C16,8.77614237 16.2238576,9 16.5,9 L16.5,9 L18.5,9 C18.7761424,9 19,8.77614237 19,8.5 L19,8.5 L19,6.5 C19,6.22385763 18.7761424,6 18.5,6 L18.5,6 Z M23.5,6 L21.5,6 C21.2238576,6 21,6.22385763 21,6.5 L21,6.5 L21,8.5 C21,8.77614237 21.2238576,9 21.5,9 L21.5,9 L23.5,9 C23.7761424,9 24,8.77614237 24,8.5 L24,8.5 L24,6.5 C24,6.22385763 23.7761424,6 23.5,6 L23.5,6 Z" id="形状结合" fill="#FAB71C" fill-rule="nonzero"></path>
        </g>
    </g>
</svg>