<?xml version="1.0" encoding="UTF-8"?>
<svg width="30px" height="30px" viewBox="0 0 30 30" version="1.1" xmlns="http://www.w3.org/2000/svg" xmlns:xlink="http://www.w3.org/1999/xlink">
    <!-- Generator: Sketch 63.1 (92452) - https://sketch.com -->
    <title>手写签名</title>
    <desc>Created with Sketch.</desc>
    <g id="手写签名" stroke="none" stroke-width="1" fill="none" fill-rule="evenodd">
        <g id="编组-42">
            <rect id="矩形备份-35" x="0" y="0" width="30" height="30"></rect>
            <path d="M17.837041,3.66515947 C17.837041,3.66515947 15.1014028,4.55078143 12.8481845,6.83839777 C12.8481845,6.83839777 13.9661274,4.85656622 12.8481845,4.33730904 C12.8481845,4.33730904 12.5390891,4.12672141 11.7706839,4.41519762 C11.7706839,4.41519762 7.84199548,6.22394345 6.70672008,10.5510866 C6.70672008,10.5510866 6.53339559,9.35967983 5.76210162,9.31929317 C5.76210162,9.31929317 5.07746989,9.26159792 4.51127656,10.5683951 C4.51127656,10.5683951 0.810798723,17.4052813 4.99080764,22.4189978 L3.1420131,25.618199 C3.13912435,25.6239685 3.13334687,25.6326228 3.13045813,25.6383923 L3.11312568,25.6758942 C3.10157071,25.6932028 3.09868197,25.7047418 3.09290449,25.7133961 C3.09001575,25.7191656 3.08712701,25.7249352 3.08712701,25.7307047 C3.08423827,25.739359 3.08134952,25.7451285 3.07846078,25.7537828 L3.06979456,25.7797456 C3.06690582,25.7855152 3.06690582,25.7883999 3.06401708,25.7941694 C3.06112833,25.8057085 3.05535085,25.8172475 3.05246211,25.8287866 C3.02646344,25.9124447 3.01490847,25.9961028 3.01490847,26.0797609 C3.01490847,26.223999 3.04957337,26.3624676 3.11023694,26.4836276 C3.18823296,26.6451743 3.31244884,26.7836428 3.47710711,26.87884 C3.59265677,26.9451895 3.71976139,26.9855762 3.84397727,26.9971152 L3.84686602,26.9971152 C3.86130972,26.9971152 3.87286469,27 3.8873084,27 L11.790989,27 C12.2994075,27 12.7153863,26.5845943 12.7153863,26.0768761 C12.7153863,25.569158 12.2994075,25.1537523 11.790989,25.1537523 L5.54255726,25.1537523 L7.03603661,22.5718902 C7.56178756,22.6151616 12.8568507,22.9699874 15.0349618,20.2035005 C15.0349618,20.2035005 15.6098213,18.9515138 13.0792838,18.6082271 C13.0792838,18.6082271 18.3945681,19.3582652 20.7257825,13.7416334 C20.7257825,13.7416334 22.9414472,8.93273505 26.0988416,8.41347787 C26.0988416,8.41636263 27.4941038,8.22308357 26.8123608,6.74320062 C26.8123608,6.74320062 25.0011199,1.10926026 17.837041,3.66515947 Z" id="路径" fill="#FAB71C"></path>
        </g>
    </g>
</svg>