<?xml version="1.0" encoding="UTF-8"?>
<svg width="30px" height="30px" viewBox="0 0 30 30" version="1.1" xmlns="http://www.w3.org/2000/svg" xmlns:xlink="http://www.w3.org/1999/xlink">
    <!-- Generator: Sketch 63.1 (92452) - https://sketch.com -->
    <title>移动扫描</title>
    <desc>Created with Sketch.</desc>
    <g id="移动扫描" stroke="none" stroke-width="1" fill="none" fill-rule="evenodd">
        <g id="编组-45">
            <rect id="矩形备份-38" x="0" y="0" width="30" height="30"></rect>
            <path d="M4.6,4.58693388 L4.6,6.96683472 L3,6.96683472 L3,3 L7,3 L7,4.58693388 L4.6,4.58693388 Z M25.4,3 L27,3 L27,6.96683472 L25.4,6.96683472 L25.4,4.58693388 L23,4.58693388 L23,3 L25.4,3 Z M4.6,22.8331736 L4.6,25.2130745 L7,25.2130745 L7,26.8010083 L3,26.8010083 L3,22.8341736 L4.6,22.8341736 L4.6,22.8331736 Z M25.4,25.2130745 L25.4,22.8331736 L27,22.8331736 L27,26.8010083 L23,26.8010083 L23,25.2140744 L25.4,25.2140744 L25.4,25.2130745 Z M5.19,16.0914545 C4.796,15.8504646 4.599,15.4544811 4.599,14.9055039 C4.599,14.3565268 4.796,13.9585434 5.19,13.7115537 L24.83,13.7115537 C25.21,13.9055456 25.4,14.2915295 25.4,14.8705054 C25.4,15.4484813 25.21,15.8554644 24.83,16.0914545 L5.191,16.0914545 L5.19,16.0914545 Z M19.54,12.1596183 L19.54,12.8085913 L10.46,12.8085913 L10.46,12.1596183 C10.46,10.7196783 11.511,9.54672722 12.802,9.54672722 L14.206,9.54672722 C12.924,9.1967418 11.973,8.04378984 11.973,6.66284738 C11.973,5.00791634 13.331,3.66097246 15,3.66097246 C16.669,3.66097246 18.027,5.00791634 18.027,6.66284738 C18.027,8.04278988 17.077,9.19774176 15.794,9.54672722 L17.197,9.54672722 C18.489,9.54672722 19.54,10.7196783 19.54,12.1596183 L19.54,12.1596183 Z M10.459,18.0393734 L10.459,16.8094246 L19.539,16.8094246 L19.539,18.0393734 C19.539,19.2293238 18.822,20.2372818 17.843,20.5512687 L17.843,24.385109 C17.843,25.8270489 16.793,27 15.5,27 L14.5,27 C13.208,27 12.157,25.8270489 12.157,24.385109 L12.157,20.5392692 C11.161,20.2122828 10.461,19.2143244 10.461,18.0383734 L10.459,18.0393734 Z" id="形状" fill="#FAB71C"></path>
        </g>
    </g>
</svg>