<?xml version="1.0" encoding="UTF-8"?>
<svg width="30px" height="30px" viewBox="0 0 30 30" version="1.1" xmlns="http://www.w3.org/2000/svg" xmlns:xlink="http://www.w3.org/1999/xlink">
    <!-- Generator: Sketch 63.1 (92452) - https://sketch.com -->
    <title>等级评价</title>
    <desc>Created with Sketch.</desc>
    <g id="等级评价" stroke="none" stroke-width="1" fill="none" fill-rule="evenodd">
        <g id="编组-41">
            <rect id="矩形备份-36" x="0" y="0" width="30" height="30"></rect>
            <path d="M15,3 C21.6305084,3 27,8.36949141 27,15 C27,21.6305084 21.6305084,27 15,27 L15,27 L5.8271185,27 C4.26101693,27 3,25.7389831 3,24.1728813 L3,24.1728813 L3,15 C3,8.36949158 8.36949141,3 15,3 Z M15.1515271,8.40024817 C14.7618193,8.20791588 14.2899826,8.36792033 14.0976503,8.75762813 L14.0976503,8.75762813 L12.490681,12.0137036 L8.89738832,12.5358396 C8.72613296,12.5607245 8.56785696,12.6413701 8.4470633,12.7652917 C8.14371809,13.0764919 8.1500858,13.5746794 8.461286,13.8780246 L8.461286,13.8780246 L11.061417,16.4125259 L10.4476093,19.9912992 C10.4183554,20.1618625 10.446144,20.3373128 10.5266731,20.4904883 C10.7289033,20.8751529 11.2046754,21.0230452 11.58934,20.8208151 L11.58934,20.8208151 L14.8032787,19.1311475 L18.0172173,20.8208151 C18.1703928,20.9013442 18.3458431,20.9291328 18.5164065,20.8998789 C18.9447368,20.8264145 19.2324125,20.4196295 19.1589481,19.9912992 L19.1589481,19.9912992 L18.5451404,16.4125259 L21.1452714,13.8780246 C21.2691929,13.7572309 21.3498386,13.5989549 21.3747234,13.4276995 C21.437216,12.9976315 21.1392371,12.5983322 20.7091691,12.5358396 L20.7091691,12.5358396 L17.1158764,12.0137036 L15.5089071,8.75762813 C15.4323193,8.60244444 15.3067108,8.4768359 15.1515271,8.40024817 Z" id="星级评价备份" fill="#EE5E5E"></path>
        </g>
    </g>
</svg>