<?xml version="1.0" encoding="UTF-8"?>
<svg width="48px" height="48px" viewBox="0 0 48 48" version="1.1" xmlns="http://www.w3.org/2000/svg" xmlns:xlink="http://www.w3.org/1999/xlink">
    <!-- Generator: Sketch 63.1 (92452) - https://sketch.com -->
    <title>设备</title>
    <desc>Created with Sketch.</desc>
    <defs>
        <linearGradient x1="50%" y1="0%" x2="50%" y2="100%" id="linearGradient-1">
            <stop stop-color="#7CE2FB" offset="0%"></stop>
            <stop stop-color="#4689F5" offset="100%"></stop>
        </linearGradient>
    </defs>
    <g id="登录" stroke="none" stroke-width="1" fill="none" fill-rule="evenodd">
        <g id="3.2-巡检设备" transform="translate(-59.000000, -358.000000)">
            <g id="分组-7-copy-5备份-11" transform="translate(29.000000, 328.000000)">
                <g id="设备" transform="translate(30.000000, 30.000000)">
                    <path d="M37.7582908,0 L10.0685587,0 C4.52965561,0 0,4.52965561 0,10.0685587 L0,37.7582908 C0,43.2971939 4.52965561,47.8268495 10.0685587,47.8268495 L37.7582908,47.8268495 C43.2971939,47.8268495 47.8268495,43.2971939 47.8268495,37.7582908 L47.8268495,10.0685587 C47.8268495,4.52965561 43.2971939,0 37.7582908,0 Z" id="路径" fill="url(#linearGradient-1)"></path>
                    <path d="M12,10 L36,10 C37.1045695,10 38,10.8954305 38,12 L38,20 C38,21.1045695 37.1045695,22 36,22 L12,22 C10.8954305,22 10,21.1045695 10,20 L10,12 C10,10.8954305 10.8954305,10 12,10 Z M15.5,14 L20.5,14 C21.3284271,14 22,14.6715729 22,15.5 C22,16.3284271 21.3284271,17 20.5,17 L15.5,17 C14.6715729,17 14,16.3284271 14,15.5 C14,14.6715729 14.6715729,14 15.5,14 Z M12,26 L36,26 C37.1045695,26 38,26.8954305 38,28 L38,36 C38,36.530433 37.7892863,37.0391408 37.4142136,37.4142136 C37.0391408,37.7892863 36.530433,38 36,38 L12,38 C11.469567,38 10.9608592,37.7892863 10.5857864,37.4142136 C10.2107137,37.0391408 10,36.530433 10,36 L10,28 C10,27.469567 10.2107137,26.9608592 10.5857864,26.5857864 C10.9608592,26.2107137 11.469567,26 12,26 L12,26 Z M15.5,30 L20.5,30 C21.3284271,30 22,30.6715729 22,31.5 C22,32.3284271 21.3284271,33 20.5,33 L15.5,33 C14.6715729,33 14,32.3284271 14,31.5 C14,30.6715729 14.6715729,30 15.5,30 Z" id="形状" fill="#FFFFFF"></path>
                </g>
            </g>
        </g>
    </g>
</svg>