<?xml version="1.0" encoding="UTF-8"?>
<svg width="48px" height="48px" viewBox="0 0 48 48" version="1.1" xmlns="http://www.w3.org/2000/svg" xmlns:xlink="http://www.w3.org/1999/xlink">
    <!-- Generator: Sketch 63.1 (92452) - https://sketch.com -->
    <title>路线</title>
    <desc>Created with Sketch.</desc>
    <defs>
        <linearGradient x1="50%" y1="0%" x2="50%" y2="100%" id="linearGradient-1">
            <stop stop-color="#7CE2FB" offset="0%"></stop>
            <stop stop-color="#4689F5" offset="100%"></stop>
        </linearGradient>
    </defs>
    <g id="登录" stroke="none" stroke-width="1" fill="none" fill-rule="evenodd">
        <g id="3.0-巡检路线" transform="translate(-60.000000, -266.000000)" fill-rule="nonzero">
            <g id="分组-7-copy-5备份-6" transform="translate(30.000000, 236.000000)">
                <g id="路线" transform="translate(30.000000, 30.000000)">
                    <path d="M37.7582908,0 L10.0685587,0 C4.52965561,0 0,4.52965561 0,10.0685587 L0,37.7582908 C0,43.2971939 4.52965561,47.8268495 10.0685587,47.8268495 L37.7582908,47.8268495 C43.2971939,47.8268495 47.8268495,43.2971939 47.8268495,37.7582908 L47.8268495,10.0685587 C47.8268495,4.52965561 43.2971939,0 37.7582908,0 Z" id="路径" fill="url(#linearGradient-1)"></path>
                    <path d="M16.9573755,17.8022039 C16.0251396,18.7194717 14.7441498,19.2857143 13.3304184,19.2857143 C10.4796049,19.2857143 8.16856388,16.9831787 8.16856388,14.1428571 C8.16856388,11.3025356 10.4796049,9 13.3304184,9 C14.9675329,9 16.4266427,9.75932349 17.3723078,10.9437648 L32.3998867,10.9448499 C36.6401851,10.9448499 39.9278098,14.9314525 39.9278098,19.2857143 C39.9278098,23.595717 36.7000189,27.2965916 32.5018212,27.4251203 L32.2760022,27.4285714 L15.9113456,27.4285714 C15.3970851,27.4285714 14.8824727,28.0806582 14.8824727,28.8931524 C14.8824727,29.6841955 15.3649471,30.3506019 15.8296294,30.4222056 L15.9113456,30.4285714 L30.9908328,30.4283791 C31.9359983,29.376349 33.3094697,28.7142857 34.8381455,28.7142857 C37.688959,28.7142857 40,31.0168213 40,33.8571429 C40,36.6974644 37.688959,39 34.8381455,39 C33.3094697,39 31.9359983,38.3379367 30.9908328,37.2859066 L15.9113456,37.2857143 C11.1768484,37.2857143 8,33.1871346 8,28.8931524 C8,24.6799738 11.0751927,20.7106288 15.6682146,20.5750073 L15.9113456,20.5714286 L32.2760022,20.5714286 C32.5867569,20.5714286 33.0453371,20.0563789 33.0453371,19.2857143 C33.0453371,18.5027922 32.5691471,17.8793058 32.4231874,17.8086635 L32.3998867,17.8019928 Z" id="形状结合" fill="#FFFFFF"></path>
                </g>
            </g>
        </g>
    </g>
</svg>