<?xml version="1.0" encoding="UTF-8"?>
<svg width="38px" height="38px" viewBox="0 0 38 38" version="1.1" xmlns="http://www.w3.org/2000/svg" xmlns:xlink="http://www.w3.org/1999/xlink">
    <!-- Generator: Sketch 63.1 (92452) - https://sketch.com -->
    <title>图标38/文件/DOC</title>
    <desc>Created with Sketch.</desc>
    <defs>
        <linearGradient x1="50%" y1="0%" x2="50%" y2="98.7436655%" id="linearGradient-1">
            <stop stop-color="#59C4FD" offset="0%"></stop>
            <stop stop-color="#4075E7" offset="100%"></stop>
        </linearGradient>
    </defs>
    <g id="图标38/文件/DOC" stroke="none" stroke-width="1" fill="none" fill-rule="evenodd">
        <g id="编组-9">
            <rect id="矩形" x="0" y="0" width="38" height="38"></rect>
            <g id="jpg备份" transform="translate(4.000000, 1.000000)">
                <path d="M1.816875,0 C1.36265625,0 0.87815625,0.178125 0.5450625,0.534375 C0.21196875,0.890625 0,1.3359375 0,1.78125 L0,33.84375 C0,34.2890625 0.1816875,34.7640625 0.5450625,35.090625 C0.9084375,35.446875 1.36265625,35.625 1.816875,35.625 L28.464375,35.625 C28.9185937,35.625 29.4030937,35.446875 29.7361875,35.090625 C30.0995625,34.734375 30.28125,34.2890625 30.28125,33.84375 L30.28125,10.09375 L19.985625,0 L1.816875,0 Z" id="路径" fill="url(#linearGradient-1)"></path>
                <path d="M6.81124459,26.5596668 C7.4982038,26.5596668 8.06589926,26.4536113 8.51433096,26.2415003 C8.96276267,26.0293894 9.32055392,25.7064022 9.58770473,25.2725389 C9.85485553,24.8386756 10.0432923,24.286705 10.1530149,23.6166272 C10.2627376,22.9465494 10.3175989,22.1583643 10.3175989,21.2520721 C10.3175989,20.4904009 10.2746639,19.8010403 10.188794,19.1839902 C10.1029241,18.5669401 9.93834016,18.0390731 9.6950421,17.600389 C9.45174405,17.161705 9.11064972,16.8242558 8.67175912,16.5880413 C8.23286851,16.3518268 7.65563195,16.2337196 6.94004944,16.2337196 L3.5625,16.2337196 L3.5625,26.5596668 L6.81124459,26.5596668 Z M6.53932324,25.026683 L5.62337763,25.026683 L5.62337763,17.7667033 L6.49638829,17.7667033 C6.88757339,17.7667033 7.20004442,17.8414242 7.43380138,17.990866 C7.66755833,18.1403078 7.84406868,18.3620602 7.96333243,18.6561231 C8.08259618,18.9501861 8.16131026,19.3189699 8.19947466,19.7624746 C8.23763906,20.2059794 8.25672126,20.7217947 8.25672126,21.3099205 C8.25672126,22.0137432 8.23525379,22.6018691 8.19231883,23.074298 C8.14938388,23.546727 8.06351398,23.9275626 7.93470913,24.2168048 C7.80590428,24.506047 7.6317792,24.7133373 7.4123339,24.8386756 C7.1928886,24.9640139 6.90188504,25.026683 6.53932324,25.026683 Z M15.2264949,26.71875 C15.999324,26.71875 16.614725,26.5934117 17.0726978,26.3427351 C17.5306706,26.0920585 17.881306,25.7305058 18.1246041,25.2580768 C18.3679021,24.7856478 18.5253303,24.2216255 18.5968885,23.5660098 C18.6684468,22.9103941 18.7042259,22.1872886 18.7042259,21.3966932 C18.7042259,20.6157392 18.6684468,19.895044 18.5968885,19.2346076 C18.5253303,18.5741712 18.3679021,18.0077385 18.1246041,17.5353095 C17.881306,17.0628806 17.5306706,16.6940968 17.0726978,16.4289581 C16.614725,16.1638194 15.999324,16.03125 15.2264949,16.03125 C14.4536658,16.03125 13.8382648,16.1638194 13.380292,16.4289581 C12.9223192,16.6940968 12.5716838,17.0628806 12.3283857,17.5353095 C12.0850877,18.0077385 11.9276595,18.5741712 11.8561013,19.2346076 C11.784543,19.895044 11.7487639,20.6157392 11.7487639,21.3966932 C11.7487639,22.1872886 11.784543,22.9103941 11.8561013,23.5660098 C11.9276595,24.2216255 12.0850877,24.7856478 12.3283857,25.2580768 C12.5716838,25.7305058 12.9223192,26.0920585 13.380292,26.3427351 C13.8382648,26.5934117 14.4536658,26.71875 15.2264949,26.71875 Z M15.2264949,25.2291526 C14.9211797,25.2291526 14.6754964,25.1592524 14.4894449,25.019452 C14.3033935,24.8796516 14.160277,24.6578992 14.0600954,24.3541949 C13.9599139,24.0504905 13.8931262,23.6551928 13.8597323,23.1683018 C13.8263385,22.6814107 13.8096415,22.0908745 13.8096415,21.3966932 C13.8096415,20.7025118 13.8263385,20.114386 13.8597323,19.6323156 C13.8931262,19.1502453 13.9599139,18.7549476 14.0600954,18.4464225 C14.160277,18.1378975 14.3033935,17.9137348 14.4894449,17.7739344 C14.6754964,17.634134 14.9211797,17.5642338 15.2264949,17.5642338 C15.5318101,17.5642338 15.7774934,17.634134 15.9635449,17.7739344 C16.1495963,17.9137348 16.2927128,18.1378975 16.3928944,18.4464225 C16.4930759,18.7549476 16.5598636,19.1502453 16.5932575,19.6323156 C16.6266513,20.114386 16.6433483,20.7025118 16.6433483,21.3966932 C16.6433483,22.0908745 16.6266513,22.6814107 16.5932575,23.1683018 C16.5598636,23.6551928 16.4930759,24.0504905 16.3928944,24.3541949 C16.2927128,24.6578992 16.1495963,24.8796516 15.9635449,25.019452 C15.7774934,25.1592524 15.5318101,25.2291526 15.2264949,25.2291526 Z M23.4700054,26.71875 C24.1474235,26.71875 24.698422,26.6126945 25.123001,26.4005836 C25.54758,26.1884726 25.8767479,25.8944097 26.1105049,25.5183948 C26.3442618,25.1423799 26.5040752,24.7036959 26.5899451,24.2023427 C26.675815,23.7009895 26.71875,23.1707121 26.71875,22.6115105 L24.6578724,22.6115105 C24.6578724,23.1707121 24.6244785,23.6214479 24.5576908,23.9637179 C24.4909031,24.3059878 24.4002627,24.5711265 24.2857695,24.759134 C24.1712763,24.9471414 24.0353156,25.0724797 23.8778874,25.1351488 C23.7204593,25.197818 23.5511048,25.2291526 23.3698239,25.2291526 C23.1503786,25.2291526 22.9571713,25.1833559 22.790202,25.0917625 C22.6232328,25.0001691 22.4848868,24.8218031 22.3751642,24.5566644 C22.2654415,24.2915257 22.1843422,23.9179212 22.1318661,23.4358508 C22.0793901,22.9537804 22.053152,22.3222683 22.053152,21.5413143 C22.053152,20.8085673 22.0722342,20.1891069 22.1103986,19.682933 C22.148563,19.1767591 22.2153507,18.7669993 22.3107617,18.4536536 C22.4061727,18.1403078 22.5373629,17.9137348 22.7043321,17.7739344 C22.8713014,17.634134 23.0835909,17.5642338 23.3412006,17.5642338 C23.8087145,17.5642338 24.1307266,17.7353687 24.3072369,18.0776387 C24.4837473,18.4199087 24.5720025,18.9670585 24.5720025,19.7190883 L26.6328801,19.7190883 C26.6328801,19.3430734 26.6066421,18.9405447 26.554166,18.511502 C26.50169,18.0824594 26.3704998,17.682341 26.1605956,17.3111468 C25.9506914,16.9399526 25.6334499,16.633838 25.2088709,16.3928028 C24.7842919,16.1517676 24.2046701,16.03125 23.4700054,16.03125 C22.6971763,16.03125 22.0817753,16.1638194 21.6238025,16.4289581 C21.1658297,16.6940968 20.8151943,17.0628806 20.5718962,17.5353095 C20.3285982,18.0077385 20.17117,18.5741712 20.0996118,19.2346076 C20.0280535,19.895044 19.9922744,20.6157392 19.9922744,21.3966932 C19.9922744,22.1872886 20.0280535,22.9103941 20.0996118,23.5660098 C20.17117,24.2216255 20.3285982,24.7856478 20.5718962,25.2580768 C20.8151943,25.7305058 21.1658297,26.0920585 21.6238025,26.3427351 C22.0817753,26.5934117 22.6971763,26.71875 23.4700054,26.71875 Z" id="DOC" fill="#FFFFFF" fill-rule="nonzero"></path>
                <path d="M30.28125,10.09375 L21.7621376,10.09375 C21.3180095,10.09375 20.8442728,9.91609874 20.5185788,9.56079621 C20.1632763,9.23510223 19.985625,8.76136553 19.985625,8.31723737 L19.985625,0 L30.28125,10.09375 Z" id="路径" fill-opacity="0.476699082" fill="#FFFFFF" fill-rule="nonzero"></path>
            </g>
        </g>
    </g>
</svg>