<?xml version="1.0" encoding="UTF-8"?>
<svg width="38px" height="38px" viewBox="0 0 38 38" version="1.1" xmlns="http://www.w3.org/2000/svg" xmlns:xlink="http://www.w3.org/1999/xlink">
    <!-- Generator: Sketch 63.1 (92452) - https://sketch.com -->
    <title>图标38/文件/文件夹</title>
    <desc>Created with Sketch.</desc>
    <g id="图标38/文件/文件夹" stroke="none" stroke-width="1" fill="none" fill-rule="evenodd">
        <g id="编组" transform="translate(1.800000, 6.000000)" fill-rule="nonzero">
            <path d="M31.1942725,3.24 L16.077148,3.24 L12.730536,0.00214488838 L3.34663583,0.00214488838 C2.4698686,-0.0280860712 1.61721169,0.262307266 0.985605619,0.806251949 C0.353999551,1.35019663 -0.00193114133,2.10064953 -6.08170201e-05,2.88427647 L-6.08170201e-05,8.64 L34.5596738,8.64 L34.5596738,6.42410254 C34.5596738,4.98517167 33.1257457,3.24 31.213396,3.24 L31.1942725,3.24 Z" id="路径" fill="#4689F5"></path>
            <path d="M31.115802,3.24255274 L3.44419795,3.24255274 C2.5427215,3.20660515 1.6659729,3.55157262 1.01610313,4.19791637 C0.366233365,4.84426012 -0.0006632503,5.7361902 0,6.66805523 L0,23.5668621 C-0.00200373635,24.4996088 0.364304886,25.3928686 1.0143268,26.0403229 C1.66434871,26.6877772 2.54186668,27.0334307 3.44419795,26.997447 L31.115802,26.997447 C32.0181333,27.0334307 32.8956513,26.6877772 33.5456732,26.0403229 C34.1956951,25.3928686 34.5620037,24.4996088 34.56,23.5668621 L34.56,6.42410254 C34.56,4.7113513 33.0839105,3.24255274 31.115802,3.24255274 Z" id="路径" fill="#6EA6FF"></path>
        </g>
    </g>
</svg>