<?xml version="1.0" encoding="UTF-8"?>
<svg width="38px" height="38px" viewBox="0 0 38 38" version="1.1" xmlns="http://www.w3.org/2000/svg" xmlns:xlink="http://www.w3.org/1999/xlink">
    <!-- Generator: Sketch 63.1 (92452) - https://sketch.com -->
    <title>图标38/文件/PDF</title>
    <desc>Created with Sketch.</desc>
    <defs>
        <linearGradient x1="50%" y1="0%" x2="50%" y2="100%" id="linearGradient-1">
            <stop stop-color="#F98A72" offset="0%"></stop>
            <stop stop-color="#E23939" offset="100%"></stop>
        </linearGradient>
    </defs>
    <g id="图标38/文件/PDF" stroke="none" stroke-width="1" fill="none" fill-rule="evenodd">
        <g id="编组-9">
            <rect id="矩形" x="0" y="0" width="38" height="38"></rect>
            <g id="jpg备份" transform="translate(4.000000, 1.000000)">
                <path d="M1.816875,0 C1.36265625,0 0.87815625,0.178125 0.5450625,0.534375 C0.21196875,0.890625 0,1.3359375 0,1.78125 L0,33.84375 C0,34.2890625 0.1816875,34.7640625 0.5450625,35.090625 C0.9084375,35.446875 1.36265625,35.625 1.816875,35.625 L28.464375,35.625 C28.9185937,35.625 29.4030937,35.446875 29.7361875,35.090625 C30.0995625,34.734375 30.28125,34.2890625 30.28125,33.84375 L30.28125,10.09375 L19.985625,0 L1.816875,0 Z" id="路径" fill="url(#linearGradient-1)"></path>
                <path d="M5.73906658,26.71875 L5.73906658,22.4527311 L6.9029251,22.4527311 C7.41683665,22.4527311 7.88540307,22.3878676 8.30862435,22.2581408 C8.73184563,22.1284139 9.09208755,21.9338235 9.38935011,21.6743697 C9.68661268,21.414916 9.91837671,21.0806197 10.0846422,20.6714811 C10.2509077,20.2623424 10.3340405,19.7833508 10.3340405,19.2345063 C10.3340405,18.8353466 10.283657,18.4436712 10.18289,18.05948 C10.082123,17.6752889 9.91585754,17.3335084 9.68409351,17.0341387 C9.45232947,16.7347689 9.14750938,16.4927784 8.76963324,16.308167 C8.3917571,16.1235557 7.92570986,16.03125 7.37149151,16.03125 L3.5625,16.03125 L3.5625,26.71875 L5.73906658,26.71875 Z M6.7064295,20.8660714 L5.73906658,20.8660714 L5.73906658,17.6179097 L6.64596932,17.6179097 C7.19011097,17.6179097 7.57806381,17.7576155 7.80982784,18.0370273 C8.04159187,18.3164391 8.15747389,18.7255777 8.15747389,19.2644433 C8.15747389,19.8132878 8.02395765,20.217437 7.75692518,20.4768908 C7.48989271,20.7363445 7.13972748,20.8660714 6.7064295,20.8660714 Z M15.2464303,26.71875 C15.9719525,26.71875 16.571516,26.6089811 17.0451208,26.3894433 C17.5187255,26.1699055 17.8966017,25.8356092 18.1787492,25.3865546 C18.4608967,24.9375 18.6599115,24.3662027 18.7757935,23.6726628 C18.8916755,22.9791229 18.9496165,22.1633403 18.9496165,21.2253151 C18.9496165,20.4369748 18.9042714,19.7234769 18.8135811,19.0848214 C18.7228908,18.446166 18.5490678,17.8998162 18.292112,17.4457721 C18.0351562,16.9917279 17.6749143,16.6424632 17.2113863,16.3979779 C16.7478582,16.1534926 16.138218,16.03125 15.3824657,16.03125 L11.8153149,16.03125 L11.8153149,26.71875 L15.2464303,26.71875 Z M14.9592445,25.1320903 L13.9918815,25.1320903 L13.9918815,17.6179097 L14.9138993,17.6179097 C15.3270439,17.6179097 15.6570557,17.6952468 15.9039348,17.8499212 C16.1508139,18.0045956 16.3372328,18.2341124 16.4631915,18.5384716 C16.5891502,18.8428309 16.672283,19.2245273 16.7125898,19.6835609 C16.7528965,20.1425945 16.7730499,20.6764706 16.7730499,21.2851891 C16.7730499,22.0136555 16.7503774,22.6223739 16.7050322,23.1113445 C16.6596871,23.6003151 16.5689968,23.9944853 16.4329614,24.293855 C16.296926,24.5932248 16.1130263,24.8077731 15.8812622,24.9375 C15.6494982,25.0672269 15.3421589,25.1320903 14.9592445,25.1320903 Z M22.8644133,26.71875 L22.8644133,22.0785189 L26.4920243,22.0785189 L26.4920243,20.3122374 L22.8644133,20.3122374 L22.8644133,17.7975315 L26.71875,17.7975315 L26.71875,16.03125 L20.6878468,16.03125 L20.6878468,26.71875 L22.8644133,26.71875 Z" id="PDF" fill="#FFFFFF" fill-rule="nonzero"></path>
                <path d="M30.28125,10.09375 L21.7621376,10.09375 C21.3180095,10.09375 20.8442728,9.91609874 20.5185788,9.56079621 C20.1632763,9.23510223 19.985625,8.76136553 19.985625,8.31723737 L19.985625,3.40144579e-14 L30.28125,10.09375 Z" id="路径" fill-opacity="0.39529611" fill="#FFFFFF" fill-rule="nonzero"></path>
            </g>
        </g>
    </g>
</svg>