<?xml version="1.0" encoding="UTF-8"?>
<svg width="38px" height="38px" viewBox="0 0 38 38" version="1.1" xmlns="http://www.w3.org/2000/svg" xmlns:xlink="http://www.w3.org/1999/xlink">
    <!-- Generator: Sketch 63.1 (92452) - https://sketch.com -->
    <title>图标38/文件/PPT</title>
    <desc>Created with Sketch.</desc>
    <defs>
        <linearGradient x1="50%" y1="0.834037162%" x2="50%" y2="100%" id="linearGradient-1">
            <stop stop-color="#F8BD63" offset="0%"></stop>
            <stop stop-color="#EC531B" offset="99.4114231%"></stop>
        </linearGradient>
    </defs>
    <g id="图标38/文件/PPT" stroke="none" stroke-width="1" fill="none" fill-rule="evenodd">
        <g id="编组-9">
            <rect id="矩形" x="0" y="0" width="38" height="38"></rect>
            <g id="jpg备份" transform="translate(4.000000, 1.000000)">
                <path d="M1.816875,0 C1.36265625,0 0.87815625,0.178125 0.5450625,0.534375 C0.21196875,0.890625 0,1.3359375 0,1.78125 L0,33.84375 C0,34.2890625 0.1816875,34.7640625 0.5450625,35.090625 C0.9084375,35.446875 1.36265625,35.625 1.816875,35.625 L28.464375,35.625 C28.9185937,35.625 29.4030937,35.446875 29.7361875,35.090625 C30.0995625,34.734375 30.28125,34.2890625 30.28125,33.84375 L30.28125,10.09375 L19.985625,0 L1.816875,0 Z" id="路径" fill="url(#linearGradient-1)"></path>
                <path d="M5.79144385,26.71875 L5.79144385,22.4527311 L6.98330966,22.4527311 C7.50958807,22.4527311 7.98943015,22.3878676 8.4228359,22.2581408 C8.85624164,22.1284139 9.22515249,21.9338235 9.52956843,21.6743697 C9.83398438,21.414916 10.0713256,21.0806197 10.2415922,20.6714811 C10.4118587,20.2623424 10.496992,19.7833508 10.496992,19.2345063 C10.496992,18.8353466 10.4453961,18.4436712 10.3422042,18.05948 C10.2390124,17.6752889 10.0687458,17.3335084 9.83140458,17.0341387 C9.59406334,16.7347689 9.281908,16.4927784 8.89493859,16.308167 C8.50796917,16.1235557 8.03070689,16.03125 7.46315174,16.03125 L3.5625,16.03125 L3.5625,26.71875 L5.79144385,26.71875 Z M6.78208556,20.8660714 L5.79144385,20.8660714 L5.79144385,17.6179097 L6.72017045,17.6179097 C7.27740642,17.6179097 7.67469502,17.7576155 7.91203626,18.0370273 C8.14937751,18.3164391 8.26804813,18.7255777 8.26804813,19.2644433 C8.26804813,19.8132878 8.13131893,20.217437 7.85786054,20.4768908 C7.58440216,20.7363445 7.22581049,20.8660714 6.78208556,20.8660714 Z M14.1345045,26.71875 L14.1345045,22.4527311 L15.3263703,22.4527311 C15.8526487,22.4527311 16.3324908,22.3878676 16.7658966,22.2581408 C17.1993023,22.1284139 17.5682132,21.9338235 17.8726291,21.6743697 C18.177045,21.414916 18.4143863,21.0806197 18.5846528,20.6714811 C18.7549194,20.2623424 18.8400526,19.7833508 18.8400526,19.2345063 C18.8400526,18.8353466 18.7884567,18.4436712 18.6852649,18.05948 C18.582073,17.6752889 18.4118065,17.3335084 18.1744652,17.0341387 C17.937124,16.7347689 17.6249687,16.4927784 17.2379992,16.308167 C16.8510298,16.1235557 16.3737675,16.03125 15.8062124,16.03125 L11.9055607,16.03125 L11.9055607,26.71875 L14.1345045,26.71875 Z M15.1251462,20.8660714 L14.1345045,20.8660714 L14.1345045,17.6179097 L15.0632311,17.6179097 C15.6204671,17.6179097 16.0177557,17.7576155 16.2550969,18.0370273 C16.4924382,18.3164391 16.6111088,18.7255777 16.6111088,19.2644433 C16.6111088,19.8132878 16.4743796,20.217437 16.2009212,20.4768908 C15.9274628,20.7363445 15.5688712,20.8660714 15.1251462,20.8660714 Z M24.3040608,26.71875 L24.3040608,17.7975315 L26.71875,17.7975315 L26.71875,16.03125 L19.6604278,16.03125 L19.6604278,17.7975315 L22.075117,17.7975315 L22.075117,26.71875 L24.3040608,26.71875 Z" id="PPT" fill="#FFFFFF" fill-rule="nonzero"></path>
                <path d="M30.28125,10.09375 L21.7621376,10.09375 C21.3180095,10.09375 20.8442728,9.91609874 20.5185788,9.56079621 C20.1632763,9.23510223 19.985625,8.76136553 19.985625,8.31723737 L19.985625,3.40144579e-14 L30.28125,10.09375 Z" id="路径" fill-opacity="0.499726836" fill="#FFFFFF" fill-rule="nonzero"></path>
            </g>
        </g>
    </g>
</svg>