<?xml version="1.0" encoding="UTF-8"?>
<svg width="38px" height="38px" viewBox="0 0 38 38" version="1.1" xmlns="http://www.w3.org/2000/svg" xmlns:xlink="http://www.w3.org/1999/xlink">
    <!-- Generator: Sketch 63.1 (92452) - https://sketch.com -->
    <title>图标38/文件/XLS</title>
    <desc>Created with Sketch.</desc>
    <defs>
        <linearGradient x1="50%" y1="0%" x2="50%" y2="100%" id="linearGradient-1">
            <stop stop-color="#3AF5E6" offset="0%"></stop>
            <stop stop-color="#03B1B9" offset="100%"></stop>
        </linearGradient>
    </defs>
    <g id="图标38/文件/XLS" stroke="none" stroke-width="1" fill="none" fill-rule="evenodd">
        <g id="编组-9">
            <rect id="矩形" x="0" y="0" width="38" height="38"></rect>
            <g id="jpg备份" transform="translate(4.000000, 1.000000)">
                <path d="M1.816875,0 C1.36265625,0 0.87815625,0.178125 0.5450625,0.534375 C0.21196875,0.890625 0,1.3359375 0,1.78125 L0,33.84375 C0,34.2890625 0.1816875,34.7640625 0.5450625,35.090625 C0.9084375,35.446875 1.36265625,35.625 1.816875,35.625 L28.464375,35.625 C28.9185937,35.625 29.4030937,35.446875 29.7361875,35.090625 C30.0995625,34.734375 30.28125,34.2890625 30.28125,33.84375 L30.28125,10.09375 L19.985625,0 L1.816875,0 Z" id="路径" fill="url(#linearGradient-1)"></path>
                <path d="M5.89139083,26.5596668 L7.39485201,23.0598359 L8.91305299,26.5596668 L11.3009031,26.5596668 L8.67721595,21.3388447 L11.1240253,16.2337196 L8.80987428,16.2337196 L7.46855108,19.5744672 L6.11248806,16.2337196 L3.76885742,16.2337196 L6.18618714,21.3388447 L3.5625,26.5596668 L5.89139083,26.5596668 Z M18.5971117,26.5596668 L18.5971117,24.8531377 L14.8384588,24.8531377 L14.8384588,16.2337196 L12.7159254,16.2337196 L12.7159254,26.5596668 L18.5971117,26.5596668 Z M23.0632758,26.71875 C24.2129814,26.71875 25.1096535,26.4704838 25.7532921,25.9739513 C26.3969307,25.4774188 26.71875,24.6844131 26.71875,23.594934 C26.71875,23.2767676 26.6892704,22.9875254 26.6303111,22.7272074 C26.5713518,22.4668894 26.4657165,22.2282645 26.3134051,22.0113329 C26.1610937,21.7944012 25.9571929,21.5919317 25.7017027,21.4039242 C25.4462126,21.2159168 25.1170234,21.0351404 24.7141351,20.8615951 L23.0780156,20.1674137 C22.6259946,19.984227 22.3311983,19.7841678 22.1936267,19.5672361 C22.0560551,19.3503045 21.9872693,19.0827554 21.9872693,18.764589 C21.9872693,18.6103265 22.0044657,18.4608846 22.0388586,18.3162635 C22.0732515,18.1716424 22.137124,18.0438938 22.2304762,17.9330176 C22.3238284,17.8221414 22.4491168,17.7329584 22.6063415,17.6654685 C22.7635662,17.5979787 22.9600971,17.5642338 23.1959341,17.5642338 C23.6086489,17.5642338 23.9034453,17.6968031 24.080323,17.9619418 C24.2572008,18.2270805 24.3456397,18.6055058 24.3456397,19.0972175 L26.3797342,19.0972175 L26.3797342,18.8079753 C26.3797342,18.3162635 26.2986653,17.894452 26.1365273,17.5425406 C25.9743893,17.1906292 25.7483788,16.901387 25.4584958,16.6748139 C25.1686127,16.4482409 24.8246837,16.2843369 24.4267087,16.1831022 C24.0287337,16.0818674 23.5939091,16.03125 23.122235,16.03125 C22.1101011,16.03125 21.314151,16.2819266 20.7343849,16.7832798 C20.1546189,17.2846329 19.8647358,18.0463041 19.8647358,19.0682933 C19.8647358,19.4925152 19.9187818,19.8661198 20.0268738,20.1891069 C20.1349658,20.512094 20.3044737,20.7965156 20.5353974,21.0423714 C20.7663212,21.2882273 21.0537476,21.5027486 21.3976766,21.6859354 C21.7416057,21.8691221 22.1494072,22.0378468 22.6210813,22.1921093 C22.9748369,22.3078062 23.2720898,22.4210927 23.5128401,22.5319689 C23.7535905,22.6428451 23.9476647,22.765773 24.0950629,22.9007527 C24.242461,23.0357324 24.3480964,23.1875846 24.4119689,23.3563092 C24.4758414,23.5250338 24.5077777,23.725093 24.5077777,23.9564868 C24.5077777,24.3903501 24.377576,24.7109269 24.1171726,24.9182172 C23.8567692,25.1255074 23.5644295,25.2291526 23.2401536,25.2291526 C22.9650103,25.2291526 22.7365432,25.1905869 22.5547521,25.1134557 C22.3729611,25.0363244 22.2280196,24.9302689 22.1199276,24.7952892 C22.0118356,24.6603095 21.9381365,24.4939953 21.8988304,24.2963464 C21.8595242,24.0986976 21.8398711,23.8793555 21.8398711,23.6383204 L21.8398711,23.334616 L19.7173377,23.334616 L19.7173377,23.7540173 C19.7173377,24.7085166 19.9752845,25.4412635 20.491178,25.9522581 C21.0070715,26.4632527 21.8644375,26.71875 23.0632758,26.71875 Z" id="XLS" fill="#FFFFFF" fill-rule="nonzero"></path>
                <path d="M30.28125,10.09375 L21.7621376,10.09375 C21.3180095,10.09375 20.8442728,9.91609874 20.5185788,9.56079621 C20.1632763,9.23510223 19.985625,8.76136553 19.985625,8.31723737 L19.985625,3.40144579e-14 L30.28125,10.09375 Z" id="路径" fill-opacity="0.498115166" fill="#FFFFFF" fill-rule="nonzero"></path>
            </g>
        </g>
    </g>
</svg>