<?xml version="1.0" encoding="UTF-8"?>
<svg width="110px" height="54px" viewBox="0 0 110 54" version="1.1" xmlns="http://www.w3.org/2000/svg" xmlns:xlink="http://www.w3.org/1999/xlink">
    <!-- Generator: Sketch 63.1 (92452) - https://sketch.com -->
    <title>编组 11备份</title>
    <desc>Created with Sketch.</desc>
    <defs>
        <linearGradient x1="46.471608%" y1="0%" x2="57.9164912%" y2="100%" id="linearGradient-1">
            <stop stop-color="#FFFFFF" offset="0%"></stop>
            <stop stop-color="#FFFFFF" offset="50.8234797%"></stop>
            <stop stop-color="#FFFFFF" stop-opacity="0.50152972" offset="100%"></stop>
        </linearGradient>
        <linearGradient x1="50%" y1="0%" x2="50%" y2="100%" id="linearGradient-2">
            <stop stop-color="#FFFFFF" stop-opacity="0.504807692" offset="0%"></stop>
            <stop stop-color="#FFFFFF" offset="52.3595861%"></stop>
            <stop stop-color="#FFFFFF" offset="100%"></stop>
        </linearGradient>
    </defs>
    <g id="登录" stroke="none" stroke-width="1" fill="none" fill-rule="evenodd">
        <g id="账号密码登录-未输入" transform="translate(-90.000000, -182.000000)" fill-rule="nonzero">
            <g id="编组-3" transform="translate(90.000000, 182.000000)">
                <g id="编组-11备份" transform="translate(0.000000, 0.000000)">
                    <polygon id="路径" fill="#FFFFFF" points="40.0512429 1.18820323 25.2674617 52.5913146 14.781745 52.5913146 14.7680832 52.5462461 20.0230699 36.0153999 20.0256214 36.0207457 30.0405561 1.18744935"></polygon>
                    <polygon id="路径" fill="url(#linearGradient-1)" points="10.0062167 1.18744935 18.9465723 32.2721959 13.6919365 48.8030522 -4.9708269e-13 1.18820323"></polygon>
                    <path d="M62.3715913,7.34155091 L62.3708666,43.0279042 L68.1465062,43.0298263 L68.1465062,52.59201 L45.7958521,52.59201 L45.7958521,43.0298263 L52.7467895,43.0279042 L52.7503774,18.6457352 C56.6876891,16.665246 59.8871385,12.8860449 62.3715913,7.34155091 Z" id="路径" fill="url(#linearGradient-2)"></path>
                    <path d="M62.372,1.14535349 L62.3716198,1.17385497 L62.332035,1.30288553 C59.9645424,8.86509102 56.6935461,13.8402209 52.5607305,16.2891983 L52.7498941,16.1905029 C51.1276494,17.0620766 49.3623238,17.5456088 47.4451591,17.6135435 L46.9733169,17.6218571 L46.9733169,8.0596735 C48.6790702,8.0596735 50.6901639,6.07116721 52.706068,1.14860415 L62.372,1.14535349 Z" id="路径" fill="#FFFFFF"></path>
                    <path d="M91.2445309,0 C81.1454872,0 72.9585947,8.13415733 72.9585947,18.1681489 L72.9585947,35.3800794 C72.9585947,45.414071 81.1454872,53.5482283 91.2445309,53.5482283 C101.343575,53.5482283 109.530467,45.414071 109.530467,35.3800794 L109.530467,18.1681489 C109.530467,8.13415733 101.343575,0 91.2445309,0 Z M91.2445309,9.56218363 C96.0282884,9.56218363 99.9062901,13.4152055 99.9062901,18.1681489 L99.9062901,35.3800794 C99.9062901,40.1330228 96.0282884,43.9860447 91.2445309,43.9860447 C86.4607733,43.9860447 82.5827716,40.1330228 82.5827716,35.3800794 L82.5827716,18.1681489 C82.5827716,13.4152055 86.4607733,9.56218363 91.2445309,9.56218363 Z" id="矩形备份-26" fill="#FFFFFF"></path>
                </g>
            </g>
        </g>
    </g>
</svg>