<?xml version="1.0" encoding="UTF-8"?>
<svg width="38px" height="38px" viewBox="0 0 38 38" version="1.1" xmlns="http://www.w3.org/2000/svg" xmlns:xlink="http://www.w3.org/1999/xlink">
    <!-- Generator: Sketch 63.1 (92452) - https://sketch.com -->
    <title>图标38/文件/语音文件</title>
    <desc>Created with Sketch.</desc>
    <g id="图标38/文件/语音文件" stroke="none" stroke-width="1" fill="none" fill-rule="evenodd">
        <g id="编组-9">
            <rect id="矩形" x="0" y="0" width="38" height="38"></rect>
            <g id="jpg备份" transform="translate(4.000000, 1.000000)">
                <path d="M1.816875,0 C1.36265625,0 0.87815625,0.178125 0.5450625,0.534375 C0.21196875,0.890625 0,1.3359375 0,1.78125 L0,33.84375 C0,34.2890625 0.1816875,34.7640625 0.5450625,35.090625 C0.9084375,35.446875 1.36265625,35.625 1.816875,35.625 L28.464375,35.625 C28.9185937,35.625 29.4030937,35.446875 29.7361875,35.090625 C30.0995625,34.734375 30.28125,34.2890625 30.28125,33.84375 L30.28125,10.09375 L19.985625,0 L1.816875,0 Z" id="路径" fill="#F17D38"></path>
                <path d="M1.816875,35.625 L28.464375,35.625 C28.9185938,35.625 29.4030938,35.446875 29.7361875,35.090625 C30.0995625,34.734375 30.28125,34.2890625 30.28125,33.84375 C30.28125,25.4151885 30.28125,19.0937674 30.28125,14.8794866 C30.28125,28.7098289 20.793125,35.625 1.816875,35.625 Z" id="路径" fill="#D56B2C"></path>
                <path d="M14.1227679,27.7253316 C10.670245,27.2182336 8.015625,24.1725345 8.015625,20.4921852 C8.015625,20.4081874 8.01865885,20.3273006 8.0216927,20.2433028 C8.01865885,20.2090814 8.015625,20.1779711 8.015625,20.1437498 C8.015625,19.5650981 8.47070271,19.0984435 9.03499907,19.0984435 C9.59929543,19.0984435 10.0543731,19.5682091 10.0543731,20.1437498 L10.0543731,20.1437498 L10.0665085,20.1437498 C10.057407,20.2588579 10.0543731,20.373966 10.0543731,20.4921852 C10.0543731,23.3729996 12.3297617,25.7124947 15.1421419,25.7124947 C17.9545222,25.7124947 20.2329446,23.3761107 20.2329446,20.4921852 C20.2329446,20.373966 20.2268769,20.2588579 20.2208092,20.1437498 L20.2208092,20.1437498 L20.2329446,20.1437498 C20.2329446,20.0908622 20.2359784,20.0410858 20.24508,19.9881982 C20.326994,19.4188796 20.8457825,19.0268897 21.4009774,19.1108876 C21.9410029,19.1917744 22.3172005,19.6926503 22.2595573,20.2433028 C22.2625911,20.3273006 22.265625,20.4081874 22.265625,20.4921852 C22.265625,24.1725345 19.611005,27.2182336 16.1584821,27.7253316 L16.1584821,27.7253316 L16.1584821,29.5390625 L17.515625,29.5390625 C17.9528504,29.5390625 18.3072917,29.8935037 18.3072917,30.3307292 L18.3072917,30.3802083 C18.3072917,30.8174338 17.9528504,31.171875 17.515625,31.171875 L12.765625,31.171875 C12.3283996,31.171875 11.9739583,30.8174338 11.9739583,30.3802083 L11.9739583,30.3307292 C11.9739583,29.8935037 12.3283996,29.5390625 12.765625,29.5390625 L14.1227679,29.5390625 Z M15.1421419,11.578125 C17.1930255,11.578125 18.8737791,13.298525 18.8737791,15.4046928 L18.8737791,15.4046928 L18.8737791,19.7424268 C18.8737791,21.8454836 17.1960593,23.5689946 15.1421419,23.5689946 C13.0912584,23.5689946 11.4105047,21.8454836 11.4105047,19.7393158 L11.4105047,19.7393158 L11.4105047,15.4046928 C11.4105047,13.301636 13.0912584,11.578125 15.1421419,11.578125 Z" id="形状结合" fill="#FFFFFF" fill-rule="nonzero"></path>
                <path d="M30.28125,10.09375 L21.7621376,10.09375 C21.3180095,10.09375 20.8442728,9.91609874 20.5185788,9.56079621 C20.1632763,9.23510223 19.985625,8.76136553 19.985625,8.31723737 L19.985625,3.40144579e-14 L30.28125,10.09375 Z" id="路径" fill="#F7BD9B" fill-rule="nonzero"></path>
            </g>
        </g>
    </g>
</svg>