<?xml version="1.0" encoding="UTF-8"?>
<svg width="17px" height="18px" viewBox="0 0 17 18" version="1.1" xmlns="http://www.w3.org/2000/svg" xmlns:xlink="http://www.w3.org/1999/xlink">
    <!-- Generator: Sketch 63.1 (92452) - https://sketch.com -->
    <title>钢笔</title>
    <desc>Created with Sketch.</desc>
    <g id="dataA模块" stroke="none" stroke-width="1" fill="none" fill-rule="evenodd">
        <g id="设计大屏-图形导航" transform="translate(-70.000000, -543.000000)" stroke="#4689F5">
            <g id="编组-2备份-3" transform="translate(60.000000, 353.000000)">
                <g id="编组备份-4" transform="translate(0.000000, 182.000000)">
                    <g id="输入框/常态备份-3">
                        <g id="钢笔" transform="translate(11.000000, 7.000000)">
                            <polygon id="路径" fill-opacity="0.503332605" fill="#4689F5" points="0 17.9038059 2.23338514 6.94869691 9.46161669 4.34123074 13.3968668 8.31923443 10.591706 15.3070178"></polygon>
                            <path d="M15.5444092,4.5 L8.54440918,4.5 C8.26826681,4.5 8.01826681,4.61192881 7.8373024,4.79289322 C7.65633799,4.97385763 7.54440918,5.22385763 7.54440918,5.5 C7.54440918,5.77614237 7.65633799,6.02614237 7.8373024,6.20710678 C8.01826681,6.38807119 8.26826681,6.5 8.54440918,6.5 L15.5444092,6.5 C15.8205516,6.5 16.0705516,6.38807119 16.251516,6.20710678 C16.4324804,6.02614237 16.5444092,5.77614237 16.5444092,5.5 C16.5444092,5.22385763 16.4324804,4.97385763 16.251516,4.79289322 C16.0705516,4.61192881 15.8205516,4.5 15.5444092,4.5 Z" id="矩形" fill-opacity="0.499071241" fill="#4689F5" transform="translate(12.044409, 5.500000) rotate(-315.000000) translate(-12.044409, -5.500000) "></path>
                            <line x1="0" y1="17.9038059" x2="5.92199742" y2="11.9580375" id="路径-2"></line>
                            <circle id="椭圆形" cx="7" cy="10.9038059" r="1.5"></circle>
                        </g>
                    </g>
                </g>
            </g>
        </g>
    </g>
</svg>