<?xml version="1.0" encoding="UTF-8"?>
<svg width="24px" height="24px" viewBox="0 0 24 24" version="1.1" xmlns="http://www.w3.org/2000/svg" xmlns:xlink="http://www.w3.org/1999/xlink">
    <!-- Generator: Sketch 63.1 (92452) - https://sketch.com -->
    <title>icon/文件夹</title>
    <desc>Created with Sketch.</desc>
    <defs>
        <filter x="-10.4%" y="-12.5%" width="120.8%" height="125.0%" filterUnits="objectBoundingBox" id="filter-1">
            <feOffset dx="0" dy="0.5" in="SourceAlpha" result="shadowOffsetOuter1"></feOffset>
            <feGaussianBlur stdDeviation="0.25" in="shadowOffsetOuter1" result="shadowBlurOuter1"></feGaussianBlur>
            <feColorMatrix values="0 0 0 0 0   0 0 0 0 0   0 0 0 0 0  0 0 0 0.144940997 0" type="matrix" in="shadowBlurOuter1" result="shadowMatrixOuter1"></feColorMatrix>
            <feMerge>
                <feMergeNode in="shadowMatrixOuter1"></feMergeNode>
                <feMergeNode in="SourceGraphic"></feMergeNode>
            </feMerge>
        </filter>
        <linearGradient x1="50%" y1="0%" x2="50%" y2="100%" id="linearGradient-2">
            <stop stop-color="#619AF7" offset="0%"></stop>
            <stop stop-color="#82AFF7" offset="75.0777906%"></stop>
            <stop stop-color="#4A8AF2" offset="100%"></stop>
        </linearGradient>
    </defs>
    <g id="icon/文件夹" stroke="none" stroke-width="1" fill="none" fill-rule="evenodd">
        <g id="编组-57" filter="url(#filter-1)" transform="translate(0.000000, 2.000000)">
            <path d="M1.62711864,0 L6.81729513,0 C7.2768746,-9.72601799e-16 7.71502073,0.194353101 8.02347838,0.535039419 L9.1383338,1.7663786 C9.29256262,1.93672175 9.51163569,2.03389831 9.74142543,2.03389831 L22.3728814,2.03389831 C23.2715142,2.03389831 24,2.76238414 24,3.66101695 L24,19.1332492 C24,19.5825656 23.6357571,19.9468085 23.1864407,19.9468085 L0.813559322,19.9468085 C0.364242915,19.9468085 1.38729302e-15,19.5825656 0,19.1332492 L0,1.62711864 C-1.1005078e-16,0.728485831 0.728485831,8.31209985e-16 1.62711864,0 Z" id="矩形" fill="#A1C4FC"></path>
            <path d="M0.813559322,3.94680851 L23.1864407,3.94680851 C23.6357571,3.94680851 24,4.31105143 24,4.76036783 L24,19.1332492 C24,19.5825656 23.6357571,19.9468085 23.1864407,19.9468085 L0.813559322,19.9468085 C0.364242915,19.9468085 1.38729302e-15,19.5825656 0,19.1332492 L0,4.76036783 C-5.50253899e-17,4.31105143 0.364242915,3.94680851 0.813559322,3.94680851 Z" id="矩形" fill="url(#linearGradient-2)"></path>
        </g>
    </g>
</svg>