<?xml version="1.0" encoding="UTF-8"?>
<svg width="118px" height="118px" viewBox="0 0 118 118" version="1.1" xmlns="http://www.w3.org/2000/svg" xmlns:xlink="http://www.w3.org/1999/xlink">
    <!-- Generator: Sketch 63.1 (92452) - https://sketch.com -->
    <title>通过</title>
    <desc>Created with Sketch.</desc>
    <g id="登录" stroke="none" stroke-width="1" fill="none" fill-rule="evenodd">
        <path d="M29.5098515,7.91435272 C57.7291163,-8.3780474 93.8129502,1.29058676 110.10535,29.5098515 C126.39775,57.7291163 116.729116,93.8129502 88.5098515,110.10535 C60.2905868,126.39775 24.2067528,116.729116 7.91435272,88.5098515 C-8.3780474,60.2905868 1.29058676,24.2067528 29.5098515,7.91435272 Z M31.5098515,11.3784543 C5.20375725,26.566285 -3.80937629,60.2037572 11.3784543,86.5098515 C26.566285,112.815946 60.2037572,121.829079 86.5098515,106.641249 C112.815946,91.4534181 121.829079,57.8159458 106.641249,31.5098515 C91.4534181,5.20375725 57.8159458,-3.80937629 31.5098515,11.3784543 Z M34.5098515,16.5746068 C57.9461901,3.04363038 87.91412,11.073513 101.445096,34.5098515 C114.976073,57.9461901 106.94619,87.91412 83.5098515,101.445096 C60.073513,114.976073 30.1055831,106.94619 16.5746068,83.5098515 C3.04363038,60.073513 11.073513,30.1055831 34.5098515,16.5746068 Z M35.5098515,18.3066576 C13.0300982,31.2853492 5.32796594,60.0300982 18.3066576,82.5098515 C31.2853492,104.989605 60.0300982,112.691737 82.5098515,99.7130455 C104.989605,86.7343539 112.691737,57.9896048 99.7130455,35.5098515 C86.7343539,13.0300982 57.9896048,5.32796594 35.5098515,18.3066576 Z M77.0098515,89.5457499 L79.2189085,91.0208077 L81.686374,90.0372722 L80.9661467,92.5940282 L82.6640334,94.6367981 L80.0098515,94.7419023 L78.5917377,96.9879391 L77.6715903,94.4961412 L75.0972611,93.8414983 L77.1827606,92.1963783 L77.0098515,89.5457499 Z M88.0098515,78.5457499 L90.2189085,80.0208077 L92.686374,79.0372722 L91.9661467,81.5940282 L93.6640334,83.6367981 L91.0098515,83.7419023 L89.5917377,85.9879391 L88.6715903,83.4961412 L86.0972611,82.8414983 L88.1827606,81.1963783 L88.0098515,78.5457499 Z M62.0098515,93.5457499 L64.2189085,95.0208077 L66.686374,94.0372722 L65.9661467,96.5940282 L67.6640334,98.6367981 L65.0098515,98.7419023 L63.5917377,100.987939 L62.6715903,98.4961412 L60.0972611,97.8414983 L62.1827606,96.1963783 L62.0098515,93.5457499 Z M87.3960744,64.946095 L89.3535815,65.3561754 C87.556913,73.9325218 82.2487017,81.3886118 74.5098515,85.8566391 C66.9143134,90.241925 57.9967161,91.1602477 49.7973959,88.6095391 L49.3340642,88.4614544 L49.9576778,86.5611634 C57.7483795,89.1178176 66.2688862,88.3051615 73.5098515,84.1245882 C80.7508169,79.944015 85.714851,72.9713678 87.3960744,64.946095 Z M65.3249108,50.795855 L72.0749108,62.487198 C72.3608431,62.5216472 72.6782485,62.5645296 73.0295967,62.6569864 L73.2995106,62.736267 C74.6141104,63.1412206 75.8338871,63.3099358 76.9900176,63.2244126 C78.2216788,63.0537125 79.8441707,62.4079509 81.8131394,61.3543048 L84.5191289,59.8459733 C85.6548083,59.2076305 86.9081134,58.4958586 88.2715838,57.7086586 C89.6433681,56.9166586 90.9971523,56.0934817 92.4312904,55.2654817 L93.8881654,54.3740249 C94.5008615,53.9945901 95.0176789,53.6658752 95.4309401,53.385823 L95.6016895,53.268774 L96.354505,55.8686888 L89.7761761,59.6666888 C87.9990919,60.6926888 86.0481232,61.7775119 83.94127,62.952335 C81.8032398,64.145158 79.9805095,64.9480965 78.504256,65.3431505 C76.9788256,65.7250275 75.3752797,65.6116047 73.7296185,65.0652357 C72.9871417,64.7872282 72.4066649,64.7898129 72.001365,65.0238129 C71.2998844,65.4288129 70.8603112,67.3632311 70.7636866,70.8487824 L70.7489583,71.5665809 L68.2014049,71.042089 C68.3317447,67.5293826 68.8261392,65.1132138 69.7400208,63.7615788 L69.8517037,63.6044903 L64.3977037,54.1578852 L59.908228,56.7498852 L58.684228,54.629855 L65.3249108,50.795855 Z M34.0724655,68.881032 L40.8044655,80.541198 C41.1618808,80.5842595 41.5372962,80.6584979 41.9978884,80.808267 C43.2681343,81.2803975 44.4567341,81.4671128 45.5636877,81.3684126 C46.813349,81.2288894 48.3603101,80.6683048 50.266925,79.6506586 L52.2108834,78.5709585 C53.469328,77.8677097 54.8926122,77.0631553 56.4759541,76.1490124 C57.6232645,75.4866124 58.7989615,74.7812192 59.9962982,74.0580113 L62.4509859,72.5658581 C62.9171492,72.2783654 63.3315567,72.0183887 63.6931843,71.7841543 L64.2868904,71.3899509 L65.0528828,73.9406888 L57.9757232,78.0266888 L56.6578405,78.780424 C55.3088913,79.5456003 53.8690474,80.3457176 52.3590555,81.186335 C50.3145561,82.325158 48.5541796,83.0920965 47.109103,83.4691505 C45.6460265,83.8150275 44.0736575,83.6836047 42.4591732,83.1192357 C41.7166964,82.8412282 41.1673965,82.8258129 40.7932735,83.0418129 C40.0691645,83.4598774 39.6533307,85.4907663 39.5740281,89.118166 L39.5672207,89.4862271 L37.0016673,88.9305583 C37.1366447,85.4951152 37.6478596,83.1107429 38.535312,81.7774414 L38.6436123,81.6224903 L33.1716123,72.1447083 L28.7444904,74.7007083 L27.5564904,72.643032 L34.0724655,68.881032 Z M47.9420371,47.9038346 L48.8780371,49.5250342 C48.0283872,51.9806701 46.9457749,54.3303239 45.6302001,56.5739956 L45.2285388,57.2439176 L45.9613694,57.3612175 L52.1343985,53.7972175 L60.1803985,67.7332983 C61.0656128,69.2665344 60.7206827,70.5436695 59.1294688,71.536749 L58.9475377,71.6459207 L56.3598538,73.1399207 L54.7630231,71.526129 L57.2799994,70.1976597 C57.98148,69.7926597 58.1642978,69.2486844 57.8581159,68.6171119 L57.7903683,68.4896446 L56.4403683,66.151376 L51.2026467,69.175376 L54.2986467,74.5378053 L52.2097934,75.7438053 L49.1137934,70.381376 L43.9072487,73.387376 L47.0572487,78.8433361 L44.9372185,80.0673361 L35.3612185,63.4812175 L43.1554471,58.9812175 C41.6703602,58.8409716 40.0374717,58.786059 38.2913199,58.8257342 L37.6312713,58.8450644 L38.2290555,56.712457 C39.9884859,56.7358799 41.6543856,56.8133028 43.1644007,56.9807256 C44.1577003,55.425171 45.0141769,53.8531319 45.7217718,52.2437223 L46.0158764,51.5516264 L32.1733263,59.5436264 L31.0753263,57.6418346 L47.9420371,47.9038346 Z M75.5319679,30.6029964 L78.4479679,35.6536566 L83.0621512,32.9896566 L84.3401512,35.2032175 L79.7259679,37.8672175 L87.6819679,51.6474138 C88.6899679,53.393321 88.3271477,54.845621 86.617228,55.9157878 L86.4288686,56.0289822 L82.0017468,58.5849822 L80.2609161,56.7217751 C81.7490542,55.9873059 83.1880154,55.2396597 84.4974458,54.4836597 C85.321902,54.0076597 85.5600629,53.3510554 85.1745639,52.570438 L85.1000531,52.4314062 L77.4500531,39.1812175 L65.6651794,45.9852175 L64.3871794,43.7716566 L76.1720531,36.9676566 L73.2560531,31.9169964 L75.5319679,30.6029964 Z M70.6654631,46.7979629 C73.7970608,47.885108 76.3709029,48.9628704 78.3869895,50.03125 L78.7584695,50.2314613 L77.6702085,52.5225378 C75.6146641,51.3814306 73.1391371,50.2655321 70.2036448,49.1641289 L69.5675559,48.9283318 L70.6654631,46.7979629 Z M46.4677934,65.7983696 L41.2612487,68.8043696 L42.8452487,71.5479381 L48.0517934,68.5419381 L46.4677934,65.7983696 Z M53.7943683,61.5683696 L48.5566467,64.5923696 L50.1406467,67.3359381 L55.3783683,64.3119381 L53.7943683,61.5683696 Z M51.0943683,56.8918324 L45.8566467,59.9158324 L47.4766467,62.7217547 L52.7143683,59.6977547 L51.0943683,56.8918324 Z M43.7677934,61.1218324 L38.5612487,64.1278324 L40.1812487,66.9337547 L45.3877934,63.9277547 L43.7677934,61.1218324 Z M54.890612,43.0191194 C57.7281784,43.4145439 60.2735303,43.9786783 62.5125103,44.6870014 L63.0658644,44.8670719 L62.3986649,47.4554484 C60.3396772,46.6566772 57.8063845,45.9856043 54.7879294,45.4827503 L54.1777663,45.3844344 L54.890612,43.0191194 Z M23.8432282,61.0274732 C26.6929579,61.3775036 29.2504731,61.896244 31.515774,62.5836945 L32.0760114,62.7590719 L31.3859887,65.2359176 C29.3146477,64.4832498 26.784822,63.8856818 23.7708226,63.4580454 L23.1615594,63.3747882 L23.8432282,61.0274732 Z M43.5098515,32.163064 C51.1058021,27.7775399 60.0239506,26.8593615 68.2236064,29.4105626 L68.6869568,29.5586755 L68.0632596,31.4589391 C60.2722453,28.9018027 51.7512101,29.7143145 44.5098515,33.8951148 C37.4077499,37.9955151 32.4960914,44.7819258 30.7239715,52.6130309 L30.6233574,53.0748767 L28.6658323,52.6648825 C30.4622213,44.0879897 35.7705811,36.6313339 43.5098515,32.163064 Z M52.0098515,16.5457499 L54.2189085,18.0208077 L56.686374,17.0372722 L55.9661467,19.5940282 L57.6640334,21.6367981 L55.0098515,21.7419023 L53.5917377,23.9879391 L52.6715903,21.4961412 L50.0972611,20.8414983 L52.1827606,19.1963783 L52.0098515,16.5457499 Z M26.0098515,31.5457499 L28.2189085,33.0208077 L30.686374,32.0372722 L29.9661467,34.5940282 L31.6640334,36.6367981 L29.0098515,36.7419023 L27.5917377,38.9879391 L26.6715903,36.4961412 L24.0972611,35.8414983 L26.1827606,34.1963783 L26.0098515,31.5457499 Z M37.0098515,21.5457499 L39.2189085,23.0208077 L41.686374,22.0372722 L40.9661467,24.5940282 L42.6640334,26.6367981 L40.0098515,26.7419023 L38.5917377,28.9879391 L37.6715903,26.4961412 L35.0972611,25.8414983 L37.1827606,24.1963783 L37.0098515,21.5457499 Z" id="通过" fill="#10B98A" fill-rule="nonzero"></path>
    </g>
</svg>