<?xml version="1.0" encoding="UTF-8"?>
<svg width="38px" height="38px" viewBox="0 0 38 38" version="1.1" xmlns="http://www.w3.org/2000/svg" xmlns:xlink="http://www.w3.org/1999/xlink">
    <!-- Generator: Sketch 63.1 (92452) - https://sketch.com -->
    <title>图标38/文件/图片文件</title>
    <desc>Created with Sketch.</desc>
    <g id="图标38/文件/图片文件" stroke="none" stroke-width="1" fill="none" fill-rule="evenodd">
        <g id="编组-9">
            <rect id="矩形" x="0" y="0" width="38" height="38"></rect>
            <g id="jpg备份" transform="translate(4.000000, 1.000000)">
                <path d="M1.816875,0 C1.36265625,0 0.87815625,0.178125 0.5450625,0.534375 C0.21196875,0.890625 0,1.3359375 0,1.78125 L0,33.84375 C0,34.2890625 0.1816875,34.7640625 0.5450625,35.090625 C0.9084375,35.446875 1.36265625,35.625 1.816875,35.625 L28.464375,35.625 C28.9185937,35.625 29.4030937,35.446875 29.7361875,35.090625 C30.0995625,34.734375 30.28125,34.2890625 30.28125,33.84375 L30.28125,10.09375 L19.985625,0 L1.816875,0 Z" id="路径" fill="#17C9C9"></path>
                <path d="M1.816875,35.625 L28.464375,35.625 C28.9185937,35.625 29.4030937,35.446875 29.7361875,35.090625 C30.0995625,34.734375 30.28125,34.2890625 30.28125,33.84375 C30.28125,25.4151885 30.28125,19.0937674 30.28125,14.8794866 C30.28125,28.7098289 20.793125,35.625 1.816875,35.625 Z" id="路径" fill="#05ABB2"></path>
                <path d="M30.28125,10.09375 L21.7621376,10.09375 C21.3180095,10.09375 20.8442728,9.91609874 20.5185788,9.56079621 C20.1632763,9.23510223 19.985625,8.76136553 19.985625,8.31723737 L19.985625,0 L30.28125,10.09375 Z" id="路径" fill="#8AE3E3" fill-rule="nonzero"></path>
                <path d="M23.9237035,26.4147689 L20.2226355,20.6707114 C20.1042013,20.4930602 19.92655,20.4042345 19.7192902,20.4042345 C19.5120304,20.4042345 19.3343792,20.5226687 19.215945,20.6707114 L17.2321725,23.75 L12.790891,16.5551238 C12.6724568,16.3774726 12.4948055,16.2886469 12.2875457,16.2886469 C12.0802859,16.2886469 11.9026346,16.4070811 11.7842005,16.5551238 L5.68484043,26.4147689 C5.56640625,26.5924202 5.56640625,26.8292886 5.68484043,27.0069398 C5.8032746,27.2141996 5.98092586,27.3030253 6.18818567,27.3030253 L23.4203582,27.3030253 C23.627618,27.3030253 23.8348778,27.1845911 23.953312,27.0069398 C24.0421376,26.79968 24.0421376,26.5628117 23.9237035,26.4147689 L23.9237035,26.4147689 Z M18.890251,15.5484333 C18.890251,16.0773391 19.1724188,16.5660681 19.6304646,16.830521 C20.0885104,17.0949738 20.652846,17.0949738 21.1108918,16.830521 C21.5689376,16.5660681 21.8511054,16.0773391 21.8511054,15.5484333 C21.8511054,15.0195276 21.5689376,14.5307986 21.1108918,14.2663457 C20.652846,14.0018929 20.0885104,14.0018929 19.6304646,14.2663457 C19.1724188,14.5307986 18.890251,15.0195276 18.890251,15.5484333 Z" id="形状" fill="#FFFFFF" fill-rule="nonzero"></path>
            </g>
        </g>
    </g>
</svg>