<?xml version="1.0" encoding="UTF-8"?>
<svg width="110px" height="110px" viewBox="0 0 110 110" version="1.1" xmlns="http://www.w3.org/2000/svg" xmlns:xlink="http://www.w3.org/1999/xlink">
    <!-- Generator: Sketch 63.1 (92452) - https://sketch.com -->
    <title>导入中  底框</title>
    <desc>Created with Sketch.</desc>
    <g id="导入中--底框" stroke="none" stroke-width="1" fill="none" fill-rule="evenodd">
        <g id="编组-27备份" fill="#5A80ED">
            <g id="编组-26">
                <rect id="矩形" opacity="0.56" x="0" y="53" width="8" height="4" rx="2"></rect>
                <rect id="矩形备份" x="102" y="53" width="8" height="4" rx="2"></rect>
                <rect id="矩形" transform="translate(55.000000, 4.000000) rotate(-270.000000) translate(-55.000000, -4.000000) " x="51" y="2" width="8" height="4" rx="2"></rect>
                <rect id="矩形备份" opacity="0.08" transform="translate(55.000000, 106.000000) rotate(-270.000000) translate(-55.000000, -106.000000) " x="51" y="104" width="8" height="4" rx="2"></rect>
                <rect id="矩形" opacity="0.8" transform="translate(18.937554, 18.937554) rotate(-315.000000) translate(-18.937554, -18.937554) " x="14.9375542" y="16.9375542" width="8" height="4" rx="2"></rect>
                <rect id="矩形备份" opacity="0" transform="translate(91.062446, 91.062446) rotate(-315.000000) translate(-91.062446, -91.062446) " x="87.0624458" y="89.0624458" width="8" height="4" rx="2"></rect>
                <rect id="矩形" transform="translate(91.062446, 18.937554) rotate(-225.000000) translate(-91.062446, -18.937554) " x="87.0624458" y="16.9375542" width="8" height="4" rx="2"></rect>
                <rect id="矩形备份" opacity="0.32" transform="translate(18.937554, 91.062446) rotate(-225.000000) translate(-18.937554, -91.062446) " x="14.9375542" y="89.0624458" width="8" height="4" rx="2"></rect>
                <rect id="矩形" transform="translate(104.262217, 41.800229) rotate(-195.000000) translate(-104.262217, -41.800229) " x="100.262217" y="39.8002287" width="8" height="4" rx="2"></rect>
                <rect id="矩形备份" opacity="0.48" transform="translate(5.737783, 68.199771) rotate(-195.000000) translate(-5.737783, -68.199771) " x="1.73778286" y="66.1997713" width="8" height="4" rx="2"></rect>
                <rect id="矩形" transform="translate(99.167296, 29.500000) rotate(-210.000000) translate(-99.167296, -29.500000) " x="95.1672956" y="27.5" width="8" height="4" rx="2"></rect>
                <rect id="矩形备份" opacity="0.4" transform="translate(10.832704, 80.500000) rotate(-210.000000) translate(-10.832704, -80.500000) " x="6.83270441" y="78.5" width="8" height="4" rx="2"></rect>
                <rect id="矩形" transform="translate(80.500000, 10.832704) rotate(-240.000000) translate(-80.500000, -10.832704) " x="76.5" y="8.83270441" width="8" height="4" rx="2"></rect>
                <rect id="矩形备份" opacity="0.24" transform="translate(29.500000, 99.167296) rotate(-240.000000) translate(-29.500000, -99.167296) " x="25.5" y="97.1672956" width="8" height="4" rx="2"></rect>
                <rect id="矩形" transform="translate(68.199771, 5.737783) rotate(-255.000000) translate(-68.199771, -5.737783) " x="64.1997713" y="3.73778286" width="8" height="4" rx="2"></rect>
                <rect id="矩形备份" opacity="0.16" transform="translate(41.800229, 104.262217) rotate(-255.000000) translate(-41.800229, -104.262217) " x="37.8002287" y="102.262217" width="8" height="4" rx="2"></rect>
                <rect id="矩形" opacity="0.96" transform="translate(41.800229, 5.737783) rotate(-285.000000) translate(-41.800229, -5.737783) " x="37.8002287" y="3.73778286" width="8" height="4" rx="2"></rect>
                <rect id="矩形备份" opacity="0" transform="translate(68.199771, 104.262217) rotate(-285.000000) translate(-68.199771, -104.262217) " x="64.1997713" y="102.262217" width="8" height="4" rx="2"></rect>
                <rect id="矩形" opacity="0.88" transform="translate(29.500000, 10.832704) rotate(-300.000000) translate(-29.500000, -10.832704) " x="25.5" y="8.83270441" width="8" height="4" rx="2"></rect>
                <rect id="矩形备份" opacity="0" transform="translate(80.500000, 99.167296) rotate(-300.000000) translate(-80.500000, -99.167296) " x="76.5" y="97.1672956" width="8" height="4" rx="2"></rect>
                <rect id="矩形" opacity="0.72" transform="translate(10.832704, 29.500000) rotate(-330.000000) translate(-10.832704, -29.500000) " x="6.83270441" y="27.5" width="8" height="4" rx="2"></rect>
                <rect id="矩形备份" opacity="0" transform="translate(99.167296, 80.500000) rotate(-330.000000) translate(-99.167296, -80.500000) " x="95.1672956" y="78.5" width="8" height="4" rx="2"></rect>
                <rect id="矩形" opacity="0.64" transform="translate(5.737783, 41.800229) rotate(-345.000000) translate(-5.737783, -41.800229) " x="1.73778286" y="39.8002287" width="8" height="4" rx="2"></rect>
                <rect id="矩形备份" opacity="0" transform="translate(104.262217, 68.199771) rotate(-345.000000) translate(-104.262217, -68.199771) " x="100.262217" y="66.1997713" width="8" height="4" rx="2"></rect>
            </g>
        </g>
    </g>
</svg>