<?xml version="1.0" encoding="UTF-8"?>
<svg width="30px" height="30px" viewBox="0 0 30 30" version="1.1" xmlns="http://www.w3.org/2000/svg" xmlns:xlink="http://www.w3.org/1999/xlink">
    <!-- Generator: Sketch 63.1 (92452) - https://sketch.com -->
    <title>卡片</title>
    <desc>Created with Sketch.</desc>
    <g id="卡片" stroke="none" stroke-width="1" fill="none" fill-rule="evenodd">
        <g id="编组-38">
            <rect id="矩形备份-31" x="0" y="0" width="30" height="30"></rect>
            <path d="M28,9.73611111 L28,8.15555556 C28,6.41388889 26.6007494,5 24.8771146,5 L5.12288537,5 C3.39925058,5 2,6.41388889 2,8.15555556 L2,9.73611111 L28,9.73611111 Z M2,12.3694444 L2,21.8444444 C2,23.5861111 3.39650156,25 5.12288537,25 L24.8771146,25 C26.6007494,25 28,23.5861111 28,21.8444444 L28,12.3694444 L2,12.3694444 Z M24.8826127,21.8416667 L21.7459822,21.8416667 C21.4600842,21.8416667 21.2319157,21.6083333 21.2319157,21.3222222 L21.2319157,19.2055556 C21.2319157,18.9166667 21.4628333,18.6861111 21.7459822,18.6861111 L24.8826127,18.6861111 C25.1685106,18.6861111 25.3966792,18.9194444 25.3966792,19.2055556 L25.3966792,21.3222222 C25.3966792,21.6111111 25.1657616,21.8416667 24.8826127,21.8416667 Z" id="形状" fill="#EE5E5E" fill-rule="nonzero"></path>
        </g>
    </g>
</svg>