<?xml version="1.0" encoding="UTF-8"?>
<svg width="30px" height="30px" viewBox="0 0 30 30" version="1.1" xmlns="http://www.w3.org/2000/svg" xmlns:xlink="http://www.w3.org/1999/xlink">
    <!-- Generator: Sketch 63.1 (92452) - https://sketch.com -->
    <title>卡片列表</title>
    <desc>Created with Sketch.</desc>
    <g id="卡片列表" stroke="none" stroke-width="1" fill="none" fill-rule="evenodd">
        <g id="编组-21">
            <rect id="矩形备份-14" x="0" y="0" width="30" height="30"></rect>
            <path d="M11.5,16.5 C12.6045695,16.5 13.5,17.3954305 13.5,18.5 L13.5,25.5 C13.5,26.6045695 12.6045695,27.5 11.5,27.5 L4.5,27.5 C3.3954305,27.5 2.5,26.6045695 2.5,25.5 L2.5,18.5 C2.5,17.3954305 3.3954305,16.5 4.5,16.5 L11.5,16.5 Z M26,23.5 C26.8284271,23.5 27.5,24.1715729 27.5,25 C27.5,25.8284271 26.8284271,26.5 26,26.5 L17,26.5 C16.1715729,26.5 15.5,25.8284271 15.5,25 C15.5,24.1715729 16.1715729,23.5 17,23.5 L26,23.5 Z M26,17.5 C26.8284271,17.5 27.5,18.1715729 27.5,19 C27.5,19.8284271 26.8284271,20.5 26,20.5 L17,20.5 C16.1715729,20.5 15.5,19.8284271 15.5,19 C15.5,18.1715729 16.1715729,17.5 17,17.5 L26,17.5 Z M11.5,2.5 C12.6045695,2.5 13.5,3.3954305 13.5,4.5 L13.5,11.5 C13.5,12.6045695 12.6045695,13.5 11.5,13.5 L4.5,13.5 C3.3954305,13.5 2.5,12.6045695 2.5,11.5 L2.5,4.5 C2.5,3.3954305 3.3954305,2.5 4.5,2.5 L11.5,2.5 Z M26,9.5 C26.8284271,9.5 27.5,10.1715729 27.5,11 C27.5,11.8284271 26.8284271,12.5 26,12.5 L17,12.5 C16.1715729,12.5 15.5,11.8284271 15.5,11 C15.5,10.1715729 16.1715729,9.5 17,9.5 L26,9.5 Z M26,3.5 C26.8284271,3.5 27.5,4.17157288 27.5,5 C27.5,5.82842712 26.8284271,6.5 26,6.5 L17,6.5 C16.1715729,6.5 15.5,5.82842712 15.5,5 C15.5,4.17157288 16.1715729,3.5 17,3.5 L26,3.5 Z" id="形状结合" fill="#EE5E5E"></path>
        </g>
    </g>
</svg>