<?xml version="1.0" encoding="UTF-8"?>
<svg width="30px" height="30px" viewBox="0 0 30 30" version="1.1" xmlns="http://www.w3.org/2000/svg" xmlns:xlink="http://www.w3.org/1999/xlink">
    <!-- Generator: Sketch 63.1 (92452) - https://sketch.com -->
    <title>多表树</title>
    <desc>Created with Sketch.</desc>
    <g id="多表树" stroke="none" stroke-width="1" fill="none" fill-rule="evenodd">
        <g id="编组-21备份">
            <rect id="矩形备份-14" x="0" y="0" width="30" height="30"></rect>
            <path d="M21.4,20.8666667 L25.68,20.8666667 C26.4,20.8666667 27,21.4777778 27,22.3333333 L27,24.5333333 C27,25.2666667 26.4,26 25.68,26 L21.4,26 C20.68,26 20.08,25.3888889 20.08,24.5333333 L20.08,24.2888889 L5.52,24.2888889 C5.03999999,24.2888889 4.67999999,23.9222222 4.68000002,23.4333333 L4.68000002,9.13333333 L4.32000002,9.13333333 C3.60000002,9.13333333 3,8.4 3,7.66666667 L3,5.46666667 C3,4.6111111 3.60000002,4 4.32000002,4 L6.6,4 C7.32,4 7.91999999,4.6111111 7.92000001,5.46666667 L7.92000001,7.66666667 C7.92000001,8.4 7.32000002,9.13333333 6.6,9.13333333 L6.24,9.13333333 L6.24,14.2666667 L12.96,14.2666667 L12.96,14.0222222 C12.96,13.2888889 13.56,12.5555556 14.28,12.5555556 L25.56,12.5555556 C26.28,12.5555556 26.88,13.1666667 26.88,14.0222222 L26.88,16.2222222 C26.88,16.9555556 26.28,17.6888889 25.56,17.6888889 L14.28,17.6888889 C13.56,17.6888889 12.96,17.0777778 12.96,16.2222222 L12.96,15.9777778 L6.24,15.9777778 L6.24,22.7 L19.96,22.7 L19.96,22.3333333 C19.96,21.6 20.56,20.8666667 21.4,20.8666667 Z M10.92,9.13333333 C10.08,9.13333333 9.47999999,8.4 9.47999999,7.66666667 L9.47999999,5.46666667 C9.47999999,4.6111111 10.08,4 10.92,4 L25.68,4 C26.4,4 27,4.6111111 27,5.46666667 L27,7.66666667 C27,8.4 26.4,9.13333333 25.68,9.13333333 L10.92,9.13333333 Z" id="形状" fill="#5A80ED"></path>
            <rect id="矩形" fill="#5A80ED" x="12" y="11" width="15" height="15" rx="2"></rect>
            <rect id="矩形" fill="#FFFFFF" x="15" y="15" width="9" height="2" rx="1"></rect>
            <rect id="矩形备份-2" fill="#FFFFFF" x="15" y="20" width="9" height="2" rx="1"></rect>
        </g>
    </g>
</svg>