<?xml version="1.0" encoding="UTF-8"?>
<svg width="40px" height="40px" viewBox="0 0 40 40" version="1.1" xmlns="http://www.w3.org/2000/svg" xmlns:xlink="http://www.w3.org/1999/xlink">
    <!-- Generator: Sketch 63.1 (92452) - https://sketch.com -->
    <title>已完成</title>
    <desc>Created with Sketch.</desc>
    <g id="登录主页" stroke="none" stroke-width="1" fill="none" fill-rule="evenodd">
        <g id="已完成" fill="#BBC3CD" fill-rule="nonzero">
            <path d="M9.91927782,2.66028663 C19.404745,-2.81615039 31.5337648,0.433810676 37.0102017,9.91927782 C42.4866387,19.404745 39.2366776,31.5337648 29.7512106,37.0102017 C20.2657435,42.4866387 8.13672363,39.2366776 2.66028663,29.7512106 C-2.81615039,20.2657435 0.433810676,8.13672363 9.91927782,2.66028663 Z M10.5915467,3.82469052 C1.7491621,8.9298437 -1.28046262,20.236557 3.82469052,29.0789417 C8.9298437,37.9213264 20.236557,40.9509509 29.0789417,35.845798 C37.9213264,30.7406447 40.9509509,19.4339314 35.845798,10.5915467 C30.7406447,1.7491621 19.4339314,-1.28046262 10.5915467,3.82469052 Z M11.5999501,5.5712964 C19.477711,1.02306904 29.5509647,3.72218924 34.0991919,11.5999501 C38.6474195,19.477711 35.9482992,29.5509647 28.0705383,34.0991919 C20.1927775,38.6474195 10.1195237,35.9482992 5.5712964,28.0705383 C1.02306904,20.1927775 3.72218924,10.1195237 11.5999501,5.5712964 Z M11.9360845,6.15349835 C4.37986494,10.5160838 1.79091292,20.1781843 6.15349835,27.7344039 C10.5160838,35.2906235 20.1781843,37.8795755 27.7344039,33.5169901 C35.2906235,29.1544047 37.8795755,19.4923041 33.5169901,11.9360845 C29.1544047,4.37986494 19.4923041,1.79091292 11.9360845,6.15349835 Z M25.8856644,30.0994117 L26.6282045,30.5952295 L27.4576047,30.2646293 L27.2155115,31.1240431 L27.7862297,31.8106884 L26.8940677,31.8460176 L26.4173908,32.6009879 L26.1080976,31.7634088 L25.2427768,31.5433608 L25.9437851,30.9903793 L25.8856644,30.0994117 Z M29.5831434,26.4019327 L30.3256835,26.8977505 L31.1550837,26.5671503 L30.9129905,27.4265641 L31.4837087,28.1132094 L30.5915467,28.1485386 L30.1148698,28.9035089 L29.8055766,28.0659298 L28.9402558,27.8458818 L29.6412641,27.2929003 L29.5831434,26.4019327 Z M20.8436476,31.4439495 L21.5861877,31.9397673 L22.4155879,31.6091671 L22.1734947,32.4685809 L22.7442129,33.1552263 L21.8520509,33.1905554 L21.375374,33.9455257 L21.0660808,33.1079466 L20.20076,32.8878986 L20.9017683,32.3349171 L20.8436476,31.4439495 Z M29.3768317,21.8306202 L30.0348173,21.9684623 C29.4308951,24.8512678 27.6466224,27.3575166 25.0453282,28.8593745 C22.4922062,30.3334202 19.4946945,30.6421001 16.7386205,29.784719 L16.5828787,29.7349427 L16.7924967,29.0961894 C19.41122,29.9555689 22.2752559,29.6824072 24.7091938,28.2771725 C27.1431317,26.8719378 28.8117146,24.5281909 29.3768317,21.8306202 Z M11.5731714,19.7709185 L13.6333237,23.1995877 L8.25031303,26.4340268 L9.76967535,28.9626703 C9.99629211,29.339824 10.3118993,29.4185137 10.7061963,29.1815962 L10.7061963,29.1815962 L15.0091762,26.596105 C15.2148963,26.4724959 15.3554275,26.3180582 15.422198,26.1379424 C15.5009246,25.8806447 15.282732,25.2651027 14.7676201,24.2913164 L14.7676201,24.2913164 L15.4809456,24.1193665 C16.0338761,25.2337578 16.2692859,25.9556181 16.1974756,26.3020907 C16.1170568,26.5954042 15.8908458,26.8596552 15.5411363,27.0931145 L15.5411363,27.0931145 L10.8952895,29.8846209 C10.200984,30.3018017 9.64180107,30.1478067 9.21946985,29.4449295 L9.21946985,29.4449295 L6.51551995,24.9448012 L7.13268041,24.5739738 L7.89493676,25.8425814 L12.6522153,22.9841201 L11.3079659,20.7469134 L5.59066001,24.1822174 L5.23013336,23.5822002 L11.5731714,19.7709185 Z M23.2149463,17.7690253 L23.5703226,18.3604708 L21.1445391,19.8180285 L22.3651794,21.849515 C22.5196908,22.1066652 22.7221003,22.1717067 22.9706788,22.0223456 L22.9706788,22.0223456 L24.1107113,21.337345 C24.2650014,21.2446381 24.3318089,21.1228318 24.3248556,20.9753474 C24.3161733,20.8055693 24.1358362,20.3889417 23.778694,19.716893 L23.778694,19.716893 L24.4748761,19.555244 C24.9178826,20.4090268 25.118895,20.9765601 25.0676125,21.2407004 C25.0231726,21.4773966 24.8689562,21.6867225 24.5775194,21.8618355 L24.5775194,21.8618355 L23.1289066,22.7322498 C22.5974629,23.0515734 22.1651998,22.914648 21.8252746,22.3489175 L21.8252746,22.3489175 L20.5273787,20.1888559 L19.0873376,21.0541199 L19.1233903,21.1141216 C19.6024126,21.9695967 19.7778575,22.7858192 19.6582967,23.5576386 C19.5078336,24.278028 19.0349944,25.0637907 18.2346289,25.9063552 L18.2346289,25.9063552 L17.5535659,25.5689338 C18.3436676,24.7675354 18.8045507,24.0589546 18.9396364,23.4294692 C19.035285,22.8120137 18.8908162,22.1638403 18.5148015,21.4797986 L18.5148015,21.4797986 L18.4787488,21.4197969 L16.1043954,22.8464524 L15.7490191,22.255007 L23.2149463,17.7690253 Z M21.1772722,14.6301746 L22.3309575,16.5502293 L21.7052253,16.9262071 L20.9120667,15.6061695 L14.8947522,19.2217368 L15.6879109,20.5417744 L15.0621788,20.9177522 L13.9084935,18.9976975 L17.2000159,17.0199512 C16.9220429,16.7903189 16.659521,16.5864016 16.3953069,16.4185001 L16.3953069,16.4185001 L17.0175071,15.8813159 C17.293751,16.0886544 17.5854461,16.3217081 17.8943214,16.6027704 L17.8943214,16.6027704 L21.1772722,14.6301746 Z M27.6480738,9.45882795 C28.2449278,9.5201899 28.7869305,9.62617619 29.2689315,9.76821515 L29.2689315,9.76821515 L29.111552,10.3994296 L30.1572962,9.77108317 L30.5126724,10.3625286 L27.8725971,11.9488459 C28.5712461,12.9756807 29.1874151,13.7487497 29.7125327,14.2732033 C29.8927222,14.4565928 30.0711827,14.6176886 30.2444928,14.7702128 C30.261046,13.8269599 30.1197771,12.8152074 29.8344082,11.7383766 L29.8344082,11.7383766 L30.5357776,11.6436087 C30.872761,12.9810847 31.0038766,14.2089319 30.9188238,15.3100069 C31.2036394,15.5121951 31.4764252,15.6749462 31.7320307,15.7896886 C32.2621142,16.0311663 32.6171585,16.0978262 32.7885919,15.9948186 C32.9377317,15.8935401 32.8156303,15.3602566 32.4137162,14.4001186 L32.4137162,14.4001186 L33.1562886,14.373924 C33.6355691,15.6375657 33.6892078,16.3869807 33.3034825,16.6187479 C32.9434722,16.8350638 32.4032355,16.8096808 31.6827724,16.5425987 C31.4048731,16.4295854 31.114944,16.277135 30.8267071,16.0886689 C30.6490212,17.1520727 30.2603173,18.097276 29.670896,18.941422 L29.670896,18.941422 L29.0190062,18.6331369 C29.6444064,17.7323735 30.0330735,16.7288607 30.1764358,15.6277489 C29.8658683,15.3827023 29.5484213,15.1067904 29.2326665,14.7948626 C28.6114577,14.1881505 27.9506643,13.3602301 27.2382933,12.3299741 L27.2382933,12.3299741 L24.2982095,14.0965547 L25.1531727,15.5194524 L27.2532326,14.2576091 C28.1065036,15.7165226 28.5993217,16.692038 28.7402586,17.1790049 C28.8502932,17.6145418 28.6978798,17.9627804 28.2795969,18.2374428 C28.0738767,18.3610519 27.8149974,18.4932696 27.5304031,18.6409385 L27.5304031,18.6409385 L27.0070516,18.1970881 C27.3516476,18.0133666 27.6396632,17.8519757 27.8710983,17.7129154 C28.0545248,17.5910354 28.0972725,17.390355 28.0044919,17.1194458 C27.880809,16.7971067 27.5356966,16.1644951 26.986298,15.2113103 L26.986298,15.2113103 L25.5033986,16.1023261 L25.65791,16.3594763 C26.5455415,17.9144073 26.9443294,19.3547435 26.8662667,20.6616123 L26.8662667,20.6616123 L26.142456,20.5248713 C26.2172081,19.406653 25.8459749,18.148088 25.0321779,16.7354541 L25.0321779,16.7354541 L23.3171011,13.881087 L26.857202,11.7539798 C26.5825397,11.3356969 26.3112986,10.9036919 26.033178,10.4408216 L26.033178,10.4408216 L26.6674818,10.0596934 C26.9559031,10.5397071 27.2271442,10.971712 27.4915059,11.3728516 L27.4915059,11.3728516 L29.0944087,10.4097304 C28.6518448,10.2556616 28.1184138,10.1445249 27.4803936,10.0728991 L27.4803936,10.0728991 Z M20.8923504,16.971311 L21.2528771,17.5713281 L16.4527402,20.4555413 L16.0922135,19.8555242 L20.8923504,16.971311 Z M14.6251602,10.8111139 C17.1784209,9.3369882 20.1761178,9.02835681 22.9323047,9.88590339 L23.0880527,9.93568924 L22.8784066,10.5744333 C20.2595783,9.71489166 17.3953647,9.98800487 14.9612946,11.3933159 C12.5740336,12.7716017 10.9230559,15.0527482 10.3273854,17.6850524 L10.2935655,17.8402947 L9.63557388,17.7024815 C10.2394021,14.8194923 12.0237247,12.3130534 14.6251602,10.8111139 Z M17.482303,5.56159661 L18.2248432,6.05741435 L19.0542434,5.72681418 L18.8121502,6.58622797 L19.3828684,7.27287331 L18.4907064,7.30820245 L18.0140295,8.06317281 L17.7047362,7.22559368 L16.8394155,7.00554565 L17.5404237,6.45256413 L17.482303,5.56159661 Z M8.74280723,10.6036134 L9.48534739,11.0994312 L10.3147476,10.768831 L10.0726544,11.6282448 L10.6433726,12.3148901 L9.75121059,12.3502193 L9.27453368,13.1051896 L8.96524044,12.2676105 L8.0999197,12.0475625 L8.80092793,11.4945809 L8.74280723,10.6036134 Z M12.4402862,7.24226887 L13.1828264,7.73808662 L14.0122266,7.40748645 L13.7701333,8.26690024 L14.3408516,8.95354558 L13.4486896,8.98887472 L12.9720127,9.74384508 L12.6627194,8.90626595 L11.7973987,8.68621792 L12.4984069,8.1332364 L12.4402862,7.24226887 Z" id="通过"></path>
        </g>
    </g>
</svg>