<?xml version="1.0" encoding="UTF-8"?>
<svg width="110px" height="110px" viewBox="0 0 110 110" version="1.1" xmlns="http://www.w3.org/2000/svg" xmlns:xlink="http://www.w3.org/1999/xlink">
    <!-- Generator: Sketch 63.1 (92452) - https://sketch.com -->
    <title>导入成功 底框</title>
    <desc>Created with Sketch.</desc>
    <defs>
        <circle id="path-1" cx="41" cy="41" r="41"></circle>
    </defs>
    <g id="导入成功-底框" stroke="none" stroke-width="1" fill="none" fill-rule="evenodd">
        <g id="编组-28备份">
            <g id="椭圆形" transform="translate(14.000000, 14.000000)">
                <mask id="mask-2" fill="white">
                    <use xlink:href="#path-1"></use>
                </mask>
                <use id="蒙版" fill="#E5F0FF" xlink:href="#path-1"></use>
                <ellipse fill="#D9E9FE" mask="url(#mask-2)" cx="-8" cy="65" rx="41" ry="21"></ellipse>
                <ellipse id="椭圆形备份-2" fill="#CEE2FD" mask="url(#mask-2)" cx="82" cy="49" rx="41" ry="21"></ellipse>
                <g id="jpg备份" mask="url(#mask-2)">
                    <g transform="translate(23.000000, 20.000000)">
                        <path d="M2.2162963,0 C1.66222222,0 1.07120988,0.217283951 0.664888889,0.651851852 C0.258567901,1.08641975 0,1.62962963 0,2.17283951 L0,41.2839506 C0,41.8271605 0.22162963,42.4065844 0.664888889,42.8049383 C1.10814815,43.2395062 1.66222222,43.4567901 2.2162963,43.4567901 L34.7219753,43.4567901 C35.2760494,43.4567901 35.8670617,43.2395062 36.2733827,42.8049383 C36.716642,42.3703704 36.9382716,41.8271605 36.9382716,41.2839506 L36.9382716,12.3127572 L24.3792593,0 L2.2162963,0 Z" id="路径" fill="#5A80ED" fill-rule="evenodd"></path>
                        <rect id="矩形" fill="#FFFFFF" fill-rule="evenodd" opacity="0.308198475" x="4" y="20" width="28" height="2" rx="1"></rect>
                        <rect id="矩形备份-6" fill="#FFFFFF" fill-rule="evenodd" opacity="0.308198475" x="4" y="16" width="28" height="2" rx="1"></rect>
                        <rect id="矩形备份-7" fill="#FFFFFF" fill-rule="evenodd" opacity="0.308198475" x="4" y="12" width="14" height="2" rx="1"></rect>
                        <path d="M7.61489497,36.8213802 L9.30299173,32.8917456 L11.0076384,36.8213802 L13.6887333,36.8213802 L10.742839,30.9594046 L13.4901337,25.2273342 L10.8917887,25.2273342 L9.38574157,28.9783491 L7.86314449,25.2273342 L5.23169955,25.2273342 L7.94589433,30.9594046 L5,36.8213802 L7.61489497,36.8213802 Z M21.8809675,36.8213802 L21.8809675,34.9052774 L17.6607257,34.9052774 L17.6607257,25.2273342 L15.2775302,25.2273342 L15.2775302,36.8213802 L21.8809675,36.8213802 Z M26.8956079,37 C28.1865054,37 29.1932951,36.7212449 29.9159771,36.1637348 C30.638659,35.6062246 31,34.7158322 31,33.4925575 C31,33.135318 30.9669001,32.8105548 30.9007002,32.5182679 C30.8345003,32.2259811 30.7158922,31.9580514 30.5448759,31.714479 C30.3738595,31.4709066 30.1449183,31.2435724 29.8580522,31.0324763 C29.5711861,30.8213802 29.2015701,30.6184032 28.7492043,30.4235453 L26.9121579,29.6441137 C26.4046255,29.4384303 26.0736261,29.2138024 25.9191598,28.97023 C25.7646934,28.7266576 25.6874602,28.4262517 25.6874602,28.0690122 C25.6874602,27.8958051 25.7067685,27.7280108 25.7453851,27.5656292 C25.7840017,27.4032476 25.8557182,27.2598106 25.9605347,27.135318 C26.0653512,27.0108254 26.2060259,26.9106901 26.3825589,26.834912 C26.5590919,26.759134 26.7797581,26.7212449 27.0445576,26.7212449 C27.5079567,26.7212449 27.8389561,26.8700947 28.0375557,27.1677943 C28.2361553,27.4654939 28.3354551,27.8903924 28.3354551,28.4424899 L30.6193507,28.4424899 L30.6193507,28.1177267 C30.6193507,27.5656292 30.5283259,27.0920162 30.3462763,26.6968877 C30.1642266,26.3017591 29.9104604,25.9769959 29.5849777,25.7225981 C29.259495,25.4682003 28.8733291,25.2841678 28.4264799,25.1705007 C27.9796308,25.0568336 27.4914067,25 26.9618078,25 C25.8253766,25 24.9316783,25.2814614 24.2807129,25.8443843 C23.6297475,26.4073072 23.3042648,27.2625169 23.3042648,28.4100135 C23.3042648,28.8863329 23.364948,29.3058187 23.4863144,29.6684709 C23.6076809,30.0311231 23.7980055,30.3504736 24.0572884,30.6265223 C24.3165712,30.902571 24.6392956,31.1434371 25.0254615,31.3491204 C25.4116274,31.5548038 25.8695099,31.744249 26.3991088,31.917456 C26.7963081,32.0473613 27.1300658,32.1745602 27.4003819,32.2990528 C27.6706981,32.4235453 27.888606,32.5615697 28.0541057,32.7131258 C28.2196053,32.864682 28.3382135,33.0351827 28.40993,33.2246279 C28.4816465,33.4140731 28.5175048,33.6387009 28.5175048,33.8985115 C28.5175048,34.3856563 28.3713134,34.7456022 28.0789306,34.9783491 C27.7865478,35.2110961 27.4583068,35.3274696 27.0942075,35.3274696 C26.7852748,35.3274696 26.5287503,35.2841678 26.324634,35.1975643 C26.1205177,35.1109608 25.9577764,34.9918809 25.8364099,34.8403248 C25.7150435,34.6887686 25.6322937,34.5020298 25.5881604,34.2801083 C25.5440272,34.0581867 25.5219605,33.811908 25.5219605,33.541272 L25.5219605,33.2002706 L23.1387651,33.2002706 L23.1387651,33.6711773 C23.1387651,34.7428958 23.4283896,35.5656292 24.0076384,36.1393775 C24.5868873,36.7131258 25.5495438,37 26.8956079,37 Z" id="XLS" fill="#FFFFFF" fill-rule="nonzero"></path>
                        <path d="M36.9382716,12.3127572 L26.5463199,12.3127572 C26.0045548,12.3127572 25.4266719,12.0960511 25.0293775,11.662639 C24.5959653,11.2653445 24.3792593,10.6874617 24.3792593,10.1456965 L24.3792593,4.14921869e-14 L36.9382716,12.3127572 Z" id="路径" fill-opacity="0.39529611" fill="#FFFFFF" fill-rule="nonzero"></path>
                    </g>
                </g>
                <path d="M64,46 C64.5522847,46 65,46.4477153 65,47 L65,47.999 L66,48 C66.5522847,48 67,48.4477153 67,49 C67,49.5522847 66.5522847,50 66,50 L65,49.999 L65,51 C65,51.5522847 64.5522847,52 64,52 C63.4477153,52 63,51.5522847 63,51 L63,49.999 L62,50 C61.4477153,50 61,49.5522847 61,49 C61,48.4477153 61.4477153,48 62,48 L63,47.999 L63,47 C63,46.4477153 63.4477153,46 64,46 Z" id="形状结合" fill="#4689F5" mask="url(#mask-2)"></path>
                <path d="M16,23 C16.5522847,23 17,23.4477153 17,24 L17,24.999 L18,25 C18.5522847,25 19,25.4477153 19,26 C19,26.5522847 18.5522847,27 18,27 L17,26.999 L17,28 C17,28.5522847 16.5522847,29 16,29 C15.4477153,29 15,28.5522847 15,28 L15,26.999 L14,27 C13.4477153,27 13,26.5522847 13,26 C13,25.4477153 13.4477153,25 14,25 L15,24.999 L15,24 C15,23.4477153 15.4477153,23 16,23 Z" id="形状结合" fill="#465FF5" mask="url(#mask-2)"></path>
                <circle stroke="#4689F5" mask="url(#mask-2)" cx="18" cy="55" r="1.5"></circle>
                <circle id="椭圆形备份" stroke="#4689F5" stroke-width="2" opacity="0.251395089" mask="url(#mask-2)" cx="51" cy="15" r="3"></circle>
                <path d="M41,58 C52.3172884,58 62.5636006,62.5853944 69.9824335,69.9996801 C62.5636006,77.4146056 52.3172884,82 41,82 C29.6827218,82 19.4364178,77.4146138 12.0175866,70.0003399 C19.4364178,62.5853862 29.6827218,58 41,58 Z" id="形状结合" fill="#9FBBF3" mask="url(#mask-2)"></path>
            </g>
            <circle id="椭圆形" stroke-opacity="0.135434878" stroke="#5A80ED" stroke-width="4" cx="55" cy="55" r="53"></circle>
        </g>
    </g>
</svg>