<?xml version="1.0" encoding="UTF-8"?>
<svg width="60px" height="60px" viewBox="0 0 60 60" version="1.1" xmlns="http://www.w3.org/2000/svg" xmlns:xlink="http://www.w3.org/1999/xlink">
    <!-- Generator: Sketch 63.1 (92452) - https://sketch.com -->
    <title>导入失败</title>
    <desc>Created with Sketch.</desc>
    <g id="导入失败" stroke="none" stroke-width="1" fill="none" fill-rule="evenodd">
        <g id="编组-32备份">
            <circle id="椭圆形" stroke-opacity="0.141471809" stroke="#EE5E5E" stroke-width="2.18181818" cx="30" cy="30" r="28.9090909"></circle>
            <circle id="椭圆形" fill="#FDD3D3" cx="30" cy="30" r="23"></circle>
            <circle id="椭圆形" fill="#E24645" cx="30" cy="30" r="14"></circle>
            <path d="M30.0000276,35.6300067 C31.0613675,35.6300067 31.9214873,36.4261524 31.9214873,37.4083078 C31.9214873,38.390518 31.0613675,39.1866029 30.0000276,39.1866029 C28.9390259,39.1866029 28.0788753,38.3905119 28.0788753,37.4083078 C28.0788753,36.4261524 28.9390259,35.6300067 30.0000276,35.6300067 Z M30.0000031,20.8133971 C31.9026827,20.8133971 33.4449761,22.2461455 33.4449761,24.0138344 C33.4449761,24.1321567 33.4368924,24.2484234 33.4234482,24.3640516 L33.4449761,24.3640516 L31.9184813,32.7717895 C31.9184813,32.7811186 31.9214873,32.7897604 31.9214873,32.7990348 C31.9214873,33.7812449 31.0613368,34.5773298 30.0000277,34.5773298 C28.9390259,34.5773298 28.0788754,33.7812388 28.0788754,32.7990348 C28.0788754,32.7897544 28.0815679,32.7810943 28.0818814,32.7717895 L26.5550239,24.3640516 L26.5765334,24.3640516 C26.563083,24.2484234 26.5550239,24.1321324 26.5550239,24.0138344 C26.5550239,22.2461455 28.0973234,20.8133971 30.0000031,20.8133971 Z" id="形状结合" fill="#FFFFFF" fill-rule="nonzero"></path>
        </g>
    </g>
</svg>