<?xml version="1.0" encoding="UTF-8"?>
<svg width="130px" height="130px" viewBox="0 0 130 130" version="1.1" xmlns="http://www.w3.org/2000/svg" xmlns:xlink="http://www.w3.org/1999/xlink">
    <!-- Generator: Sketch 63.1 (92452) - https://sketch.com -->
    <title>编组</title>
    <desc>Created with Sketch.</desc>
    <g id="系统配置" stroke="none" stroke-width="1" fill="none" fill-rule="evenodd">
        <g id="编组" fill-rule="nonzero">
            <g id="通用查询-暂无数据_画板-1备份">
                <path d="M40.7419686,10.1158364 C60.7863979,-0.80692497 67.6524266,-1.7091807 71.0324675,2.15274693 C74.4125085,6.01467456 62.1021872,13.9777641 65.8444976,20.737846 C69.586808,27.4979279 117.614833,12.2894522 123.045455,20.1329246 C128.476077,27.976397 104.279221,40.9599923 101.446001,48.3728426 C96.7330828,60.6968344 118.523923,55.0235603 122.556733,68.1780374 C128.906699,88.8786526 77.5396445,108.277149 81.8868763,96.2949205 C86.0119617,84.9244488 71.0256322,87.7269095 57.6285031,93.5198009 C43.004443,99.8424257 33.3803828,99.2990217 36.5177717,86.0215097 C39.6551606,72.7439978 36.1555024,69.12814 28.3120301,72.0228768 C20.4685579,74.9176136 14.5526316,75.2798829 12.020164,72.0228768 C9.48769633,68.7658707 15.6394394,58.6291652 32.6558442,50.662658 C49.6722489,42.6961508 38.1343131,35.6797462 30.6052632,35.5772172 C10.3318524,35.3106416 17.9326726,22.5457749 40.7419686,10.1158364 Z" id="路径" fill="#F2F5F7"></path>
                <path d="M90.8465482,1.57174893 L91.4070404,1.57174893 L91.4070404,4.58952072 L90.8465482,4.58952072 L90.8465482,1.57174893 Z M90.8465482,9.35370384 L91.4070404,9.35370384 L91.4070404,12.3714756 L90.8465482,12.3714756 L90.8465482,9.35370384 Z M87.1103896,3.35267857 L87.5068353,2.95623288 L89.6404648,5.09020419 L89.2440191,5.48664988 L87.1103896,3.35267857 Z M92.6144908,8.85404563 L93.0109365,8.45759994 L95.1449077,10.5915713 L94.7484621,10.9880169 L92.6144908,8.85404563 Z M85.7259057,6.69239144 L88.7436773,6.69239144 L88.7436773,7.25288365 L85.7259057,7.25288365 L85.7259057,6.69239144 Z M93.5078606,6.69239144 L96.5256322,6.69239144 L96.5256322,7.25288365 L93.5078606,7.25288365 L93.5078606,6.69239144 Z M87.1120985,10.5929383 L89.245728,8.458967 L89.6421737,8.85541269 L87.5082024,10.989384 L87.1120985,10.5929383 Z M92.6131237,5.08917893 L94.747095,2.95520761 L95.1435406,3.35165331 L93.0095694,5.48528282 L92.6131237,5.08917893 Z" id="形状" fill="#E8EDF2"></path>
                <path d="M32.0485305,43.94598 L34.0991115,43.94598 L34.0991115,44.5064722 L32.0485305,44.5064722 L32.0485305,43.94598 Z M34.8851674,43.94598 L36.9357484,43.94598 L36.9357484,44.5064722 L34.8851674,44.5064722 L34.8851674,43.94598 Z M34.2118934,41.7826171 L34.7723855,41.7826171 L34.7723855,43.8331981 L34.2118934,43.8331981 L34.2118934,41.7826171 Z M34.2118934,44.6192541 L34.7723855,44.6192541 L34.7723855,46.6698351 L34.2118934,46.6698351 L34.2118934,44.6192541 Z" id="形状" fill="#B3C3CE"></path>
                <path d="M87.3075871,68.7016191 L89.3581681,68.7016191 L89.3581681,69.2621113 L87.3075871,69.2621113 L87.3075871,68.7016191 Z M90.1442242,68.7016191 L92.1948052,68.7016191 L92.1948052,69.2621113 L90.1442242,69.2621113 L90.1442242,68.7016191 Z M89.4709501,66.5382561 L90.0314423,66.5382561 L90.0314423,68.5888371 L89.4709501,68.5888371 L89.4709501,66.5382561 Z M89.4709501,69.3748932 L90.0314423,69.3748932 L90.0314423,71.4254742 L89.4709501,71.4254742 L89.4709501,69.3748932 Z" id="形状" fill="#D3DBE2"></path>
                <path d="M121,79.4176136 L124.721804,79.4176136 L124.721804,79.9781057 L121,79.9781057 L121,79.4176136 Z M126.146958,79.4176136 L129.868763,79.4176136 L129.868763,79.9781057 L126.146958,79.9781057 L126.146958,79.4176136 Z M125.155844,75.2617695 L125.716336,75.2617695 L125.716336,78.983574 L125.155844,78.983574 L125.155844,75.2617695 Z M125.155844,80.4087278 L125.716336,80.4087278 L125.716336,84.1305323 L125.155844,84.1305323 L125.155844,80.4087278 Z" id="形状" fill="#B3C3CE"></path>
                <path d="M121.794258,59.4528153 C120.287081,59.4528153 119.063568,58.2293019 119.063568,56.722125 C119.063568,55.214948 120.287081,53.9914345 121.794258,53.9914345 C123.301435,53.9914345 124.524949,55.2149479 124.524949,56.722125 C124.524949,58.2293021 123.304853,59.4493977 121.794258,59.4528153 Z M121.794258,54.548509 C120.594668,54.548509 119.62406,55.522535 119.620643,56.722125 C119.620643,57.9217148 120.594668,58.8923232 121.794258,58.8957408 C122.993848,58.8957408 123.964457,57.9217148 123.967874,56.722125 C123.964457,55.5191174 122.993848,54.548509 121.794258,54.548509 Z" id="形状" fill="#E8EDF2"></path>
                <path d="M78.2740943,15.1055835 C77.2351333,15.1055835 76.394395,14.2648453 76.394395,13.2258844 C76.394395,12.1869234 77.2351333,11.3461851 78.2740943,11.3461851 C79.3130554,11.3461851 80.1537936,12.1869233 80.1537936,13.2258844 C80.150376,14.2648454 79.3096378,15.1055835 78.2740943,15.1055835 Z M78.2740943,11.9066772 C77.5461381,11.9066772 76.9548873,12.497928 76.9548873,13.2258844 C76.9548873,13.9538407 77.5461381,14.5450914 78.2740943,14.5450914 C79.0020505,14.5450914 79.5933014,13.9538406 79.5933014,13.2258844 C79.5933014,12.4979282 79.0020505,11.9066772 78.2740943,11.9066772 L78.2740943,11.9066772 Z" id="形状" fill="#B4B4B4"></path>
                <path d="M26.114149,42.4774223 C25.4545455,42.4774223 24.9179767,41.9408535 24.9179767,41.28125 C24.9179767,40.6216465 25.4545455,40.0850777 26.114149,40.0850777 C26.7737525,40.0850777 27.3103213,40.6216465 27.3103213,41.28125 C27.3103213,41.9408535 26.7737525,42.4774223 26.114149,42.4774223 Z M26.114149,40.6455698 C25.7621326,40.6455698 25.478469,40.9326512 25.478469,41.28125 C25.478469,41.6298488 25.7621327,41.9169302 26.114149,41.9169302 C26.4661654,41.9169302 26.7498292,41.6332664 26.7498292,41.28125 C26.7498292,40.9292336 26.4661654,40.6421522 26.114149,40.6455698 Z" id="形状" fill="#D3DBE2"></path>
                <path d="M106.609706,79.0016874 C105.570745,79.0016874 104.730007,78.1609492 104.730007,77.1219883 C104.730007,76.0830273 105.570745,75.242289 106.609706,75.242289 C107.648667,75.242289 108.489405,76.0830272 108.489405,77.1219883 C108.489405,78.1609493 107.648667,79.0016874 106.609706,79.0016874 Z M106.609706,75.802781 C105.88175,75.802781 105.290499,76.3940319 105.290499,77.1219883 C105.290499,77.8499446 105.88175,78.4411953 106.609706,78.4411953 C107.337662,78.4411953 107.928913,77.8499445 107.928913,77.1219883 C107.928913,76.3940321 107.337662,75.8061988 106.609706,75.802781 Z" id="形状" fill="#B3C3CE"></path>
                <path d="M3.19822278,62.5129657 L8.61175667,62.5129657 C8.58441558,62.2703136 8.56732739,62.0242439 8.56732739,61.7781741 C8.56732739,58.3537038 11.342447,55.5785842 14.7669172,55.5785842 C17.6308954,55.5785842 20.1189336,57.5403067 20.7887902,60.3256793 C20.8161313,55.4487141 24.7771703,51.5081809 29.657553,51.5081809 C34.555024,51.5081809 38.5263158,55.4794728 38.5263158,60.3769437 L38.5263158,62.5129657" id="路径" fill="#E8EDF2"></path>
                <path d="M8.61175667,62.7932117 L3.19822278,62.7932117 L3.19822278,62.2327195 L8.30416954,62.2327195 C8.29391665,62.0823436 8.28708135,61.92855 8.28708135,61.7781741 C8.29049893,58.1999102 11.1886535,55.3017558 14.7669172,55.2983382 C17.2664979,55.2922047 19.5447593,56.7302657 20.6144908,58.989384 C21.3082707,54.532788 25.1428571,51.2381878 29.657553,51.2245173 C34.7088176,51.2313526 38.8031443,55.3222617 38.8065619,60.3735262 L38.8065619,62.509548 L38.2460698,62.509548 L38.2460698,60.3735262 C38.2426522,55.6332664 34.3978128,51.7918447 29.657553,51.7850094 C24.9343815,51.7952623 21.1066302,55.6059253 21.0690362,60.3256793 C21.0690362,60.4658023 20.9630896,60.5854195 20.8229665,60.6025077 C20.6826716,60.6185993 20.5523198,60.5277924 20.5187971,60.3906143 C19.8865232,57.7290267 17.5059842,55.8523355 14.7703349,55.8588303 C11.5030759,55.8622479 8.85440874,58.5109151 8.85099115,61.7781741 C8.85099115,62.0139908 8.86466163,62.24639 8.89200271,62.4787893 C8.90234648,62.5581903 8.87736382,62.6381349 8.82365006,62.6975179 C8.76896789,62.7590354 8.69036234,62.7932117 8.61175667,62.7932117 L8.61175667,62.7932117 Z" id="路径" fill="#D3DBE2"></path>
                <path d="M32.5837321,65.4480306 C32.5837321,62.2320361 35.1913876,59.6243806 38.4073821,59.6243806 C41.6233765,59.6243806 44.2310321,62.2320361 44.2310321,65.4480306" id="路径" fill="#E8EDF2"></path>
                <path d="M44.5078606,65.4480306 L43.9473685,65.4480306 C43.9473685,62.3858297 41.4661655,59.9080443 38.4073821,59.9046266 C35.3451811,59.9080442 32.8673957,62.3858296 32.8639782,65.4480306 L32.3034859,65.4480306 C32.3069035,62.0782426 35.037594,59.3475521 38.4073821,59.3441345 C41.7737525,59.3475521 44.5044429,62.0782426 44.5078606,65.4480306 Z" id="路径" fill="#D3DBE2"></path>
                <polygon id="路径" fill="#D3DBE2" points="0 62.235112 1.74982916 62.235112 1.74982916 62.7956041 0 62.7956041"></polygon>
                <polygon id="路径" fill="#D3DBE2" points="106.33527 91.5772172 63.7002734 91.5772172 70.0297334 79.4104367 96.0447711 79.4104367"></polygon>
                <polygon id="路径" fill="#D3DBE2" points="75.474026 88.4124872 32.0495557 88.4124872 43.919002 75.4562329 67.5587834 75.4562329"></polygon>
                <path d="M99.6059466,19.0413321 L58.5567327,19.0413321 C53.3106629,19.0413321 49.0625427,23.29287 49.0625427,28.5389397 L49.0625427,50.7945788 C49.0625427,56.0372309 53.3140806,60.2887688 58.5567327,60.2887688 L63.8916609,60.2887688 L71.4377991,67.8349069 L78.9839371,60.2887688 L99.602529,60.2887688 C104.848599,60.2887688 109.100139,56.0372309 109.100139,50.7945788 L109.100139,28.5389397 C109.103554,23.29287 104.852016,19.0413321 99.6059466,19.0413321 C99.6093642,19.0413321 99.6093642,19.0413321 99.6059466,19.0413321 Z" id="路径" fill="#FEFEFE"></path>
                <path d="M70.3215994,66.7187073 L71.4391661,67.836274 L78.9853041,60.2901358 L76.7501708,60.2901358 L70.3215994,66.7187073 Z M99.6073137,19.0426991 L97.3721804,19.0426991 C102.61825,19.0426991 106.869788,23.294237 106.869788,28.5403068 L106.869788,50.7959459 C106.869788,56.0385979 102.61825,60.2901358 97.3721804,60.2901358 L99.6073137,60.2901358 C104.853383,60.2901358 109.104921,56.0385979 109.104921,50.7959459 L109.104921,28.5403068 C109.104921,23.294237 104.853383,19.0426991 99.6073137,19.0426991 Z" id="形状" fill="#E8EDF2"></path>
                <path d="M61.9453178,40.6708604 C61.9453178,42.1997416 63.184721,43.4391447 64.7136022,43.4391447 C66.2424834,43.4391447 67.4818865,42.1997416 67.4818865,40.6708604 C67.4818865,39.1419792 66.2424834,37.902576 64.7136022,37.902576 C63.184721,37.902576 61.9453178,39.1419792 61.9453178,40.6708604 L61.9453178,40.6708604 Z" id="路径" fill="#D3DBE2"></path>
                <path d="M76.316473,40.6708604 C76.316473,42.1997416 77.5558761,43.4391447 79.0847573,43.4391447 C80.6136386,43.4391447 81.8530417,42.1997416 81.8530417,40.6708604 C81.8530417,39.1419792 80.6136386,37.902576 79.0847573,37.902576 C77.5558761,37.902576 76.316473,39.1419792 76.316473,40.6708604 Z" id="路径" fill="#D3DBE2"></path>
                <path d="M90.6842105,40.6708604 C90.6842105,42.1997416 91.9236136,43.4391447 93.4524949,43.4391447 C94.9813761,43.4391447 96.2207792,42.1997416 96.2207792,40.6708604 C96.2207792,39.1419792 94.9813761,37.902576 93.4524949,37.902576 C91.9236136,37.902576 90.6842105,39.1419792 90.6842105,40.6708604 Z" id="路径" fill="#D3DBE2"></path>
                <polygon id="路径" fill="#E8EDF2" points="106.33527 89.3420839 63.7002734 89.3420839 70.0297334 77.1753034 96.0447711 77.1753034"></polygon>
                <polygon id="路径" fill="#D3DBE2" points="96.0481887 77.1753034 94.3701299 77.1753034 104.657211 89.3420839 106.33527 89.3420839"></polygon>
                <path d="M106.936774,89.6189123 L63.2423103,89.6189123 L69.8656869,76.8916396 L96.1780588,76.8916396 L106.936774,89.6189123 L106.936774,89.6189123 Z M64.1616542,89.0618378 L105.730349,89.0618378 L95.9149009,77.4555494 L70.2006152,77.4555494 L64.1616542,89.0618378 L64.1616542,89.0618378 Z" id="形状" fill="#B3C3CE"></path>
                <polygon id="路径" fill="#E8EDF2" points="75.474026 86.1773539 32.0495557 86.1773539 43.919002 73.217682 67.5587834 73.217682"></polygon>
                <polygon id="路径" fill="#D3DBE2" points="67.5587834 73.217682 66.4412166 73.217682 73.7959672 86.1773539 75.474026 86.1773539"></polygon>
                <polygon id="路径" fill="#FEFEFE" points="43.919002 73.217682 32.0495557 86.1773539 34.284689 86.1773539 45.5970608 73.217682"></polygon>
                <path d="M71.4412166,68.2347702 L63.778879,60.5724325 L58.5567327,60.5724325 C53.160287,60.5655972 48.7891319,56.1944421 48.7822967,50.7979964 L48.7822967,28.5389397 C48.789132,23.142494 53.1602871,18.7713389 58.5567327,18.7645036 L99.6059466,18.7645036 C105.002392,18.7713389 109.373547,23.142494 109.380383,28.5389397 L109.380383,50.7945788 C109.373547,56.1910245 105.002392,60.5621796 99.6059466,60.5690148 L79.1001367,60.5690148 L71.4412166,68.2347702 Z M58.5567327,19.3215781 C53.4678741,19.3284134 49.3462064,23.4500812 49.3393712,28.5389397 L49.3393712,50.7945788 C49.3462065,55.8834374 53.4678743,60.0051051 58.5567327,60.0119403 L64.0078606,60.0119403 L71.4412166,67.4452965 L78.8745728,60.0119403 L99.6093643,60.0119403 C104.698223,60.005105 108.819891,55.8834372 108.826726,50.7945788 L108.826726,28.5389397 C108.819891,23.4500812 104.698223,19.3284134 99.6093643,19.3215781 L58.5567327,19.3215781 Z" id="形状" fill="#B3C3CE"></path>
                <path d="M51.9299385,7.41112013 L34.5854408,7.41112013 C30.2142857,7.41112013 26.6701982,10.9552076 26.6701982,15.3229452 L26.6701982,23.2347702 C26.6701982,27.6059253 30.2142857,31.1465952 34.5854408,31.1465952 L39.0625427,31.1465952 L43.2559809,35.3400334 L47.449419,31.1465952 L51.9265209,31.1465952 C56.297676,31.1465952 59.8383483,27.6059253 59.8383483,23.2347702 L59.8383483,15.3229452 C59.8417634,10.9552076 56.2976759,7.41112013 51.9299385,7.41112013 L51.9299385,7.41112013 Z" id="路径" fill="#D3DBE2"></path>
                <path d="M43.2593985,35.7398966 L38.9497608,31.4302589 L34.5854408,31.4302589 C30.0639098,31.4268413 26.3967874,27.7597188 26.3933698,23.2381878 L26.3933698,15.3229452 C26.3967874,10.8014141 30.0639098,7.13770939 34.5854408,7.13087409 L51.9299385,7.13087409 C56.4514695,7.13429168 60.118592,10.8014141 60.1220096,15.3229452 L60.1220096,23.2347702 C60.118592,27.759719 56.4514695,31.4268413 51.9299385,31.4302589 L47.5656185,31.4302589 L43.2593985,35.7398966 L43.2593985,35.7398966 Z M34.5854408,7.69136617 C30.3714969,7.69478376 26.9572796,11.1090011 26.953862,15.3229452 L26.953862,23.2347702 C26.9572796,27.4487141 30.3714969,30.8629315 34.5888586,30.8697668 L39.18216,30.8697668 L43.2559809,34.950423 L47.3332194,30.8731844 L51.9265209,30.8731844 C56.1404648,30.8697668 59.5546822,27.4521317 59.5615175,23.2381878 L59.5615175,15.3229452 C59.5580999,11.1090012 56.1404648,7.69478389 51.9265209,7.69136617 L34.5854408,7.69136617 Z" id="形状" fill="#B3C3CE"></path>
                <path d="M32.1144908,13.7064038 L55.0639098,13.7064038 L55.0639098,15.2887688 L32.1144908,15.2887688 L32.1144908,13.7064038 Z M32.1144908,18.1288234 L55.0639098,18.1288234 L55.0639098,19.7111885 L32.1144908,19.7111885 L32.1144908,18.1288234 Z M32.1144908,22.5478256 L41.6086808,22.5478256 L41.6086808,24.1301905 L32.1144908,24.1301905 L32.1144908,22.5478256 Z" id="形状" fill="#FEFEFE"></path>
                <path d="M75.9730007,86.4541824 L31.4138756,86.4541824 L43.7959672,72.937436 L67.7159946,72.937436 L75.9730007,86.4541824 Z M32.6852358,85.8971079 L74.9750512,85.8971079 L67.4049897,73.497928 L44.042037,73.497928 L32.6852358,85.8971079 Z" id="形状" fill="#B3C3CE"></path>
                <path d="M127.983937,44.8386663 C128.045455,44.6267729 128.076213,44.4114619 128.079631,44.1927332 C128.079631,42.8120087 126.962064,41.6944421 125.58134,41.6944421 C125.113124,41.6944421 124.651743,41.8311475 124.258715,42.0806348 C123.413499,40.9973552 122.115972,40.3643538 120.741969,40.3649817 C118.271019,40.3649817 116.268284,42.3677162 116.268284,44.8386663 L113.882775,44.8386663" id="路径" fill="#E8EDF2"></path>
                <path d="M116.545113,45.1189123 L113.882775,45.1189123 L113.882775,44.5584203 L115.994874,44.5584203 C116.145249,42.0464585 118.223172,40.0881537 120.738551,40.0847262 C122.115036,40.0819403 123.424254,40.6797626 124.32365,41.7217832 C124.71326,41.5201427 125.143882,41.414196 125.58134,41.414196 C127.115858,41.4176136 128.356459,42.6582152 128.359877,44.1927332 C128.356459,44.4353853 128.322283,44.6780374 128.25393,44.9104367 L127.713944,44.7668959 C127.768626,44.578926 127.795967,44.3875384 127.799385,44.1927332 C127.799385,42.9677408 126.806332,41.9746881 125.58134,41.9746881 C125.164388,41.9781057 124.75769,42.0943054 124.405673,42.3198692 L124.19378,42.4531571 L124.039986,42.2549342 C123.247917,41.2382229 122.030795,40.6441667 120.741969,40.6452282 C118.424812,40.6452282 116.54853,42.5215097 116.545113,44.8352486 L116.545113,45.1189123 L116.545113,45.1189123 Z" id="路径" fill="#D3DBE2"></path>
            </g>
            <path d="M42.144,124.266 L42.144,123.188 C42.858,123.118 43.544,123.048 44.202,122.992 L44.202,122.166 C43.558,122.222 42.872,122.278 42.144,122.334 L42.144,121.228 L44.328,121.228 L44.328,120.402 L42.144,120.402 L42.144,119.478 L41.22,119.478 L41.22,120.402 L39.596,120.402 C39.946,119.94 40.282,119.408 40.59,118.82 L44.426,118.82 L44.426,117.924 L41.01,117.924 C41.122,117.672 41.22,117.42 41.318,117.168 L40.31,117 C40.198,117.308 40.072,117.616 39.946,117.924 L38,117.924 L38,118.82 L39.498,118.82 C39.162,119.45 38.784,119.982 38.392,120.43 L38.616,121.228 L41.22,121.228 L41.22,122.39 C40.268,122.446 39.246,122.488 38.182,122.544 L38.308,123.44 C39.316,123.384 40.296,123.314 41.22,123.258 L41.22,124.266 L42.144,124.266 Z M45.028,124.308 C45.63,123.44 46.008,122.418 46.162,121.242 L47.982,121.242 L47.982,124.28 L48.948,124.28 L48.948,121.242 L50.432,121.242 L50.432,120.36 L46.232,120.36 L46.232,118.904 C47.744,118.736 49.004,118.414 50.04,117.966 L49.396,117.21 C48.416,117.658 47.044,117.966 45.308,118.134 L45.308,120.332 C45.28,121.592 44.944,122.67 44.328,123.58 L45.028,124.308 Z M40.716,129.95 L40.716,129.404 L47.828,129.404 L47.828,129.95 L48.864,129.95 L48.864,124.686 L39.68,124.686 L39.68,129.95 L40.716,129.95 Z M47.828,126.632 L40.716,126.632 L40.716,125.54 L47.828,125.54 L47.828,126.632 Z M47.828,128.536 L40.716,128.536 L40.716,127.444 L47.828,127.444 L47.828,128.536 Z M52.49,129.908 C54.436,129.068 55.836,127.878 56.704,126.366 C57.18,125.47 57.53,124.42 57.754,123.202 L58.888,123.202 L58.888,128.298 C58.888,129.25 59.336,129.726 60.26,129.726 L62.528,129.726 C63.116,129.726 63.536,129.6 63.802,129.348 C64.11,129.04 64.32,128.214 64.432,126.842 L63.48,126.534 C63.41,127.626 63.284,128.27 63.088,128.494 C62.934,128.676 62.682,128.774 62.346,128.774 L60.568,128.774 C60.12,128.774 59.896,128.536 59.896,128.088 L59.896,123.202 L64.236,123.202 L64.236,122.236 L57.908,122.236 C58.006,121.48 58.062,120.654 58.09,119.786 L58.09,118.848 L63.102,118.848 L63.102,117.868 L53.05,117.868 L53.05,118.848 L57.068,118.848 L57.068,119.786 C57.054,120.654 56.998,121.48 56.886,122.236 L52.112,122.236 L52.112,123.202 L56.718,123.202 C56.536,124.084 56.284,124.882 55.948,125.582 C55.192,127.01 53.862,128.144 51.93,129.012 L52.49,129.908 Z M78.152,129.95 L78.698,129.124 C77.69,128.438 76.836,127.472 76.108,126.212 C76.892,124.56 77.326,122.558 77.396,120.22 L78.306,120.22 L78.306,119.254 L74.61,119.254 C74.722,118.638 74.834,117.966 74.918,117.252 L73.938,117.084 C73.658,119.744 73.098,121.858 72.272,123.426 L72.902,124.196 C73.196,123.692 73.476,123.118 73.728,122.474 C74.106,123.874 74.568,125.106 75.114,126.184 C74.47,127.374 73.616,128.34 72.524,129.096 L73.042,129.936 C74.092,129.18 74.96,128.242 75.632,127.122 C76.332,128.298 77.172,129.25 78.152,129.95 Z M66.35,123.594 C67.554,122.782 68.394,121.83 68.856,120.724 L68.856,123.384 L69.794,123.384 L69.794,121.564 C70.298,121.9 70.9,122.348 71.6,122.908 L72.118,122.124 C71.334,121.648 70.55,121.214 69.794,120.836 L69.794,120.682 L72.342,120.682 L72.342,119.8 L69.794,119.8 L69.794,117.126 L68.856,117.126 L68.856,119.8 L66.126,119.8 L66.126,120.682 L68.114,120.682 C67.694,121.452 66.938,122.152 65.86,122.782 L66.35,123.594 Z M71.11,119.478 C71.558,118.89 71.908,118.288 72.188,117.672 L71.46,117.336 C71.208,117.924 70.844,118.512 70.396,119.114 L71.11,119.478 Z M67.344,119.464 L68.072,119.128 C67.82,118.512 67.54,117.924 67.204,117.378 L66.406,117.644 C66.742,118.176 67.05,118.778 67.344,119.464 Z M75.576,125.176 C75.016,124 74.568,122.586 74.218,120.948 L74.4,120.22 L76.472,120.22 C76.416,122.11 76.122,123.762 75.576,125.176 Z M66.252,129.908 C67.652,129.516 68.814,128.998 69.738,128.354 C70.564,128.718 71.278,129.096 71.894,129.46 L72.44,128.676 C71.824,128.34 71.18,128.032 70.508,127.724 C71.236,127.052 71.754,126.254 72.062,125.33 L72.062,124.504 L69.136,124.504 C69.22,124.252 69.318,124 69.416,123.734 L68.478,123.622 C68.38,123.902 68.268,124.196 68.142,124.504 L66.098,124.504 L66.098,125.386 L67.75,125.386 C67.47,125.946 67.148,126.52 66.784,127.136 C67.47,127.388 68.114,127.654 68.73,127.92 C67.918,128.382 66.924,128.76 65.776,129.068 L66.252,129.908 Z M69.584,127.332 C69.08,127.122 68.548,126.926 67.988,126.73 C68.268,126.31 68.52,125.862 68.744,125.386 L71.152,125.386 C70.816,126.114 70.284,126.772 69.584,127.332 Z M81.484,129.824 C82.268,129.824 82.66,129.404 82.66,128.592 L82.66,124.504 C83.094,124.308 83.528,124.112 83.962,123.888 L83.962,122.894 C83.542,123.118 83.108,123.328 82.66,123.524 L82.66,120.766 L84.004,120.766 L84.004,119.8 L82.66,119.8 L82.66,117.154 L81.68,117.154 L81.68,119.8 L80,119.8 L80,120.766 L81.68,120.766 L81.68,123.93 C81.064,124.154 80.42,124.35 79.776,124.504 L80.028,125.484 C80.574,125.316 81.12,125.12 81.68,124.91 L81.68,128.34 C81.68,128.732 81.498,128.942 81.148,128.942 C80.812,128.942 80.448,128.914 80.084,128.872 L80.294,129.824 L81.484,129.824 Z M87.126,129.95 L87.126,129.264 L90.92,129.264 L90.92,129.95 L91.858,129.95 L91.858,125.358 L89.506,125.358 L89.506,123.636 L92.502,123.636 L92.502,122.726 L89.506,122.726 L89.506,121.074 L92.138,121.074 L92.138,117.672 L84.76,117.672 L84.76,122.054 C84.746,124.994 84.242,127.402 83.248,129.25 L84.032,129.95 C84.956,128.13 85.502,126.03 85.67,123.636 L88.526,123.636 L88.526,125.358 L86.188,125.358 L86.188,129.95 L87.126,129.95 Z M91.158,120.164 L85.74,120.164 L85.74,118.61 L91.158,118.61 L91.158,120.164 Z M88.526,122.726 L85.726,122.726 L85.74,122.054 L85.74,122.054 L85.74,121.074 L88.526,121.074 L88.526,122.726 Z M90.92,128.368 L87.126,128.368 L87.126,126.254 L90.92,126.254 L90.92,128.368 Z" id="暂无数据" fill="#AAAAAA"></path>
        </g>
    </g>
</svg>