<?xml version="1.0" encoding="UTF-8"?>
<svg width="45px" height="22px" viewBox="0 0 45 22" version="1.1" xmlns="http://www.w3.org/2000/svg" xmlns:xlink="http://www.w3.org/1999/xlink">
    <!-- Generator: Sketch 63.1 (92452) - https://sketch.com -->
    <title>编组 11备份</title>
    <desc>Created with Sketch.</desc>
    <g id="登录主页" stroke="none" stroke-width="1" fill="none" fill-rule="evenodd">
        <g id="1.3登录页-忘记密码-找回的账号" transform="translate(-180.000000, -22.000000)" fill="#4689F5" fill-rule="nonzero">
            <g id="编组-11">
                <g id="编组" transform="translate(180.000000, 16.000000)">
                    <g id="编组-11备份" transform="translate(0.000000, 6.000000)">
                        <polygon id="路径" points="16.4548365 0.488166872 10.381 21.6068571 6.073 21.6068571 6.0673871 21.588341 8.22636997 14.7967322 8.22741826 14.7989286 12.342 0.487857143"></polygon>
                        <polygon id="路径" points="4.111 0.487857143 7.78409677 13.2588571 5.62525806 20.05047 -2.04223735e-13 0.488166872"></polygon>
                        <path d="M25.6250309,3.01623649 L25.6247332,17.6777817 L27.9976235,17.6785714 L27.9976235,21.6071429 L18.8149781,21.6071429 L18.8149781,17.6785714 L21.6707332,17.6777817 L21.6722073,7.66049945 C23.2898305,6.84682619 24.604307,5.29416186 25.6250309,3.01623649 Z" id="路径"></path>
                        <path d="M25.6251989,0.470562288 L25.6250427,0.482271965 L25.6087795,0.535283473 C24.6361079,3.6421747 23.2922368,5.68617989 21.5942919,6.69232901 L21.6720087,6.65178053 C21.0055182,7.00986189 20.2802438,7.20851847 19.492587,7.23642909 L19.2987332,7.2398447 L19.2987332,3.31127327 C19.9995327,3.31127327 20.8257797,2.49430621 21.654003,0.471897803 L25.6251989,0.470562288 Z" id="路径"></path>
                        <path d="M37.487322,0 C33.3381845,0 29.974644,3.34187455 29.974644,7.46428571 L29.974644,14.5357143 C29.974644,18.6581255 33.3381845,22 37.487322,22 C41.6364595,22 45,18.6581255 45,14.5357143 L45,7.46428571 C45,3.34187455 41.6364595,0 37.487322,0 Z M37.487322,3.92857143 C39.4527029,3.92857143 41.045959,5.51156463 41.045959,7.46428571 L41.045959,14.5357143 C41.045959,16.4884354 39.4527029,18.0714286 37.487322,18.0714286 C35.5219411,18.0714286 33.9286851,16.4884354 33.9286851,14.5357143 L33.9286851,7.46428571 C33.9286851,5.51156463 35.5219411,3.92857143 37.487322,3.92857143 Z" id="矩形备份-26"></path>
                    </g>
                </g>
            </g>
        </g>
    </g>
</svg>