<?xml version="1.0" encoding="UTF-8"?>
<svg width="20px" height="20px" viewBox="0 0 20 20" version="1.1" xmlns="http://www.w3.org/2000/svg" xmlns:xlink="http://www.w3.org/1999/xlink">
    <!-- Generator: Sketch 63.1 (92452) - https://sketch.com -->
    <title>icon/元素/现象</title>
    <desc>Created with Sketch.</desc>
    <g id="icon/元素/现象" stroke="none" stroke-width="1" fill="none" fill-rule="evenodd">
        <g id="地图_定位">
            <rect id="矩形" fill="#000000" fill-rule="nonzero" opacity="0" x="0" y="0" width="20" height="20"></rect>
            <rect id="矩形" fill="#5A80ED" x="0" y="0" width="20" height="20" rx="5"></rect>
            <path d="M10.06,11.312 L10.06,5.504 L13.66,5.504 L13.66,11.312 L14.536,11.312 L14.536,4.676 L9.208,4.676 L9.208,11.312 L10.06,11.312 Z M4.744,13.652 C6.1,13.328 7.372,12.932 8.56,12.452 L8.56,11.624 C8.056,11.828 7.552,12.02 7.024,12.2 L7.024,9.476 L8.368,9.476 L8.368,8.636 L7.024,8.636 L7.024,5.828 L8.536,5.828 L8.536,5 L4.6,5 L4.6,5.828 L6.136,5.828 L6.136,8.636 L4.756,8.636 L4.756,9.476 L6.136,9.476 L6.136,12.464 C5.608,12.608 5.08,12.728 4.54,12.824 L4.744,13.652 Z M8.38,15.236 C9.724,14.732 10.684,14.024 11.26,13.136 C11.86,12.176 12.184,10.892 12.232,9.284 L12.232,6.356 L11.404,6.356 L11.404,9.284 C11.38,10.628 11.116,11.72 10.636,12.56 C10.12,13.352 9.208,14 7.912,14.504 L8.38,15.236 Z M14.272,15.008 C14.656,15.008 14.944,14.912 15.136,14.732 C15.34,14.516 15.484,13.904 15.556,12.92 L14.752,12.668 C14.704,13.412 14.632,13.868 14.536,14.024 C14.452,14.144 14.308,14.216 14.116,14.216 L13.276,14.216 C13.024,14.216 12.904,14.084 12.904,13.832 L12.904,11.264 L12.04,11.264 L12.04,14.012 C12.04,14.672 12.364,15.008 13.024,15.008 L14.272,15.008 Z" id="现" fill="#FFFFFF" fill-rule="nonzero"></path>
        </g>
    </g>
</svg>