<?xml version="1.0" encoding="UTF-8"?>
<svg width="38px" height="38px" viewBox="0 0 38 38" version="1.1" xmlns="http://www.w3.org/2000/svg" xmlns:xlink="http://www.w3.org/1999/xlink">
    <!-- Generator: Sketch 63.1 (92452) - https://sketch.com -->
    <title>图标38/文件/视频文件</title>
    <desc>Created with Sketch.</desc>
    <g id="图标38/文件/视频文件" stroke="none" stroke-width="1" fill="none" fill-rule="evenodd">
        <g id="编组-9">
            <rect id="矩形" x="0" y="0" width="38" height="38"></rect>
            <g id="jpg备份" transform="translate(4.000000, 1.000000)">
                <path d="M1.816875,0 C1.36265625,0 0.87815625,0.178125 0.5450625,0.534375 C0.21196875,0.890625 0,1.3359375 0,1.78125 L0,33.84375 C0,34.2890625 0.1816875,34.7640625 0.5450625,35.090625 C0.9084375,35.446875 1.36265625,35.625 1.816875,35.625 L28.464375,35.625 C28.9185937,35.625 29.4030937,35.446875 29.7361875,35.090625 C30.0995625,34.734375 30.28125,34.2890625 30.28125,33.84375 L30.28125,10.09375 L19.985625,0 L1.816875,0 Z" id="路径" fill="#E9534B"></path>
                <path d="M1.816875,35.625 L28.464375,35.625 C28.9185938,35.625 29.4030938,35.446875 29.7361875,35.090625 C30.0995625,34.734375 30.28125,34.2890625 30.28125,33.84375 C30.28125,25.4151885 30.28125,19.0937674 30.28125,14.8794866 C30.28125,28.7098289 20.793125,35.625 1.816875,35.625 Z" id="路径" fill="#D14841"></path>
                <path d="M30.28125,10.09375 L21.7621376,10.09375 C21.3180095,10.09375 20.8442728,9.91609874 20.5185788,9.56079621 C20.1632763,9.23510223 19.985625,8.76136553 19.985625,8.31723737 L19.985625,3.40144579e-14 L30.28125,10.09375 Z" id="路径" fill="#F19792" fill-rule="nonzero"></path>
                <path d="M16.0903561,14.8431026 C16.2873045,14.8522789 17.5181319,14.9669829 17.515625,16.400783 L17.515625,16.400783 L17.515625,24.0174063 C17.515625,25.5319425 16.0639218,25.5319425 16.0639218,25.5319425 L7.38184848,25.531833 C7.27074475,25.5293131 5.9375,25.4688368 5.9375,24.0174063 L5.9375,24.0174063 L5.9375,16.3568409 C5.9375,14.968516 7.15733073,14.8528223 7.36063586,14.8431811 Z M23.1410257,15.6713448 C23.2335659,15.5776018 23.3738688,15.5776018 23.5141717,15.6244733 C23.6544746,15.6684154 23.7470148,15.8061005 23.75,15.9437856 L23.75,15.9437856 L23.75,24.5212752 C23.75,24.6589603 23.7022373,24.7966454 23.5619344,24.843517 C23.466409,24.8903885 23.4216315,24.8903885 23.3738688,24.8903885 C23.2813286,24.8903885 23.1887883,24.8464464 23.1410257,24.7995749 L23.1410257,24.7995749 L20.009584,22.4149859 C19.9170437,22.3681144 19.869281,22.2304293 19.869281,22.1396157 L19.869281,22.1396157 L19.869281,18.331304 C19.869281,18.2404904 19.9170437,18.1467474 20.009584,18.0559338 L20.009584,18.0559338 Z" id="形状结合" fill="#FFFFFF" fill-rule="nonzero"></path>
            </g>
        </g>
    </g>
</svg>