<?xml version="1.0" encoding="UTF-8"?>
<svg width="38px" height="38px" viewBox="0 0 38 38" version="1.1" xmlns="http://www.w3.org/2000/svg" xmlns:xlink="http://www.w3.org/1999/xlink">
    <!-- Generator: Sketch 63.1 (92452) - https://sketch.com -->
    <title>图标38/文件/压缩包</title>
    <desc>Created with Sketch.</desc>
    <g id="图标38/文件/压缩包" stroke="none" stroke-width="1" fill="none" fill-rule="evenodd">
        <g id="编组-9">
            <rect id="矩形" x="0" y="0" width="38" height="38"></rect>
            <g id="jpg备份" transform="translate(4.000000, 1.000000)">
                <path d="M1.816875,0 C1.36265625,0 0.87815625,0.178125 0.5450625,0.534375 C0.21196875,0.890625 0,1.3359375 0,1.78125 L0,33.84375 C0,34.2890625 0.1816875,34.7640625 0.5450625,35.090625 C0.9084375,35.446875 1.36265625,35.625 1.816875,35.625 L28.464375,35.625 C28.9185937,35.625 29.4030937,35.446875 29.7361875,35.090625 C30.0995625,34.734375 30.28125,34.2890625 30.28125,33.84375 L30.28125,10.09375 L19.985625,0 L1.816875,0 Z" id="路径" fill="#478CED"></path>
                <path d="M1.816875,35.625 L28.464375,35.625 C28.9185938,35.625 29.4030938,35.446875 29.7361875,35.090625 C30.0995625,34.734375 30.28125,34.2890625 30.28125,33.84375 C30.28125,25.4151885 30.28125,19.0937674 30.28125,14.8794866 C30.28125,28.7098289 20.793125,35.625 1.816875,35.625 Z" id="路径" fill="#4478C0"></path>
                <path d="M10.6862385,12.7927388 L10.6862385,14.7380483 L8.015625,14.7380483 L8.015625,16.6806043 L10.6862385,16.6806043 L10.6862385,18.6231603 L8.015625,18.6231603 L8.015625,20.5643397 L10.6875,20.5643397 L10.6875,29.3079069 C10.6875,29.8077557 10.3426898,30.218574 9.89951784,30.2747121 L9.79561349,30.28125 L6.23563651,30.28125 C5.77761882,30.28125 5.40118082,29.9049481 5.34974079,29.4213009 L5.34375,29.3079069 L5.34375,22.5068957 L8.015625,22.5068957 L8.015625,20.5657164 L5.34375,20.5657164 L5.34375,18.6231603 L8.01436349,18.6231603 L8.01436349,16.6806043 L5.34375,16.6806043 L5.34375,14.7380483 L8.01436349,14.7380483 L8.01436349,12.7927388 L10.6862385,12.7927388 Z M9.79435198,26.3933845 L6.234375,26.3933845 L6.234375,28.3359405 L9.79435198,28.3359405 L9.79435198,26.3933845 Z M10.6862385,8.90625 L10.6862385,10.848806 L8.01475,10.84825 L8.015625,12.7913621 L5.34375,12.7913621 L5.34375,10.8460526 L8.01375,10.84525 L8.01436349,8.90625 L10.6862385,8.90625 Z" id="形状结合" fill="#FFFFFF" fill-rule="nonzero"></path>
                <path d="M30.28125,10.09375 L21.7621376,10.09375 C21.3180095,10.09375 20.8442728,9.91609874 20.5185788,9.56079621 C20.1632763,9.23510223 19.985625,8.76136553 19.985625,8.31723737 L19.985625,3.40144579e-14 L30.28125,10.09375 Z" id="路径" fill="#9FC3F5" fill-rule="nonzero"></path>
            </g>
        </g>
    </g>
</svg>