<?xml version="1.0" encoding="UTF-8"?>
<svg width="80px" height="80px" viewBox="0 0 80 80" version="1.1" xmlns="http://www.w3.org/2000/svg" xmlns:xlink="http://www.w3.org/1999/xlink">
    <!-- Generator: Sketch 63.1 (92452) - https://sketch.com -->
    <title>白色</title>
    <desc>Created with Sketch.</desc>
    <g id="白色" stroke="none" stroke-width="1" fill="none" fill-rule="evenodd">
        <g id="无数据" transform="translate(0.000000, 6.000000)" fill-rule="nonzero">
            <path d="M0.160138994,60.962233 C0.160138994,63.4677006 6.8203855,65.773264 17.6871036,67.0259978 C29.3013211,68.2787759 41.0189569,68.2787759 52.6331745,67.0259978 C63.4189988,65.7732639 70.160139,63.4677006 70.160139,60.962233 C70.160139,57.0974159 54.5206937,53.9655814 35.2140681,53.9655814 C15.9074425,53.9655814 0.160138994,57.0974159 0.160138994,60.962233 Z" id="路径" fill="#F2F4F8"></path>
            <polygon id="路径" fill="#AEB8C3" points="18.8994083 30.5485465 51.3953226 30.5485465 61.971823 43.3220978 8.38677559 43.3220978"></polygon>
            <path d="M23.1913215,13.6235912 L47.0267681,13.6235912 C47.4379006,13.5502891 47.8589032,13.6825897 48.1542023,13.9778888 C48.4495015,14.273188 48.5818021,14.6941905 48.5085,15.1053231 L48.5085,27.061367 C48.5770361,27.4705118 48.4426126,27.8874579 48.1480055,28.1795252 C47.8533984,28.4715926 47.4353042,28.6024012 47.0267681,28.5303254 L23.1913215,28.5303254 C22.7847745,28.5976805 22.3707045,28.4647655 22.0793138,28.1733747 C21.787923,27.881984 21.655008,27.467914 21.7223631,27.061367 L21.7223631,15.1053231 C21.6502873,14.696787 21.7810959,14.2786928 22.0731633,13.9840857 C22.3652307,13.6894786 22.7821767,13.5550551 23.1913215,13.6235912 L23.1913215,13.6235912 Z M22.833662,32.9627477 L47.3844276,32.9627477 C47.8122684,32.9169443 48.2287163,33.1193962 48.4569678,33.4841522 C48.6852193,33.8489082 48.6852193,34.3119586 48.4569678,34.6767147 C48.2287163,35.0414707 47.8122684,35.2439226 47.3844276,35.1981192 L22.833662,35.1981192 C22.2624349,35.1369652 21.8292458,34.6549247 21.8292458,34.0804334 C21.8292458,33.5059422 22.2624349,33.0239017 22.833662,32.9627477 L22.833662,32.9627477 Z M22.833662,39.1323729 L47.3844276,39.1323729 C47.8122684,39.0865695 48.2287163,39.2890214 48.4569678,39.6537775 C48.6852193,40.0185335 48.6852193,40.4815839 48.4569678,40.8463399 C48.2287163,41.211096 47.8122684,41.4135479 47.3844276,41.3677444 L22.833662,41.3677444 C22.2624349,41.3065905 21.8292458,40.82455 21.8292458,40.2500587 C21.8292458,39.6755674 22.2624349,39.1935269 22.833662,39.1323729 L22.833662,39.1323729 Z" id="形状" fill="#DEDEE7"></path>
            <path d="M18.2735042,10.8325702 L52.5193952,10.8325702 C52.9279313,10.7604944 53.3460255,10.891303 53.6406325,11.1833704 C53.9352396,11.4754378 54.0696631,11.8923838 54.0011271,12.3015286 L54.0011271,49.5747511 C54.0696631,49.9838959 53.9352396,50.4008419 53.6406325,50.6929093 C53.3460255,50.9849766 52.9279313,51.1157853 52.5193952,51.0437095 L18.2735042,51.0437095 C17.8649681,51.1157853 17.4468739,50.9849766 17.1522669,50.6929093 C16.8576598,50.4008419 16.7232363,49.9838959 16.7917723,49.5747511 L16.7917723,12.2632079 C16.7371057,11.8601413 16.8776735,11.455136 17.170295,11.1726049 C17.4629164,10.8900739 17.8726032,10.7637989 18.2735042,10.8325702 Z" id="路径" fill="#F5F5F7"></path>
            <path d="M22.808115,17.9761788 L46.7074293,17.9761788 C47.1185618,17.9028767 47.5395644,18.0351773 47.8348636,18.3304764 C48.1301627,18.6257755 48.2624633,19.0467781 48.1891613,19.4579107 L48.1891613,31.4139546 C48.2624633,31.8250872 48.1301627,32.2460898 47.8348636,32.5413889 C47.5395644,32.836688 47.1185618,32.9689886 46.7074293,32.8956866 L22.808115,32.8956866 C22.3989701,32.9642226 21.9820241,32.8297991 21.6899568,32.535192 C21.3978894,32.2405849 21.2670808,31.8224907 21.3391565,31.4139546 L21.3391565,19.4579107 C21.2670808,19.0493746 21.3978894,18.6312804 21.6899568,18.3366733 C21.9820241,18.0420662 22.3989701,17.9076427 22.808115,17.9761788 L22.808115,17.9761788 Z M22.437682,34.9650019 L47.001221,34.9650019 C47.4290618,34.9191984 47.8455098,35.1216503 48.0737613,35.4864064 C48.3020128,35.8511624 48.3020128,36.3142128 48.0737613,36.6789688 C47.8455098,37.0437249 47.4290618,37.2461768 47.001221,37.2003733 L22.437682,37.2003733 C21.8664549,37.1392194 21.4332658,36.6571789 21.4332658,36.0826876 C21.4332658,35.5081963 21.8664549,35.0261558 22.437682,34.9650019 L22.437682,34.9650019 Z M22.437682,38.7076524 L47.001221,38.7076524 C47.4290619,38.6618488 47.84551,38.8643007 48.0737615,39.2290568 C48.3020131,39.5938129 48.3020131,40.0568634 48.0737615,40.4216195 C47.84551,40.7863755 47.4290619,40.9888274 47.001221,40.9430238 L22.437682,40.9430238 C21.866455,40.8818697 21.4332661,40.3998293 21.4332661,39.8253381 C21.4332661,39.250847 21.866455,38.7688066 22.437682,38.7076524 Z" id="形状" fill="#DCE0E6"></path>
            <path d="M41.4447262,30.3154293 C41.500983,30.3685204 41.5328679,30.442453 41.5328679,30.5198061 C41.5328679,30.5971591 41.500983,30.6710917 41.4447262,30.7241829 C41.3308049,30.8345002 41.1498939,30.8345002 41.0359725,30.7241829 C38.7980179,28.216904 35.2846643,27.2783367 32.0944867,28.3355288 C30.5575294,28.8468441 29.1376534,29.6588221 27.9175355,30.7241829 C27.8539429,30.7789507 27.7713463,30.8064829 27.6876116,30.8008242 C27.6093842,30.8039089 27.5340612,30.7709551 27.4832347,30.7114093 C27.4276408,30.6605906 27.3959739,30.5887401 27.3959739,30.5134193 C27.3959739,30.4380985 27.4276408,30.3662479 27.4832347,30.3154293 C28.7558221,29.1629216 30.257585,28.2923344 31.8901099,27.760719 C35.2996643,26.6376359 39.0506626,27.6405766 41.4447262,30.3154293 Z M29.3226261,20.7097187 C30.2820568,20.7097187 31.0598291,21.4874909 31.0598291,22.4469217 C31.0598291,23.4063524 30.2820568,24.1841247 29.3226261,24.1841247 C28.3631954,24.1841247 27.5854231,23.4063524 27.5854231,22.4469217 C27.5854231,21.4874909 28.3631954,20.7097187 29.3226261,20.7097187 Z M39.7074192,20.9421593 C40.2449645,20.6317577 40.9072849,20.6317577 41.4448303,20.9421593 C41.9823757,21.2525608 42.3134565,21.8261929 42.3133277,22.4469217 C42.3134565,23.0676504 41.9823757,23.6412825 41.4448303,23.9516841 C40.9072849,24.2620856 40.2449645,24.2620856 39.7074192,23.9516841 C39.1698738,23.6412825 38.8387929,23.0676504 38.8389217,22.4469217 C38.8387929,21.8261929 39.1698738,21.2525608 39.7074192,20.9421593 Z" id="形状结合" fill="#FFFFFF"></path>
            <path d="M46.1837137,45.6852047 C46.1839694,46.4749085 45.871699,47.2326235 45.3151123,47.7928407 C44.7533414,48.3470851 43.9966322,48.658941 43.2074763,48.6614422 L26.7806894,48.6614422 C25.1949775,48.5800235 23.9496576,47.2729985 23.944961,45.6852047 L23.944961,44.8549239 C23.9626485,44.4465239 23.8108299,44.0489601 23.5254275,43.7563017 C23.2400251,43.4636433 22.8463973,43.3018934 22.437682,43.3093242 L8.38631612,43.3093242 L8.38631612,59.710564 C8.35826294,61.3494989 9.66033454,62.702968 11.2991453,62.7378956 L58.9955856,62.7378956 C59.8048818,62.7553891 60.5863902,62.442483 61.1599864,61.8712968 C61.7335827,61.3001106 62.0497766,60.5199266 62.036142,59.710564 L62.036142,43.3093242 L47.6782192,43.3093242 C47.2728382,43.309079 46.8847517,43.4735379 46.6029614,43.7649621 C46.321171,44.0563863 46.1698545,44.4497798 46.1837137,44.8549239 L46.1837137,45.736299 L46.1837137,45.6852047 Z" id="路径" fill="#DCE0E8"></path>
            <path d="M67.949845,0.0644664914 C62.1123321,0.0644664914 57.3988917,3.50055175 57.3988917,7.72859723 C57.4534115,9.66172266 58.3606889,11.4716007 59.8769607,12.6719616 L58.5229642,17.2193459 L64.0028177,14.8051447 C65.2850916,15.1791433 66.614143,15.3683933 67.949845,15.3671809 C73.7745844,15.3671809 78.5007984,11.9310956 78.5007984,7.70305015 C78.5007984,3.47500467 73.7745844,0.0644664914 67.949845,0.0644664914 Z" id="路径" fill="#DCE0E6"></path>
            <path d="M63.7217995,6.82167512 C64.3143891,6.82167512 64.7947778,7.30206387 64.7947778,7.89465342 C64.7947778,8.48724298 64.3143891,8.96763173 63.7217995,8.96763173 C63.12921,8.96763173 62.6488212,8.48724298 62.6488212,7.89465342 C62.6488212,7.30206387 63.12921,6.82167512 63.7217995,6.82167512 Z M67.949845,6.82167512 C68.5424346,6.82167512 69.0228233,7.30206387 69.0228233,7.89465342 C69.0228233,8.48724298 68.5424346,8.96763173 67.949845,8.96763173 C67.3572555,8.96763173 66.8768667,8.48724298 66.8768667,7.89465342 C66.8768667,7.30206387 67.3572555,6.82167512 67.949845,6.82167512 Z M72.1778905,6.82167512 C72.7704801,6.82167512 73.2508688,7.30206387 73.2508688,7.89465342 C73.2508688,8.48724298 72.7704801,8.96763173 72.1778905,8.96763173 C71.585301,8.96763173 71.1049122,8.48724298 71.1049122,7.89465342 C71.1049122,7.30206387 71.585301,6.82167512 72.1778905,6.82167512 Z" id="形状结合" fill="#FFFFFF"></path>
        </g>
    </g>
</svg>