<?xml version="1.0" encoding="UTF-8"?>
<svg width="88px" height="54px" viewBox="0 0 88 54" version="1.1" xmlns="http://www.w3.org/2000/svg" xmlns:xlink="http://www.w3.org/1999/xlink">
    <title>3D模型</title>
    <defs>
        <linearGradient x1="50%" y1="100%" x2="50%" y2="0%" id="linearGradient-1">
            <stop stop-color="#4689F5" offset="0%"></stop>
            <stop stop-color="#43DBFF" offset="100%"></stop>
        </linearGradient>
        <linearGradient x1="50%" y1="100%" x2="50%" y2="0%" id="linearGradient-2">
            <stop stop-color="#4689F5" offset="0%"></stop>
            <stop stop-color="#43DBFF" offset="100%"></stop>
        </linearGradient>
    </defs>
    <g id="dataA模块" stroke="none" stroke-width="1" fill="none" fill-rule="evenodd">
        <g id="3D模型">
            <rect id="矩形备份-28" fill="#4689F5" opacity="0.202892485" x="0" y="0" width="88" height="54"></rect>
            <g id="编组-41" transform="translate(23.000000, 3.500000)" fill-rule="nonzero">
                <path d="M40.7522197,12.439356 L22.0880372,23.738177 C21.9864952,23.7990907 21.9239457,23.9118856 21.9240224,24.0339432 L21.8622964,46.5094209 C21.8622964,46.7739571 22.137418,46.9402108 22.3578681,46.8070241 L41.0220506,35.5082032 C41.1233139,35.4469992 41.1857615,35.3343881 41.1860654,35.2124369 L41.2469117,12.7369593 C41.2477914,12.472423 40.971788,12.3061693 40.7522197,12.439356 L40.7522197,12.439356 Z" id="路径" fill="url(#linearGradient-1)"></path>
                <path d="M32.4877687,24.4535311 C33.5695577,24.4535311 34.4434149,24.5885925 35.1093403,24.8587153 C35.7752656,25.1288381 36.3256733,25.5165143 36.7605634,26.0217439 C37.1954534,26.5269736 37.5107487,27.1147408 37.7064492,27.7850454 C37.9021497,28.4553501 38,29.165673 38,29.9160141 C38,31.0915484 37.8545836,32.0032128 37.5637509,32.6510072 C37.2729182,33.2988017 36.8692859,33.8415484 36.352854,34.2792473 C35.836422,34.7169463 35.2819372,35.0083287 34.6893996,35.1533947 C33.8794169,35.3534856 33.1455399,35.4535311 32.4877687,35.4535311 L32.4877687,35.4535311 L27,35.4535311 L27,24.4535311 Z M31.6152706,26.9446634 L30.6938473,26.9446634 L30.6938473,32.9548954 L31.5989622,32.9548954 C32.370892,32.9548954 32.9199407,32.8761096 33.2461082,32.7185379 C33.5722758,32.5609663 33.8277737,32.2858413 34.0126019,31.8931628 C34.1974302,31.5004843 34.2898443,30.8639449 34.2898443,29.9835448 C34.2898443,28.818015 34.0832716,28.0201523 33.670126,27.5899568 C33.2569805,27.1597612 32.5720287,26.9446634 31.6152706,26.9446634 L31.6152706,26.9446634 Z" id="形状结合" fill="#FFFFFF"></path>
                <path d="M19.2208067,23.8211383 L0.551868977,12.5209401 C0.333749343,12.3896172 0.0613188191,12.5530821 0.0613187752,12.8175646 L0,35.292148 C0,35.4152058 0.0621947608,35.5290802 0.163808744,35.5896909 L18.8327465,46.889889 C19.0508661,47.0212119 19.3224206,46.8577471 19.3232966,46.5932645 L19.3846154,24.1186811 C19.3846154,23.9956232 19.3224206,23.8817488 19.2208067,23.8211383 Z" id="路径" fill="url(#linearGradient-1)"></path>
                <path d="M9.11973576,36 C10.2482797,36 11.1593724,35.8324538 11.853014,35.4973615 C12.5466557,35.1622691 13.0778971,34.6846966 13.4467382,34.0646438 C13.8155794,33.444591 14,32.7968338 14,32.121372 C14,31.5831135 13.8885219,31.1200528 13.6655656,30.73219 C13.4426094,30.3443272 13.1301954,30.0316623 12.7283237,29.7941953 C12.4805945,29.646438 12.1227636,29.5171504 11.6548307,29.4063325 C12.2328654,29.1002639 12.6650151,28.7440633 12.9512799,28.3377309 C13.2375447,27.9313984 13.3806771,27.4775726 13.3806771,26.9762533 C13.3806771,26.121372 13.0283512,25.4116095 12.3236994,24.8469657 C11.6190476,24.2823219 10.476741,24 8.89677952,24 C7.52050647,24 6.4566474,24.2585752 5.70520231,24.7757256 C4.95375723,25.292876 4.44591247,26.0369393 4.18166804,27.0079156 L4.18166804,27.0079156 L7.36085879,27.5540897 C7.44894027,26.9788918 7.61684558,26.5765172 7.86457473,26.3469657 C8.11230388,26.1174142 8.43435178,26.0026385 8.83071841,26.0026385 C9.21607487,26.0026385 9.51885494,26.1081794 9.73905863,26.3192612 C9.95926232,26.530343 10.0693642,26.8126649 10.0693642,27.1662269 C10.0693642,27.5356201 9.92210295,27.8548813 9.62758051,28.1240106 C9.33305808,28.3931398 8.96559317,28.5277045 8.5251858,28.5277045 C8.42058904,28.5277045 8.2747041,28.5145119 8.08753097,28.4881266 L8.08753097,28.4881266 L7.91412056,30.7915567 C8.37654831,30.6649077 8.73988439,30.6015831 9.00412882,30.6015831 C9.49958712,30.6015831 9.89182494,30.7493404 10.1808423,31.0448549 C10.4698596,31.3403694 10.6143683,31.7572559 10.6143683,32.2955145 C10.6143683,32.823219 10.4643545,33.2453826 10.164327,33.5620053 C9.86429948,33.878628 9.48857693,34.0369393 9.03715937,34.0369393 C8.60776218,34.0369393 8.25406001,33.9116095 7.97605285,33.6609499 C7.69804569,33.4102902 7.49298101,32.9604222 7.36085879,32.3113456 L7.36085879,32.3113456 L4,32.7387863 C4.22020369,33.4617414 4.53537022,34.0620053 4.94549959,34.5395778 C5.35562896,35.0171504 5.87861272,35.3799472 6.51445087,35.6279683 C7.15028902,35.8759894 8.01871731,36 9.11973576,36 Z" id="路径" fill="#FFFFFF"></path>
                <path d="M38.7728616,10.4961048 L20.7212855,0.0425822413 C20.6232765,-0.0144965094 20.5022052,-0.014171825 20.404502,0.043431779 L2.47320201,10.4944057 C2.26314238,10.6167387 2.26314238,10.9217216 2.47404903,11.043205 L20.5256251,21.495878 C20.6238788,21.5527968 20.7450019,21.5527968 20.8424086,21.4950285 L38.7737086,11.043205 C38.9837682,10.9225711 38.9837682,10.6175882 38.7728616,10.4961048 Z" id="路径" fill="url(#linearGradient-2)"></path>
            </g>
        </g>
    </g>
</svg>