<?xml version="1.0" encoding="UTF-8"?>
<svg width="88px" height="54px" viewBox="0 0 88 54" version="1.1" xmlns="http://www.w3.org/2000/svg" xmlns:xlink="http://www.w3.org/1999/xlink">
    <!-- Generator: Sketch 63.1 (92452) - https://sketch.com -->
    <title>柱状图</title>
    <desc>Created with Sketch.</desc>
    <defs>
        <linearGradient x1="50%" y1="100%" x2="50%" y2="0%" id="linearGradient-1">
            <stop stop-color="#4689F5" offset="0%"></stop>
            <stop stop-color="#43DBFF" offset="100%"></stop>
        </linearGradient>
    </defs>
    <g id="dataV模块" stroke="none" stroke-width="1" fill="none" fill-rule="evenodd">
        <g id="柱状图">
            <rect id="矩形备份-28" fill="#4689F5" opacity="0.202892485" x="0" y="0" width="88" height="54"></rect>
            <g id="堆积柱状图" transform="translate(23.000000, 6.000000)" fill-rule="nonzero">
                <polygon id="路径" fill-opacity="0.01" fill="#011528" points="0.00419023236 0.00419023236 41.9064184 0.00419023236 41.9064184 41.9064184 0.00419023236 41.9064184"></polygon>
                <g id="柱状图" transform="translate(0.000000, 3.000000)">
                    <path d="M41.9092118,37.5138676 L41.9092118,38.9106086 L0.00698369241,38.9106086 L0.00698369241,37.5138676 L41.9092118,37.5138676 Z M7,4 L7,35 L1,35 L1,4 L7,4 Z M21,8 L21,35 L15,35 L15,8 L21,8 Z M35,10 L35,35 L29,35 L29,10 L35,10 Z" id="形状结合" fill="url(#linearGradient-1)"></path>
                    <polygon id="路径" fill="#FFFFFF" points="7 10 13 10 13 35 7 35"></polygon>
                    <polygon id="路径" fill="#FFFFFF" points="21 0 27 0 27 35 21 35"></polygon>
                    <polygon id="路径" fill="#FFFFFF" points="35 18 41 18 41 35 35 35"></polygon>
                </g>
            </g>
        </g>
    </g>
</svg>