<?xml version="1.0" encoding="UTF-8"?>
<svg width="88px" height="54px" viewBox="0 0 88 54" version="1.1" xmlns="http://www.w3.org/2000/svg" xmlns:xlink="http://www.w3.org/1999/xlink">
    <title>关系图</title>
    <defs>
        <linearGradient x1="50%" y1="100%" x2="50%" y2="0%" id="linearGradient-1">
            <stop stop-color="#4689F5" offset="0%"></stop>
            <stop stop-color="#43DBFF" offset="100%"></stop>
        </linearGradient>
    </defs>
    <g id="dataA模块" stroke="none" stroke-width="1" fill="none" fill-rule="evenodd">
        <g id="关系图">
            <rect id="矩形备份-28" fill="#4689F5" opacity="0.202892485" x="0" y="0" width="88" height="54"></rect>
            <g transform="translate(23.000000, 6.000000)">
                <rect id="矩形" fill="url(#linearGradient-1)" x="0" y="0" width="42" height="42" rx="6"></rect>
                <path d="M30.9290076,8.82813855 C31.6709742,10.54467 31.3218953,12.5379647 30.0407547,13.9002001 C28.7596141,15.2624356 26.7914577,15.7330547 25.0326593,15.0977196 L23.1125268,17.460155 L23.0713812,17.4338677 C24.356561,18.2307597 25.3721114,19.3960475 25.9858678,20.7780796 L28.5849042,19.9197395 C28.1743583,18.0299689 29.2682267,16.1379132 31.1107897,15.5507349 C32.9533528,14.9635566 34.9402673,15.8738445 35.6988358,17.6527092 C36.4574043,19.4315738 35.7388236,21.4955643 34.0395387,22.4187339 C32.3402538,23.3419035 30.217614,22.8214613 29.1380852,21.2169646 L26.4338987,22.1175932 L26.4201835,22.0627325 C26.9638284,24.3419621 26.4140441,26.7443496 24.9332238,28.5602873 L24.8486466,28.662008 L26.536763,30.2392509 C27.5486151,29.253587 29.1347115,29.1716964 30.2426941,30.0479126 C31.3506768,30.9241288 31.6365257,32.4863934 30.9105833,33.6981608 C30.1846409,34.9099282 28.6723065,35.3949539 27.3769978,34.8314286 C26.0816891,34.2679033 25.4055894,32.8307973 25.7972834,31.4736148 L23.84172,29.6460704 L23.8531493,29.635784 C22.5176472,30.7235172 20.8472446,31.3162504 19.1248233,31.3136047 C17.0698914,31.3159861 15.1044981,30.4727937 13.6901628,28.9820283 L13.7233079,29.0163162 L12.8318179,30.1135286 C13.9334813,31.7026107 13.6462428,33.8688172 12.1685078,35.1158755 C10.6907728,36.3629338 8.50709537,36.2819295 7.12581585,34.928815 C5.74453632,33.5757005 5.61858069,31.3941664 6.83495078,29.8910726 C8.05132088,28.3879788 10.2111651,28.0561945 11.8226054,29.1248945 L12.8283891,27.8893876 L12.8398184,27.9099604 C12.0444198,26.6920595 11.622143,25.2683233 11.6248775,23.8137007 C11.6248775,22.2067416 12.1300552,20.7175044 12.990686,19.4968556 L12.9815425,19.5105707 L11.8683228,18.4705048 C10.2720522,19.5625825 8.10705779,19.2615014 6.86934575,17.7753079 C5.63163372,16.2891144 5.7272651,14.1053898 7.09015884,12.7330828 C8.45305257,11.3607758 10.6360788,11.2501045 12.1307714,12.4775426 C13.6254639,13.7049807 13.9414532,15.8678377 12.8603913,17.4715844 L13.8947483,18.4385028 L13.865032,18.4659331 C15.2664534,17.0837299 17.1564529,16.3099925 19.1248233,16.3126537 C20.0928901,16.3126537 21.0186682,16.4955225 21.8678696,16.8304008 L21.825581,16.8143998 L23.7777156,14.4119618 C22.1815149,13.1908818 21.5411161,11.0882878 22.1856337,9.18474735 C22.8301512,7.28120686 24.6162081,6 26.625912,6 C28.495946,6 30.187041,7.11160714 30.9290076,8.82813855 Z" id="路径" fill="#FFFFFF" fill-rule="nonzero"></path>
            </g>
        </g>
    </g>
</svg>