<?xml version="1.0" encoding="UTF-8"?>
<svg width="88px" height="54px" viewBox="0 0 88 54" version="1.1" xmlns="http://www.w3.org/2000/svg" xmlns:xlink="http://www.w3.org/1999/xlink">
    <!-- Generator: Sketch 63.1 (92452) - https://sketch.com -->
    <title>基础地图</title>
    <desc>Created with Sketch.</desc>
    <defs>
        <linearGradient x1="50%" y1="100%" x2="50%" y2="0%" id="linearGradient-1">
            <stop stop-color="#4689F5" offset="0%"></stop>
            <stop stop-color="#43DBFF" offset="100%"></stop>
        </linearGradient>
    </defs>
    <g id="dataA模块" stroke="none" stroke-width="1" fill="none" fill-rule="evenodd">
        <g id="基础地图">
            <rect id="矩形备份-28" fill="#4689F5" opacity="0.202892485" x="0" y="0" width="88" height="54"></rect>
            <g id="组件-地图" transform="translate(22.500000, 5.000000)">
                <path d="M10.1552869,15.5952955 C10.7671827,17.5017965 11.7477872,19.2231425 13.0060615,20.6613558 L13.2799085,20.965175 L21.7051343,30.0394016 C21.9200438,30.2781928 22.2268088,30.4146341 22.5487805,30.4146341 C22.8247561,30.4146341 23.0895596,30.3143915 23.2949222,30.135375 L23.3924266,30.0394016 L31.8157797,20.9614446 C33.2050239,19.4664449 34.2840275,17.6375455 34.9402867,15.5961389 L40.8366259,15.5963808 C42.6635339,15.5963808 44.0337148,16.9665618 44.0337148,18.6412274 L44.0337148,39.9551534 C44.0337148,41.629819 42.5112916,43 40.8366259,43 L3.2327707,43 C1.55810508,43 0.0356817958,41.629819 0.0356817958,39.9551534 L0.0356817958,18.6412274 C0.0356817958,16.9665618 1.55810508,15.5963808 3.2327707,15.5963808 L10.1552869,15.5952955 Z M22.5480314,0 C28.3383844,0 33.0365854,5.13596097 33.0365854,11.4736974 C33.0365854,14.6425657 31.8620351,17.5113689 29.9623799,19.5875762 L23.2236974,26.9634163 C23.0517698,27.1574341 22.8063578,27.2682927 22.5487805,27.2682927 C22.2912032,27.2682927 22.0457911,27.1574341 21.8738635,26.9634163 L15.1336829,19.5906071 C13.2340277,17.5128844 12.0609756,14.6455966 12.0609756,11.4767284 C12.0609756,5.13899194 16.7591766,0 22.5480314,0 Z" id="形状结合" fill="url(#linearGradient-1)" fill-rule="nonzero"></path>
                <path d="M22.3965382,15.4349038 C24.9846577,15.4349038 26.963808,13.3035112 26.963808,10.867634 C26.963808,8.27951437 24.8324154,6.3003641 22.3965382,6.3003641 C19.9606609,6.14812177 17.8292683,8.27951437 17.8292683,10.867634 C17.8292683,13.4557536 19.9606609,15.4349038 22.3965382,15.4349038 Z" id="路径" fill="#FFFFFF"></path>
                <path d="M2.62195122,31.9878049 C7.8119345,36.0814319 13.1664065,38.077498 18.6853671,37.9760031 C26.963808,37.8237608 33.6341129,30.0847758 42.3590492,30.4146341" id="路径-4" stroke="#FFFFFF" stroke-width="3.14634146" stroke-linecap="round" stroke-dasharray="5.243902319953555"></path>
            </g>
        </g>
    </g>
</svg>