<?xml version="1.0" encoding="UTF-8"?>
<svg width="88px" height="54px" viewBox="0 0 88 54" version="1.1" xmlns="http://www.w3.org/2000/svg" xmlns:xlink="http://www.w3.org/1999/xlink">
    <!-- Generator: Sketch 63.1 (92452) - https://sketch.com -->
    <title>仪表盘</title>
    <desc>Created with Sketch.</desc>
    <defs>
        <linearGradient x1="50%" y1="100%" x2="50%" y2="0%" id="linearGradient-1">
            <stop stop-color="#4689F5" offset="0%"></stop>
            <stop stop-color="#43DBFF" offset="100%"></stop>
        </linearGradient>
        <linearGradient x1="50%" y1="100%" x2="50%" y2="0%" id="linearGradient-2">
            <stop stop-color="#4689F5" offset="0%"></stop>
            <stop stop-color="#43DBFF" offset="100%"></stop>
        </linearGradient>
    </defs>
    <g id="dataV模块" stroke="none" stroke-width="1" fill="none" fill-rule="evenodd">
        <g id="仪表盘">
            <rect id="矩形备份-28" fill="#4689F5" opacity="0.202892485" x="0" y="0" width="88" height="54"></rect>
            <g id="仪表盘-(1)" transform="translate(23.000000, 10.000000)" fill-rule="nonzero">
                <path d="M20.8857143,0 C32.4205758,0 41.7714286,9.3508528 41.7714286,20.8857143 C41.7714286,25.3875419 40.3471197,29.5567043 37.9245489,32.9671547 L31.5110305,29.8612073 C33.3725568,27.5344653 34.4857143,24.5829429 34.4857143,21.3714286 C34.4857143,13.860356 28.3967869,7.77142857 20.8857143,7.77142857 C13.3746417,7.77142857 7.28571429,13.860356 7.28571429,21.3714286 C7.28571429,24.5458816 8.37332806,27.4663089 10.196251,29.7804057 L3.90670475,33.0509385 C1.44777455,29.6250889 0,25.4244745 0,20.8857143 C0,9.3508528 9.3508528,0 20.8857143,0 Z" id="形状结合" fill="url(#linearGradient-1)"></path>
                <path d="M20.8857143,10.6857143 C26.7872713,10.6857143 31.5714286,15.4698715 31.5714286,21.3714286 C31.5714286,24.0022488 30.6207043,26.4110155 29.0440856,28.2728989 L25.6280596,26.2448478 C26.8973342,25.0095012 27.6857143,23.2825329 27.6857143,21.3714286 C27.6857143,17.6158923 24.6412506,14.5714286 20.8857143,14.5714286 C17.130178,14.5714286 14.0857143,17.6158923 14.0857143,21.3714286 C14.0857143,23.3987196 14.9728684,25.2188047 16.3801311,26.4646383 L12.8787709,28.4478697 C11.2117998,26.5631267 10.2,24.0854369 10.2,21.3714286 C10.2,15.4698715 14.9841572,10.6857143 20.8857143,10.6857143 Z" id="形状结合" fill="#FFFFFF"></path>
                <path d="M24.899417,14.1117167 C24.899417,14.1117167 24.6597186,18.1061627 24.3683488,22.1063335 L24.30663,22.962184 C24.0626257,26.2324488 23.794221,29.315228 23.6076295,29.9979047 C23.1770336,31.5722117 21.5981822,32.4309245 20.0193308,32.0015681 C18.4404794,31.7153305 17.5792878,30.1410235 18.0098836,28.5667166 C18.3586662,27.2900968 22.6761071,18.5698677 24.2937122,15.3253643 L24.5003982,14.9103197 L24.8391336,14.2305053 L24.8922404,14.1260286 L24.899417,14.1117167 Z" id="路径" fill="url(#linearGradient-2)"></path>
            </g>
        </g>
    </g>
</svg>