<?xml version="1.0" encoding="UTF-8"?>
<svg width="88px" height="54px" viewBox="0 0 88 54" version="1.1" xmlns="http://www.w3.org/2000/svg" xmlns:xlink="http://www.w3.org/1999/xlink">
    <!-- Generator: Sketch 63.1 (92452) - https://sketch.com -->
    <title>图形导航</title>
    <desc>Created with Sketch.</desc>
    <defs>
        <linearGradient x1="50%" y1="100%" x2="50%" y2="0%" id="linearGradient-1">
            <stop stop-color="#4689F5" offset="0%"></stop>
            <stop stop-color="#43DBFF" offset="100%"></stop>
        </linearGradient>
        <linearGradient x1="50%" y1="100%" x2="50%" y2="0%" id="linearGradient-2">
            <stop stop-color="#4689F5" offset="0%"></stop>
            <stop stop-color="#43DBFF" offset="100%"></stop>
        </linearGradient>
        <linearGradient x1="50%" y1="100%" x2="50%" y2="0%" id="linearGradient-3">
            <stop stop-color="#4689F5" offset="0%"></stop>
            <stop stop-color="#43DBFF" offset="100%"></stop>
        </linearGradient>
    </defs>
    <g id="dataA模块" stroke="none" stroke-width="1" fill="none" fill-rule="evenodd">
        <g id="图形导航">
            <rect id="矩形备份-28" fill="#4689F5" opacity="0.202892485" x="0" y="0" width="88" height="54"></rect>
            <g id="编组-29" transform="translate(19.000000, 9.000000)">
                <path d="M1.1127893,4.7328866 L15.2833167,0.222600757 C16.0407357,-0.0133313368 16.6547452,0.395999414 16.6547452,1.13686658 L16.6547452,28.3635864 C16.6547452,29.1044536 16.4573871,29.4667313 15.6999681,29.7026634 L1.37142857,35.8006055 C0.614009486,36.0365376 0,35.6272069 0,34.8863397 L0,6.16470551 C0,5.42383835 0.355370211,4.96881869 1.1127893,4.7328866 Z" id="矩形" fill="url(#linearGradient-1)"></path>
                <path d="M20.6098784,0.726053682 L33.6238273,6.42076207 C33.921383,6.55096798 34.2593533,6.55326642 34.5586524,6.42711957 L48.163365,0.693083687 C48.7661478,0.439026301 49.4607539,0.721724039 49.7148113,1.32450676 C49.776178,1.47010704 49.8077922,1.62651416 49.8077922,1.78451835 L49.8077922,28.5948827 C49.8077922,29.0683889 49.5257764,29.4963942 49.0906828,29.6832141 L34.8465269,35.7993488 C34.5481603,35.927461 34.2102813,35.927461 33.9119146,35.7993488 L19.6677588,29.6832141 C19.2326652,29.4963942 18.9506494,29.0683889 18.9506494,28.5948827 L18.9506494,1.81113085 C18.9506494,1.15699618 19.4809303,0.626715265 20.1350649,0.626715265 C20.2984946,0.626715265 20.4601558,0.660537325 20.6098784,0.726053682 Z" id="矩形" fill="url(#linearGradient-2)"></path>
                <polygon id="矩形" fill="#FFFFFF" points="0 14.4 16.6547452 8.7130146 16.6547452 10.7701575 0 16.4571429"></polygon>
                <polygon id="矩形" fill="#FFFFFF" points="18.9506494 8.50308463 33.9869278 15.4285714 49.8077922 8.22857143 49.8077922 10.2857143 33.9673177 17.4857143 18.9506494 10.5602275"></polygon>
                <path d="M45.8231777,21.4204002 L48.3987926,28.5833146 C48.5073109,28.8236636 48.3428378,29.2288472 48.0935848,29.3356946 L36.7178109,34.2121485 C36.4566886,34.3240837 36.2939111,34.0309306 36.4244723,33.6859221 L37.7758647,28.9774653 C38.2981092,27.595258 39.6037204,27.0355815 40.1259649,27.9700477 L40.751641,29.0927124 C41.0246324,29.5798498 41.7147412,29.2514222 41.9504295,28.5201502 L43.9885395,22.2046814 C44.3581801,21.0595768 45.4552327,20.5893032 45.8231777,21.4204002 Z M40.6193843,20.6955048 C41.5367033,20.3022776 42.2810713,20.9372415 42.2810713,22.1129641 C42.2810713,23.2886868 41.5367033,24.5618272 40.6193843,24.9550545 C39.7020652,25.3482817 38.9576972,24.7133178 38.9576972,23.5375952 C38.9576972,22.3618725 39.7020652,21.0887321 40.6193843,20.6955048 Z" id="形状结合" fill="#FFFFFF" fill-rule="nonzero" opacity="0.30061849"></path>
                <path d="M17.2285714,14.4 C21.7728,14.4 25.4571429,17.7490291 25.4571429,21.8813809 C25.4571429,24.0276484 24.3318857,26.4387271 22.8713143,27.8933372 C22.0021714,28.7581404 20.4130286,30.3192305 18.1008,32.5738298 C17.8769259,32.7921325 17.5614272,32.915671 17.2313871,32.914274 C16.901347,32.9128532 16.587164,32.7866267 16.3656,32.5664225 L16.0878857,32.2914262 C14.696255,30.9033806 13.2980709,29.5206706 11.8933714,28.1433338 C10.2620571,26.557244 9,24.1619058 9,21.8813809 C9,17.7490291 12.6843429,14.4 17.2285714,14.4 Z" id="路径" fill="#FFFFFF" fill-rule="nonzero"></path>
                <path d="M17.2285714,18.1406905 C14.9554286,18.1406905 13.1142857,19.815668 13.1142857,21.8813809 C13.1142857,23.9470939 14.9554286,25.6220714 17.2285714,25.6220714 C19.5017143,25.6220714 21.3428572,23.9470939 21.3428572,21.8813809 C21.3428572,19.815668 19.5017143,18.1406905 17.2285714,18.1406905 Z" id="路径" fill="url(#linearGradient-3)" fill-rule="nonzero"></path>
            </g>
        </g>
    </g>
</svg>