<?xml version="1.0" encoding="UTF-8"?>
<svg width="88px" height="54px" viewBox="0 0 88 54" version="1.1" xmlns="http://www.w3.org/2000/svg" xmlns:xlink="http://www.w3.org/1999/xlink">
    <!-- Generator: Sketch 63.1 (92452) - https://sketch.com -->
    <title>占比指标</title>
    <desc>Created with Sketch.</desc>
    <defs>
        <linearGradient x1="50%" y1="100%" x2="50%" y2="0%" id="linearGradient-1">
            <stop stop-color="#4689F5" offset="0%"></stop>
            <stop stop-color="#43DBFF" offset="100%"></stop>
        </linearGradient>
        <linearGradient x1="50%" y1="100%" x2="50%" y2="0%" id="linearGradient-2">
            <stop stop-color="#4689F5" offset="0%"></stop>
            <stop stop-color="#43DBFF" offset="100%"></stop>
        </linearGradient>
        <path d="M18.4132076,21.4215613 C19.0684076,21.4215613 19.5661076,21.2388613 19.9063076,20.8734613 C20.2465076,20.5080613 20.4166076,19.9851613 20.4166076,19.3047613 L20.4166076,19.3047613 L20.4166076,15.9972613 C20.4166076,15.3168613 20.2465076,14.7939613 19.9063076,14.4285613 C19.5661076,14.0631613 19.0684076,13.8804613 18.4132076,13.8804613 C17.7580076,13.8804613 17.2603076,14.0631613 16.9201076,14.4285613 C16.5799076,14.7939613 16.4098076,15.3168613 16.4098076,15.9972613 L16.4098076,15.9972613 L16.4098076,19.3047613 C16.4098076,19.9851613 16.5799076,20.5080613 16.9201076,20.8734613 C17.2603076,21.2388613 17.7580076,21.4215613 18.4132076,21.4215613 Z M19.4149076,27.2994613 L24.5368076,14.0694613 L23.2138076,14.0694613 L18.0919076,27.2994613 L19.4149076,27.2994613 Z M18.4132076,20.2308613 C17.9596076,20.2308613 17.7328076,19.9536613 17.7328076,19.3992613 L17.7328076,19.3992613 L17.7328076,15.9027613 C17.7328076,15.3483613 17.9596076,15.0711613 18.4132076,15.0711613 C18.8668076,15.0711613 19.0936076,15.3483613 19.0936076,15.9027613 L19.0936076,15.9027613 L19.0936076,19.3992613 C19.0936076,19.9536613 18.8668076,20.2308613 18.4132076,20.2308613 Z M24.2155076,27.4884613 C24.8707076,27.4884613 25.3684076,27.3057613 25.7086076,26.9403613 C26.0488076,26.5749613 26.2189076,26.0520613 26.2189076,25.3716613 L26.2189076,25.3716613 L26.2189076,22.0641613 C26.2189076,21.3837613 26.0488076,20.8608613 25.7086076,20.4954613 C25.3684076,20.1300613 24.8707076,19.9473613 24.2155076,19.9473613 C23.5603076,19.9473613 23.0626076,20.1300613 22.7224076,20.4954613 C22.3822076,20.8608613 22.2121076,21.3837613 22.2121076,22.0641613 L22.2121076,22.0641613 L22.2121076,25.3716613 C22.2121076,26.0520613 22.3822076,26.5749613 22.7224076,26.9403613 C23.0626076,27.3057613 23.5603076,27.4884613 24.2155076,27.4884613 Z M24.2155076,26.2977613 C23.7619076,26.2977613 23.5351076,26.0205613 23.5351076,25.4661613 L23.5351076,25.4661613 L23.5351076,21.9696613 C23.5351076,21.4152613 23.7619076,21.1380613 24.2155076,21.1380613 C24.6691076,21.1380613 24.8959076,21.4152613 24.8959076,21.9696613 L24.8959076,21.9696613 L24.8959076,25.4661613 C24.8959076,26.0205613 24.6691076,26.2977613 24.2155076,26.2977613 Z" id="path-3"></path>
    </defs>
    <g id="dataV模块" stroke="none" stroke-width="1" fill="none" fill-rule="evenodd">
        <g id="占比指标">
            <rect id="矩形备份-9" fill="#4689F5" opacity="0.202892485" x="0" y="0" width="88" height="54"></rect>
            <g id="编组-27" transform="translate(23.000000, 6.000000)" fill-rule="nonzero">
                <path d="M34.1533076,20.9994613 C34.1533076,18.1584613 33.2323076,15.3954613 31.5283076,13.1244613 L37.1743076,7.74246134 C43.6052753,15.5089923 43.6052753,26.7509304 37.1743076,34.5174613 L31.5283076,28.8744613 C33.2326116,26.6027777 34.1537406,23.8393906 34.1533076,20.9994613 L34.1533076,20.9994613 Z" id="路径" fill="#FFFFFF"></path>
                <path d="M28.9033076,31.4994613 L34.4173076,37.1694613 C25.8716284,44.2446562 13.2987333,43.460574 5.69830763,35.3784613 C-1.89943588,27.2979304 -1.89943588,14.7009923 5.69830763,6.62046134 C13.2987333,-1.46165133 25.8716284,-2.24573348 34.4173076,4.82946134 L28.9003076,10.4994613 C24.9204396,7.52164014 19.6009284,7.04442277 15.1545895,9.26632258 C10.7082506,11.4882224 7.89624271,16.0288773 7.88830763,20.9994613 C7.88716926,25.9741435 10.6979708,30.5221177 15.14797,32.7458467 C19.5979693,34.9695756 24.9226096,34.4869992 28.9003076,31.4994613 L28.9033076,31.4994613 Z" id="路径" fill="url(#linearGradient-1)"></path>
                <g id="%">
                    <use fill="#333333" xlink:href="#path-3"></use>
                    <use fill="url(#linearGradient-2)" xlink:href="#path-3"></use>
                </g>
            </g>
        </g>
    </g>
</svg>