<?xml version="1.0" encoding="UTF-8"?>
<svg width="88px" height="54px" viewBox="0 0 88 54" version="1.1" xmlns="http://www.w3.org/2000/svg" xmlns:xlink="http://www.w3.org/1999/xlink">
    <!-- Generator: Sketch 63.1 (92452) - https://sketch.com -->
    <title>弹窗关闭按钮</title>
    <desc>Created with Sketch.</desc>
    <defs>
        <linearGradient x1="50%" y1="100%" x2="50%" y2="0%" id="linearGradient-1">
            <stop stop-color="#4689F5" offset="0%"></stop>
            <stop stop-color="#43DBFF" offset="100%"></stop>
        </linearGradient>
        <linearGradient x1="50%" y1="100%" x2="50%" y2="0%" id="linearGradient-2">
            <stop stop-color="#4689F5" offset="0%"></stop>
            <stop stop-color="#43DBFF" offset="100%"></stop>
        </linearGradient>
    </defs>
    <g id="dataA模块" stroke="none" stroke-width="1" fill="none" fill-rule="evenodd">
        <g id="弹窗关闭按钮">
            <rect id="矩形备份-28" fill="#4689F5" opacity="0.202892485" x="0" y="0" width="88" height="54"></rect>
            <g id="编组-38" transform="translate(22.000000, 5.000000)" fill-rule="nonzero">
                <path d="M30.8586214,43.9897349 L2,43.9897349 C0.8954305,43.9897349 -1.715288e-15,43.0943044 -3.81266834e-15,41.9897349 L-3.81266834e-15,16.3506257 C-3.94793909e-15,15.2460562 0.8954305,14.3506257 2,14.3506257 L8.01705196,14.3506257 L8.01705196,14.3506257 L8.01705196,18.4566702 L4.10604454,18.4566702 L4.10604454,39.8836903 L28.7525769,39.8836903 L28.7525769,35.0707529 L32.8586214,35.0707529 L32.8586214,41.9897349 C32.8586214,43.0943044 31.9631909,43.9897349 30.8586214,43.9897349 Z" id="路径" fill="url(#linearGradient-1)"></path>
                <path d="M39.144263,32.8483563 L14.2702439,32.8483563 C12.0611049,32.8483563 10.2702439,31.0574953 10.2702439,28.8483563 L10.2702439,4 C10.2702439,1.790861 12.0611049,4.05812251e-16 14.2702439,0 L39.1186002,0 C41.3265189,0.0031262207 43.1168741,1.79208319 43.1217252,3.99999878 L43.141138,28.8483575 C43.1459877,31.0574934 41.3565263,32.849753 39.147388,32.8514789 C39.1463463,32.8514797 39.1453047,32.8514801 39.144263,32.8483563 Z" id="路径" fill="url(#linearGradient-2)"></path>
                <path d="M15.1283139,6.07181336 L19.1265748,6.07181336 L19.1265748,6.07181336 L19.1265748,10.1778579 L15,10.1778579 L15,6.20012725 C15,6.12926145 15.0574481,6.07181336 15.1283139,6.07181336 Z" id="路径" fill="#FFFFFF"></path>
                <polygon id="路径" fill="#FFFFFF" points="21 6.07181336 25.1265748 6.07181336 25.1265748 10.1778579 21 10.1778579"></polygon>
                <polygon id="路径" fill="#FFFFFF" points="27 6.07181336 31.1265748 6.07181336 31.1265748 10.1778579 27 10.1778579"></polygon>
            </g>
        </g>
    </g>
</svg>