<?xml version="1.0" encoding="UTF-8"?>
<svg width="88px" height="54px" viewBox="0 0 88 54" version="1.1" xmlns="http://www.w3.org/2000/svg" xmlns:xlink="http://www.w3.org/1999/xlink">
    <!-- Generator: Sketch 63.1 (92452) - https://sketch.com -->
    <title>数据切换</title>
    <desc>Created with Sketch.</desc>
    <defs>
        <linearGradient x1="50%" y1="100%" x2="50%" y2="0%" id="linearGradient-1">
            <stop stop-color="#4689F5" offset="0%"></stop>
            <stop stop-color="#43DBFF" offset="100%"></stop>
        </linearGradient>
        <linearGradient x1="50%" y1="100%" x2="50%" y2="0%" id="linearGradient-2">
            <stop stop-color="#4689F5" offset="0%"></stop>
            <stop stop-color="#43DBFF" offset="100%"></stop>
        </linearGradient>
    </defs>
    <g id="dataA模块" stroke="none" stroke-width="1" fill="none" fill-rule="evenodd">
        <g id="数据切换">
            <rect id="矩形备份-28" fill="#4689F5" opacity="0.202892485" x="0" y="0" width="88" height="54"></rect>
            <g id="编组-31" transform="translate(21.000000, 7.000000)">
                <rect id="矩形备份-61" fill="url(#linearGradient-1)" x="0" y="0" width="44" height="38" rx="2"></rect>
                <g id="编组-30" transform="translate(27.000000, 21.000000)" fill-rule="nonzero">
                    <path d="M10,0 C4.4771525,0 0,4.4771525 0,10 C0,15.5228475 4.4771525,20 10,20 C15.5228475,20 20,15.5228475 20,10 C20,7.3478351 18.9464316,4.80429597 17.0710678,2.92893219 C15.195704,1.0535684 12.6521649,0 10,0 Z" id="路径" fill="#FFFFFF"></path>
                    <path d="M16.6666667,11.0066667 L15.3333333,12.9933333 L7.84666666,12.9933333 L6.26666666,14.9933333 L3.33333334,11.0066667 L16.6666667,11.0066667 Z M13.7333333,4.99333334 L16.68,8.99333334 L3.33333334,8.99333334 L4.66666666,6.99333334 L12.1533333,6.99333334 L13.7333333,4.99333334 Z" id="形状结合" fill="url(#linearGradient-2)"></path>
                </g>
                <polyline id="路径-6" stroke="#FFFFFF" stroke-width="5" stroke-linecap="round" stroke-linejoin="round" points="9 23 14.6362119 15.2405292 22.1617463 23 33 9"></polyline>
            </g>
        </g>
    </g>
</svg>