<?xml version="1.0" encoding="UTF-8"?>
<svg width="88px" height="54px" viewBox="0 0 88 54" version="1.1" xmlns="http://www.w3.org/2000/svg" xmlns:xlink="http://www.w3.org/1999/xlink">
    <title>数组滚动</title>
    <defs>
        <linearGradient x1="50%" y1="100%" x2="50%" y2="0%" id="linearGradient-1">
            <stop stop-color="#4689F5" offset="0%"></stop>
            <stop stop-color="#43DBFF" offset="100%"></stop>
        </linearGradient>
    </defs>
    <g id="dataA模块" stroke="none" stroke-width="1" fill="none" fill-rule="evenodd">
        <g id="数组滚动">
            <rect id="矩形备份-28" fill="#4689F5" opacity="0.202892485" x="0" y="0" width="88" height="54"></rect>
            <g id="关系图" transform="translate(23.000000, 6.000000)">
                <rect id="矩形备份-69" fill="url(#linearGradient-1)" x="0" y="0" width="42" height="42" rx="6"></rect>
                <path d="M11.8731254,23.7361478 L11.8731254,8 L8.7145025,8 C8.3083492,8.97097625 7.7459831,9.78715919 7.02740419,10.4485488 C6.30882528,11.1099384 5.29969055,11.6763412 4,12.1477573 L4,12.1477573 L4,15.6728232 C4.88104023,15.3702726 5.61367829,15.05365 6.19791419,14.7229551 C6.78215008,14.3922603 7.38669364,13.9595427 8.01154487,13.4248021 L8.01154487,13.4248021 L8.01154487,23.7361478 L11.8731254,23.7361478 Z M25.131189,23.7361478 L25.131189,20.23219 L19.1701083,20.23219 C19.520025,19.8452067 19.82464,19.532102 20.0839532,19.292876 C20.3432665,19.05365 20.8572066,18.6350044 21.6257736,18.0369393 C22.9192157,17.0096746 23.8111908,16.0668426 24.301699,15.2084433 C24.7922072,14.350044 25.0374613,13.4494283 25.0374613,12.5065963 C25.0374613,11.6200528 24.8234498,10.819701 24.3954267,10.1055409 C23.9674036,9.39138083 23.3800434,8.86191733 22.6333462,8.5171504 C21.886649,8.17238347 20.8415853,8 19.4981552,8 C18.2109617,8 17.2033891,8.18117854 16.4754374,8.54353562 C15.7474857,8.9058927 15.1835575,9.42656113 14.7836527,10.1055409 C14.3837479,10.7845207 14.1088134,11.7291117 13.9588491,12.939314 L13.9588491,12.939314 L17.7829386,13.2875989 C17.8891633,12.4151275 18.0969263,11.8065084 18.4062277,11.4617414 C18.715529,11.1169745 19.1138717,10.944591 19.6012557,10.944591 C20.0698941,10.944591 20.458864,11.1116974 20.7681653,11.4459103 C21.0774667,11.7801231 21.2321174,12.1829376 21.2321174,12.6543536 C21.2321174,13.0905893 21.0759045,13.5514512 20.7634789,14.0369393 C20.4510533,14.5224274 19.7355987,15.2330695 18.617115,16.1688654 C16.7863009,17.6956904 15.5381606,19.0202287 14.872694,20.1424802 C14.2072274,21.2647318 13.8088848,22.4626209 13.677666,23.7361478 L13.677666,23.7361478 L25.131189,23.7361478 Z M32.4606939,24 C33.7416389,24 34.7757677,23.7766051 35.5630802,23.3298153 C36.3503928,22.8830255 36.9533742,22.2462621 37.3720245,21.4195251 C37.7906748,20.592788 38,19.7291117 38,18.828496 C38,18.1108179 37.8734676,17.4934037 37.6204029,16.9762533 C37.3673381,16.4591029 37.0127351,16.0422164 36.5565937,15.7255937 C36.2754106,15.528584 35.8692573,15.3562005 35.3381338,15.2084433 C35.9942276,14.8003518 36.4847358,14.3254178 36.8096584,13.7836412 C37.1345811,13.2418646 37.2970424,12.6367634 37.2970424,11.9683377 C37.2970424,10.828496 36.8971376,9.882146 36.097328,9.1292876 C35.2975184,8.3764292 34.0009522,8 32.2076291,8 C30.6455011,8 29.4379761,8.34476693 28.5850542,9.03430079 C27.7321322,9.72383465 27.155707,10.7159191 26.8557784,12.0105541 L26.8557784,12.0105541 L30.4642942,12.7387863 C30.5642704,11.9718558 30.75485,11.4353562 31.0360331,11.1292876 C31.3172161,10.823219 31.6827541,10.6701847 32.132647,10.6701847 C32.5700428,10.6701847 32.913711,10.8109059 33.1636515,11.0923483 C33.413592,11.3737907 33.5385622,11.7502199 33.5385622,12.2216359 C33.5385622,12.7141601 33.3714145,13.1398417 33.0371191,13.4986807 C32.7028237,13.8575198 32.2857355,14.0369393 31.7858546,14.0369393 C31.6671328,14.0369393 31.5015473,14.0193492 31.2890978,13.9841689 L31.2890978,13.9841689 L31.0922697,17.055409 C31.6171447,16.8865435 32.0295465,16.8021108 32.3294751,16.8021108 C32.8918412,16.8021108 33.3370477,16.9991205 33.6650946,17.3931398 C33.9931415,17.7871592 34.157165,18.3430079 34.157165,19.060686 C34.157165,19.764292 33.986893,20.3271768 33.6463491,20.7493404 C33.3058052,21.171504 32.8793442,21.3825858 32.3669662,21.3825858 C31.8795822,21.3825858 31.4781153,21.2154793 31.1625655,20.8812665 C30.8470156,20.5470536 30.6142585,19.9472296 30.4642942,19.0817942 L30.4642942,19.0817942 L26.6495775,19.651715 C26.899518,20.6156552 27.2572453,21.416007 27.7227595,22.0527704 C28.1882736,22.6895339 28.7818823,23.173263 29.5035855,23.5039578 C30.2252886,23.8346526 31.2109914,24 32.4606939,24 Z" id="123" fill="#FFFFFF" fill-rule="nonzero"></path>
                <g id="编组-48" transform="translate(5.500000, 29.000000)" fill="#FFFFFF" fill-rule="nonzero">
                    <polygon id="路径" opacity="0.49427689" points="3.41894826e-14 1.77272727 7.15902965 1.77272727 7.15902965 4.22727273 3.41894826e-14 4.22727273"></polygon>
                    <polygon id="路径" opacity="0.49427689" points="23.8409704 1.77272727 31 1.77272727 31 4.22727273 23.8409704 4.22727273"></polygon>
                    <polygon id="路径" points="10.2497754 0 19.9685535 0 19.9685535 6 10.2497754 6"></polygon>
                </g>
            </g>
        </g>
    </g>
</svg>