<?xml version="1.0" encoding="UTF-8"?>
<svg width="88px" height="54px" viewBox="0 0 88 54" version="1.1" xmlns="http://www.w3.org/2000/svg" xmlns:xlink="http://www.w3.org/1999/xlink">
    <!-- Generator: Sketch 63.1 (92452) - https://sketch.com -->
    <title>全屏缩放按钮</title>
    <desc>Created with Sketch.</desc>
    <defs>
        <linearGradient x1="50%" y1="100%" x2="50%" y2="0%" id="linearGradient-1">
            <stop stop-color="#4689F5" offset="0%"></stop>
            <stop stop-color="#43DBFF" offset="100%"></stop>
        </linearGradient>
    </defs>
    <g id="dataA模块" stroke="none" stroke-width="1" fill="none" fill-rule="evenodd">
        <g id="全屏缩放按钮">
            <rect id="矩形" fill="#4689F5" opacity="0.202892485" x="0" y="0" width="88" height="54"></rect>
            <rect id="矩形" fill="url(#linearGradient-1)" x="23" y="8" width="42" height="38" rx="2"></rect>
            <path d="M50.1147368,35.7476196 L47.0605368,32.6860311 C46.6971654,32.3225262 46.6971654,31.7365313 47.0605368,31.3730264 L48.3730597,30.0600217 C48.7364312,29.6965168 49.3222111,29.6965168 49.6855826,30.0600217 L52.7429151,33.1184766 L55.4149485,30.4454622 C55.77832,30.0819573 56.3640999,30.0819573 56.7274714,30.4423286 C56.9028921,30.6178137 57,30.8528384 57,31.1003977 L57,39.0724358 C57,39.5863565 56.5833758,40 56.0727762,40 L48.1005311,40 C47.586799,40 47.1733073,39.5832229 47.1733073,39.0724358 C47.1733073,38.8280101 47.2704152,38.5898518 47.4427034,38.4175003 L50.1147368,35.744486 L50.1147368,35.7476196 L50.1147368,35.7476196 Z M35.2603611,33.1122092 L38.3145611,30.0537544 C38.6779326,29.6902495 39.2637124,29.6902495 39.6270839,30.0537544 L40.9396068,31.3667591 C41.3029783,31.730264 41.3029783,32.3162589 40.9396068,32.6797638 L37.8822743,35.7382186 L40.5543077,38.411233 C40.9176792,38.7747379 40.9145467,39.3638665 40.5511752,39.7242377 C40.3757545,39.8965891 40.140816,39.9937327 39.89648,39.9937327 L31.9305,39.9937327 C31.4167678,39.9937327 31.0032762,39.5769555 31.0032762,39.0661685 L31.0032762,31.0941304 C31.0032762,30.5802097 31.4199004,30.1665662 31.9305,30.1665662 C32.1779685,30.1665662 32.4129069,30.2637098 32.5883276,30.4391949 L35.2603611,33.1122092 Z M52.7397826,20.8877908 L49.6824501,23.9462456 C49.3190786,24.3097505 48.7332987,24.3097505 48.3699272,23.9462456 L47.0605368,22.6363746 C46.6971654,22.2728697 46.6971654,21.6868748 47.0605368,21.3233699 L50.1178693,18.264915 L47.4458359,15.5919007 C47.0824644,15.2283958 47.0855969,14.6392672 47.4489684,14.278896 C47.6243891,14.1065445 47.8593276,14.009401 48.1036636,14.009401 L56.0727762,14.009401 C56.5865083,14.009401 57,14.4261781 57,14.9369652 L57,22.9090033 C57,23.4229239 56.5833758,23.8365674 56.0727762,23.8365674 C55.8253077,23.8365674 55.5903692,23.7394239 55.4149485,23.5639388 L52.7397826,20.8877908 Z M37.8822743,18.2586477 L40.9396068,21.3171026 C41.3029783,21.6806074 41.3029783,22.2666024 40.9396068,22.6301073 L39.6239514,23.9462456 C39.2605799,24.3097505 38.6748,24.3097505 38.3114286,23.9462456 L35.254096,20.8877908 L32.5820626,23.5608051 C32.2186911,23.92431 31.6297787,23.9211763 31.2695397,23.5576714 C31.094119,23.3821863 30.9970111,23.1471616 31.0000701,22.8996023 L31.0000701,14.9275642 C31.0000701,14.4136435 31.4167678,14 31.9273674,14 L39.89648,14 C40.4102121,14 40.8237038,14.4167771 40.8237038,14.9275642 C40.8237038,15.1751235 40.7265959,15.4101482 40.5511752,15.5856334 L37.8822743,18.2586477 Z" id="形状" fill="#FFFFFF" fill-rule="nonzero"></path>
        </g>
    </g>
</svg>