<?xml version="1.0" encoding="UTF-8"?>
<svg width="88px" height="54px" viewBox="0 0 88 54" version="1.1" xmlns="http://www.w3.org/2000/svg" xmlns:xlink="http://www.w3.org/1999/xlink">
    <!-- Generator: Sketch 63.1 (92452) - https://sketch.com -->
    <title>横向进度</title>
    <desc>Created with Sketch.</desc>
    <defs>
        <linearGradient x1="50%" y1="100%" x2="50%" y2="0%" id="linearGradient-1">
            <stop stop-color="#4689F5" offset="0%"></stop>
            <stop stop-color="#43DBFF" offset="100%"></stop>
        </linearGradient>
    </defs>
    <g id="dataA模块" stroke="none" stroke-width="1" fill="none" fill-rule="evenodd">
        <g id="横向进度">
            <rect id="矩形备份-28" fill="#4689F5" opacity="0.202892485" x="0" y="0" width="88" height="54"></rect>
            <rect id="矩形备份-62" fill="url(#linearGradient-1)" x="15" y="8" width="58" height="38" rx="2"></rect>
            <path d="M53.8076923,29.0000002 C56.6753247,29.0000002 59,31.3544898 59,34.2588998 C59,37.1633099 56.6753247,39.5177995 53.8076923,39.5177995 L33.1923077,39.5177995 C30.3246753,39.5177995 28,37.1633099 28,34.2588998 C28,31.3544898 30.3246753,29.0000002 33.1923077,29.0000002 L53.8076923,29.0000002 Z M43.4605548,31.1025643 C44.1535183,31.8037507 44.5,32.8558626 44.5,34.2588998 C44.5,35.6619371 44.1535183,36.714049 43.4605548,37.4152354 L53.8076923,37.4142397 C55.5282717,37.4142397 56.9230769,36.0015459 56.9230769,34.2588998 C56.9230769,32.5162538 55.5282717,31.10356 53.8076923,31.10356 L43.4605548,31.1025643 Z M50.0749692,15.055613 C50.4654935,15.4461373 50.4654935,16.0793023 50.0749692,16.4698266 L39.4683675,27.0764283 C39.0778432,27.4669526 38.4446782,27.4669526 38.0541539,27.0764283 C37.6636296,26.685904 37.6636296,26.052739 38.0541539,25.6622147 L48.6607556,15.055613 C49.0512799,14.6650887 49.6844449,14.6650887 50.0749692,15.055613 Z M48.4290983,20.6893206 C50.1496777,20.6893206 51.5444829,22.1020143 51.5444829,23.8446604 C51.5444829,25.5873064 50.1496777,27.0000002 48.4290983,27.0000002 C46.7085188,27.0000002 45.3137136,25.5873064 45.3137136,23.8446604 C45.3137136,22.1020143 46.7085188,20.6893206 48.4290983,20.6893206 Z M48.4290983,22.7928804 C47.8555718,22.7928804 47.3906367,23.2637784 47.3906367,23.8446604 C47.3906367,24.4255424 47.8555718,24.8964403 48.4290983,24.8964403 C49.0026247,24.8964403 49.4675598,24.4255424 49.4675598,23.8446604 C49.4675598,23.2637784 49.0026247,22.7928804 48.4290983,22.7928804 Z M40.121406,14.378641 C41.8419854,14.378641 43.2367906,15.7913347 43.2367906,17.5339808 C43.2367906,19.2766268 41.8419854,20.6893206 40.121406,20.6893206 C38.4008265,20.6893206 37.0060213,19.2766268 37.0060213,17.5339808 C37.0060213,15.7913347 38.4008265,14.378641 40.121406,14.378641 Z M40.121406,16.4822008 C39.5478795,16.4822008 39.0829444,16.9530987 39.0829444,17.5339808 C39.0829444,18.1148628 39.5478795,18.5857607 40.121406,18.5857607 C40.6949324,18.5857607 41.1598675,18.1148628 41.1598675,17.5339808 C41.1598675,16.9530987 40.6949324,16.4822008 40.121406,16.4822008 Z" id="形状结合" fill="#FFFFFF" fill-rule="nonzero"></path>
        </g>
    </g>
</svg>