<?xml version="1.0" encoding="UTF-8"?>
<svg width="88px" height="54px" viewBox="0 0 88 54" version="1.1" xmlns="http://www.w3.org/2000/svg" xmlns:xlink="http://www.w3.org/1999/xlink">
    <!-- Generator: Sketch 63.1 (92452) - https://sketch.com -->
    <title>图片</title>
    <desc>Created with Sketch.</desc>
    <defs>
        <linearGradient x1="50%" y1="100%" x2="50%" y2="0%" id="linearGradient-1">
            <stop stop-color="#4689F5" offset="0%"></stop>
            <stop stop-color="#43DBFF" offset="100%"></stop>
        </linearGradient>
    </defs>
    <g id="dataV模块" stroke="none" stroke-width="1" fill="none" fill-rule="evenodd">
        <g id="图片">
            <rect id="矩形备份-28" fill="#4689F5" opacity="0.202892485" x="0" y="0" width="88" height="54"></rect>
            <g id="编组-18" transform="translate(24.000000, 7.000000)">
                <rect id="矩形" fill="url(#linearGradient-1)" x="0.622710623" y="0.151098901" width="38.974359" height="38.974359"></rect>
                <path d="M24.8772894,19.0162546 L31.6847527,30.9217033 C32.2458791,31.8917125 31.5542582,33.0922619 30.4494048,33.0793179 L9.24839744,33.0793179 C8.59592491,33.0793179 8.17834249,32.3614927 8.50892857,31.7873168 L12.5934066,24.6536172 C13.1284341,23.7184066 14.3289835,23.7184066 14.8683608,24.6536172 L16.3690476,27.2678571 L21.0929487,19.0162546 C21.9716117,17.4720696 23.9986264,17.4720696 24.8772894,19.0162546 Z M13.9331502,13.5876832 C15.1336996,13.5876832 16.1080586,14.5620421 16.1080586,15.7625916 C16.1080586,16.963141 15.1336996,17.9375 13.9331502,17.9375 C12.7326007,17.9375 11.7582418,16.963141 11.7582418,15.7625916 C11.7582418,14.5620421 12.7326007,13.5876832 13.9331502,13.5876832 Z" id="形状结合" fill="#FFFFFF"></path>
                <path d="M6.88644689,29.8168498 C7.1735348,29.8168498 7.40842491,30.0517399 7.40842491,30.3388278 L7.40842491,32.6007326 C7.40842491,32.8878205 7.1735348,33.1227106 6.88644689,33.1227106 L4.62454212,33.1227106 C4.33745421,33.1227106 4.1025641,32.8878205 4.1025641,32.6007326 L4.1025641,30.3388278 C4.1025641,30.0517399 4.33745421,29.8168498 4.62454212,29.8168498 L6.88644689,29.8168498 Z M6.88644689,23.9010989 C7.1735348,23.9010989 7.40842491,24.135989 7.40842491,24.4230769 L7.40842491,26.6849817 C7.40842491,26.9720696 7.1735348,27.2069597 6.88644689,27.2069597 L4.62454212,27.2069597 C4.33745421,27.2069597 4.1025641,26.9720696 4.1025641,26.6849817 L4.1025641,24.4230769 C4.1025641,24.135989 4.33745421,23.9010989 4.62454212,23.9010989 L6.88644689,23.9010989 Z M6.88644689,17.985348 C7.1735348,17.985348 7.40842491,18.2202381 7.40842491,18.507326 L7.40842491,20.7692308 C7.40842491,21.0563187 7.1735348,21.2912088 6.88644689,21.2912088 L4.62454212,21.2912088 C4.33745421,21.2912088 4.1025641,21.0563187 4.1025641,20.7692308 L4.1025641,18.507326 C4.1025641,18.2202381 4.33745421,17.985348 4.62454212,17.985348 L6.88644689,17.985348 Z M6.88644689,12.0695971 C7.1735348,12.0695971 7.40842491,12.3044872 7.40842491,12.5915751 L7.40842491,14.8534799 C7.40842491,15.1405678 7.1735348,15.3754579 6.88644689,15.3754579 L4.62454212,15.3754579 C4.33745421,15.3754579 4.1025641,15.1405678 4.1025641,14.8534799 L4.1025641,12.5915751 C4.1025641,12.3044872 4.33745421,12.0695971 4.62454212,12.0695971 L6.88644689,12.0695971 Z M6.88644689,6.15384615 C7.1735348,6.15384615 7.40842491,6.38873626 7.40842491,6.67582418 L7.40842491,8.93772894 C7.40842491,9.22481685 7.1735348,9.45970696 6.88644689,9.45970696 L4.62454212,9.45970696 C4.33745421,9.45970696 4.1025641,9.22481685 4.1025641,8.93772894 L4.1025641,6.67582418 C4.1025641,6.38873626 4.33745421,6.15384615 4.62454212,6.15384615 L6.88644689,6.15384615 Z" id="形状结合" fill="#FFFFFF"></path>
                <path d="M35.5952381,29.8168498 C35.882326,29.8168498 36.1172161,30.0517399 36.1172161,30.3388278 L36.1172161,32.6007326 C36.1172161,32.8878205 35.882326,33.1227106 35.5952381,33.1227106 L33.3333333,33.1227106 C33.0462454,33.1227106 32.8113553,32.8878205 32.8113553,32.6007326 L32.8113553,30.3388278 C32.8113553,30.0517399 33.0462454,29.8168498 33.3333333,29.8168498 L35.5952381,29.8168498 Z M35.5952381,23.9010989 C35.882326,23.9010989 36.1172161,24.135989 36.1172161,24.4230769 L36.1172161,26.6849817 C36.1172161,26.9720696 35.882326,27.2069597 35.5952381,27.2069597 L33.3333333,27.2069597 C33.0462454,27.2069597 32.8113553,26.9720696 32.8113553,26.6849817 L32.8113553,24.4230769 C32.8113553,24.135989 33.0462454,23.9010989 33.3333333,23.9010989 L35.5952381,23.9010989 Z M35.5952381,17.985348 C35.882326,17.985348 36.1172161,18.2202381 36.1172161,18.507326 L36.1172161,20.7692308 C36.1172161,21.0563187 35.882326,21.2912088 35.5952381,21.2912088 L33.3333333,21.2912088 C33.0462454,21.2912088 32.8113553,21.0563187 32.8113553,20.7692308 L32.8113553,18.507326 C32.8113553,18.2202381 33.0462454,17.985348 33.3333333,17.985348 L35.5952381,17.985348 Z M35.5952381,12.0695971 C35.882326,12.0695971 36.1172161,12.3044872 36.1172161,12.5915751 L36.1172161,14.8534799 C36.1172161,15.1405678 35.882326,15.3754579 35.5952381,15.3754579 L33.3333333,15.3754579 C33.0462454,15.3754579 32.8113553,15.1405678 32.8113553,14.8534799 L32.8113553,12.5915751 C32.8113553,12.3044872 33.0462454,12.0695971 33.3333333,12.0695971 L35.5952381,12.0695971 Z M35.5952381,6.15384615 C35.882326,6.15384615 36.1172161,6.38873626 36.1172161,6.67582418 L36.1172161,8.93772894 C36.1172161,9.22481685 35.882326,9.45970696 35.5952381,9.45970696 L33.3333333,9.45970696 C33.0462454,9.45970696 32.8113553,9.22481685 32.8113553,8.93772894 L32.8113553,6.67582418 C32.8113553,6.38873626 33.0462454,6.15384615 33.3333333,6.15384615 L35.5952381,6.15384615 Z" id="形状结合" fill="#FFFFFF"></path>
            </g>
        </g>
    </g>
</svg>