<?xml version="1.0" encoding="UTF-8"?>
<svg width="88px" height="54px" viewBox="0 0 88 54" version="1.1" xmlns="http://www.w3.org/2000/svg" xmlns:xlink="http://www.w3.org/1999/xlink">
    <!-- Generator: Sketch 63.1 (92452) - https://sketch.com -->
    <title>水球图</title>
    <desc>Created with Sketch.</desc>
    <defs>
        <linearGradient x1="50%" y1="100%" x2="50%" y2="0%" id="linearGradient-1">
            <stop stop-color="#4689F5" offset="0%"></stop>
            <stop stop-color="#43DBFF" offset="100%"></stop>
        </linearGradient>
    </defs>
    <g id="dataA模块" stroke="none" stroke-width="1" fill="none" fill-rule="evenodd">
        <g id="水球图">
            <rect id="矩形备份-28" fill="#4689F5" opacity="0.202892485" x="0" y="0" width="88" height="54"></rect>
            <g id="编组-37" transform="translate(20.000000, 8.000000)" fill-rule="nonzero">
                <path d="M2.48134328,35.0932836 L2.3631841,25.6405472 L2.48134328,30.3669154 L2.3631841,25.6405472 C2.48134328,25.6405472 11.9340796,25.2860696 20.9141791,18.6691542 C24.931592,15.7151741 27.8855722,12.6430348 30.4850746,9.92537313 C34.738806,5.43532336 38.4017413,1.65422887 44.1915423,1.41791045 L44.6641791,10.8706467 C42.5373134,10.9888059 40.5286069,12.9975124 37.2201493,16.5422885 C34.5024875,19.3781094 31.0758707,22.9228855 26.4676617,26.3495025 C14.8880597,34.8569652 2.95398014,35.0932836 2.48134328,35.0932836 L2.48134328,35.0932836 Z" id="路径" fill="#FFFFFF"></path>
                <path d="M3.7263682,3.2239551e-14 C4.27865295,3.21380979e-14 4.7263682,0.44771525 4.7263682,1 L4.7260011,2.25723741 C9.31517969,2.67814764 19.8981754,4.44534674 27.1766169,11.8159204 C31.7525243,16.5645034 38.9780566,17.4648214 42.5379794,17.6053469 L42.5373134,1 C42.5373134,0.44771525 42.9850287,3.23410041e-14 43.5373134,3.2239551e-14 L46.2636816,3.2239551e-14 C46.8159664,3.21380979e-14 47.2636816,0.44771525 47.2636816,1 L47.2636816,36.8109452 C47.2636816,37.36323 46.8159664,37.8109452 46.2636816,37.8109452 L43.5373134,37.8109452 C42.9850287,37.8109452 42.5373134,37.36323 42.5373134,36.8109452 L42.5379568,35.1804491 C38.0422753,34.988712 29.280843,33.758279 23.159204,27.5310945 C17.4873133,21.6791437 8.65994655,20.1488232 4.72620748,19.7518516 L4.7263682,36.8109452 C4.7263682,37.36323 4.27865295,37.8109452 3.7263682,37.8109452 L1,37.8109452 C0.44771525,37.8109452 -4.58497557e-13,37.36323 -4.58565192e-13,36.8109452 L-4.58565192e-13,1 C-4.58632828e-13,0.44771525 0.44771525,3.23410041e-14 1,3.2239551e-14 L3.7263682,3.2239551e-14 Z M4.72561658,11.7674853 L4.72666827,17.3528859 C8.86639898,17.6988375 18.4323114,19.2183042 24.8134328,25.8768657 C30.2076193,31.4422962 38.3938081,32.540523 42.5381609,32.7233436 L42.5384808,27.1596802 C37.7343325,27.010761 27.304158,25.7501987 20.2052239,18.4328358 C15.6022248,13.6593552 8.41651356,12.2065045 4.72561658,11.7674853 Z" id="形状结合" fill="url(#linearGradient-1)"></path>
            </g>
        </g>
    </g>
</svg>