<?xml version="1.0" encoding="UTF-8"?>
<svg width="88px" height="54px" viewBox="0 0 88 54" version="1.1" xmlns="http://www.w3.org/2000/svg" xmlns:xlink="http://www.w3.org/1999/xlink">
    <!-- Generator: Sketch 63.1 (92452) - https://sketch.com -->
    <title>跑马灯</title>
    <desc>Created with Sketch.</desc>
    <defs>
        <linearGradient x1="50%" y1="100%" x2="50%" y2="0%" id="linearGradient-1">
            <stop stop-color="#4689F5" offset="0%"></stop>
            <stop stop-color="#43DBFF" offset="100%"></stop>
        </linearGradient>
    </defs>
    <g id="dataA模块" stroke="none" stroke-width="1" fill="none" fill-rule="evenodd">
        <g id="跑马灯">
            <rect id="矩形" fill="#4689F5" opacity="0.202892485" x="0" y="0" width="88" height="54"></rect>
            <rect id="矩形" fill="url(#linearGradient-1)" x="13.25" y="8" width="62" height="38"></rect>
            <rect id="矩形" fill="#FFFFFF" x="20.25" y="15" width="48" height="3"></rect>
            <path d="M28.5692553,22.2906977 C28.5692553,22.130814 28.6993612,22 28.8583796,22 L38.2260044,22 C38.3850227,22 38.5151286,22.130814 38.5151286,22.2906977 L38.5151286,31.7093023 C38.5151286,31.869186 38.3850227,32 38.2260044,32 L28.8583796,32 C28.6993612,32 28.5692553,31.869186 28.5692553,31.7093023 L28.5692553,22.2906977 L28.5692553,22.2906977 Z M39.5270634,22.2906977 C39.5270634,22.130814 39.6571693,22 39.8161876,22 L49.1838124,22 C49.3428307,22 49.4729366,22.130814 49.4729366,22.2906977 L49.4729366,31.7093023 C49.4729366,31.869186 49.3428307,32 49.1838124,32 L39.8161876,32 C39.6571693,32 39.5270634,31.869186 39.5270634,31.7093023 L39.5270634,22.2906977 L39.5270634,22.2906977 Z M50.4848714,22.2906977 C50.4848714,22.130814 50.6149773,22 50.7739956,22 L60.1416204,22 C60.3006388,22 60.4307447,22.130814 60.4307447,22.2906977 L60.4307447,31.7093023 C60.4307447,31.869186 60.3006388,32 60.1416204,32 L50.7739956,32 C50.6149773,32 50.4848714,31.869186 50.4848714,31.7093023 L50.4848714,22.2906977 L50.4848714,22.2906977 Z M64.1795528,29.9699612 C64.0205345,29.9699612 63.9578909,29.8585271 64.0349907,29.7180233 L65.4565182,27.251938 C65.5384367,27.1114341 65.5384367,26.8885659 65.4565182,26.748062 L64.0349907,24.2819767 C63.9530722,24.1414729 64.0205345,24.0300388 64.1795528,24.0300388 L65.4131495,24.0300388 C65.5721679,24.0300388 65.7697361,24.1414729 65.8468359,24.2819767 L67.2683633,26.748062 C67.3502818,26.8885659 67.3502818,27.1114341 67.2683633,27.251938 L65.8468359,29.7180233 C65.7649173,29.8585271 65.5721679,29.9699612 65.4131495,29.9699612 L64.1795528,29.9699612 Z M25.1502493,29.9699612 C25.3092677,29.9699612 25.3719112,29.8585271 25.2948115,29.7180233 L23.873284,27.251938 C23.7913655,27.1114341 23.7913655,26.8885659 23.873284,26.748062 L25.2948115,24.2819767 C25.37673,24.1414729 25.3092677,24.0300388 25.1502493,24.0300388 L23.9166527,24.0300388 C23.7576343,24.0300388 23.5600661,24.1414729 23.4829663,24.2819767 L22.0614389,26.748062 C21.9795204,26.8885659 21.9795204,27.1114341 22.0614389,27.251938 L23.4829663,29.7180233 C23.5648849,29.8585271 23.7576343,29.9699612 23.9166527,29.9699612 L25.1502493,29.9699612 Z" id="形状" fill="#FFFFFF" fill-rule="nonzero"></path>
            <rect id="矩形备份-15" fill="#FFFFFF" x="20.25" y="36" width="8" height="3"></rect>
            <rect id="矩形备份-16" fill="#FFFFFF" x="30.25" y="36" width="8" height="3"></rect>
            <rect id="矩形备份-17" fill="#FFFFFF" x="40.25" y="36" width="8" height="3"></rect>
            <rect id="矩形备份-18" fill="#FFFFFF" x="50.25" y="36" width="8" height="3"></rect>
            <rect id="矩形备份-22" fill="#FFFFFF" x="60.25" y="36" width="8" height="3"></rect>
        </g>
    </g>
</svg>