<?xml version="1.0" encoding="UTF-8"?>
<svg width="88px" height="54px" viewBox="0 0 88 54" version="1.1" xmlns="http://www.w3.org/2000/svg" xmlns:xlink="http://www.w3.org/1999/xlink">
    <!-- Generator: Sketch 63.1 (92452) - https://sketch.com -->
    <title>全国省份地图</title>
    <desc>Created with Sketch.</desc>
    <defs>
        <linearGradient x1="50%" y1="100%" x2="50%" y2="0%" id="linearGradient-1">
            <stop stop-color="#4689F5" offset="0%"></stop>
            <stop stop-color="#43DBFF" offset="100%"></stop>
        </linearGradient>
    </defs>
    <g id="dataA模块" stroke="none" stroke-width="1" fill="none" fill-rule="evenodd">
        <g id="全国省份地图">
            <rect id="矩形备份-28" fill="#4689F5" opacity="0.202892485" x="0" y="0" width="88" height="54"></rect>
            <path d="M28.0385408,10.5690452 L43.0447639,10.5690452 L43.0447639,10.5690452 L39.8553468,26.3241759 L55.1230994,45.9649202 L33.0385408,45.9649202 C28.0679781,45.9649202 24.0385408,41.9354829 24.0385408,36.9649202 L24.0385408,14.5690452 C24.0385408,12.3599062 25.8294018,10.5690452 28.0385408,10.5690452 Z" id="矩形" fill="#FFFFFF"></path>
            <g id="地图" transform="translate(23.000000, 7.000000)">
                <path d="M39.8938789,17.2405189 L33.9085163,23.7168995 C33.7558085,23.8872575 33.5378312,23.9845972 33.3090486,23.9845972 C33.0802659,23.9845972 32.8622886,23.8872575 32.7095808,23.7168995 L26.7228875,17.2431803 C25.0355955,15.418829 23.9936793,12.9011976 23.9936793,10.1187625 C23.9936793,4.55389222 28.1666667,0.0415835049 33.3083832,0.0415835049 C38.4514305,0.0415835049 42.6244179,4.55123087 42.6244179,10.1161011 C42.6244179,12.8985363 41.581171,15.4174984 39.8938789,17.2405189 L39.8938789,17.2405189 Z M24.8413174,19.3589488 L32.5379242,27.6317365 C32.7351567,27.8489967 33.0149507,27.9728858 33.3083832,27.9728858 C33.6018158,27.9728858 33.8816097,27.8489967 34.0788423,27.6317365 L41.7754491,19.3562874 C42.076181,19.0342648 42.3556221,18.6909514 42.6230872,18.3369927 L42.6230872,31.9790419 C42.6230872,36.388501 39.0485143,39.9630739 34.6390552,39.9630739 L31.8646041,39.9630739 L6.58050566,14.680306 L18.5565536,2.70425814 L23.6237525,2.70425814 C22.1217095,4.9355409 21.3235071,7.566086 21.3323353,10.2558217 C21.3323353,13.8113772 22.6709913,17.0289421 24.8413174,19.3589488 Z M0.0415835049,17.4560878 L0.0415835049,5.36560212 C0.0415835049,3.89578243 1.23310779,2.70425814 2.70292749,2.70425814 L14.7934132,2.70425814 L0.0415835049,17.4560878 Z M4.69893544,16.5618763 L28.100133,39.9630739 L8.02561546,39.9630739 C3.61615637,39.9630739 0.0415835049,36.388501 0.0415835049,31.9790419 L0.0415835049,21.2192282 L4.69893544,16.5618763 L4.69893544,16.5618763 Z" id="形状" fill="url(#linearGradient-1)" fill-rule="nonzero"></path>
                <path d="M33.3083832,5.36560013 C32.2486984,5.3645429 31.2320142,5.78457653 30.4820798,6.53326306 C29.7321455,7.28194959 29.3104193,8.29793296 29.3097139,9.35761808 C29.3097139,11.5625415 31.0994677,13.3496361 33.3083832,13.3496361 C34.3680681,13.3506933 35.3847523,12.9306597 36.1346867,12.1819731 C36.884621,11.4332866 37.3063471,10.4173032 37.3070526,9.35761808 C37.3070526,7.15269461 35.5172987,5.36560013 33.3083832,5.36560013 L33.3083832,5.36560013 Z" id="路径" fill="#FFFFFF"></path>
            </g>
        </g>
    </g>
</svg>