<?xml version="1.0" encoding="UTF-8"?>
<svg width="88px" height="54px" viewBox="0 0 88 54" version="1.1" xmlns="http://www.w3.org/2000/svg" xmlns:xlink="http://www.w3.org/1999/xlink">
    <!-- Generator: Sketch 63.1 (92452) - https://sketch.com -->
    <title>雷达图</title>
    <desc>Created with Sketch.</desc>
    <defs>
        <linearGradient x1="50%" y1="100%" x2="50%" y2="0%" id="linearGradient-1">
            <stop stop-color="#4689F5" offset="0%"></stop>
            <stop stop-color="#43DBFF" offset="100%"></stop>
        </linearGradient>
    </defs>
    <g id="dataA模块" stroke="none" stroke-width="1" fill="none" fill-rule="evenodd">
        <g id="雷达图">
            <rect id="矩形备份-28" fill="#4689F5" opacity="0.202892485" x="0" y="0" width="88" height="54"></rect>
            <g id="编组-33" transform="translate(22.000000, 5.000000)">
                <polygon id="路径-7" fill="#FFFFFF" points="2.625 16.8646184 10.1888121 39.9712826 33.7408252 39.9712826 41.4283781 16.8665531 21.9990362 2.68105714"></polygon>
                <path d="M7.93396211,40.5468683 L0.468609148,17.4897045 C0.189029345,16.6262065 0.495839786,15.6808129 1.229201,15.1460466 L20.7627026,0.902236059 C21.4999688,0.364622283 22.5000312,0.364622283 23.2372974,0.902236059 L42.770799,15.1460466 C43.5041602,15.6808129 43.8109707,16.6262065 43.5313909,17.4897045 L36.0660379,40.5468683 C35.7855508,41.4131685 34.9787248,42 34.0681487,42 L9.93185135,42 C9.02127518,42 8.21444919,41.4131685 7.93396211,40.5468683 Z M15.4383598,35.4569073 L13.5338649,38.1287024 L30.4642075,38.1287024 L28.557785,35.458842 L15.4383598,35.4569073 Z M5.23928853,19.7105348 L10.4496627,35.8070846 L12.2365723,33.2997374 L8.13072811,20.6159657 L5.23928853,19.7105348 Z M38.753001,19.7124695 L35.8673442,20.6159657 L31.7615,33.2978028 L33.5464821,35.8012806 L38.753001,19.7124695 Z M22,26.2594316 L18.202576,31.5875443 L25.8012793,31.5875443 L22,26.2594316 Z M15.0239201,29.3916809 L18.8811005,23.9861808 L12.6413739,22.0321526 L15.0239201,29.3916809 Z M25.1188995,23.9861808 L28.9741523,29.3897462 L31.3566985,22.0321526 L25.1188995,23.9861808 Z M13.6842198,18.3020867 L20.0723736,20.3064167 L20.0723736,13.6453084 L13.6842198,18.3020867 Z M23.9276264,20.304482 L30.3138526,18.3020867 L23.9276264,13.6453084 L23.9276264,20.304482 Z M6.52694299,16.0597909 L9.09839657,16.8665531 L20.0723736,8.86471046 L20.0723736,6.18517664 L6.52694299,16.0597909 Z M23.9276264,8.86277581 L34.9016034,16.8646184 L37.4692018,16.0597909 L23.9276264,6.18711134 L23.9276264,8.86277581 Z" id="形状" fill="url(#linearGradient-1)" fill-rule="nonzero"></path>
            </g>
        </g>
    </g>
</svg>