<?xml version="1.0" encoding="UTF-8"?>
<svg width="88px" height="54px" viewBox="0 0 88 54" version="1.1" xmlns="http://www.w3.org/2000/svg" xmlns:xlink="http://www.w3.org/1999/xlink">
    <!-- Generator: Sketch 63.1 (92452) - https://sketch.com -->
    <title>实时时间</title>
    <desc>Created with Sketch.</desc>
    <defs>
        <linearGradient x1="50%" y1="100%" x2="50%" y2="0%" id="linearGradient-1">
            <stop stop-color="#4689F5" offset="0%"></stop>
            <stop stop-color="#43DBFF" offset="100%"></stop>
        </linearGradient>
    </defs>
    <g id="dataA模块" stroke="none" stroke-width="1" fill="none" fill-rule="evenodd">
        <g id="实时时间">
            <rect id="矩形" fill="#4689F5" opacity="0.202892485" x="0" y="0" width="88" height="54"></rect>
            <rect id="矩形" fill="url(#linearGradient-1)" x="13.25" y="8" width="62" height="38"></rect>
            <rect id="矩形备份-55" fill="#FFFFFF" x="21.25" y="34" width="13" height="3"></rect>
            <rect id="矩形备份-56" fill="#FFFFFF" x="38" y="34" width="13" height="3"></rect>
            <rect id="矩形备份-57" fill="#FFFFFF" x="55" y="34" width="13" height="3"></rect>
            <path d="M24.4,29.24 C25.318,29.24 26.0206667,28.9793333 26.508,28.458 C26.9953333,27.9366667 27.239,27.2 27.239,26.248 L27.239,26.248 L27.239,19.992 C27.239,19.04 26.9953333,18.3033333 26.508,17.782 C26.0206667,17.2606667 25.318,17 24.4,17 C23.482,17 22.7793333,17.2606667 22.292,17.782 C21.8046667,18.3033333 21.561,19.04 21.561,19.992 L21.561,19.992 L21.561,26.248 C21.561,27.2 21.8046667,27.9366667 22.292,28.458 C22.7793333,28.9793333 23.482,29.24 24.4,29.24 Z M24.4,27.54 C23.754,27.54 23.431,27.149 23.431,26.367 L23.431,26.367 L23.431,19.873 C23.431,19.091 23.754,18.7 24.4,18.7 C25.046,18.7 25.369,19.091 25.369,19.873 L25.369,19.873 L25.369,26.367 C25.369,27.149 25.046,27.54 24.4,27.54 Z M31.2,29.24 C32.118,29.24 32.8206667,28.9793333 33.308,28.458 C33.7953333,27.9366667 34.039,27.2 34.039,26.248 L34.039,26.248 L34.039,19.992 C34.039,19.04 33.7953333,18.3033333 33.308,17.782 C32.8206667,17.2606667 32.118,17 31.2,17 C30.282,17 29.5793333,17.2606667 29.092,17.782 C28.6046667,18.3033333 28.361,19.04 28.361,19.992 L28.361,19.992 L28.361,26.248 C28.361,27.2 28.6046667,27.9366667 29.092,28.458 C29.5793333,28.9793333 30.282,29.24 31.2,29.24 Z M31.2,27.54 C30.554,27.54 30.231,27.149 30.231,26.367 L30.231,26.367 L30.231,19.873 C30.231,19.091 30.554,18.7 31.2,18.7 C31.846,18.7 32.169,19.091 32.169,19.873 L32.169,19.873 L32.169,26.367 C32.169,27.149 31.846,27.54 31.2,27.54 Z M37.099,22.593 L37.099,20.791 L35.297,20.791 L35.297,22.593 L37.099,22.593 Z M37.099,29.07 L37.099,27.268 L35.297,27.268 L35.297,29.07 L37.099,29.07 Z M41.196,29.24 C42.114,29.24 42.8166667,28.9793333 43.304,28.458 C43.7913333,27.9366667 44.035,27.2 44.035,26.248 L44.035,26.248 L44.035,19.992 C44.035,19.04 43.7913333,18.3033333 43.304,17.782 C42.8166667,17.2606667 42.114,17 41.196,17 C40.278,17 39.5753333,17.2606667 39.088,17.782 C38.6006667,18.3033333 38.357,19.04 38.357,19.992 L38.357,19.992 L38.357,26.248 C38.357,27.2 38.6006667,27.9366667 39.088,28.458 C39.5753333,28.9793333 40.278,29.24 41.196,29.24 Z M41.196,27.54 C40.55,27.54 40.227,27.149 40.227,26.367 L40.227,26.367 L40.227,19.873 C40.227,19.091 40.55,18.7 41.196,18.7 C41.842,18.7 42.165,19.091 42.165,19.873 L42.165,19.873 L42.165,26.367 C42.165,27.149 41.842,27.54 41.196,27.54 Z M47.996,29.24 C48.914,29.24 49.6166667,28.9793333 50.104,28.458 C50.5913333,27.9366667 50.835,27.2 50.835,26.248 L50.835,26.248 L50.835,19.992 C50.835,19.04 50.5913333,18.3033333 50.104,17.782 C49.6166667,17.2606667 48.914,17 47.996,17 C47.078,17 46.3753333,17.2606667 45.888,17.782 C45.4006667,18.3033333 45.157,19.04 45.157,19.992 L45.157,19.992 L45.157,26.248 C45.157,27.2 45.4006667,27.9366667 45.888,28.458 C46.3753333,28.9793333 47.078,29.24 47.996,29.24 Z M47.996,27.54 C47.35,27.54 47.027,27.149 47.027,26.367 L47.027,26.367 L47.027,19.873 C47.027,19.091 47.35,18.7 47.996,18.7 C48.642,18.7 48.965,19.091 48.965,19.873 L48.965,19.873 L48.965,26.367 C48.965,27.149 48.642,27.54 47.996,27.54 Z M53.895,22.593 L53.895,20.791 L52.093,20.791 L52.093,22.593 L53.895,22.593 Z M53.895,29.07 L53.895,27.268 L52.093,27.268 L52.093,29.07 L53.895,29.07 Z M57.992,29.24 C58.91,29.24 59.6126667,28.9793333 60.1,28.458 C60.5873333,27.9366667 60.831,27.2 60.831,26.248 L60.831,26.248 L60.831,19.992 C60.831,19.04 60.5873333,18.3033333 60.1,17.782 C59.6126667,17.2606667 58.91,17 57.992,17 C57.074,17 56.3713333,17.2606667 55.884,17.782 C55.3966667,18.3033333 55.153,19.04 55.153,19.992 L55.153,19.992 L55.153,26.248 C55.153,27.2 55.3966667,27.9366667 55.884,28.458 C56.3713333,28.9793333 57.074,29.24 57.992,29.24 Z M57.992,27.54 C57.346,27.54 57.023,27.149 57.023,26.367 L57.023,26.367 L57.023,19.873 C57.023,19.091 57.346,18.7 57.992,18.7 C58.638,18.7 58.961,19.091 58.961,19.873 L58.961,19.873 L58.961,26.367 C58.961,27.149 58.638,27.54 57.992,27.54 Z M64.792,29.24 C65.71,29.24 66.4126667,28.9793333 66.9,28.458 C67.3873333,27.9366667 67.631,27.2 67.631,26.248 L67.631,26.248 L67.631,19.992 C67.631,19.04 67.3873333,18.3033333 66.9,17.782 C66.4126667,17.2606667 65.71,17 64.792,17 C63.874,17 63.1713333,17.2606667 62.684,17.782 C62.1966667,18.3033333 61.953,19.04 61.953,19.992 L61.953,19.992 L61.953,26.248 C61.953,27.2 62.1966667,27.9366667 62.684,28.458 C63.1713333,28.9793333 63.874,29.24 64.792,29.24 Z M64.792,27.54 C64.146,27.54 63.823,27.149 63.823,26.367 L63.823,26.367 L63.823,19.873 C63.823,19.091 64.146,18.7 64.792,18.7 C65.438,18.7 65.761,19.091 65.761,19.873 L65.761,19.873 L65.761,26.367 C65.761,27.149 65.438,27.54 64.792,27.54 Z" id="00:00:00" fill="#FFFFFF" fill-rule="nonzero"></path>
        </g>
    </g>
</svg>