<?xml version="1.0" encoding="UTF-8"?>
<svg width="88px" height="54px" viewBox="0 0 88 54" version="1.1" xmlns="http://www.w3.org/2000/svg" xmlns:xlink="http://www.w3.org/1999/xlink">
    <!-- Generator: Sketch 63.1 (92452) - https://sketch.com -->
    <title>玫瑰图</title>
    <desc>Created with Sketch.</desc>
    <defs>
        <linearGradient x1="50%" y1="100%" x2="50%" y2="0%" id="linearGradient-1">
            <stop stop-color="#4689F5" offset="0%"></stop>
            <stop stop-color="#43DBFF" offset="100%"></stop>
        </linearGradient>
        <linearGradient x1="50%" y1="100%" x2="50%" y2="0%" id="linearGradient-2">
            <stop stop-color="#4689F5" offset="0%"></stop>
            <stop stop-color="#43DBFF" offset="100%"></stop>
        </linearGradient>
    </defs>
    <g id="dataA模块" stroke="none" stroke-width="1" fill="none" fill-rule="evenodd">
        <g id="玫瑰图">
            <rect id="矩形备份-28" fill="#4689F5" opacity="0.202892485" x="0" y="0" width="88" height="54"></rect>
            <g id="编组-35" transform="translate(25.000000, 6.000000)" fill-rule="nonzero">
                <path d="M22.2097353,9.51749295 C15.2012471,9.51749295 9.51974474,15.1989953 9.51974474,22.2074836 C9.51974474,29.2159718 15.2012471,34.8974742 22.2097353,34.8974742 C29.2182236,34.8974742 34.899726,29.2159718 34.899726,22.2074836 C34.899726,15.1989953 29.2182236,9.51749295 22.2097353,9.51749295 L22.2097353,9.51749295 Z M22.2097353,28.5524789 C18.7054912,28.5524789 15.86474,25.7117277 15.86474,22.2074836 C15.86474,18.7032394 18.7054912,15.8624883 22.2097353,15.8624883 C25.7139795,15.8624883 28.5547306,18.7032394 28.5547306,22.2074836 C28.5547306,23.8902809 27.886242,25.5041553 26.6963246,26.6940728 C25.5064071,27.8839902 23.8925327,28.5524789 22.2097353,28.5524789 Z" id="形状" fill="#FFFFFF"></path>
                <path d="M34.899726,12.6899906 L27.2857316,18.4322114 C28.1029699,19.5218148 28.5478977,20.8454749 28.5547306,22.2074836 C28.5560543,23.8907873 27.8884336,25.5056305 26.6988195,26.6965677 L33.4245145,33.4222628 C39.0059592,27.8410591 39.6346732,19.0052604 34.899726,12.6899906 L34.899726,12.6899906 Z" id="路径" fill="url(#linearGradient-1)"></path>
                <path d="M26.6988195,26.6965677 C25.5086998,27.8880122 23.8937558,28.5574702 22.2097353,28.5574702 C20.5257149,28.5574702 18.9107709,27.8880122 17.7206512,26.6965677 L8.74248282,35.6747361 C12.3141163,39.2587927 17.1657532,41.2733423 22.2255978,41.2733423 C27.2854425,41.2733423 32.1370794,39.2587927 35.7087129,35.6747361 L26.6988195,26.6965677 Z" id="路径" fill="#FFFFFF"></path>
                <path d="M15.86474,22.2074836 C15.86474,18.7032394 18.7054912,15.8624883 22.2097353,15.8624883 L22.2097353,3.60671226e-15 C13.2271488,-0.000648150719 5.12875794,5.41003916 1.6911832,13.7088307 C-1.74639153,22.0076222 0.153900048,31.5600232 6.50587197,37.9113469 L17.7206512,26.6965677 C16.5310371,25.5056305 15.8634164,23.8907873 15.86474,22.2074836 Z" id="路径" fill="url(#linearGradient-2)"></path>
            </g>
        </g>
    </g>
</svg>