<?xml version="1.0" encoding="UTF-8"?>
<svg width="88px" height="54px" viewBox="0 0 88 54" version="1.1" xmlns="http://www.w3.org/2000/svg" xmlns:xlink="http://www.w3.org/1999/xlink">
    <!-- Generator: Sketch 63.1 (92452) - https://sketch.com -->
    <title>桑基图</title>
    <desc>Created with Sketch.</desc>
    <defs>
        <linearGradient x1="50%" y1="100%" x2="50%" y2="0%" id="linearGradient-1">
            <stop stop-color="#4689F5" offset="0%"></stop>
            <stop stop-color="#43DBFF" offset="100%"></stop>
        </linearGradient>
    </defs>
    <g id="dataA模块" stroke="none" stroke-width="1" fill="none" fill-rule="evenodd">
        <g id="桑基图">
            <rect id="矩形备份-28" fill="#4689F5" opacity="0.202892485" x="0" y="0" width="88" height="54"></rect>
            <g id="水球图" transform="translate(22.500000, 5.500000)" fill-rule="nonzero">
                <path d="M10.3247474,23.4049869 L37.0516935,23.4049869 L37.0516935,18.6930109 L32.7516935,18.6930109 C31.6702564,19.0277414 30.6145677,19.1307354 29.4301366,19.1307354 C26.2115737,19.1307354 23.4307354,18.0492983 21.8085797,16.4528911 C21.8085797,16.3498971 21.7055857,16.3498971 21.6025917,16.2469031 C21.4995977,16.1439091 21.3966037,15.9121725 21.1648671,15.7061845 C19.877442,14.3157653 17.7403162,13.3373222 15.26846,13.3373222 C12.4876216,13.3373222 10.0157653,14.6247474 8.83133421,16.3498971 L8.83133421,21.1906156 C9.03732223,21.6283402 9.37205277,21.9373222 9.80977732,22.3750468 C9.99001684,22.7612743 10.2217534,23.0960049 10.3247474,23.4049869 L10.3247474,23.4049869 Z" id="路径" fill="#FFFFFF"></path>
                <path d="M21.4738492,0.0253461826 C33.2666635,0.0253461826 42.9223522,9.68103481 42.9223522,21.4738492 C42.9223522,33.2666635 33.2666635,42.9223522 21.4738492,42.9223522 C9.68103481,42.9223522 0.0253461826,33.2666635 0.0253461826,21.4738492 C0.0253461826,9.68103481 9.68103481,0.0253461826 21.4738492,0.0253461826 Z M21.4738492,2.16247193 C10.8397174,2.16247193 2.16247193,10.8654659 2.16247193,21.4738492 C2.16247193,32.0822324 10.8397174,40.7852264 21.4738492,40.7852264 C32.1079809,40.7852264 40.7852264,32.1079809 40.7852264,21.4738492 C40.7852264,10.8397174 32.1079809,2.16247193 21.4738492,2.16247193 Z M10.2989989,14.6504959 C12.8738492,14.6504959 15.1397174,15.7061845 16.5301366,17.4313342 C16.6331306,17.5343282 16.8648671,17.7660647 16.9678612,17.9720528 C17.0708552,17.9720528 17.1738492,18.0750468 17.1738492,18.1780408 C18.8989989,20.1091785 21.8085797,21.3966037 25.2331306,21.3966037 C28.0139689,21.3966037 30.5888192,20.4181606 32.3139689,19.0277414 C32.519957,18.8989989 32.6486995,18.7960049 32.8546875,18.6930109 C33.3954061,17.9463043 34.2451067,17.3025917 35.3265438,16.9678612 C36.2792384,16.6588791 37.2576815,16.6588791 37.9013941,16.8906156 C38.3391186,18.3840288 38.5451067,19.877442 38.5451067,21.4995977 C38.5451067,24.2031905 37.9013941,26.7780408 36.819957,29.0181606 C34.6828312,32.880436 31.4642683,35.8672624 27.6019929,37.489418 C27.3960049,37.6181606 27.0612743,37.7211546 26.8552863,37.8241486 C26.7265438,37.8241486 26.6235498,37.9271426 26.5205558,37.9271426 C24.8984001,38.4678612 23.1989989,38.6738492 21.4738492,38.6738492 C19.8516935,38.6738492 18.1265438,38.3648671 16.6331306,37.9271426 C16.4013941,37.8241486 16.2984001,37.8241486 16.0924121,37.7211546 C15.9636695,37.7211546 15.8606755,37.6181606 15.7576815,37.6181606 C11.48343,36.0217534 7.9301366,32.7001965 5.79301085,28.4001965 C4.84031624,26.3660647 4.29959768,23.9972025 4.29959768,21.5253462 C4.29959768,19.6972025 4.60857972,17.8690588 5.14929828,16.3756456 C6.53971744,15.2942085 8.26486714,14.6504959 10.2989989,14.6504959 Z" id="形状结合" fill="url(#linearGradient-1)"></path>
            </g>
        </g>
    </g>
</svg>