<?xml version="1.0" encoding="UTF-8"?>
<svg width="88px" height="54px" viewBox="0 0 88 54" version="1.1" xmlns="http://www.w3.org/2000/svg" xmlns:xlink="http://www.w3.org/1999/xlink">
    <!-- Generator: Sketch 63.1 (92452) - https://sketch.com -->
    <title>下拉框</title>
    <desc>Created with Sketch.</desc>
    <defs>
        <linearGradient x1="50%" y1="100%" x2="50%" y2="0%" id="linearGradient-1">
            <stop stop-color="#4689F5" offset="0%"></stop>
            <stop stop-color="#43DBFF" offset="100%"></stop>
        </linearGradient>
    </defs>
    <g id="dataA模块" stroke="none" stroke-width="1" fill="none" fill-rule="evenodd">
        <g id="下拉框">
            <rect id="矩形备份-28" fill="#4689F5" opacity="0.202892485" x="0" y="0" width="88" height="54"></rect>
            <rect id="矩形备份-58" fill="url(#linearGradient-1)" x="13" y="8" width="62" height="38"></rect>
            <path d="M57,15 C58.1045695,15 59,15.8954305 59,17 L59,37 C59,38.1045695 58.1045695,39 57,39 L31,39 C29.8954305,39 29,38.1045695 29,37 L29,17 C29,15.8954305 29.8954305,15 31,15 L57,15 Z M40.6331727,28.2667204 C40.2281911,27.8912096 39.595477,27.9151004 39.2199662,28.320082 L39.2199662,28.320082 L36.0310003,31.601681 L34.7138829,30.2604156 L34.6204809,30.1763238 C34.2311449,29.8675357 33.6636732,29.8898022 33.2997349,30.2467984 C32.9054684,30.6335443 32.8993718,31.2666799 33.2861177,31.6609464 L33.2861177,31.6609464 L35.336749,33.7514538 L35.4333671,33.8381057 C35.8363327,34.1551444 36.4256219,34.1175241 36.7839156,33.7311109 L36.7839156,33.7311109 L40.6865342,29.6799269 L40.7661089,29.5826478 C41.0561146,29.1791266 41.0070018,28.6133458 40.6331727,28.2667204 Z M54,30 L44,30 C43.4477153,30 43,30.4477153 43,31 C43,31.5522847 43.4477153,32 44,32 L44,32 L54,32 C54.5522847,32 55,31.5522847 55,31 C55,30.4477153 54.5522847,30 54,30 L54,30 Z M40.6331727,20.2667204 C40.2281911,19.8912096 39.595477,19.9151004 39.2199662,20.320082 L39.2199662,20.320082 L36.0310003,23.601681 L34.7138829,22.2604156 L34.6204809,22.1763238 C34.2311449,21.8675357 33.6636732,21.8898022 33.2997349,22.2467984 C32.9054684,22.6335443 32.8993718,23.2666799 33.2861177,23.6609464 L33.2861177,23.6609464 L35.336749,25.7514538 L35.4333671,25.8381057 C35.8363327,26.1551444 36.4256219,26.1175241 36.7839156,25.7311109 L36.7839156,25.7311109 L40.6865342,21.6799269 L40.7661089,21.5826478 C41.0561146,21.1791266 41.0070018,20.6133458 40.6331727,20.2667204 Z M54,23 L44,23 C43.4477153,23 43,23.4477153 43,24 C43,24.5522847 43.4477153,25 44,25 L44,25 L54,25 C54.5522847,25 55,24.5522847 55,24 C55,23.4477153 54.5522847,23 54,23 L54,23 Z" id="形状结合" fill="#FFFFFF"></path>
        </g>
    </g>
</svg>