<?xml version="1.0" encoding="UTF-8"?>
<svg width="88px" height="54px" viewBox="0 0 88 54" version="1.1" xmlns="http://www.w3.org/2000/svg" xmlns:xlink="http://www.w3.org/1999/xlink">
    <!-- Generator: Sketch 63.1 (92452) - https://sketch.com -->
    <title>Tab</title>
    <desc>Created with Sketch.</desc>
    <defs>
        <linearGradient x1="50%" y1="100%" x2="50%" y2="0%" id="linearGradient-1">
            <stop stop-color="#4689F5" offset="0%"></stop>
            <stop stop-color="#43DBFF" offset="100%"></stop>
        </linearGradient>
    </defs>
    <g id="dataV模块" stroke="none" stroke-width="1" fill="none" fill-rule="evenodd">
        <g id="Tab">
            <rect id="矩形" fill="#4689F5" opacity="0.202892485" x="0" y="0" width="88" height="54"></rect>
            <rect id="矩形" fill="url(#linearGradient-1)" x="13" y="8" width="62" height="38"></rect>
            <path d="M34.6833469,16 C35.0041895,16 35.2791807,16.2749913 35.2791807,16.5958338 L35.2791807,16.5958338 L35.2791807,19.2541604 C35.2791807,19.5750029 35.5541953,19.8499942 35.8750145,19.8499942 L35.8750145,19.8499942 L64.4041662,19.8499942 C64.7250087,19.8499942 65,20.1249855 65,20.445828 L65,20.445828 L65,37.4041662 C65,37.7250087 64.7250087,38 64.4041662,38 L64.4041662,38 L23.5958338,38 C23.2749913,38 23,37.7250087 23,37.4500175 L23,37.4500175 L23,16.5958338 C23,16.2749913 23.2749913,16 23.5958338,16 L23.5958338,16 Z M49.6833236,16 C50.0041662,16 50.2791575,16.2749913 50.2333062,16.5958338 L50.2333062,16.5958338 L50.2333062,17.7416502 C50.2333062,18.0624927 50.0041662,18.337484 49.6833236,18.337484 L49.6833236,18.337484 L38.5499825,18.337484 C38.2749913,18.337484 38,18.0624927 38,17.7416502 L38,17.7416502 L38,16.5958338 C38,16.2749913 38.22914,16 38.5499825,16 L38.5499825,16 Z M64.4030404,16 C64.7238829,16 64.9988742,16.2749913 64.9988742,16.5958338 L64.9988742,16.5958338 L64.9988742,17.7416502 C64.9988742,18.0624927 64.7238829,18.291656 64.4030404,18.337484 L64.4030404,18.337484 L53.2697225,18.337484 C52.94888,18.337484 52.6738887,18.0624927 52.6738887,17.7416502 L52.6738887,17.7416502 L52.6738887,16.5958338 C52.6738887,16.2749913 52.94888,16 53.2697225,16 L53.2697225,16 Z M27.1335971,26.0953877 L40.9122542,26.0953877 C41.1659122,26.0953877 41.3715427,26.3010182 41.3715427,26.5546763 L41.3715427,27.4732534 C41.3715427,27.7269115 41.1659122,27.932542 40.9122542,27.932542 L27.1335971,27.932542 C26.879939,27.932542 26.6743085,27.7269115 26.6743085,27.4732534 L26.6743085,26.5546763 C26.6743085,26.3010182 26.879939,26.0953877 27.1335971,26.0953877 Z M27.1335971,31.5978898 L58.9122542,31.5978898 C59.1659122,31.5978898 59.3715427,31.8035203 59.3715427,32.0571783 L59.3715427,32.9757555 C59.3715427,33.2294135 59.1659122,33.435044 58.9122542,33.435044 L27.1335971,33.435044 C26.879939,33.435044 26.6743085,33.2294135 26.6743085,32.9757555 L26.6743085,32.0571783 C26.6743085,31.8035203 26.879939,31.5978898 27.1335971,31.5978898 Z" id="形状" fill="#FFFFFF"></path>
        </g>
    </g>
</svg>