<?xml version="1.0" encoding="UTF-8"?>
<svg width="88px" height="54px" viewBox="0 0 88 54" version="1.1" xmlns="http://www.w3.org/2000/svg" xmlns:xlink="http://www.w3.org/1999/xlink">
    <!-- Generator: Sketch 63.1 (92452) - https://sketch.com -->
    <title>时间过滤</title>
    <desc>Created with Sketch.</desc>
    <defs>
        <linearGradient x1="50%" y1="100%" x2="50%" y2="0%" id="linearGradient-1">
            <stop stop-color="#4689F5" offset="0%"></stop>
            <stop stop-color="#43DBFF" offset="100%"></stop>
        </linearGradient>
        <linearGradient x1="50%" y1="100%" x2="50%" y2="0%" id="linearGradient-2">
            <stop stop-color="#4689F5" offset="0%"></stop>
            <stop stop-color="#43DBFF" offset="100%"></stop>
        </linearGradient>
        <linearGradient x1="50%" y1="100%" x2="50%" y2="0%" id="linearGradient-3">
            <stop stop-color="#4689F5" offset="0%"></stop>
            <stop stop-color="#43DBFF" offset="100%"></stop>
        </linearGradient>
    </defs>
    <g id="dataA模块" stroke="none" stroke-width="1" fill="none" fill-rule="evenodd">
        <g id="时间过滤">
            <rect id="矩形备份-28" fill="#4689F5" opacity="0.202892485" x="0" y="0" width="88" height="54"></rect>
            <g transform="translate(23.000000, 6.000000)">
                <circle id="椭圆形" fill="url(#linearGradient-1)" cx="21" cy="21" r="14.8235294"></circle>
                <path d="M28,21.7761872 L28,20.9342428 C28,20.2584985 27.4404022,19.7106996 26.7501033,19.7106996 L21.3601477,19.7106996 L21.3601477,12.2235432 C21.3599955,11.5477553 20.800319,11 20.1099755,11 L19.2498967,11 C18.5595978,11 18,11.5477989 18,12.2235432 L18,21.7761872 C18,22.1007377 18.1315799,22.41202 18.3659889,22.6415372 C18.6003979,22.8710543 18.9183558,23 19.2498967,23 L26.7501033,23 C27.0816442,23 27.3996021,22.8710543 27.6340111,22.6415372 C27.8684201,22.41202 28,22.1007377 28,21.7761872 L28,21.7761872 Z" id="路径" fill="#FFFFFF" fill-rule="nonzero"></path>
                <rect id="矩形" fill="#FFFFFF" x="23" y="25" width="17" height="17" rx="2"></rect>
                <path d="M32.0197115,27.4820147 L26.8683654,27.4820147 C26.6808654,27.4814423 26.5190385,27.53625 26.40625,27.6917308 C26.2475962,27.9086538 26.2040385,28.2132692 26.4601923,28.4676923 C27.9140385,29.9125962 29.0978846,31.3638462 30.54625,32.8156731 C30.5806028,32.8499568 30.6019233,32.8951481 30.6065385,32.9434615 C30.6091346,34.3589423 30.6091346,35.7755769 30.6079808,37.1922115 C30.6079808,37.3722115 30.6653846,37.5227885 30.7934615,37.6502885 C31.5547115,38.4106731 31.6874038,39.1713462 32.4495192,39.9302885 C32.5072115,39.9879808 32.5799038,40.0396154 32.6554808,40.0664423 C33.0486538,40.2083654 33.4216346,39.9285577 33.4216346,39.4952885 C33.4230769,37.3257692 33.4230769,35.15625 33.4199038,32.9870192 C33.4164973,32.9133523 33.4462341,32.8420262 33.5009615,32.7925962 C34.9389423,31.3572115 36.1135577,29.9203846 37.5480769,28.4821154 C37.6167308,28.4143269 37.6856731,28.3347115 37.7205769,28.2467308 C37.8671154,27.8852885 37.5734615,27.4820147 37.1707692,27.4820147 L32.0197115,27.4820147 L32.0197115,27.4820147 Z" id="路径" fill="url(#linearGradient-2)" fill-rule="nonzero"></path>
                <path d="M41.9203846,20.9783654 C41.9203846,9.41221154 32.5442308,0.0360576923 20.9783654,0.0360576923 C9.41221154,0.0360576923 0.0360576923,9.41221154 0.0360576923,20.9783654 C0.0360576923,31.6096154 7.95980769,40.3834615 18.2224038,41.73375 C18.3804808,41.7799038 18.5472115,41.8058654 18.7202885,41.8058654 C18.7364423,41.8058654 18.7517308,41.8038462 18.7675962,41.8032692 C18.7739423,41.8041346 18.78,41.8052885 18.7863462,41.8058654 L18.7863462,41.8024038 C19.7386475,41.7677942 20.4928706,40.9859108 20.4931731,40.0329808 C20.4927266,39.0800597 19.7386277,38.2981775 18.7863462,38.2632692 L18.7863462,38.2598077 C10.1988462,37.18125 3.55442308,29.8577885 3.55442308,20.9780769 C3.55442308,11.355 11.3552885,3.55413462 20.9783654,3.55413462 C30.6011538,3.55413462 38.4023077,11.355 38.4023077,20.9780769 C38.4023077,21.1035577 38.3968269,21.2275962 38.3927885,21.3516346 C38.3919231,21.3747115 38.3893269,21.3972115 38.3893269,21.4205769 C38.3893269,21.4280769 38.3904808,21.4358654 38.3904808,21.4433654 L38.3904808,21.4445192 C38.4032588,22.4067418 39.1866351,23.180223 40.1489423,23.1807692 C41.1115866,23.1806963 41.8954866,22.4070787 41.9082692,21.4445192 L41.9088462,21.4445192 C41.9120192,21.2893269 41.9203846,21.135 41.9203846,20.9783654 L41.9203846,20.9783654 Z" id="路径" fill="url(#linearGradient-3)" fill-rule="nonzero"></path>
            </g>
        </g>
    </g>
</svg>