<?xml version="1.0" encoding="UTF-8"?>
<svg width="88px" height="54px" viewBox="0 0 88 54" version="1.1" xmlns="http://www.w3.org/2000/svg" xmlns:xlink="http://www.w3.org/1999/xlink">
    <!-- Generator: Sketch 63.1 (92452) - https://sketch.com -->
    <title>视频</title>
    <desc>Created with Sketch.</desc>
    <defs>
        <linearGradient x1="50%" y1="100%" x2="50%" y2="0%" id="linearGradient-1">
            <stop stop-color="#4689F5" offset="0%"></stop>
            <stop stop-color="#43DBFF" offset="100%"></stop>
        </linearGradient>
    </defs>
    <g id="dataA模块" stroke="none" stroke-width="1" fill="none" fill-rule="evenodd">
        <g id="视频">
            <rect id="矩形备份-28" fill="#4689F5" opacity="0.202892485" x="0" y="0" width="88" height="54"></rect>
            <g id="编组-32" transform="translate(23.000000, 8.000000)">
                <path d="M18.3521614,7.27270403 L12.1434985,0 L5.11305427,0 L11.32176,7.27270403 L18.3521614,7.27270403 Z M36.6130329,7.27270403 L30.4043272,0 L23.3739257,0 L29.5825886,7.27270403 L36.6130329,7.27270403 Z M27.4826186,7.27270403 L21.2739129,0 L14.2434686,0 L20.4521743,7.27270403 L27.4826186,7.27270403 Z M39.2608714,0 L32.50434,0 L38.7130457,7.27270403 L42,7.27270403 L42,2.72727466 C42,1.18180482 40.8130158,0 39.2608714,0 Z M2.73912857,0 C1.18698425,0 0,1.18180482 0,2.72727466 L0,7.27270403 L9.22174713,7.27270403 L3.01304143,0 L2.73912857,0 Z M0,35.2727253 C0,36.8181952 1.18698425,38 2.73912857,38 L39.2608714,38 C40.8130158,38 42,36.8181952 42,35.2727253 L42,9.09090134 L0,9.09090134 L0,35.2727253 Z" id="形状" fill="url(#linearGradient-1)" fill-rule="nonzero"></path>
                <path d="M14.6087143,16.2727253 C14.6087143,14.7272555 15.8869457,14.0000107 17.3478428,14.0000107 C17.8043357,14.0000107 18.3521614,14.0909056 18.8086971,14.3636331 L29.2173857,20.3636373 C31.0434857,21.3636522 31.0434857,23.9090944 29.2173857,24.9091093 L18.8086971,30.9091136 C18.3521614,31.181841 17.8956685,31.272736 17.3478428,31.272736 C15.8869457,31.272736 14.6087143,30.5454485 14.6087143,29.0000213 L14.6087143,16.2727253 Z" id="路径" fill="#FFFFFF"></path>
            </g>
        </g>
    </g>
</svg>