<?xml version="1.0" encoding="UTF-8"?>
<svg width="30px" height="30px" viewBox="0 0 30 30" version="1.1" xmlns="http://www.w3.org/2000/svg" xmlns:xlink="http://www.w3.org/1999/xlink">
    <!-- Generator: Sketch 63.1 (92452) - https://sketch.com -->
    <title>上传附件</title>
    <desc>Created with Sketch.</desc>
    <g id="上传附件" stroke="none" stroke-width="1" fill="none" fill-rule="evenodd">
        <g id="编组-39">
            <rect id="矩形备份-32" x="0" y="0" width="30" height="30"></rect>
            <path d="M25,3 C26.1045695,3 27,3.8954305 27,5 L27,25 C27,26.1045695 26.1045695,27 25,27 L5,27 C3.8954305,27 3,26.1045695 3,25 L3,5 C3,3.8954305 3.8954305,3 5,3 L25,3 Z M14.5832,9.52717565 C14.1356,8.90317565 13.6184,9.00637565 13.6184,9.00637565 L13.6184,9.00637565 L9.23,9.00637565 L9.06438614,9.01348935 C8.06562747,9.10211909 8.00390178,9.99063221 8.00022611,10.0792619 L8.00022611,10.0792619 L8,19.8411756 L8.00648928,20.0040727 C8.09159456,21.0308301 8.9852,20.8947756 8.9852,20.8947756 L8.9852,20.8947756 L21.4856,20.8947756 L21.6351332,20.8875372 C22.527092,20.7974316 22.3928,19.8963756 22.3928,19.8963756 L22.3928,19.8963756 L22.3928,11.5803756 L22.3848134,11.4298387 C22.2907169,10.579569 21.3968,10.6635756 21.3968,10.6635756 L21.3968,10.6635756 L21.0849649,10.6639344 C19.8637259,10.6652979 15.4860667,10.6697756 15.7568,10.6635756 C15.4148,10.6707756 15.2468,10.4991756 15.2468,10.4991756 C15.2468,10.4991756 15.0092,10.1235756 14.5832,9.52717565 Z M15.2012,12.6003756 C15.5324,12.6003756 15.8396,12.7443756 16.0448,12.9867756 L16.0448,12.9867756 L18.5696,15.2763756 L18.6464982,15.3562092 C18.7394982,15.4701233 18.7935412,15.6121511 18.7986283,15.7611288 C18.8049871,15.947351 18.7342895,16.1279571 18.6032,16.2603756 C18.4701706,16.4009341 18.2843072,16.479284 18.0908,16.4763756 C17.9071486,16.4768877 17.7296308,16.4103185 17.5916,16.2891756 L17.5916,16.2891756 L15.7028,14.5743756 L15.7028,18.5055756 L15.6969433,18.6050655 C15.6514655,18.9631688 15.3477411,19.2417452 14.9768,19.2459756 C14.7821314,19.244392 14.5960842,19.1654553 14.4596718,19.0265667 C14.3232594,18.8876782 14.2476819,18.7002412 14.2496,18.5055756 L14.2496,18.5055756 L14.2496,14.9907756 L12.8108,16.2891756 L12.7189443,16.3592236 C12.4315576,16.5448629 12.0464329,16.5101975 11.7968,16.2615756 C11.6654993,16.1291102 11.5945665,15.9484056 11.600697,15.7619937 C11.6068275,15.5755818 11.6894797,15.3999281 11.8292,15.2763756 L11.8292,15.2763756 L14.3516,12.9867756 L14.4354128,12.8985 C14.6411492,12.7046158 14.9153869,12.596611 15.2012,12.6003756 Z" id="形状结合" fill="#FC8256"></path>
        </g>
    </g>
</svg>