<?xml version="1.0" encoding="UTF-8"?>
<svg width="30px" height="30px" viewBox="0 0 30 30" version="1.1" xmlns="http://www.w3.org/2000/svg" xmlns:xlink="http://www.w3.org/1999/xlink">
    <!-- Generator: Sketch 63.1 (92452) - https://sketch.com -->
    <title>证件</title>
    <desc>Created with Sketch.</desc>
    <g id="证件" stroke="none" stroke-width="1" fill="none" fill-rule="evenodd">
        <g id="编组-45">
            <rect id="矩形备份-38" x="0" y="0" width="30" height="30"></rect>
            <path d="M25.08,3 C26.136,3 27,3.86785714 27,4.92857143 L27,4.92857143 L27,25.0714286 C27,26.1321429 26.136,27 25.08,27 L25.08,27 L4.92,27 C3.864,27 3,26.1321429 3,25.0714286 L3,25.0714286 L3,4.92857143 C3,3.86785714 3.864,3 4.92,3 L4.92,3 Z M21.72,21.2142857 L8.28,21.2142857 C7.752,21.2142857 7.32,21.6482143 7.32,22.1785714 C7.32,22.7089286 7.752,23.1428571 8.28,23.1428571 L8.28,23.1428571 L21.72,23.1428571 C22.248,23.1428571 22.68,22.7089286 22.68,22.1785714 C22.68,21.6482143 22.248,21.2142857 21.72,21.2142857 L21.72,21.2142857 Z M15,6.58337054 C11.82,6.58337054 9.24,9.17488839 9.24,12.3690848 C9.24,15.5632812 11.82,18.1547991 15,18.1547991 C18.18,18.1547991 20.76,15.5632812 20.76,12.3690848 C20.76,9.17488839 18.18,6.58337054 15,6.58337054 Z M15.006,8.21361607 C15.177,8.21361607 15.33,8.31305804 15.402,8.46674107 L15.402,8.46674107 L16.35,10.506808 L18.468,10.8352679 C18.63,10.859375 18.765,10.9738839 18.816,11.1305804 C18.867,11.2842634 18.828,11.4560268 18.714,11.5735491 L18.714,11.5735491 L17.166,13.1646205 L17.517,15.3493304 C17.562,15.4819196 17.538,15.6295759 17.457,15.7440848 C17.376,15.8555804 17.244,15.9248884 17.103,15.9248884 L17.103,15.9248884 C17.025,15.9248884 16.956,15.9098214 16.893,15.8766741 L16.893,15.8766741 L14.997,14.8159598 L13.101,15.8646205 C12.954,15.9459821 12.777,15.9339286 12.639,15.8375 C12.501,15.7410714 12.432,15.5753348 12.459,15.4095982 L12.459,15.4095982 L12.828,13.1555804 L11.283,11.5614955 C11.166,11.4439732 11.127,11.2722098 11.181,11.1155134 C11.232,10.958817 11.367,10.844308 11.529,10.8202009 L11.529,10.8202009 L13.653,10.4977679 L14.61,8.46372768 C14.682,8.31004464 14.838,8.21361607 15.006,8.21361607 Z" id="形状结合" fill="#EE5E5E"></path>
        </g>
    </g>
</svg>