<?xml version="1.0" encoding="UTF-8"?>
<svg width="30px" height="30px" viewBox="0 0 30 30" version="1.1" xmlns="http://www.w3.org/2000/svg" xmlns:xlink="http://www.w3.org/1999/xlink">
    <!-- Generator: Sketch 63.1 (92452) - https://sketch.com -->
    <title>上传视频</title>
    <desc>Created with Sketch.</desc>
    <g id="上传视频" stroke="none" stroke-width="1" fill="none" fill-rule="evenodd">
        <g id="编组-38">
            <rect id="矩形备份-31" x="0" y="0" width="30" height="30"></rect>
            <path d="M26.987994,8.46310832 L26.987994,25.3673469 C26.987994,26.2967033 26.3156578,27 25.4272136,27 L25.4272136,27 L4.5607804,27 C3.67233616,27 3,26.2967033 3,25.3673469 L3,25.3673469 L3,8.46310832 L26.987994,8.46310832 Z M20.3726863,3.01255885 L23.9144572,7.37048666 L19.9044522,7.37048666 L16.3506754,3.01255885 L20.3726863,3.01255885 Z M15.1620811,3.01255885 L18.7038519,7.37048666 L14.6818409,7.37048666 L11.14007,3.01255885 L15.1620811,3.01255885 Z M9.93946975,3 L13.47,7.357 L9.45922962,7.35792778 L5.91745873,3 L9.93946975,3 Z M25.4272136,3 C26.3156578,3 26.987994,3.71585557 27,4.64521192 L27,4.64521192 L27,7.35792778 L25.1270635,7.35792778 L21.5732867,3 Z M4.71685845,3 L8.27063532,7.35792778 L3,7.35792778 L3,4.63265304 C3,3.70329669 3.67233619,3 4.5607804,3 L4.5607804,3 L4.71685845,3 Z" id="形状结合" fill="#EE5E5E"></path>
            <path d="M11.3441721,13.3736264 C11.3441721,12.44427 12.0765383,12.0047096 12.9049525,12.0047096 C13.1690845,12.0047096 13.4812406,12.0549451 13.7453727,12.2182104 L19.6883442,15.8226059 C20.4087044,16.2244898 20.6848424,17.1538461 20.3006503,17.9073783 C20.1685843,18.1836735 19.9524763,18.3971742 19.6883442,18.5478807 L13.7453727,22.1522763 C13.4812406,22.3155416 13.2291146,22.3657771 12.9049525,22.3657771 C12.0645323,22.3657771 11.3441721,21.9262167 11.3441721,20.9968603 L11.3441721,13.3736264 Z" id="路径" fill="#FFFFFF"></path>
        </g>
    </g>
</svg>