<?xml version="1.0" encoding="UTF-8"?>
<svg width="30px" height="30px" viewBox="0 0 30 30" version="1.1" xmlns="http://www.w3.org/2000/svg" xmlns:xlink="http://www.w3.org/1999/xlink">
    <!-- Generator: Sketch 63.1 (92452) - https://sketch.com -->
    <title>定时器</title>
    <desc>Created with Sketch.</desc>
    <g id="定时器" stroke="none" stroke-width="1" fill="none" fill-rule="evenodd">
        <g id="编组-44">
            <rect id="矩形备份-37" x="0" y="0" width="30" height="30"></rect>
            <path d="M8.44576686,8.67798198 C10.3051044,7.2185617 12.6174743,6.4250142 15,6.42872007 C17.4791413,6.42872007 19.7576097,7.26989774 21.5542331,8.67798198 L23.2493854,7.01732333 L24.8990109,8.63338167 L23.203886,10.2940403 C26.6344339,14.5013804 26.1721114,20.5885967 22.1437631,24.2522557 C18.1154148,27.9159148 11.8845852,27.9159148 7.8562369,24.2522557 C3.82788862,20.5885967 3.36556609,14.5013804 6.796114,10.2940403 L5.10096178,8.63453351 L6.75061464,7.01847517 L8.44576686,8.67910704 L8.44576686,8.67798198 Z M16.1666596,15.5720124 L16.1666596,10.4232071 L10.3333891,17.8578255 L13.8333404,17.8578255 L13.8333404,23.0009251 L19.6666109,15.5720124 L16.1666596,15.5720124 Z M10.3333891,3 L19.6666109,3 L19.6666109,5.28581313 L10.3333891,5.28581313 L10.3333891,3 Z" id="形状" fill="#EE5E5E"></path>
        </g>
    </g>
</svg>