<?xml version="1.0" encoding="UTF-8"?>
<svg width="24px" height="24px" viewBox="0 0 24 24" version="1.1" xmlns="http://www.w3.org/2000/svg" xmlns:xlink="http://www.w3.org/1999/xlink">
    <!-- Generator: Sketch 63.1 (92452) - https://sketch.com -->
    <title>icon/语音文件</title>
    <desc>Created with Sketch.</desc>
    <g id="icon/语音文件" stroke="none" stroke-width="1" fill="none" fill-rule="evenodd">
        <g id="编组-9">
            <rect id="矩形" x="0" y="0" width="24" height="24"></rect>
            <g id="jpg备份" transform="translate(3.500000, 2.000000)">
                <path d="M1.02,0 C0.765,0 0.493,0.1 0.306,0.3 C0.119,0.5 0,0.75 0,1 L0,19 C0,19.25 0.102,19.5166667 0.306,19.7 C0.51,19.9 0.765,20 1.02,20 L15.98,20 C16.235,20 16.507,19.9 16.694,19.7 C16.898,19.5 17,19.25 17,19 L17,5.66666667 L11.22,0 L1.02,0 Z" id="路径" fill="#5A80ED"></path>
                <path d="M7.92857143,15.5650984 C5.99031297,15.2804118 4.5,13.5705457 4.5,11.5043847 C4.5,11.457228 4.50170321,11.4118179 4.50340643,11.3646612 C4.50170321,11.3454492 4.5,11.3279838 4.5,11.3087718 C4.5,10.9839147 4.75548222,10.7219332 5.07228018,10.7219332 C5.38907813,10.7219332 5.64456036,10.9856612 5.64456036,11.3087718 L5.64456036,11.3087718 C5.64626357,11.3733939 5.64456036,11.438016 5.64456036,11.5043847 C5.64456036,13.121684 6.92197147,14.4350848 8.50085161,14.4350848 C10.0797317,14.4350848 11.3588461,13.1234306 11.3588461,11.5043847 C11.3588461,11.438016 11.3554396,11.3733939 11.3520332,11.3087718 L11.3520332,11.3087718 C11.3588461,11.2790806 11.3605493,11.2511359 11.3656589,11.2214446 C11.4116457,10.9018272 11.7028955,10.6817627 12.0145838,10.7289193 C12.317756,10.7743295 12.5289547,11.055523 12.4965936,11.3646612 L12.4965936,11.3646612 L12.5,11.5043847 C12.5,13.5705457 11.009687,15.2804118 9.07142857,15.5650984 L9.07142857,15.5650984 L9.07142857,16.5833333 L9.83333333,16.5833333 C10.0787932,16.5833333 10.2777778,16.7823179 10.2777778,17.0277778 L10.2777778,17.0555556 C10.2777778,17.3010154 10.0787932,17.5 9.83333333,17.5 L7.16666667,17.5 C6.92120678,17.5 6.72222222,17.3010154 6.72222222,17.0555556 L6.72222222,17.0277778 C6.72222222,16.7823179 6.92120678,16.5833333 7.16666667,16.5833333 L7.92857143,16.5833333 Z M8.50085161,6.5 C9.65222482,6.5 10.5958058,7.46583859 10.5958058,8.64824857 L10.5958058,8.64824857 L10.5958058,11.0834677 C10.5958058,12.2641311 9.65392804,13.2317163 8.50085161,13.2317163 C7.34947839,13.2317163 6.40589738,12.2641311 6.40589738,11.0817211 L6.40589738,11.0817211 L6.40589738,8.64824857 C6.40589738,7.46758513 7.34947839,6.5 8.50085161,6.5 Z" id="形状结合" fill="#FFFFFF" fill-rule="nonzero"></path>
                <path d="M17,5.66666667 L12.2173404,5.66666667 C11.9680053,5.66666667 11.7020479,5.56693262 11.5192021,5.36746454 C11.319734,5.18461879 11.22,4.91866135 11.22,4.66932624 L11.22,1.9095836e-14 L17,5.66666667 Z" id="路径" fill-opacity="0.39529611" fill="#FFFFFF" fill-rule="nonzero"></path>
            </g>
        </g>
    </g>
</svg>