<?xml version="1.0" encoding="UTF-8"?>
<svg width="24px" height="24px" viewBox="0 0 24 24" version="1.1" xmlns="http://www.w3.org/2000/svg" xmlns:xlink="http://www.w3.org/1999/xlink">
    <!-- Generator: Sketch 63.1 (92452) - https://sketch.com -->
    <title>icon/DOC</title>
    <desc>Created with Sketch.</desc>
    <g id="icon/DOC" stroke="none" stroke-width="1" fill="none" fill-rule="evenodd">
        <g id="编组-9">
            <rect id="矩形" x="0" y="0" width="24" height="24"></rect>
            <g id="jpg备份" transform="translate(3.500000, 2.000000)">
                <path d="M1.02,0 C0.765,0 0.493,0.1 0.306,0.3 C0.119,0.5 0,0.75 0,1 L0,19 C0,19.25 0.102,19.5166667 0.306,19.7 C0.51,19.9 0.765,20 1.02,20 L15.98,20 C16.235,20 16.507,19.9 16.694,19.7 C16.898,19.5 17,19.25 17,19 L17,5.66666667 L11.22,0 L1.02,0 Z" id="路径" fill="#FAB71C"></path>
                <path d="M3.82385661,14.9106901 C4.20951792,14.9106901 4.52822415,14.8511502 4.77997528,14.7320704 C5.03172641,14.6129905 5.23259168,14.4316644 5.38257108,14.188092 C5.53255047,13.9445196 5.63833951,13.6346414 5.6999382,13.2584574 C5.76153688,12.8822733 5.79233622,12.4397835 5.79233622,11.9309878 C5.79233622,11.5033829 5.76823239,11.1163735 5.72002472,10.7699594 C5.67181706,10.4235453 5.57941904,10.1271989 5.44283066,9.88092016 C5.30624227,9.63464141 5.11475072,9.44519621 4.868356,9.31258457 C4.62196127,9.17997294 4.29789864,9.11366712 3.89616811,9.11366712 L2,9.11366712 L2,14.9106901 L3.82385661,14.9106901 Z M3.67119901,14.0500677 L3.15698393,14.0500677 L3.15698393,9.97428958 L3.64709518,9.97428958 C3.86670787,9.97428958 4.0421302,10.0162382 4.17336218,10.1001353 C4.30459415,10.1840325 4.40368768,10.308525 4.47064277,10.473613 C4.53759786,10.6387009 4.58178822,10.8457375 4.60321384,11.0947226 C4.62463947,11.3437077 4.63535229,11.6332882 4.63535229,11.9634641 C4.63535229,12.3585927 4.62330037,12.6887686 4.59919654,12.9539919 C4.57509271,13.2192152 4.52688504,13.4330176 4.45457355,13.5953992 C4.38226205,13.7577808 4.28450762,13.8741543 4.16131026,13.9445196 C4.0381129,14.014885 3.87474248,14.0500677 3.67119901,14.0500677 Z M8.54820766,15 C8.98207664,15 9.32756489,14.9296346 9.58467244,14.7889039 C9.84177998,14.6481732 10.0386279,14.4451962 10.1752163,14.1799729 C10.3118047,13.9147497 10.4001854,13.5981055 10.4403585,13.2300406 C10.4805315,12.8619756 10.500618,12.4560217 10.500618,12.0121786 C10.500618,11.5737483 10.4805315,11.1691475 10.4403585,10.7983762 C10.4001854,10.4276049 10.3118047,10.1096076 10.1752163,9.8443843 C10.0386279,9.57916103 9.84177998,9.37212449 9.58467244,9.2232747 C9.32756489,9.0744249 8.98207664,9 8.54820766,9 C8.11433869,9 7.76885043,9.0744249 7.51174289,9.2232747 C7.25463535,9.37212449 7.05778739,9.57916103 6.92119901,9.8443843 C6.78461063,10.1096076 6.69622991,10.4276049 6.65605686,10.7983762 C6.61588381,11.1691475 6.59579728,11.5737483 6.59579728,12.0121786 C6.59579728,12.4560217 6.61588381,12.8619756 6.65605686,13.2300406 C6.69622991,13.5981055 6.78461063,13.9147497 6.92119901,14.1799729 C7.05778739,14.4451962 7.25463535,14.6481732 7.51174289,14.7889039 C7.76885043,14.9296346 8.11433869,15 8.54820766,15 Z M8.54820766,14.1637348 C8.37680264,14.1637348 8.23887515,14.1244926 8.13442522,14.0460081 C8.02997528,13.9675237 7.94962917,13.8430311 7.8933869,13.6725304 C7.83714462,13.5020298 7.79964977,13.2801083 7.78090235,13.0067659 C7.76215492,12.7334235 7.75278121,12.4018945 7.75278121,12.0121786 C7.75278121,11.6224628 7.76215492,11.2922869 7.78090235,11.0216509 C7.79964977,10.7510149 7.83714462,10.5290934 7.8933869,10.3558863 C7.94962917,10.1826793 8.02997528,10.0568336 8.13442522,9.97834912 C8.23887515,9.89986468 8.37680264,9.86062246 8.54820766,9.86062246 C8.71961269,9.86062246 8.85754017,9.89986468 8.96199011,9.97834912 C9.06644005,10.0568336 9.14678616,10.1826793 9.20302843,10.3558863 C9.2592707,10.5290934 9.29676555,10.7510149 9.31551298,11.0216509 C9.3342604,11.2922869 9.34363412,11.6224628 9.34363412,12.0121786 C9.34363412,12.4018945 9.3342604,12.7334235 9.31551298,13.0067659 C9.29676555,13.2801083 9.2592707,13.5020298 9.20302843,13.6725304 C9.14678616,13.8430311 9.06644005,13.9675237 8.96199011,14.0460081 C8.85754017,14.1244926 8.71961269,14.1637348 8.54820766,14.1637348 Z M13.1761434,15 C13.5564483,15 13.8657808,14.9404601 14.1041409,14.8213802 C14.342501,14.7023004 14.5272971,14.5372124 14.658529,14.3261164 C14.789761,14.1150203 14.8794808,13.8687415 14.9276885,13.5872801 C14.9758962,13.3058187 15,13.0081191 15,12.6941813 L13.8430161,12.6941813 C13.8430161,13.0081191 13.8242686,13.2611637 13.7867738,13.4533153 C13.7492789,13.6454668 13.6983931,13.7943166 13.6341162,13.8998647 C13.5698393,14.0054127 13.4935105,14.0757781 13.4051298,14.1109608 C13.3167491,14.1461434 13.2216728,14.1637348 13.1199011,14.1637348 C12.9967037,14.1637348 12.8882365,14.1380244 12.7944994,14.0866035 C12.7007623,14.0351827 12.6230944,13.9350474 12.5614957,13.7861976 C12.499897,13.6373478 12.4543675,13.4276049 12.4249073,13.1569689 C12.3954471,12.8863329 12.3807169,12.5317997 12.3807169,12.0933694 C12.3807169,11.6820027 12.3914297,11.3342355 12.4128554,11.0500677 C12.434281,10.7658999 12.4717759,10.5358593 12.5253399,10.3599459 C12.578904,10.1840325 12.6525546,10.0568336 12.7462917,9.97834912 C12.8400288,9.89986468 12.9592089,9.86062246 13.1038319,9.86062246 C13.3662958,9.86062246 13.5470746,9.95669824 13.6461681,10.1488498 C13.7452616,10.3410014 13.7948084,10.6481732 13.7948084,11.0703654 L14.9517923,11.0703654 C14.9517923,10.8592693 14.9370622,10.6332882 14.907602,10.3924222 C14.8781417,10.1515562 14.8044911,9.92692828 14.6866502,9.71853857 C14.5688092,9.51014885 14.3907087,9.33829499 14.1523486,9.202977 C13.9139885,9.067659 13.5885867,9 13.1761434,9 C12.7422744,9 12.3967862,9.0744249 12.1396786,9.2232747 C11.8825711,9.37212449 11.6857231,9.57916103 11.5491347,9.8443843 C11.4125464,10.1096076 11.3241656,10.4276049 11.2839926,10.7983762 C11.2438195,11.1691475 11.223733,11.5737483 11.223733,12.0121786 C11.223733,12.4560217 11.2438195,12.8619756 11.2839926,13.2300406 C11.3241656,13.5981055 11.4125464,13.9147497 11.5491347,14.1799729 C11.6857231,14.4451962 11.8825711,14.6481732 12.1396786,14.7889039 C12.3967862,14.9296346 12.7422744,15 13.1761434,15 Z" id="DOC" fill="#FFFFFF" fill-rule="nonzero"></path>
                <path d="M17,5.66666667 L12.2173404,5.66666667 C11.9680053,5.66666667 11.7020479,5.56693262 11.5192021,5.36746454 C11.319734,5.18461879 11.22,4.91866135 11.22,4.66932624 L11.22,0 L17,5.66666667 Z" id="路径" fill-opacity="0.39529611" fill="#FFFFFF" fill-rule="nonzero"></path>
            </g>
        </g>
    </g>
</svg>