<?xml version="1.0" encoding="UTF-8"?>
<svg width="24px" height="24px" viewBox="0 0 24 24" version="1.1" xmlns="http://www.w3.org/2000/svg" xmlns:xlink="http://www.w3.org/1999/xlink">
    <!-- Generator: Sketch 63.1 (92452) - https://sketch.com -->
    <title>icon/其他文件</title>
    <desc>Created with Sketch.</desc>
    <g id="icon/其他文件" stroke="none" stroke-width="1" fill="none" fill-rule="evenodd">
        <g id="编组-9">
            <rect id="矩形" x="0" y="0" width="24" height="24"></rect>
            <g id="jpg备份" transform="translate(3.500000, 2.000000)">
                <path d="M1.02,0 C0.765,0 0.493,0.1 0.306,0.3 C0.119,0.5 0,0.75 0,1 L0,19 C0,19.25 0.102,19.5166667 0.306,19.7 C0.51,19.9 0.765,20 1.02,20 L15.98,20 C16.235,20 16.507,19.9 16.694,19.7 C16.898,19.5 17,19.25 17,19 L17,5.66666667 L11.22,0 L1.02,0 Z" id="路径" fill="#FAB71C"></path>
                <path d="M17,5.66666667 L12.2173404,5.66666667 C11.9680053,5.66666667 11.7020479,5.56693262 11.5192021,5.36746454 C11.319734,5.18461879 11.22,4.91866135 11.22,4.66932624 L11.22,0 L17,5.66666667 Z" id="路径" fill-opacity="0.39529611" fill="#FFFFFF" fill-rule="nonzero"></path>
                <rect id="矩形" fill="#FFFFFF" x="3.33333333" y="10" width="5.83333333" height="1.66666667" rx="0.416666667"></rect>
                <rect id="矩形备份" fill="#FFFFFF" x="3.33333333" y="13.3333333" width="9.16666667" height="1.66666667" rx="0.416666667"></rect>
            </g>
        </g>
    </g>
</svg>