<?xml version="1.0" encoding="UTF-8"?>
<svg width="20px" height="20px" viewBox="0 0 20 20" version="1.1" xmlns="http://www.w3.org/2000/svg" xmlns:xlink="http://www.w3.org/1999/xlink">
    <!-- Generator: Sketch 63.1 (92452) - https://sketch.com -->
    <title>icon/元素/措施</title>
    <desc>Created with Sketch.</desc>
    <g id="icon/元素/措施" stroke="none" stroke-width="1" fill="none" fill-rule="evenodd">
        <g id="地图_定位">
            <rect id="矩形" fill="#000000" fill-rule="nonzero" opacity="0" x="0" y="0" width="20" height="20"></rect>
            <rect id="矩形" fill="#34C7BE" x="0" y="0" width="20" height="20" rx="5"></rect>
            <path d="M5.932,15.068 C6.604,15.068 6.952,14.708 6.952,14.012 L6.952,10.64 C7.396,10.436 7.84,10.22 8.284,9.98 L8.284,9.128 C7.852,9.368 7.408,9.596 6.952,9.8 L6.952,7.232 L8.2,7.232 L8.2,6.404 L6.952,6.404 L6.952,4.208 L6.1,4.208 L6.1,6.404 L4.648,6.404 L4.648,7.232 L6.1,7.232 L6.1,10.148 C5.548,10.352 4.996,10.532 4.42,10.676 L4.636,11.54 C5.116,11.384 5.608,11.204 6.1,11.012 L6.1,13.796 C6.1,14.132 5.944,14.312 5.644,14.312 C5.356,14.312 5.044,14.288 4.72,14.252 L4.9,15.068 L5.932,15.068 Z M15.52,8.672 L15.52,7.856 L13.804,7.856 L13.804,6.332 L15.22,6.332 L15.22,5.552 L13.804,5.552 L13.804,4.256 L12.964,4.256 L12.964,5.552 L10.948,5.552 L10.948,4.256 L10.108,4.256 L10.108,5.552 L8.704,5.552 L8.704,6.332 L10.108,6.332 L10.108,7.856 L8.416,7.856 L8.416,8.672 L15.52,8.672 Z M12.964,7.856 L10.948,7.856 L10.948,6.332 L12.964,6.332 L12.964,7.856 Z M14.644,15.128 L14.644,9.62 L9.376,9.62 L9.376,15.116 L10.204,15.116 L10.204,14.588 L13.816,14.588 L13.816,15.128 L14.644,15.128 Z M13.816,11.72 L10.204,11.72 L10.204,10.4 L13.816,10.4 L13.816,11.72 Z M13.816,13.808 L10.204,13.808 L10.204,12.488 L13.816,12.488 L13.816,13.808 Z" id="措" fill="#FFFFFF" fill-rule="nonzero"></path>
        </g>
    </g>
</svg>