<?xml version="1.0" encoding="UTF-8"?>
<svg width="24px" height="24px" viewBox="0 0 24 24" version="1.1" xmlns="http://www.w3.org/2000/svg" xmlns:xlink="http://www.w3.org/1999/xlink">
    <!-- Generator: Sketch 63.1 (92452) - https://sketch.com -->
    <title>icon/PDF</title>
    <desc>Created with Sketch.</desc>
    <g id="icon/PDF" stroke="none" stroke-width="1" fill="none" fill-rule="evenodd">
        <g id="编组-9">
            <rect id="矩形" x="0" y="0" width="24" height="24"></rect>
            <g id="jpg备份" transform="translate(3.500000, 2.000000)">
                <path d="M1.02,0 C0.765,0 0.493,0.1 0.306,0.3 C0.119,0.5 0,0.75 0,1 L0,19 C0,19.25 0.102,19.5166667 0.306,19.7 C0.51,19.9 0.765,20 1.02,20 L15.98,20 C16.235,20 16.507,19.9 16.694,19.7 C16.898,19.5 17,19.25 17,19 L17,5.66666667 L11.22,0 L1.02,0 Z" id="路径" fill="#34C7BE"></path>
                <path d="M3.22193211,15 L3.22193211,12.605042 L3.87532637,12.605042 C4.16383812,12.605042 4.42689295,12.5686275 4.66449086,12.4957983 C4.90208877,12.4229692 5.10432985,12.3137255 5.2712141,12.1680672 C5.43809835,12.022409 5.56821149,11.8347339 5.66155352,11.605042 C5.75489556,11.3753501 5.80156658,11.1064426 5.80156658,10.7983193 C5.80156658,10.5742297 5.77328111,10.3543417 5.71671018,10.1386555 C5.66013925,9.92296919 5.56679721,9.73109244 5.43668407,9.56302521 C5.30657093,9.39495798 5.13544386,9.25910364 4.92330287,9.15546218 C4.71116188,9.05182073 4.44952132,9 4.1383812,9 L2,9 L2,15 L3.22193211,15 Z M3.76501305,11.7142857 L3.22193211,11.7142857 L3.22193211,9.8907563 L3.7310705,9.8907563 C4.03655352,9.8907563 4.25435161,9.96918768 4.38446475,10.1260504 C4.51457789,10.2829132 4.57963446,10.512605 4.57963446,10.8151261 C4.57963446,11.1232493 4.50467798,11.3501401 4.35476501,11.4957983 C4.20485205,11.6414566 4.00826806,11.7142857 3.76501305,11.7142857 Z M8.55939948,15 C8.96671018,15 9.30330722,14.9383754 9.5691906,14.8151261 C9.83507398,14.6918768 10.047215,14.5042017 10.2056136,14.2521008 C10.3640122,14 10.4757398,13.6792717 10.5407963,13.289916 C10.6058529,12.9005602 10.6383812,12.442577 10.6383812,11.9159664 C10.6383812,11.4733894 10.6129243,11.0728291 10.5620104,10.7142857 C10.5110966,10.3557423 10.4135117,10.0490196 10.2692559,9.79411765 C10.125,9.53921569 9.92275892,9.34313725 9.66253264,9.20588235 C9.40230635,9.06862745 9.06005222,9 8.63577023,9 L6.63315927,9 L6.63315927,15 L8.55939948,15 Z M8.39817232,14.1092437 L7.85509138,14.1092437 L7.85509138,9.8907563 L8.3727154,9.8907563 C8.60465622,9.8907563 8.78992602,9.93417367 8.9285248,10.0210084 C9.06712359,10.1078431 9.17177981,10.2366947 9.24249347,10.407563 C9.31320714,10.5784314 9.35987815,10.7927171 9.38250653,11.0504202 C9.4051349,11.3081232 9.41644909,11.6078431 9.41644909,11.9495798 C9.41644909,12.3585434 9.40372063,12.7002801 9.37826371,12.9747899 C9.35280679,13.2492997 9.30189295,13.4705882 9.22552219,13.6386555 C9.14915144,13.8067227 9.04590949,13.9271709 8.91579634,14 C8.7856832,14.0728291 8.61314186,14.1092437 8.39817232,14.1092437 Z M12.8361619,15 L12.8361619,12.394958 L14.8727154,12.394958 L14.8727154,11.4033613 L12.8361619,11.4033613 L12.8361619,9.99159664 L15,9.99159664 L15,9 L11.6142298,9 L11.6142298,15 L12.8361619,15 Z" id="PDF" fill="#FFFFFF" fill-rule="nonzero"></path>
                <path d="M17,5.66666667 L12.2173404,5.66666667 C11.9680053,5.66666667 11.7020479,5.56693262 11.5192021,5.36746454 C11.319734,5.18461879 11.22,4.91866135 11.22,4.66932624 L11.22,1.9095836e-14 L17,5.66666667 Z" id="路径" fill-opacity="0.39529611" fill="#FFFFFF" fill-rule="nonzero"></path>
            </g>
        </g>
    </g>
</svg>