<?xml version="1.0" encoding="UTF-8"?>
<svg width="24px" height="24px" viewBox="0 0 24 24" version="1.1" xmlns="http://www.w3.org/2000/svg" xmlns:xlink="http://www.w3.org/1999/xlink">
    <!-- Generator: Sketch 63.1 (92452) - https://sketch.com -->
    <title>icon/PPT</title>
    <desc>Created with Sketch.</desc>
    <g id="icon/PPT" stroke="none" stroke-width="1" fill="none" fill-rule="evenodd">
        <g id="编组-9">
            <rect id="矩形" x="0" y="0" width="24" height="24"></rect>
            <g id="jpg备份" transform="translate(3.500000, 2.000000)">
                <path d="M1.02,0 C0.765,0 0.493,0.1 0.306,0.3 C0.119,0.5 0,0.75 0,1 L0,19 C0,19.25 0.102,19.5166667 0.306,19.7 C0.51,19.9 0.765,20 1.02,20 L15.98,20 C16.235,20 16.507,19.9 16.694,19.7 C16.898,19.5 17,19.25 17,19 L17,5.66666667 L11.22,0 L1.02,0 Z" id="路径" fill="#5A80ED"></path>
                <path d="M3.2513369,15 L3.2513369,12.605042 L3.92045455,12.605042 C4.21590909,12.605042 4.48529412,12.5686275 4.72860963,12.4957983 C4.97192513,12.4229692 5.17903298,12.3137255 5.34993316,12.1680672 C5.52083333,12.022409 5.65407754,11.8347339 5.74966578,11.605042 C5.84525401,11.3753501 5.89304813,11.1064426 5.89304813,10.7983193 C5.89304813,10.5742297 5.864082,10.3543417 5.80614973,10.1386555 C5.74821747,9.92296919 5.65262923,9.73109244 5.51938503,9.56302521 C5.38614082,9.39495798 5.21089572,9.25910364 4.99364973,9.15546218 C4.77640374,9.05182073 4.50846702,9 4.18983957,9 L2,9 L2,15 L3.2513369,15 Z M3.80748663,11.7142857 L3.2513369,11.7142857 L3.2513369,9.8907563 L3.77272727,9.8907563 C4.0855615,9.8907563 4.30860071,9.96918768 4.44184492,10.1260504 C4.57508913,10.2829132 4.64171123,10.512605 4.64171123,10.8151261 C4.64171123,11.1232493 4.56495098,11.3501401 4.41143048,11.4957983 C4.25790998,11.6414566 4.05659537,11.7142857 3.80748663,11.7142857 Z M7.93516043,15 L7.93516043,12.605042 L8.60427807,12.605042 C8.89973262,12.605042 9.16911765,12.5686275 9.41243316,12.4957983 C9.65574866,12.4229692 9.86285651,12.3137255 10.0337567,12.1680672 C10.2046569,12.022409 10.3379011,11.8347339 10.4334893,11.605042 C10.5290775,11.3753501 10.5768717,11.1064426 10.5768717,10.7983193 C10.5768717,10.5742297 10.5479055,10.3543417 10.4899733,10.1386555 C10.432041,9.92296919 10.3364528,9.73109244 10.2032086,9.56302521 C10.0699643,9.39495798 9.89471925,9.25910364 9.67747326,9.15546218 C9.46022727,9.05182073 9.19229055,9 8.8736631,9 L6.68382353,9 L6.68382353,15 L7.93516043,15 Z M8.49131016,11.7142857 L7.93516043,11.7142857 L7.93516043,9.8907563 L8.4565508,9.8907563 C8.76938503,9.8907563 8.99242424,9.96918768 9.12566845,10.1260504 C9.25891266,10.2829132 9.32553476,10.512605 9.32553476,10.8151261 C9.32553476,11.1232493 9.24877451,11.3501401 9.09525401,11.4957983 C8.94173351,11.6414566 8.74041889,11.7142857 8.49131016,11.7142857 Z M13.644385,15 L13.644385,9.99159664 L15,9.99159664 L15,9 L11.0374332,9 L11.0374332,9.99159664 L12.3930481,9.99159664 L12.3930481,15 L13.644385,15 Z" id="PPT" fill="#FFFFFF" fill-rule="nonzero"></path>
                <path d="M17,5.66666667 L12.2173404,5.66666667 C11.9680053,5.66666667 11.7020479,5.56693262 11.5192021,5.36746454 C11.319734,5.18461879 11.22,4.91866135 11.22,4.66932624 L11.22,1.9095836e-14 L17,5.66666667 Z" id="路径" fill-opacity="0.39529611" fill="#FFFFFF" fill-rule="nonzero"></path>
            </g>
        </g>
    </g>
</svg>