<?xml version="1.0" encoding="UTF-8"?>
<svg width="24px" height="24px" viewBox="0 0 24 24" version="1.1" xmlns="http://www.w3.org/2000/svg" xmlns:xlink="http://www.w3.org/1999/xlink">
    <!-- Generator: Sketch 63.1 (92452) - https://sketch.com -->
    <title>icon/TXT</title>
    <desc>Created with Sketch.</desc>
    <g id="icon/TXT" stroke="none" stroke-width="1" fill="none" fill-rule="evenodd">
        <g id="编组-9">
            <rect id="矩形" x="0" y="0" width="24" height="24"></rect>
            <g id="jpg备份" transform="translate(3.500000, 2.000000)">
                <path d="M1.02,0 C0.765,0 0.493,0.1 0.306,0.3 C0.119,0.5 0,0.75 0,1 L0,19 C0,19.25 0.102,19.5166667 0.306,19.7 C0.51,19.9 0.765,20 1.02,20 L15.98,20 C16.235,20 16.507,19.9 16.694,19.7 C16.898,19.5 17,19.25 17,19 L17,5.66666667 L11.22,0 L1.02,0 Z" id="路径" fill="#FC8256"></path>
                <path d="M4.51126851,15 L4.51126851,9.99159664 L5.81712814,9.99159664 L5.81712814,9 L2,9 L2,9.99159664 L3.30585963,9.99159664 L3.30585963,15 L4.51126851,15 Z M7.62524147,15 L8.47907276,12.9663866 L9.34127495,15 L10.6973599,15 L9.20734063,11.9663866 L10.5969092,9 L9.28267869,9 L8.52092724,10.9411765 L7.75080489,9 L6.41983258,9 L7.79265937,11.9663866 L6.30264005,15 L7.62524147,15 Z M13.6941404,15 L13.6941404,9.99159664 L15,9.99159664 L15,9 L11.1828719,9 L11.1828719,9.99159664 L12.4887315,9.99159664 L12.4887315,15 L13.6941404,15 Z" id="TXT" fill="#FFFFFF" fill-rule="nonzero"></path>
                <path d="M17,5.66666667 L12.2173404,5.66666667 C11.9680053,5.66666667 11.7020479,5.56693262 11.5192021,5.36746454 C11.319734,5.18461879 11.22,4.91866135 11.22,4.66932624 L11.22,1.9095836e-14 L17,5.66666667 Z" id="路径" fill-opacity="0.39529611" fill="#FFFFFF" fill-rule="nonzero"></path>
            </g>
        </g>
    </g>
</svg>