<?xml version="1.0" encoding="UTF-8"?>
<svg width="24px" height="24px" viewBox="0 0 24 24" version="1.1" xmlns="http://www.w3.org/2000/svg" xmlns:xlink="http://www.w3.org/1999/xlink">
    <!-- Generator: Sketch 63.1 (92452) - https://sketch.com -->
    <title>icon/视频文件</title>
    <desc>Created with Sketch.</desc>
    <g id="icon/视频文件" stroke="none" stroke-width="1" fill="none" fill-rule="evenodd">
        <g id="编组-9">
            <rect id="矩形" x="0" y="0" width="24" height="24"></rect>
            <g id="jpg备份" transform="translate(3.500000, 2.000000)">
                <path d="M1.02,0 C0.765,0 0.493,0.1 0.306,0.3 C0.119,0.5 0,0.75 0,1 L0,19 C0,19.25 0.102,19.5166667 0.306,19.7 C0.51,19.9 0.765,20 1.02,20 L15.98,20 C16.235,20 16.507,19.9 16.694,19.7 C16.898,19.5 17,19.25 17,19 L17,5.66666667 L11.22,0 L1.02,0 Z" id="路径" fill="#EE5E5E"></path>
                <path d="M17,5.66666667 L12.2173404,5.66666667 C11.9680053,5.66666667 11.7020479,5.56693262 11.5192021,5.36746454 C11.319734,5.18461879 11.22,4.91866135 11.22,4.66932624 L11.22,1.9095836e-14 L17,5.66666667 Z" id="路径" fill-opacity="0.39529611" fill="#FFFFFF" fill-rule="nonzero"></path>
                <path d="M9.02648535,8.33270001 C9.11157273,8.33554938 9.83477313,8.3839887 9.83333333,9.20745712 L9.83333333,9.20745712 L9.83333333,13.4834561 C9.83333333,14.3337221 9.01834205,14.3337221 9.01834205,14.3337221 L4.14019414,14.333549 C4.05526142,14.33078 3.33333333,14.2837065 3.33333333,13.4834561 L3.33333333,13.4834561 L3.33333333,9.18278789 C3.33333333,8.33252192 4.14832246,8.33252192 4.14832246,8.33252192 Z M12.991453,8.79794797 C13.0434054,8.7453203 13.1221719,8.7453203 13.2009385,8.77163413 C13.279705,8.79630336 13.3316574,8.87360027 13.3333333,8.95089718 L13.3333333,8.95089718 L13.3333333,13.7663299 C13.3333333,13.8436268 13.3065192,13.9209237 13.2277526,13.9472376 C13.1741244,13.9735514 13.1489861,13.9735514 13.1221719,13.9735514 C13.0702195,13.9735514 13.0182671,13.9488822 12.991453,13.9225684 L12.991453,13.9225684 L11.2334506,12.5838517 C11.1814982,12.5575379 11.1546841,12.480241 11.1546841,12.4292579 L11.1546841,12.4292579 L11.1546841,10.2912584 C11.1546841,10.2402753 11.1814982,10.1876477 11.2334506,10.1366646 L11.2334506,10.1366646 Z" id="形状结合" fill="#FFFFFF" fill-rule="nonzero"></path>
            </g>
        </g>
    </g>
</svg>