<?xml version="1.0" encoding="UTF-8"?>
<svg width="24px" height="24px" viewBox="0 0 24 24" version="1.1" xmlns="http://www.w3.org/2000/svg" xmlns:xlink="http://www.w3.org/1999/xlink">
    <!-- Generator: Sketch 63.1 (92452) - https://sketch.com -->
    <title>icon/XLS</title>
    <desc>Created with Sketch.</desc>
    <g id="icon/XLS" stroke="none" stroke-width="1" fill="none" fill-rule="evenodd">
        <g id="编组-9">
            <rect id="矩形" x="0" y="0" width="24" height="24"></rect>
            <g id="jpg备份" transform="translate(3.500000, 2.000000)">
                <path d="M1.02,0 C0.765,0 0.493,0.1 0.306,0.3 C0.119,0.5 0,0.75 0,1 L0,19 C0,19.25 0.102,19.5166667 0.306,19.7 C0.51,19.9 0.765,20 1.02,20 L15.98,20 C16.235,20 16.507,19.9 16.694,19.7 C16.898,19.5 17,19.25 17,19 L17,5.66666667 L11.22,0 L1.02,0 Z" id="路径" fill="#EE5E5E"></path>
                <path d="M3.30744749,14.9106901 L4.15149586,12.9458728 L5.00381922,14.9106901 L6.34436665,14.9106901 L4.87141948,11.9797023 L6.24506684,9.11366712 L4.94589433,9.11366712 L4.19287078,10.9891746 L3.43157225,9.11366712 L2.11584978,9.11366712 L3.47294717,11.9797023 L2,14.9106901 L3.30744749,14.9106901 Z M10.4404838,14.9106901 L10.4404838,13.9526387 L8.33036283,13.9526387 L8.33036283,9.11366712 L7.13876512,9.11366712 L7.13876512,14.9106901 L10.4404838,14.9106901 Z M12.9478039,15 C13.5932527,15 14.0966476,14.8606225 14.4579885,14.5818674 C14.8193295,14.3031123 15,13.8579161 15,13.2462788 C15,13.067659 14.98345,12.9052774 14.9503501,12.759134 C14.9172502,12.6129905 14.8579461,12.4790257 14.7724379,12.3572395 C14.6869298,12.2354533 14.5724592,12.1217862 14.4290261,12.0162382 C14.285593,11.9106901 14.1007851,11.8092016 13.8746022,11.7117727 L12.9560789,11.3220568 C12.7023128,11.2192152 12.5368131,11.1069012 12.4595799,10.985115 C12.3823467,10.8633288 12.3437301,10.7131258 12.3437301,10.5345061 C12.3437301,10.4479026 12.3533843,10.3640054 12.3726926,10.2828146 C12.3920008,10.2016238 12.4278591,10.1299053 12.4802673,10.067659 C12.5326756,10.0054127 12.6030129,9.95534506 12.6912794,9.91745602 C12.7795459,9.87956698 12.8898791,9.86062246 13.0222788,9.86062246 C13.2539784,9.86062246 13.419478,9.93504736 13.5187778,10.0838972 C13.6180777,10.232747 13.6677276,10.4451962 13.6677276,10.7212449 L14.8096754,10.7212449 L14.8096754,10.5588633 C14.8096754,10.2828146 14.764163,10.0460081 14.6731381,9.84844384 C14.5821133,9.65087957 14.4552302,9.48849797 14.2924889,9.36129905 C14.1297475,9.23410014 13.9366645,9.1420839 13.71324,9.08525034 C13.4898154,9.02841678 13.2457034,9 12.9809039,9 C12.4126883,9 11.9658392,9.14073072 11.6403565,9.42219215 C11.3148738,9.70365359 11.1521324,10.1312585 11.1521324,10.7050068 C11.1521324,10.9431664 11.182474,11.1529093 11.2431572,11.3342355 C11.3038404,11.5155616 11.3990028,11.6752368 11.5286442,11.8132612 C11.6582856,11.9512855 11.8196478,12.0717185 12.0127307,12.1745602 C12.2058137,12.2774019 12.4347549,12.3721245 12.6995544,12.458728 C12.898154,12.5236806 13.0650329,12.5872801 13.200191,12.6495264 C13.335349,12.7117727 13.444303,12.7807848 13.5270528,12.8565629 C13.6098027,12.932341 13.6691067,13.0175913 13.704965,13.1123139 C13.7408233,13.2070365 13.7587524,13.3193505 13.7587524,13.4492558 C13.7587524,13.6928281 13.6856567,13.8728011 13.5394653,13.9891746 C13.3932739,14.105548 13.2291534,14.1637348 13.0471038,14.1637348 C12.8926374,14.1637348 12.7643751,14.1420839 12.662317,14.0987821 C12.5602589,14.0554804 12.4788882,13.9959405 12.418205,13.9201624 C12.3575217,13.8443843 12.3161468,13.7510149 12.2940802,13.6400541 C12.2720136,13.5290934 12.2609803,13.405954 12.2609803,13.270636 L12.2609803,13.1001353 L11.0693826,13.1001353 L11.0693826,13.3355886 C11.0693826,13.8714479 11.2141948,14.2828146 11.5038192,14.5696888 C11.7934437,14.8565629 12.2747719,15 12.9478039,15 Z" id="XLS" fill="#FFFFFF" fill-rule="nonzero"></path>
                <path d="M17,5.66666667 L12.2173404,5.66666667 C11.9680053,5.66666667 11.7020479,5.56693262 11.5192021,5.36746454 C11.319734,5.18461879 11.22,4.91866135 11.22,4.66932624 L11.22,1.9095836e-14 L17,5.66666667 Z" id="路径" fill-opacity="0.39529611" fill="#FFFFFF" fill-rule="nonzero"></path>
            </g>
        </g>
    </g>
</svg>