<?xml version="1.0" encoding="UTF-8"?>
<svg width="24px" height="24px" viewBox="0 0 24 24" version="1.1" xmlns="http://www.w3.org/2000/svg" xmlns:xlink="http://www.w3.org/1999/xlink">
    <!-- Generator: Sketch 63.1 (92452) - https://sketch.com -->
    <title>icon/压缩包</title>
    <desc>Created with Sketch.</desc>
    <g id="icon/压缩包" stroke="none" stroke-width="1" fill="none" fill-rule="evenodd">
        <g id="编组-9">
            <rect id="矩形" x="0" y="0" width="24" height="24"></rect>
            <g id="jpg备份" transform="translate(3.500000, 2.000000)">
                <path d="M1.02,0 C0.765,0 0.493,0.1 0.306,0.3 C0.119,0.5 0,0.75 0,1 L0,19 C0,19.25 0.102,19.5166667 0.306,19.7 C0.51,19.9 0.765,20 1.02,20 L15.98,20 C16.235,20 16.507,19.9 16.694,19.7 C16.898,19.5 17,19.25 17,19 L17,5.66666667 L11.22,0 L1.02,0 Z" id="路径" fill="#FC8256"></path>
                <path d="M5.99929178,5 L5.99929178,6.09055777 L4.5,6.09 L4.5,7.18111555 L5.99929178,7.18188845 L5.99929178,8.27399201 L4.5,8.27399201 L4.5,9.36454979 L5.99929178,9.36454979 L5.99929178,10.4551076 L4.5,10.4551076 L4.5,11.544 L6,11.5448924 L6,16.4535618 C6,16.7221864 5.82261393,16.9450098 5.58920793,16.9912098 L5.49929178,17 L3.50070822,17 C3.25456405,17 3.05038821,16.8064131 3.00805461,16.55169 L3,16.4535618 L3,12.6354502 L4.5,12.6354502 L4.499,11.545 L3,11.5456653 L3,10.4551076 L4.49929178,10.4551076 L4.49929178,9.36454979 L3,9.36454979 L3,8.27399201 L4.49929178,8.27399201 L4.49929178,7.18188845 L3,7.18111555 L3,6.08901198 L4.499,6.089 L4.49929178,5 L5.99929178,5 Z M5.49858357,14.8173387 L3.5,14.8173387 L3.5,15.9078964 L5.49858357,15.9078964 L5.49858357,14.8173387 Z" id="形状结合" fill="#FFFFFF" fill-rule="nonzero"></path>
                <path d="M17,5.66666667 L12.2173404,5.66666667 C11.9680053,5.66666667 11.7020479,5.56693262 11.5192021,5.36746454 C11.319734,5.18461879 11.22,4.91866135 11.22,4.66932624 L11.22,1.9095836e-14 L17,5.66666667 Z" id="路径" fill-opacity="0.39529611" fill="#FFFFFF" fill-rule="nonzero"></path>
            </g>
        </g>
    </g>
</svg>