<?xml version="1.0" encoding="UTF-8"?>
<svg width="30px" height="30px" viewBox="0 0 30 30" version="1.1" xmlns="http://www.w3.org/2000/svg" xmlns:xlink="http://www.w3.org/1999/xlink">
    <!-- Generator: Sketch 63.1 (92452) - https://sketch.com -->
    <title>编码</title>
    <desc>Created with Sketch.</desc>
    <g id="编码" stroke="none" stroke-width="1" fill="none" fill-rule="evenodd">
        <g id="编组-35">
            <rect id="矩形备份-28" x="0" y="0" width="30" height="30"></rect>
            <path d="M5,3 L25,3 C26.1045695,3 27,3.8954305 27,5 L27,25 C27,26.1045695 26.1045695,27 25,27 L5,27 C3.8954305,27 3,26.1045695 3,25 L3,5 C3,3.8954305 3.8954305,3 5,3 Z M12.5729492,19.8230469 C13.2500326,19.8230469 13.5885742,19.414681 13.5885742,18.5979492 L13.5885742,18.5979492 L13.5885742,11.2791016 C13.5885742,10.919401 13.5102865,10.6496257 13.3537109,10.4697754 C13.1971354,10.2899251 12.983431,10.2 12.7125977,10.2 C12.4502279,10.2 12.2418132,10.2899251 12.0873535,10.4697754 C11.9328939,10.6496257 11.8556641,10.919401 11.8556641,11.2791016 L11.8556641,11.2791016 L11.8556641,16.8142578 L8.23115234,11.3298828 C8.12958984,11.1690755 8.03120117,11.0146159 7.93598633,10.8665039 C7.84077148,10.7183919 7.74767253,10.5977865 7.65668945,10.5046875 C7.56570638,10.4115885 7.45991211,10.3375326 7.33930664,10.2825195 C7.21870117,10.2275065 7.07376302,10.2 6.90449219,10.2 C6.68867188,10.2 6.48766276,10.2603027 6.30146484,10.3809082 C6.11526693,10.5015137 5.98196615,10.6570313 5.9015625,10.8474609 C5.83385417,11.0209635 5.8,11.2600586 5.8,11.5647461 L5.8,11.5647461 L5.8,18.7439453 C5.8,19.0951823 5.88040365,19.3628418 6.04121094,19.5469238 C6.20201823,19.7310059 6.41572266,19.8230469 6.68232422,19.8230469 C6.94046224,19.8230469 7.15205078,19.7320638 7.31708984,19.5500977 C7.48212891,19.3681315 7.56464844,19.0994141 7.56464844,18.7439453 L7.56464844,18.7439453 L7.56464844,13.2913086 L11.100293,18.712207 C11.2018555,18.860319 11.303418,19.0052572 11.4049805,19.1470215 C11.506543,19.2887858 11.616569,19.4125651 11.7350586,19.5183594 C11.8535482,19.6241536 11.9805013,19.7013835 12.115918,19.7500488 C12.2513346,19.7987142 12.4036784,19.8230469 12.5729492,19.8230469 Z M19.7838867,19.8230469 C20.5159831,19.8230469 21.1655599,19.7087891 21.7326172,19.4802734 C22.2996745,19.2517578 22.7778646,18.9216797 23.1671875,18.4900391 C23.5565104,18.0583984 23.8485026,17.5484701 24.0431641,16.9602539 C24.2378255,16.3720378 24.3351563,15.7182292 24.3351563,14.9988281 C24.3351563,14.0255208 24.1574219,13.1781087 23.8019531,12.4565918 C23.4464844,11.7350749 22.9228027,11.178597 22.2309082,10.7871582 C21.5390137,10.3957194 20.7106445,10.2 19.7458008,10.2 C19.0348633,10.2 18.4000977,10.311084 17.8415039,10.533252 C17.2829102,10.7554199 16.8089518,11.0759766 16.4196289,11.4949219 C16.030306,11.9138672 15.7330241,12.4216797 15.5277832,13.0183594 C15.3225423,13.6150391 15.2199219,14.2709635 15.2199219,14.9861328 C15.2199219,15.684375 15.3183105,16.3339518 15.5150879,16.9348633 C15.7118652,17.5357747 16.0027995,18.0499349 16.3878906,18.4773438 C16.7729818,18.9047526 17.2532878,19.2358887 17.8288086,19.470752 C18.4043294,19.7056152 19.0560221,19.8230469 19.7838867,19.8230469 Z M19.7711914,18.325 C19.3945638,18.325 19.0486165,18.2551758 18.7333496,18.1155273 C18.4180827,17.9758789 18.1387858,17.7653483 17.895459,17.4839355 C17.6521322,17.2025228 17.4638184,16.848112 17.3305176,16.4207031 C17.1972168,15.9932943 17.1305664,15.5151042 17.1305664,14.9861328 C17.1305664,14.4613932 17.1972168,13.9884928 17.3305176,13.5674316 C17.4638184,13.1463704 17.6457845,12.8004232 17.876416,12.5295898 C18.1070475,12.2587565 18.3821126,12.0524577 18.7016113,11.9106934 C19.02111,11.768929 19.3691732,11.6980469 19.7458008,11.6980469 C20.2747721,11.6980469 20.7434408,11.8260579 21.1518066,12.0820801 C21.5601725,12.3381022 21.8743815,12.7157878 22.0944336,13.2151367 C22.3144857,13.7144857 22.4245117,14.3048177 22.4245117,14.9861328 C22.4245117,15.7224609 22.3049642,16.3424154 22.0658691,16.8459961 C21.8267741,17.3495768 21.5051595,17.7219727 21.1010254,17.9631836 C20.6968913,18.2043945 20.2536133,18.325 19.7711914,18.325 Z" id="数据选择框--面备份" fill="#FAB71C"></path>
        </g>
    </g>
</svg>