<?xml version="1.0" encoding="UTF-8"?>
<svg width="30px" height="30px" viewBox="0 0 30 30" version="1.1" xmlns="http://www.w3.org/2000/svg" xmlns:xlink="http://www.w3.org/1999/xlink">
    <!-- Generator: Sketch 63.1 (92452) - https://sketch.com -->
    <title>数据选择框</title>
    <desc>Created with Sketch.</desc>
    <g id="数据选择框" stroke="none" stroke-width="1" fill="none" fill-rule="evenodd">
        <g id="编组-35">
            <rect id="矩形备份-28" x="0" y="0" width="30" height="30"></rect>
            <path d="M25,3 C26.1045695,3 27,3.8954305 27,5 L27,25 C27,26.1045695 26.1045695,27 25,27 L5,27 C3.8954305,27 3,26.1045695 3,25 L3,5 C3,3.8954305 3.8954305,3 5,3 L25,3 Z M21.975042,9.49786315 C21.3440056,8.83404562 20.397451,8.83404562 19.7664146,9.49786315 L19.7664146,9.49786315 L12.9827731,16.6339016 L10.9319048,14.4764946 C10.3008683,13.8126771 9.35431373,13.8126771 8.72327731,14.4764946 C8.0922409,15.1403121 8.0922409,16.1360384 8.72327731,16.7998559 L8.72327731,16.7998559 L11.8784594,20.1189436 C12.5094958,20.7827611 13.4560504,20.7827611 14.0870868,20.1189436 L14.0870868,20.1189436 L21.975042,11.8212245 C22.6060784,11.157407 22.6060784,10.1616807 21.975042,9.49786315 Z" id="数据选择框--面备份" fill="#FC8256"></path>
        </g>
    </g>
</svg>