<?xml version="1.0" encoding="UTF-8"?>
<svg width="30px" height="30px" viewBox="0 0 30 30" version="1.1" xmlns="http://www.w3.org/2000/svg" xmlns:xlink="http://www.w3.org/1999/xlink">
    <!-- Generator: Sketch 63.1 (92452) - https://sketch.com -->
    <title>日期时间</title>
    <desc>Created with Sketch.</desc>
    <g id="日期时间" stroke="none" stroke-width="1" fill="none" fill-rule="evenodd">
        <g id="编组-22">
            <rect id="矩形备份-17" x="0" y="0" width="30" height="30"></rect>
            <path d="M26.7592084,11.3879513 C26.8595383,11.3879513 26.9505948,11.4622703 26.9858878,11.5567233 L27,11.6153777 L27,24.7658977 C27,25.9431506 26.0820649,26.9123233 24.9251763,26.9943738 L24.7660014,27 L5.2473521,27 C4.07016889,27 3.10105194,26.0820122 3.0190062,24.9250786 L3.01338029,24.7658977 L3.01338029,11.6153777 C3.01338029,11.5150609 3.09698847,11.4240037 3.1867726,11.3964379 L3.24076474,11.3879513 L26.7592084,11.3879513 Z M14.9993864,13.5 C11.9618989,13.5 9.5,15.9618989 9.5,18.9993864 C9.5,22.0368738 11.9631262,24.5 15.0006136,24.5 C18.0381011,24.5 20.5,22.0381011 20.5,18.9993864 C20.5,15.9618989 18.0381011,13.5 14.9993864,13.5 Z M14.7022249,16.25 C15.0437904,16.25 15.3211165,16.4990407 15.3211165,16.8057687 L15.3211165,19.1470325 L17.5240572,20.7650934 C17.787282,20.9592607 17.8264523,21.309606 17.610232,21.5459836 C17.4880205,21.6796495 17.3109705,21.75 17.1307868,21.75 C16.9929072,21.75 16.8550276,21.7091967 16.7390833,21.6247762 L14.3105214,19.8406882 C14.1667941,19.7355921 14.0833333,19.5779947 14.0833333,19.4115503 L14.0833333,16.8057687 C14.0833333,16.4990407 14.3606594,16.25 14.7022249,16.25 Z M10.5454099,3 C10.8798366,3 11.1072479,3.22742648 11.1072479,3.56187246 L11.1072479,5.23410235 L20.0165086,5.23410235 L20.0165086,3.56187246 C20.0165086,3.22742648 20.2438931,3 20.5783466,3 L21.6886424,3 C22.0230692,3 22.2505072,3.22742648 22.2505072,3.56187246 L22.2505072,5.23410235 L24.7526479,5.23410235 C25.9833394,5.23410235 26.9866465,6.23746711 26.9866465,7.46823152 L26.9866465,9.47490739 C26.9866465,9.59531438 26.879631,9.70233387 26.652193,9.70233387 L3.22741127,9.70233387 C3.10701549,9.70233387 3,9.58192688 3,9.47490739 L3,7.46823152 C3,6.23746711 4.00328027,5.23410235 5.23399862,5.23410235 L8.87322244,5.23410235 L8.87322244,3.56187246 C8.87322244,3.22742648 9.10063371,3 9.43506047,3 L10.5454099,3 Z" id="形状结合" fill="#FC8256"></path>
        </g>
    </g>
</svg>