<?xml version="1.0" encoding="UTF-8"?>
<svg width="30px" height="30px" viewBox="0 0 30 30" version="1.1" xmlns="http://www.w3.org/2000/svg" xmlns:xlink="http://www.w3.org/1999/xlink">
    <!-- Generator: Sketch 63.1 (92452) - https://sketch.com -->
    <title>按钮</title>
    <desc>Created with Sketch.</desc>
    <g id="按钮" stroke="none" stroke-width="1" fill="none" fill-rule="evenodd">
        <g id="编组-23">
            <rect id="矩形备份-16" x="0" y="0" width="30" height="30"></rect>
            <path d="M25,3 C26.1045695,3 27,3.8954305 27,5 L27,25 C27,26.1045695 26.1045695,27 25,27 L5,27 C3.8954305,27 3,26.1045695 3,25 L3,5 C3,3.8954305 3.8954305,3 5,3 L25,3 Z M9.92414147,12 L6.75,12 L6.75,18.75 L9.90645823,18.75 C10.6092243,18.75 11.1925486,18.6091757 11.6322364,18.3273345 C12.1721986,17.9671614 12.4440031,17.4180806 12.4440031,16.718199 C12.4440031,16.2387671 12.2962679,15.8336669 12.0039341,15.5093435 C11.8869662,15.379576 11.7527719,15.2688624 11.6023163,15.1777293 C11.6776076,15.1153009 11.7475971,15.0474035 11.8121407,14.974061 C12.0603134,14.6461915 12.1787545,14.2780624 12.1787545,13.8702771 C12.1787545,13.2971403 11.9676167,12.8270118 11.5489255,12.4880025 C11.1327141,12.1596062 10.5854452,12 9.92414147,12 L9.92414147,12 Z M18.1291645,12 L12.2494874,12 L12.2494874,13.2836902 L14.4775756,13.2836902 L14.4775756,18.75 L15.9010764,18.75 L15.9010764,13.2836902 L18.1291645,13.2836902 L18.1291645,12 Z M19.3227832,12 L18.2087391,12 L18.2087391,18.75 L19.6410815,18.75 L19.6410815,14.4722761 L22.6127696,18.6033858 L22.9036392,18.75 L24,18.75 L24,12 L22.5676576,12 L22.5676576,16.2312864 L19.6131492,12.145916 L19.3227832,12 Z M9.84456689,15.9105793 C10.2693364,15.9105793 10.5636892,15.9813348 10.7448608,16.1134844 C10.9224785,16.238779 11.0116607,16.4268738 11.0116607,16.7096977 C11.0116607,16.9874682 10.9114261,17.1747907 10.7085093,17.2974284 C10.5008287,17.4171546 10.2147386,17.4833123 9.84456689,17.4833123 L9.84456689,17.4833123 L8.18234239,17.4833123 L8.18234239,15.9105793 Z M9.75615069,13.2666877 C10.1360669,13.2666877 10.3944524,13.3287974 10.5484621,13.4427059 C10.6858123,13.5442927 10.7552537,13.6983733 10.7552537,13.9382872 C10.7552537,14.1832381 10.6794133,14.3506862 10.533033,14.4643651 C10.3736683,14.5821136 10.109141,14.6523929 9.74730907,14.6523929 L9.74730907,14.6523929 L8.18234239,14.6523929 L8.18234239,13.2666877 Z" id="下拉菜单备份" fill="#34C7BE"></path>
        </g>
    </g>
</svg>