<?xml version="1.0" encoding="UTF-8"?>
<svg width="30px" height="30px" viewBox="0 0 30 30" version="1.1" xmlns="http://www.w3.org/2000/svg" xmlns:xlink="http://www.w3.org/1999/xlink">
    <!-- Generator: Sketch 63.1 (92452) - https://sketch.com -->
    <title>复选框</title>
    <desc>Created with Sketch.</desc>
    <g id="复选框" stroke="none" stroke-width="1" fill="none" fill-rule="evenodd">
        <g id="编组-32">
            <rect id="矩形备份-25" x="0" y="0" width="30" height="30"></rect>
            <path d="M21.0821918,3 C23.0150664,3 24.5937763,4.51635915 24.6936173,6.4243731 L24.6986301,6.61643836 L24.698,7.273 L25,7.2739726 C26.1045695,7.2739726 27,8.1694031 27,9.2739726 L27,25 C27,26.1045695 26.1045695,27 25,27 L9.2739726,27 C8.1694031,27 7.2739726,26.1045695 7.2739726,25 L7.273,24.698 L6.61643836,24.6986301 C4.68356376,24.6986301 3.10485381,23.182271 3.00501287,21.274257 L3,21.0821918 L3,6.61643836 C3,4.68356376 4.51635915,3.10485381 6.4243731,3.00501287 L6.61643836,3 L21.0821918,3 Z M21.0821918,4.97260274 L6.61643836,4.97260274 C5.7563554,4.97260274 5.05054946,5.63314116 4.9786366,6.47460193 L4.97260274,6.61643836 L4.97260274,21.0821918 C4.97260274,21.9422747 5.63314116,22.6480807 6.47460193,22.7199935 L6.61643836,22.7260274 L7.273,22.726 L7.2739726,9.2739726 C7.2739726,8.1694031 8.1694031,7.2739726 9.2739726,7.2739726 L22.726,7.273 L22.7260274,6.61643836 C22.7260274,5.7563554 22.065489,5.05054946 21.2240282,4.9786366 L21.0821918,4.97260274 Z M22.0778865,12.9928596 C21.934638,12.8331728 21.690411,12.8190827 21.5307241,12.9599829 L21.5307241,12.9599829 L15.6176125,18.8730945 L13.1166341,16.3674193 C12.9569472,16.2077324 12.6962818,16.2077324 12.5365949,16.3674193 L12.5365949,16.3674193 L11.6677104,17.2363039 C11.5080235,17.3959908 11.5080235,17.6566561 11.6677104,17.816343 L11.6677104,17.816343 L14.8450098,20.9842491 L15.3217221,21.4609614 C15.4649706,21.6183 15.7068493,21.6347383 15.8688845,21.4985348 L15.8688845,21.4985348 L22.9796477,14.3877716 C23.0500978,14.3102765 23.0829746,14.209298 23.0759295,14.1059712 C23.0688845,14.0026444 23.0219178,13.9063626 22.9420744,13.8406092 L22.9420744,13.8406092 Z" id="形状结合备份" fill="#FAB71C"></path>
        </g>
    </g>
</svg>