<?xml version="1.0" encoding="UTF-8"?>
<svg width="30px" height="30px" viewBox="0 0 30 30" version="1.1" xmlns="http://www.w3.org/2000/svg" xmlns:xlink="http://www.w3.org/1999/xlink">
    <!-- Generator: Sketch 63.1 (92452) - https://sketch.com -->
    <title>进度条</title>
    <desc>Created with Sketch.</desc>
    <g id="进度条" stroke="none" stroke-width="1" fill="none" fill-rule="evenodd">
        <g id="编组-30">
            <rect id="矩形备份-21" x="0" y="0" width="30" height="30"></rect>
            <path d="M7.09679862,27.4881639 C4.28191447,27.4881639 2,25.2062495 2,22.3913653 C2,19.5764812 4.28191447,17.2945667 7.09679862,17.2945667 L23.4065542,17.2945667 C26.2214383,17.2945667 28.5033528,19.5764812 28.5033528,22.3913653 C28.5033528,25.2062495 26.2214383,27.4881639 23.4065542,27.4881639 L7.09679862,27.4881639 Z M23.4065542,19.3332861 L15.2522181,19.3335104 C15.8919571,20.1853106 16.2710361,21.2440687 16.2710361,22.3913653 C16.2710361,23.539061 15.8916933,24.5981565 15.2515504,25.450109 L23.4065542,25.4494445 C25.0954847,25.4494445 26.4646334,24.0802958 26.4646334,22.3913653 C26.4646334,20.7024348 25.0954847,19.3332861 23.4065542,19.3332861 Z M22.0915801,2.29978516 C22.4912937,2.69949871 22.4912937,3.34756242 22.0915801,3.74727597 L9.85926347,15.9795926 C9.66689109,16.170403 9.40646692,16.2767735 9.13551806,16.275224 C8.86456921,16.2767735 8.60414503,16.170403 8.41177266,15.9795926 C8.21879497,15.7881909 8.11024776,15.5276468 8.11024776,15.2558472 C8.11024776,14.9840477 8.21879497,14.7235035 8.41177266,14.5321018 L20.6440893,2.29978516 C21.0438029,1.90007161 21.6918666,1.90007161 22.0915801,2.29978516 Z M19.3291153,9.1396889 C21.0180458,9.1396889 22.3871945,10.5088376 22.3871945,12.1977681 C22.3871945,13.8866986 21.0180458,15.2558472 19.3291153,15.2558472 C17.6401848,15.2558472 16.2710361,13.8866986 16.2710361,12.1977681 C16.2710361,10.5088376 17.6401848,9.1396889 19.3291153,9.1396889 Z M19.3291153,11.1784084 C18.7661385,11.1784084 18.3097556,11.6347912 18.3097556,12.1977681 C18.3097556,12.7607449 18.7661385,13.2171278 19.3291153,13.2171278 C19.8920921,13.2171278 20.348475,12.7607449 20.348475,12.1977681 C20.348475,11.6347912 19.8920921,11.1784084 19.3291153,11.1784084 Z M11.1742375,3.02353057 C12.863168,3.02353057 14.2323167,4.39267925 14.2323167,6.08160973 C14.2323167,7.77054022 12.863168,9.1396889 11.1742375,9.1396889 C9.48530702,9.1396889 8.11615834,7.77054022 8.11615834,6.08160973 C8.11615834,4.39267925 9.48530702,3.02353057 11.1742375,3.02353057 Z M11.1742375,5.06225001 C10.6112607,5.06225001 10.1548778,5.5186329 10.1548778,6.08160973 C10.1548778,6.64458656 10.6112607,7.10096946 11.1742375,7.10096946 C11.7372143,7.10096946 12.1935972,6.64458656 12.1935972,6.08160973 C12.1935972,5.5186329 11.7372143,5.06225001 11.1742375,5.06225001 Z" id="形状结合" fill="#FC8256"></path>
        </g>
    </g>
</svg>