<?xml version="1.0" encoding="UTF-8"?>
<svg width="30px" height="30px" viewBox="0 0 30 30" version="1.1" xmlns="http://www.w3.org/2000/svg" xmlns:xlink="http://www.w3.org/1999/xlink">
    <!-- Generator: Sketch 63.1 (92452) - https://sketch.com -->
    <title>单选框</title>
    <desc>Created with Sketch.</desc>
    <g id="单选框" stroke="none" stroke-width="1" fill="none" fill-rule="evenodd">
        <g id="编组-31">
            <rect id="矩形备份-24" x="0" y="0" width="30" height="30"></rect>
            <path d="M15,3 C21.627417,3 27,8.372583 27,15 C27,21.627417 21.627417,27 15,27 C8.372583,27 3,21.627417 3,15 C3,8.372583 8.372583,3 15,3 Z M15,7.5 C10.8578644,7.5 7.5,10.8578644 7.5,15 C7.5,19.1421356 10.8578644,22.5 15,22.5 C19.1421356,22.5 22.5,19.1421356 22.5,15 C22.5,10.8578644 19.1421356,7.5 15,7.5 Z M15,10.5 C17.4852814,10.5 19.5,12.5147186 19.5,15 C19.5,17.4852814 17.4852814,19.5 15,19.5 C12.5147186,19.5 10.5,17.4852814 10.5,15 C10.5,12.5147186 12.5147186,10.5 15,10.5 Z" id="单选框备份" fill="#5A80ED"></path>
        </g>
    </g>
</svg>