<?xml version="1.0" encoding="UTF-8"?>
<svg width="30px" height="30px" viewBox="0 0 30 30" version="1.1" xmlns="http://www.w3.org/2000/svg" xmlns:xlink="http://www.w3.org/1999/xlink">
    <!-- Generator: Sketch 63.1 (92452) - https://sketch.com -->
    <title>步骤条</title>
    <desc>Created with Sketch.</desc>
    <g id="步骤条" stroke="none" stroke-width="1" fill="none" fill-rule="evenodd">
        <g id="编组-38">
            <rect id="矩形备份-31" x="0" y="0" width="30" height="30"></rect>
            <rect id="矩形" fill="#FC8256" x="3" y="3" width="24" height="24" rx="2"></rect>
            <path d="M7.13425925,7.30692363 C7.83614132,6.89769212 8.70089571,6.89769212 9.40277779,7.30692363 C10.1046599,7.71615513 10.537037,8.47244614 10.537037,9.29090914 C10.537037,10.1093721 10.1046599,10.8656632 9.4027778,11.2748947 C9.27648867,11.3485274 9.14492663,11.4089114 9.00998917,11.4560468 L9.00998916,13.1725247 C9.14492662,13.2196601 9.27648866,13.2800442 9.40277779,13.3536769 C10.1046599,13.7629084 10.537037,14.5191994 10.537037,15.3376624 C10.537037,16.1561254 10.1046599,16.9124164 9.4027778,17.3216479 C9.27648867,17.3952806 9.14492663,17.4556647 9.00998917,17.5028 L9.00998916,19.2348624 C9.14492662,19.2819978 9.27648866,19.3423818 9.40277779,19.4160145 C10.1046599,19.825246 10.537037,20.581537 10.537037,21.4 C10.537037,22.2184631 10.1046599,22.9747541 9.4027778,23.3839856 C8.70089572,23.7932171 7.83614132,23.7932171 7.13425924,23.3839856 C6.43237716,22.9747541 6,22.2184631 6,21.4 C6,20.581537 6.43237717,19.825246 7.13425925,19.4160145 C7.26551306,19.3394872 7.40246251,19.2772706 7.54297741,19.2293649 L7.5429774,17.5082976 C7.40246251,17.4603918 7.26551305,17.3981753 7.13425924,17.3216479 C6.43237716,16.9124164 6,16.1561254 6,15.3376624 C6,14.5191994 6.43237717,13.7629084 7.13425925,13.3536769 C7.26551306,13.2771495 7.40246251,13.2149329 7.54297741,13.1670272 L7.5429774,11.4615443 C7.40246251,11.4136386 7.26551305,11.351422 7.13425924,11.2748947 C6.43237716,10.8656632 6,10.1093721 6,9.29090914 C6,8.47244614 6.43237717,7.71615513 7.13425925,7.30692363 Z M23.1450617,20.6519481 C23.5771605,20.6519481 23.8395062,21.0883117 23.8240741,21.4311689 C23.8240741,21.7896104 23.4845679,22.1324676 23.0524691,22.1324676 L23.0524691,22.1324676 L12.5123457,22.1324676 C12.0802469,22.1324676 11.7407407,21.8675325 11.7407407,21.4311689 C11.7407407,20.9948052 12.0802469,20.6519481 12.5123457,20.6519481 L12.5123457,20.6519481 Z M23.1450617,14.6051949 C23.5771605,14.6051949 23.8395062,15.0415585 23.8240741,15.3844156 C23.8240741,15.7428572 23.4845679,16.0857143 23.0524691,16.0857143 L23.0524691,16.0857143 L12.5123457,16.0857143 C12.0802469,16.0857143 11.7407407,15.8207793 11.7407407,15.3844156 C11.7407407,14.948052 12.0802469,14.6051949 12.5123457,14.6051949 L12.5123457,14.6051949 Z M23.1450617,8.54285719 C23.5771605,8.54285719 23.8395062,8.97922083 23.8240741,9.32207797 C23.8240741,9.68051953 23.4845679,10.0233767 23.0524691,10.0233767 L23.0524691,10.0233767 L12.5123457,10.0233767 C12.0802469,10.0233767 11.7407407,9.75844161 11.7407407,9.32207797 C11.7407407,8.88571433 12.0802469,8.54285719 12.5123457,8.54285719 L12.5123457,8.54285719 Z" id="形状结合" fill="#FFFFFF" fill-rule="nonzero"></path>
        </g>
    </g>
</svg>