<?xml version="1.0" encoding="UTF-8"?>
<svg width="30px" height="30px" viewBox="0 0 30 30" version="1.1" xmlns="http://www.w3.org/2000/svg" xmlns:xlink="http://www.w3.org/1999/xlink">
    <!-- Generator: Sketch 63.1 (92452) - https://sketch.com -->
    <title>二维码</title>
    <desc>Created with Sketch.</desc>
    <g id="二维码" stroke="none" stroke-width="1" fill="none" fill-rule="evenodd">
        <g id="编组-27">
            <rect id="矩形备份-20" x="0" y="0" width="30" height="30"></rect>
            <g id="Nav_top_扫描二维码下载" transform="translate(3.000000, 3.000000)" fill="#FAB71C">
                <path d="M16.625,20.28125 L16.625,18.4375 L12.9375,18.4375 L12.9375,12.90625 L16.625,12.90625 L16.625,16.59375 L20.3125,16.59375 L20.3125,12.90625 L24,12.90625 L24,18.4375 L20.3125,18.4375 L20.3125,20.28125 L24,20.28125 L24,24 L20.28125,24 L20.28125,20.28125 L16.65625,20.28125 L16.65625,24 L12.9375,24 L12.9375,20.28125 L16.625,20.28125 Z M0,12.9375 L11.0625,12.9375 L11.0625,24 L0,24 L0,12.9375 Z M0,0 L11.0625,0 L11.0625,11.0625 L0,11.0625 L0,0 Z M12.9375,0 L24,0 L24,11.0625 L12.9375,11.0625 L12.9375,0 Z M3.6875,3.6875 L3.6875,7.40625 L7.40625,7.40625 L7.40625,3.6875 L3.6875,3.6875 Z M3.6875,16.59375 L3.6875,20.3125 L7.40625,20.3125 L7.40625,16.59375 L3.6875,16.59375 Z M16.59375,3.6875 L16.59375,7.40625 L20.3125,7.40625 L20.3125,3.6875 L16.59375,3.6875 Z" id="形状"></path>
            </g>
        </g>
    </g>
</svg>