<?xml version="1.0" encoding="UTF-8"?>
<svg width="30px" height="30px" viewBox="0 0 30 30" version="1.1" xmlns="http://www.w3.org/2000/svg" xmlns:xlink="http://www.w3.org/1999/xlink">
    <!-- Generator: Sketch 63.1 (92452) - https://sketch.com -->
    <title>流水号</title>
    <desc>Created with Sketch.</desc>
    <g id="流水号" stroke="none" stroke-width="1" fill="none" fill-rule="evenodd">
        <g id="编组-25">
            <rect id="矩形备份-18" x="0" y="0" width="30" height="30"></rect>
            <path d="M25,3 C26.1045695,3 27,3.8954305 27,5 L27,25 C27,26.1045695 26.1045695,27 25,27 L5,27 C3.8954305,27 3,26.1045695 3,25 L3,5 C3,3.8954305 3.8954305,3 5,3 L25,3 Z M23.268,19.64 L16.268,19.64 L16.268,20.956 L23.268,20.956 L23.268,19.64 Z M8.638,9 L7,9 L7,18.996 L8.638,18.996 L8.638,11.688 L8.694,11.688 L13.692,18.996 L15.288,18.996 L15.288,9 L13.636,9 L13.636,16.21 L13.58,16.21 L8.638,9 Z" id="流水号备份" fill="#FAB71C"></path>
        </g>
    </g>
</svg>