<?xml version="1.0" encoding="UTF-8"?>
<svg width="30px" height="30px" viewBox="0 0 30 30" version="1.1" xmlns="http://www.w3.org/2000/svg" xmlns:xlink="http://www.w3.org/1999/xlink">
    <!-- Generator: Sketch 63.1 (92452) - https://sketch.com -->
    <title>金额</title>
    <desc>Created with Sketch.</desc>
    <g id="金额" stroke="none" stroke-width="1" fill="none" fill-rule="evenodd">
        <g id="编组-22">
            <rect id="矩形备份-17" x="0" y="0" width="30" height="30"></rect>
            <path d="M15.2097715,27.2800459 C7.31225545,27.2800459 4,24.4562336 4,18.6498651 C4,13.8417523 7.75490711,8.82299844 12.30964,7.23861081 L18.109903,7.23861081 C22.6646358,8.82299844 26.4195429,13.8417523 26.4195429,18.6498651 C26.4195429,24.4531809 23.1072875,27.2800459 15.2097715,27.2800459 Z M18.3144385,17.7370869 C18.839515,17.7370869 19.2669028,17.309699 19.2669028,16.7846226 C19.2669028,16.2595462 18.839515,15.8321584 18.3144385,15.8321584 L18.3144385,15.8291056 L16.3911934,15.8291056 C16.3942462,15.810789 16.3881407,15.7894196 16.3911934,15.7680502 L18.6441377,13.4662616 C19.0104701,13.0510849 18.8242511,12.7091747 18.4518132,12.3336839 C18.0793753,11.9581932 17.4688213,11.8757684 17.1635443,12.2085204 L15.2311408,14.2691401 L13.1369406,12.1779927 C12.8744024,11.9124017 12.3584843,11.9978792 11.9860463,12.3703172 C11.6136084,12.7427551 11.5281308,13.2556205 11.7937218,13.5212115 L13.9337136,15.6612032 C13.8940276,15.7100476 13.8665527,15.7680502 13.8512888,15.8291056 L12.1112099,15.8291056 L12.1112099,15.8321584 L12.1051044,15.8321584 C11.5800279,15.8321584 11.1526401,16.2595462 11.1526401,16.7846226 C11.1526401,17.309699 11.5800279,17.7370869 12.1051044,17.7370869 L14.0191912,17.7370869 L14.0191912,18.6895511 L12.1142627,18.6895511 L12.1142627,18.6926039 L12.1081571,18.6926039 C11.5830807,18.6926039 11.1556929,19.1199917 11.1556929,19.6450681 C11.1556929,20.1701445 11.5830807,20.5975323 12.1081571,20.5975323 L14.0191912,20.5975323 L14.0191912,21.5591549 L14.0375078,21.5591549 C13.9398191,22.035387 14.1382492,22.5207774 14.5412148,22.792474 C14.9441805,23.0641705 15.4692569,23.0641705 15.8722225,22.792474 C16.2751882,22.5207774 16.4736182,22.035387 16.3759296,21.5591549 L16.3881407,21.5591549 L16.3881407,20.5975323 L18.3144385,20.5975323 C18.839515,20.5975323 19.2669028,20.1701445 19.2669028,19.6450681 C19.2669028,19.1199917 18.839515,18.6926039 18.3144385,18.6926039 L18.3144385,18.6895511 L16.3911934,18.6895511 L16.3911934,17.7370869 L18.3144385,17.7370869 L18.3144385,17.7370869 Z M19.7400821,3.42875384 L19.5385993,3.67908098 C19.5355466,3.68213375 19.529441,3.68823929 19.5263882,3.69434483 L17.8321009,5.81296721 L12.1081571,5.81296721 L10.4169225,3.6973976 C10.4047115,3.68213375 10.3955532,3.66992267 10.3833421,3.65771159 L10.2001759,3.42875384 L10.2337563,3.36464567 C10.2154397,3.30664304 10.1971231,3.24864041 10.1971231,3.18758501 C10.1971231,2.88230801 10.3894476,2.62587533 10.6550386,2.52208115 L10.676408,2.4762896 C10.676408,2.4762896 13.0209354,2.00616302 14.9686026,2.00005748 C17.007853,1.99395194 19.2607973,2.4762896 19.2607973,2.4762896 L19.2821666,2.52208115 C19.5569159,2.6289281 19.7370294,2.89146632 19.7370294,3.18758501 C19.7370294,3.24864041 19.7187128,3.30664304 19.7003961,3.3615929 L19.7400821,3.42875384 L19.7400821,3.42875384 Z" id="形状" fill="#FC8256"></path>
        </g>
    </g>
</svg>