<?xml version="1.0" encoding="UTF-8"?>
<svg width="30px" height="30px" viewBox="0 0 30 30" version="1.1" xmlns="http://www.w3.org/2000/svg" xmlns:xlink="http://www.w3.org/1999/xlink">
    <!-- Generator: Sketch 63.1 (92452) - https://sketch.com -->
    <title>颜色</title>
    <desc>Created with Sketch.</desc>
    <g id="颜色" stroke="none" stroke-width="1" fill="none" fill-rule="evenodd">
        <g id="编组-37">
            <rect id="矩形备份-30" x="0" y="0" width="30" height="30"></rect>
            <path d="M14.9304927,3 C8.30317293,3 3,8.30288535 3,14.9304927 C3,21.557985 8.30320169,26.8608704 14.9304927,26.8608704 C15.9926572,26.8608704 16.9188554,25.9307324 16.9188554,24.8723926 C16.9188554,24.3403183 16.7868577,23.9423121 16.3907496,23.5463765 C16.1225268,23.1481691 15.8586752,22.7500479 15.8586752,22.2219421 C15.8586752,21.1597488 16.7868577,20.2335794 17.8470955,20.2335794 L20.2333206,20.2335794 C23.9461369,20.2335794 26.8608704,17.3168616 26.8608704,13.6042753 C26.8608704,7.77095475 21.5597393,3 14.9304927,3 L14.9304927,3 Z M7.97093558,14.9304352 C6.90894363,14.9304352 5.98260161,14.0002972 5.98260161,12.9419574 C5.98260161,11.8817485 6.90888612,10.9535947 7.97093558,10.9535947 C9.0315184,10.9535947 9.95941334,11.8817485 9.95941334,12.9419574 C9.95947086,14.0002972 9.03160468,14.9304352 7.97093558,14.9304352 Z M11.9478336,9.95941334 C10.8856116,9.95941334 9.95941334,9.03117331 9.95941334,7.97087807 C9.95941334,6.91078413 10.8856116,5.98257285 11.9478336,5.98257285 C13.007985,5.98257285 13.9362538,6.9108704 13.9362538,7.97087807 C13.9362538,9.03117331 13.007985,9.95941334 11.9478336,9.95941334 Z M18.907362,9.95941334 C17.8468367,9.95941334 16.9188267,9.03117331 16.9188267,7.97087807 C16.9188267,6.91078413 17.8468367,5.98257285 18.907362,5.98257285 C19.9675709,5.98257285 20.8956672,6.9108704 20.8956672,7.97087807 C20.8956672,9.03117331 19.9675709,9.95941334 18.907362,9.95941334 Z M22.8840874,14.9304352 C21.8239072,14.9304352 20.8956097,14.0002972 20.8956097,12.9419574 C20.8956097,11.8817485 21.8239072,10.9535947 22.8840874,10.9535947 C23.9445552,10.9535947 24.8724502,11.8817485 24.8724502,12.9419574 C24.8725652,14.0002972 23.9444402,14.9304352 22.8840874,14.9304352 Z" id="形状" fill="#FAB71C"></path>
        </g>
    </g>
</svg>