<?xml version="1.0" encoding="UTF-8"?>
<svg width="386px" height="314px" viewBox="0 0 386 314" version="1.1" xmlns="http://www.w3.org/2000/svg" xmlns:xlink="http://www.w3.org/1999/xlink">
    <!-- Generator: Sketch 63.1 (92452) - https://sketch.com -->
    <title>编组 5</title>
    <desc>Created with Sketch.</desc>
    <defs>
        <path d="M273.650924,102.298747 C256.132255,43.1436781 201.52497,0 136.87355,0 C72.1033571,0 17.4142377,43.3023455 6.82121026e-13,102.624937 L273.650924,102.298747 Z" id="path-1"></path>
        <path d="M97.8691764,102.215232 C151.717711,123.938588 201.025564,127.573366 208.001367,110.333693 C214.977167,93.094019 176.979324,61.5082086 123.130824,39.7847675 C69.282289,18.0614118 19.9744361,14.4266344 12.998633,31.6663071 C6.02283269,48.905981 44.0206764,80.4917914 97.8691764,102.215232 Z" id="path-3"></path>
    </defs>
    <g id="登录" stroke="none" stroke-width="1" fill="none" fill-rule="evenodd">
        <g id="无网络页面" transform="translate(-176.000000, -558.000000)">
            <g id="编组-5" transform="translate(178.000000, 558.000000)">
                <ellipse id="椭圆形" fill="#F1F7FF" cx="199.393568" cy="163.5" rx="145.5" ry="145"></ellipse>
                <ellipse id="椭圆形" fill="#E5F0FF" cx="199.393568" cy="190.5" rx="118.5" ry="118"></ellipse>
                <g id="路径" transform="translate(52.893568, 208.500000)">
                    <mask id="mask-2" fill="white">
                        <use xlink:href="#path-1"></use>
                    </mask>
                    <use id="蒙版" fill="#E8F2FF" xlink:href="#path-1"></use>
                    <path d="M112.452086,-6.68831169 C101.812674,5.23835658 100.265528,14.2348458 107.810647,20.301156 C119.128326,29.4006214 149.40501,27.1854771 149.40501,34.5475743 C149.40501,41.9096715 168.154763,50.9385563 185.975507,39.2710438 C203.796251,27.6035312 182.079079,22.4245431 204.580948,7.86811571 C219.582194,-1.83616922 188.872573,-6.68831169 112.452086,-6.68831169 Z" id="路径-2" fill="#C6DDFD" mask="url(#mask-2)"></path>
                    <path d="M192.844764,110.357143 C197.620293,105.897499 195.72319,100.471041 187.153455,94.0777677 C174.298852,84.4878578 181.785044,77.4551366 192.844764,77.4551366 C203.904485,77.4551366 227.306114,75.4173486 230.636503,65.8111509 C233.966891,56.2049533 223.125056,44.8752042 251.161295,44.8752042 C269.852121,44.8752042 285.476915,60.2233825 298.035678,90.9197392 L278.625697,126.553882 L192.844764,110.357143 Z" id="路径-3" fill="#C6DDFD" mask="url(#mask-2)"></path>
                    <path d="M3.55271368e-15,71.1734651 C40.4606193,64.3458499 65.6406917,64.3458499 75.5402171,71.1734651 C90.3895052,81.414888 89.2683425,85.5827617 86.4037468,89.4447861 C83.539151,93.3068106 55.5402171,91.0620709 55.5402171,102.624937 C55.5402171,110.333514 52.8735504,113.93866 47.5402171,113.440373 L-20.9326576,105.964261 L3.55271368e-15,71.1734651 Z" id="路径-4" fill="#C6DDFD" mask="url(#mask-2)"></path>
                    <path d="M86.8427449,33.137489 C109.306557,16.1273898 140.618645,7.38351041 180.77901,6.90585087 C166.947629,2.42226594 152.19255,0 136.87355,0 C72.1033571,0 17.4142377,43.3023455 1.53477231e-12,102.624937 C16.158634,102.609649 27.4442762,102.598184 33.8569265,102.59054 C46.7169937,73.2986051 64.3789332,50.1475882 86.8427449,33.137489 Z" fill-opacity="0.345641" fill="#4689F5" mask="url(#mask-2)"></path>
                </g>
                <path d="M326.893568,310.175796 C318.805154,283.064651 302.820659,259.337219 281.595046,241.637489 M266.006408,230.323248 C261.00867,227.186212 255.802013,224.349167 250.411924,221.837495 M235.168645,215.777542 C220.95546,211.056717 205.748405,208.5 189.941718,208.5 C125.088902,208.5 70.3300197,251.538655 52.8935679,310.5" id="形状" stroke="#4689F5" stroke-width="5" stroke-linecap="round"></path>
                <g id="编组" transform="translate(93.893568, 195.500000)">
                    <path d="M16.6832987,6.11066753e-13 L-1.20183228e-12,69.8922297 C3.84732721,73.879766 9.40842676,75.8735341 16.6832987,75.8735341 C23.9581705,75.8735341 30.5435938,73.879766 36.4395684,69.8922297 L16.6832987,6.11066753e-13 Z" id="路径-10" fill="#76A9F7"></path>
                    <path d="M16.6832987,6.20540656e-13 L12.1470273,75.5862278 C13.5767983,75.7777653 15.0888888,75.8735341 16.6832987,75.8735341 C23.9581705,75.8735341 30.5435938,73.879766 36.4395684,69.8922297 L16.6832987,6.20540656e-13 Z" id="路径-10" fill="#ACCDFB"></path>
                </g>
                <g id="编组-2" transform="translate(96.893568, 174.500000)">
                    <circle id="椭圆形" fill="#5E99F6" cx="16" cy="16" r="16"></circle>
                    <circle id="椭圆形" fill="#ACCDFB" cx="17.3333333" cy="14" r="13.3333333"></circle>
                    <circle id="椭圆形" fill="#F1F6FE" cx="20.3333333" cy="10.3333333" r="8.33333333"></circle>
                </g>
                <path d="M133.000558,149.006143 L133.000558,134 L148.002234,133.993857 L148.008377,149 L133.000558,149.006143 L133.000558,149.006143 Z M148.008377,129 L132.994415,129 C130.236122,129.006143 128.006143,131.235872 128,133.993857 L128,149.006143 C128.006143,151.764128 130.236122,153.993857 132.994415,154 L148.008377,154 C150.76667,153.993857 152.996649,151.764128 153.002792,149.006143 L153.002792,133.993857 C152.996649,131.235872 150.760527,129.006143 148.008377,129 Z M133.000558,179.006143 L133.000558,164 L148.002234,163.993857 L148.008377,179 L133.000558,179.006143 L133.000558,179.006143 Z M148.008377,159 L132.994415,159 C130.236122,159.006143 128.006143,161.235872 128,163.993857 L128,179.006143 C128.006143,181.764128 130.236122,183.993857 132.994415,184 L148.008377,184 C150.76667,183.993857 152.996649,181.764128 153.002792,179.006143 L153.002792,163.993857 C152.996649,161.235872 150.760527,159.006143 148.008377,159 Z M162.997766,149.006143 L162.997766,134 L177.999442,133.993857 L178.005585,149 L162.997766,149.006143 Z M178.005585,129 L162.991623,129 C160.23333,129.006143 158.003351,131.235872 157.997208,133.993857 L157.997208,149.006143 C158.003351,151.764128 160.23333,153.993857 162.991623,154 L178.005585,154 C180.763878,153.993857 182.993857,151.764128 183,149.006143 L183,133.993857 C183,131.235872 180.763878,129.006143 178.005585,129 Z M170.498604,164 C169.116386,164 167.998325,165.117936 167.998325,166.5 L167.998325,181.5 C167.998325,182.882064 169.116386,184 170.498604,184 C171.880822,184 172.998883,182.882064 172.998883,181.5 L172.998883,166.5 C172.998883,165.117936 171.880822,164 170.498604,164 M160.497487,164 C159.115269,164 157.997208,165.117936 157.997208,166.5 L157.997208,181.5 C157.997208,182.882064 159.115269,184 160.497487,184 C161.879705,184 162.997766,182.882064 162.997766,181.5 L162.997766,166.5 C162.997766,165.117936 161.879705,164 160.497487,164 M180.499721,159 C179.117503,159 177.999442,160.117936 177.999442,161.5 L177.999442,181.5 C177.999442,182.882064 179.117503,184 180.499721,184 C181.881939,184 183,182.882064 183,181.5 L183,161.5 C183,160.117936 181.881939,159 180.499721,159" id="形状" fill="#4689F5" fill-rule="nonzero" transform="translate(155.500000, 156.500000) rotate(-43.000000) translate(-155.500000, -156.500000) "></path>
                <path d="M333.893568,208.5 C335.550422,208.5 336.893568,209.843146 336.893568,211.5 L336.893568,215.5 L340.893568,215.5 C342.550422,215.5 343.893568,216.843146 343.893568,218.5 C343.893568,220.156854 342.550422,221.5 340.893568,221.5 L336.893568,221.5 L336.893568,225.5 C336.893568,227.156854 335.550422,228.5 333.893568,228.5 C332.236714,228.5 330.893568,227.156854 330.893568,225.5 L330.893568,221.5 L326.893568,221.5 C325.236714,221.5 323.893568,220.156854 323.893568,218.5 C323.893568,216.843146 325.236714,215.5 326.893568,215.5 L330.893568,215.5 L330.893568,211.5 C330.893568,209.843146 332.236714,208.5 333.893568,208.5 Z" id="形状结合" fill="#4689F5" opacity="0.435221354"></path>
                <path d="M53.3935679,206.5 C54.8957824,206.5 56.1135679,207.717785 56.1135679,209.22 L56.1125679,212.279 L59.1735679,212.28 C60.6757824,212.28 61.8935679,213.497785 61.8935679,215 C61.8935679,216.502215 60.6757824,217.72 59.1735679,217.72 L56.1125679,217.719 L56.1135679,220.78 C56.1135679,222.282215 54.8957824,223.5 53.3935679,223.5 C51.8913534,223.5 50.6735679,222.282215 50.6735679,220.78 L50.6725679,217.719 L47.6135679,217.72 C46.1113534,217.72 44.8935679,216.502215 44.8935679,215 C44.8935679,213.497785 46.1113534,212.28 47.6135679,212.28 L50.6725679,212.279 L50.6735679,209.22 C50.6735679,207.717785 51.8913534,206.5 53.3935679,206.5 Z" id="形状结合备份" fill="#4689F5" opacity="0.435221354"></path>
                <path d="M51.3935679,70.5 C53.2642098,70.5 54.7806647,72.0164549 54.7806647,73.8870968 L54.7805679,77.612 L58.5064711,77.6129032 C60.377113,77.6129032 61.8935679,79.1293581 61.8935679,81 C61.8935679,82.8706419 60.377113,84.3870968 58.5064711,84.3870968 L54.7805679,84.387 L54.7806647,88.1129032 C54.7806647,89.9835451 53.2642098,91.5 51.3935679,91.5 C49.522926,91.5 48.0064711,89.9835451 48.0064711,88.1129032 L48.0055679,84.387 L44.2806647,84.3870968 C42.4100228,84.3870968 40.8935679,82.8706419 40.8935679,81 C40.8935679,79.1293581 42.4100228,77.6129032 44.2806647,77.6129032 L48.0055679,77.612 L48.0064711,73.8870968 C48.0064711,72.0164549 49.522926,70.5 51.3935679,70.5 Z" id="形状结合备份-2" fill="#4689F5" opacity="0.750372024"></path>
                <path d="M184.614498,0.5 C187.099779,0.5 189.114498,2.51471863 189.114498,5 L189.113568,10.279 L194.393568,10.2790698 C196.878849,10.2790698 198.893568,12.2937884 198.893568,14.7790698 L198.893568,15.2209302 C198.893568,17.7062116 196.878849,19.7209302 194.393568,19.7209302 L189.113568,19.72 L189.114498,25 C189.114498,27.4852814 187.099779,29.5 184.614498,29.5 L184.172638,29.5 C181.687356,29.5 179.672638,27.4852814 179.672638,25 L179.672568,19.72 L174.393568,19.7209302 C171.908287,19.7209302 169.893568,17.7062116 169.893568,15.2209302 L169.893568,14.7790698 C169.893568,12.2937884 171.908287,10.2790698 174.393568,10.2790698 L179.672568,10.279 L179.672638,5 C179.672638,2.51471863 181.687356,0.5 184.172638,0.5 L184.614498,0.5 Z" id="形状结合备份-3" fill="#4689F5" opacity="0.883138021"></path>
                <g id="编组-8" transform="translate(266.393568, 109.500000) rotate(-345.000000) translate(-266.393568, -109.500000) translate(155.893568, 31.500000)">
                    <g id="路径-11" transform="translate(0.000000, 14.000000)">
                        <mask id="mask-4" fill="white">
                            <use xlink:href="#path-3"></use>
                        </mask>
                        <use id="蒙版" fill="#ACCDFB" xlink:href="#path-3"></use>
                        <path d="M125.495276,36 C161.04888,76 177.638571,106.888889 175.26435,128.666667 C172.89013,150.444444 189.688967,154.111111 225.660862,139.666667 L235.021148,94.6666667 L200.660354,57.9653826 L125.495276,36 Z" fill-opacity="0.403875" fill="#4689F5" mask="url(#mask-4)"></path>
                        <path d="M18.694864,71 C51.1713254,54.1165686 82.5438193,46.8627863 112.812346,49.2386533 C74.9938434,32.9799412 37.612286,31.789279 0.667673716,45.6666667 L18.694864,71 Z" id="路径-5" fill-opacity="0.501393138" fill="#FFFFFF" mask="url(#mask-4)"></path>
                    </g>
                    <path d="M25.6475305,104.725054 C29.8794534,106.552454 34.6762467,108.237609 39.9552186,109.754036 M47.3764174,111.698489 C64.8665098,115.870971 86.5505914,118.340471 110.035477,118.340471 C168.025376,118.340471 215.035477,103.283529 215.035477,84.7098501 C215.035477,66.136171 168.025376,51.0792291 110.035477,51.0792291 C52.0455786,51.0792291 5.03547737,66.136171 5.03547737,84.7098501 C5.03547737,90.7445761 9.99809048,96.4080583 18.6875207,101.304482" id="形状" stroke="#4689F5" stroke-width="5" stroke-linecap="round" transform="translate(110.035477, 84.709850) rotate(22.000000) translate(-110.035477, -84.709850) "></path>
                    <path d="M112.682473,51.4038149 C68.6428197,51.4202172 30.9101866,60.0650137 16.1138843,72.542037 C15.7933369,72.8123394 15.6108275,73.131952 15.5600608,73.4960642 C15.4656108,74.1734848 15.6763415,74.9131531 15.9857924,75.6790712 C17.2313888,78.7620304 20.2912982,82.0895668 22.4955506,84.280006 C29.6615939,91.4011425 55.143786,103.599419 111.826716,103.578363 C168.701487,103.557183 197.857363,87.8327435 206.53494,79.9965236 C208.490899,78.2302095 210.21555,76.6491878 210.641777,74.9984544 C210.722766,74.6847911 210.723026,74.3715788 210.594818,74.0573485 C210.399846,73.579479 210.002659,73.1285868 209.446511,72.6506815 C194.823427,60.0848784 156.93819,51.3873777 112.682473,51.4038149 Z" id="椭圆形" stroke="#4689F5" stroke-width="5" transform="translate(113.120610, 77.491089) rotate(22.000000) translate(-113.120610, -77.491089) "></path>
                    <g id="编组-3" transform="translate(128.547247, 50.212624) rotate(21.000000) translate(-128.547247, -50.212624) translate(81.547247, 15.212624)">
                        <path d="M46.6666667,69.2245728 C63.3288473,69.2245728 88.4725676,64.2753795 93.3333333,46.6167024 C93.3333333,20.8710086 72.439955,5.53629947e-13 46.6666667,5.53629947e-13 C20.8933783,5.53629947e-13 0,20.8710086 0,46.6167024 C10.305384,67.417865 30.0044861,69.2245728 46.6666667,69.2245728 Z" id="椭圆形" fill="#ACCDFB"></path>
                        <path d="M35.3333333,52.6102784 C46.5207975,52.6102784 63.4030097,49.277429 66.6666667,37.3858526 C66.6666667,20.048377 52.6382555,5.99357602 35.3333333,5.99357602 C18.0284112,5.99357602 4,20.048377 4,37.3858526 C10.9193293,51.3936185 24.1458692,52.6102784 35.3333333,52.6102784 Z" id="椭圆形" fill-opacity="0.832659528" fill="#FFFFFF"></path>
                    </g>
                </g>
                <path d="M0.893567883,311.5 L20.3129477,311.5 M32.3566759,311.5 L262.190401,311.5 M273.740608,311.5 L300.884274,311.5 M313.534716,311.5 L380.893568,311.5" id="形状" stroke="#4689F5" stroke-width="5" stroke-linecap="round"></path>
            </g>
        </g>
    </g>
</svg>