<?xml version="1.0" encoding="UTF-8"?>
<svg width="80px" height="80px" viewBox="0 0 80 80" version="1.1" xmlns="http://www.w3.org/2000/svg" xmlns:xlink="http://www.w3.org/1999/xlink">
    <!-- Generator: Sketch 63.1 (92452) - https://sketch.com -->
    <title>手机号</title>
    <desc>Created with Sketch.</desc>
    <g id="手机号" stroke="none" stroke-width="1" fill="none" fill-rule="evenodd">
        <g id="手机号备份">
            <circle id="椭圆形备份-2" fill="#FF6D4B" cx="40" cy="40" r="40"></circle>
            <path d="M50.1116209,20.0000004 L29.8891438,20.0000004 C28.2948313,19.9995824 27.0016884,21.2769511 27,22.8539018 L27,57.1445855 C27.0008445,58.7221271 28.2942346,60.0004172 29.8891438,60.0000004 L50.1108562,60.0000004 C51.7057654,60.0004172 52.9991555,58.7221271 53,57.1445855 L53,22.8539018 C52.9995945,22.096599 52.6950561,21.3704726 52.15338,20.8352623 C51.6117038,20.300052 50.8772611,19.9995995 50.1116209,20.0000004 Z M40.0003824,57.1627391 C38.406594,57.1610723 37.1148753,55.8837579 37.112768,54.3073253 C37.112768,52.7309855 38.4074532,51.4481294 40.0003824,51.4481294 C41.5933116,51.4481294 42.8895262,52.7309855 42.8895262,54.3073253 C42.8865767,55.8840025 41.5944194,57.1610742 40.0003824,57.1627391 L40.0003824,57.1627391 Z M48.667049,48.5715363 L31.332951,48.5715363 L31.332951,24.2850125 L48.667049,24.2850125 L48.667049,48.5715363 L48.667049,48.5715363 Z" id="形状" fill="#FFFFFF" fill-rule="nonzero"></path>
        </g>
    </g>
</svg>