<?xml version="1.0" encoding="UTF-8"?>
<svg width="80px" height="80px" viewBox="0 0 80 80" version="1.1" xmlns="http://www.w3.org/2000/svg" xmlns:xlink="http://www.w3.org/1999/xlink">
    <!-- Generator: Sketch 63.1 (92452) - https://sketch.com -->
    <title>钉钉登录</title>
    <desc>Created with Sketch.</desc>
    <g id="钉钉登录" stroke="none" stroke-width="1" fill="none" fill-rule="evenodd">
        <g id="钉钉备份">
            <circle id="椭圆形备份" fill="#2AA2F6" cx="40" cy="40" r="40"></circle>
            <path d="M57.2416161,30.7470685 C55.8667178,30.2053309 46.0018228,26.6051762 42.0868001,25.1856866 C33.9542769,22.2027013 24.5602846,17.7282232 23.1132042,17.0630518 C22.8709173,16.9522167 22.5864104,16.9895239 22.3810709,17.1590559 C22.2409127,17.2606076 22.1469434,17.4135455 22.1198402,17.5842171 C21.5973789,20.7592106 22.7832287,26.2485894 25.6773894,28.2612474 C27.4303847,29.4955861 38.97953,33.2568907 43.6988683,34.7483833 C43.8432326,34.7963854 43.7676132,34.9883936 43.6507468,34.9609639 C38.7423601,33.850059 25.8423772,30.8670736 25.5811466,30.8430726 C25.3199159,30.8190716 25.1308674,30.8670736 24.9418189,31.0556532 C24.7847362,31.2201125 24.7146642,31.4488702 24.7527704,31.6728225 C25.3920981,35.2215465 28.7605988,39.8160297 31.6994438,40.4057693 C33.4318155,40.7623561 40.5915982,40.5737765 43.5579412,40.5017735 C43.6988683,40.5017735 43.722929,40.690353 43.5820019,40.714354 C40.2375619,41.1875172 32.1016015,42.4184272 31.8884923,42.4664293 C31.6693824,42.5006273 31.4821425,42.642319 31.3900917,42.8435884 C31.2800874,43.0517356 31.2800874,43.3006126 31.3900917,43.5087598 C31.8884923,44.5510903 33.3355727,45.9465789 33.3355727,45.9465789 C36.5150249,49.1901468 39.9763312,48.8129878 40.8528289,48.6449805 C42.2113322,48.3375165 43.537264,47.9012282 44.8125358,47.3420675 C44.9087787,47.2974941 44.9809608,47.3900695 44.9569002,47.4620726 L43.107662,54.089786 C43.0836013,54.1617891 43.1317227,54.2337922 43.2004676,54.2337922 L48.7275586,54.2817943 C48.7963035,54.2817943 48.844425,54.3503686 48.8203642,54.418943 L45.5962278,64.8628205 C45.5481064,64.9793969 45.7165314,65.0514 45.7852764,64.9553958 L57.9050045,49.5947357 C57.9531259,49.5227326 57.9050045,49.4267285 57.8087616,49.4267284 L52.0479379,49.4267284 C51.951695,49.4267284 51.9035736,49.334153 51.951695,49.2621499 C52.735387,47.9832378 57.8087616,39.6034491 59.4448905,36.3598812 C59.9673518,35.4341271 60.180461,34.1106416 59.8229875,33.1163132 C59.493012,32.1219847 58.7127572,31.3402368 57.2416161,30.7504972 L57.2416161,30.7470685 Z" id="路径" fill="#FFFFFF" fill-rule="nonzero"></path>
        </g>
    </g>
</svg>