<?xml version="1.0" encoding="UTF-8"?>
<svg width="118px" height="118px" viewBox="0 0 118 118" version="1.1" xmlns="http://www.w3.org/2000/svg" xmlns:xlink="http://www.w3.org/1999/xlink">
    <!-- Generator: Sketch 63.1 (92452) - https://sketch.com -->
    <title>驳回</title>
    <desc>Created with Sketch.</desc>
    <g id="登录" stroke="none" stroke-width="1" fill="none" fill-rule="evenodd">
        <path d="M29.5098515,7.91435272 C57.7291163,-8.3780474 93.8129502,1.29058676 110.10535,29.5098515 C126.39775,57.7291163 116.729116,93.8129502 88.5098515,110.10535 C60.2905868,126.39775 24.2067528,116.729116 7.91435272,88.5098515 C-8.3780474,60.2905868 1.29058676,24.2067528 29.5098515,7.91435272 Z M31.5098515,11.3784543 C5.20375725,26.566285 -3.80937629,60.2037572 11.3784543,86.5098515 C26.566285,112.815946 60.2037572,121.829079 86.5098515,106.641249 C112.815946,91.4534181 121.829079,57.8159458 106.641249,31.5098515 C91.4534181,5.20375725 57.8159458,-3.80937629 31.5098515,11.3784543 Z M34.5098515,16.5746068 C57.9461901,3.04363038 87.91412,11.073513 101.445096,34.5098515 C114.976073,57.9461901 106.94619,87.91412 83.5098515,101.445096 C60.073513,114.976073 30.1055831,106.94619 16.5746068,83.5098515 C3.04363038,60.073513 11.073513,30.1055831 34.5098515,16.5746068 Z M35.5098515,18.3066576 C13.0300982,31.2853492 5.32796594,60.0300982 18.3066576,82.5098515 C31.2853492,104.989605 60.0300982,112.691737 82.5098515,99.7130455 C104.989605,86.7343539 112.691737,57.9896048 99.7130455,35.5098515 C86.7343539,13.0300982 57.9896048,5.32796594 35.5098515,18.3066576 Z M77.0098515,89.5457499 L79.2189085,91.0208077 L81.686374,90.0372722 L80.9661467,92.5940282 L82.6640334,94.6367981 L80.0098515,94.7419023 L78.5917377,96.9879391 L77.6715903,94.4961412 L75.0972611,93.8414983 L77.1827606,92.1963783 L77.0098515,89.5457499 Z M88.0098515,78.5457499 L90.2189085,80.0208077 L92.686374,79.0372722 L91.9661467,81.5940282 L93.6640334,83.6367981 L91.0098515,83.7419023 L89.5917377,85.9879391 L88.6715903,83.4961412 L86.0972611,82.8414983 L88.1827606,81.1963783 L88.0098515,78.5457499 Z M62.0098515,93.5457499 L64.2189085,95.0208077 L66.686374,94.0372722 L65.9661467,96.5940282 L67.6640334,98.6367981 L65.0098515,98.7419023 L63.5917377,100.987939 L62.6715903,98.4961412 L60.0972611,97.8414983 L62.1827606,96.1963783 L62.0098515,93.5457499 Z M87.3960744,64.946095 L89.3535815,65.3561754 C87.556913,73.9325218 82.2487017,81.3886118 74.5098515,85.8566391 C66.9143134,90.241925 57.9967161,91.1602477 49.7973959,88.6095391 L49.3340642,88.4614544 L49.9576778,86.5611634 C57.7483795,89.1178176 66.2688862,88.3051615 73.5098515,84.1245882 C80.7508169,79.944015 85.714851,72.9713678 87.3960744,64.946095 Z M52.1232993,60.3299931 L54.6357987,60.0017698 C55.6277836,64.1679381 55.9084686,68.0380988 55.5222076,71.545075 C58.4505111,72.2801044 61.4593759,72.4531059 64.5747943,72.0490727 L65.1601903,71.9665507 L64.9715829,74.7358732 C61.5440145,75.1351505 58.2433921,74.9623048 55.0960695,74.1189822 C54.3949225,77.1059717 53.1943814,79.8657707 51.4384403,82.3614011 L51.1026791,82.8262271 L48.588541,81.7836122 C50.5954018,79.2115971 51.9269628,76.4059283 52.6635776,73.3617827 C49.5737247,72.2114122 46.6079946,70.5106862 43.7513805,68.2336121 L43.2170404,67.7999003 L44.4756553,65.6598852 C47.2144935,68.0276921 50.0754546,69.7430222 53.0765388,70.8370524 C53.4074126,67.7508484 53.1400968,64.457671 52.2895983,60.9835124 L52.1232993,60.3299931 Z M32.7518182,57.0896038 L38.6401494,70.8164926 L41.0407719,69.4304926 L41.7571285,70.6797967 C45.3813304,77.0461924 47.1763429,80.9403333 47.1533332,82.3213738 C47.1103954,83.7593889 46.0314342,85.1305734 43.8802271,86.3725734 C43.2317473,86.7469734 42.531841,87.1244601 41.8124335,87.4866017 L41.2697201,87.7550426 L39.5073588,86.0705432 L40.3025213,85.7068954 C41.2090846,85.2861413 41.8734581,84.9538904 42.2653965,84.7276047 C43.9489499,83.7556047 44.6586111,82.680774 44.4303803,81.5654666 C44.2173024,80.4722906 42.9861724,77.9167272 40.7131628,73.9125334 L40.0463878,72.7481689 L31.4103825,77.7341689 L26.5528744,65.8647181 L28.8072584,64.7294257 L32.6230049,74.2904926 L36.4889423,72.0584926 L31.6687266,60.541634 L23.4380211,65.293634 L22.2140211,63.1736038 L32.7518182,57.0896038 Z M79.9742515,30.4492575 L95.1122515,56.6690426 L92.9298675,57.9290426 L92.1558675,56.5884353 L71.5167501,68.5044353 L72.2907501,69.8450426 L70.1083661,71.1050426 L54.9703661,44.8852575 L79.9742515,30.4492575 Z M78.9438675,33.70458 L58.3047501,45.62058 L70.3647501,66.5091128 L91.0038675,54.5931128 L78.9438675,33.70458 Z M39.9516575,76.5440912 L41.1576575,78.6329445 C39.3360155,80.5288449 37.187375,82.4718583 34.6975783,84.4374633 L34.0680136,84.929321 L32.5274214,82.9089369 C35.2938636,80.8461555 37.6288446,78.8514213 39.5469991,76.9500823 L39.9516575,76.5440912 Z M77.4626302,41.0030018 L83.8706302,52.1019833 L71.8363412,59.0499833 L65.4283412,47.9510018 L77.4626302,41.0030018 Z M76.4586,44.1599705 L68.6331945,48.6779705 L72.8271945,55.9421916 L80.6526,51.4241916 L76.4586,44.1599705 Z M45.5937761,48.0125272 L47.991214,47.9170115 C48.0243758,50.3504495 47.7756531,52.655649 47.2942227,54.8457871 C49.5681959,54.9581385 51.7769961,55.1691988 53.9712251,55.4759307 L55.0673596,55.6372553 L54.93146,58.2098701 C52.0624913,57.7046706 49.2703457,57.4045325 46.617377,57.2734559 C45.5185673,60.5382618 43.8013513,63.5668453 41.4505653,66.3329423 L41.0291408,66.8183469 L38.764418,65.6317321 C41.155048,63.0044246 42.9063781,60.2058173 44.0627621,57.1687332 C41.3634396,57.1013694 38.7883062,57.1922187 36.268285,57.4227719 L35.3257255,57.5157418 L35.5024482,55.0858346 C38.6626014,54.7993805 41.7700469,54.709634 44.8067847,54.7854182 C45.3174977,52.789999 45.5585921,50.7441157 45.590439,48.6441447 L45.5937761,48.0125272 Z M43.5098515,32.163064 C51.1058021,27.7775399 60.0239506,26.8593615 68.2236064,29.4105626 L68.6869568,29.5586755 L68.0632596,31.4589391 C60.2722453,28.9018027 51.7512101,29.7143145 44.5098515,33.8951148 C37.4077499,37.9955151 32.4960914,44.7819258 30.7239715,52.6130309 L30.6233574,53.0748767 L28.6658323,52.6648825 C30.4622213,44.0879897 35.7705811,36.6313339 43.5098515,32.163064 Z M52.0098515,16.5457499 L54.2189085,18.0208077 L56.686374,17.0372722 L55.9661467,19.5940282 L57.6640334,21.6367981 L55.0098515,21.7419023 L53.5917377,23.9879391 L52.6715903,21.4961412 L50.0972611,20.8414983 L52.1827606,19.1963783 L52.0098515,16.5457499 Z M26.0098515,31.5457499 L28.2189085,33.0208077 L30.686374,32.0372722 L29.9661467,34.5940282 L31.6640334,36.6367981 L29.0098515,36.7419023 L27.5917377,38.9879391 L26.6715903,36.4961412 L24.0972611,35.8414983 L26.1827606,34.1963783 L26.0098515,31.5457499 Z M37.0098515,21.5457499 L39.2189085,23.0208077 L41.686374,22.0372722 L40.9661467,24.5940282 L42.6640334,26.6367981 L40.0098515,26.7419023 L38.5917377,28.9879391 L37.6715903,26.4961412 L35.0972611,25.8414983 L37.1827606,24.1963783 L37.0098515,21.5457499 Z" id="驳回" fill="#F6483E" fill-rule="nonzero"></path>
    </g>
</svg>