<?xml version="1.0" encoding="UTF-8"?>
<svg width="30px" height="30px" viewBox="0 0 30 30" version="1.1" xmlns="http://www.w3.org/2000/svg" xmlns:xlink="http://www.w3.org/1999/xlink">
    <!-- Generator: Sketch 63.1 (92452) - https://sketch.com -->
    <title>基础地图</title>
    <desc>Created with Sketch.</desc>
    <g id="基础地图" stroke="none" stroke-width="1" fill="none" fill-rule="evenodd">
        <g id="编组-44">
            <rect id="矩形备份-37" x="0" y="0" width="30" height="30"></rect>
        </g>
        <path d="M9.02365617,13.6263997 C10.2356834,15.5882644 11.9333215,17.2044118 13.156549,18.3644048 L13.156549,18.3644048 L13.3897543,18.5860799 C13.8237097,19.0004398 14.4006715,19.2314696 15.0005905,19.2310984 C15.5986325,19.2316536 16.1739192,19.00181 16.6070266,18.589281 L16.6070266,18.589281 L16.8078311,18.3988165 C17.9678571,17.3000442 19.7094963,15.6434831 20.9563243,13.6263997 L20.9563243,13.6263997 L22.8603671,13.6263997 C23.5947312,13.6263997 24.2443352,14.102614 24.4652031,14.8031984 L24.4652031,14.8031984 L26.9220583,22.5950379 C27.0607096,23.0347101 27.0129795,23.5120297 26.7900155,23.9155189 C26.5670514,24.3190081 26.1883771,24.6133355 25.7424318,24.7297611 L25.7424318,24.7297611 L17.2634413,26.9453116 C16.7644661,27.0757562 16.2332458,26.9700095 15.8222089,26.6584144 L15.8222089,26.6584144 L11.7069165,23.539758 C11.3008184,23.2319789 10.7771688,23.1248616 10.2828845,23.2484593 L10.2828845,23.2484593 L5.09276786,24.546499 C3.82513937,24.8634064 2.695514,23.6770045 3.07432251,22.4257806 L3.07432251,22.4257806 L5.37637424,14.8216046 C5.59126323,14.1117566 6.24536402,13.6263997 6.98681042,13.6263997 L6.98681042,13.6263997 Z M15.0001905,3 C18.2438633,3 20.8735224,5.63049108 20.8735224,8.87559039 C20.8735224,12.4716086 17.3310428,15.6939001 15.5054018,17.4284877 C15.2213954,17.6985792 14.7773854,17.6969787 14.4933791,17.4264871 C12.6237371,15.6466841 9.12685849,12.4832125 9.12685849,8.87519024 C9.12685849,5.63049108 11.7565176,3 15.0001905,3 Z M15.0001905,6.66964312 C13.7939567,6.68589471 12.8246402,7.66866547 12.8246402,8.87539033 C12.8246402,10.0821152 13.7939567,11.0648859 15.0001905,11.0811375 C15.7950563,11.0918468 16.534167,10.6737916 16.9347226,9.98692923 C17.3352781,9.30006682 17.3352781,8.45071384 16.9347226,7.76385143 C16.534167,7.07698902 15.7950563,6.65893389 15.0001905,6.66964312 Z" id="形状结合" fill="#34C7BE" fill-rule="nonzero"></path>
    </g>
</svg>