<?xml version="1.0" encoding="UTF-8"?>
<svg width="30px" height="30px" viewBox="0 0 30 30" version="1.1" xmlns="http://www.w3.org/2000/svg" xmlns:xlink="http://www.w3.org/1999/xlink">
    <!-- Generator: Sketch 63.1 (92452) - https://sketch.com -->
    <title>Canvas绘图</title>
    <desc>Created with Sketch.</desc>
    <g id="Canvas绘图" stroke="none" stroke-width="1" fill="none" fill-rule="evenodd">
        <rect id="矩形备份-26" x="0" y="0" width="30" height="30"></rect>
        <rect id="矩形" fill="#FAB71C" x="3" y="3" width="24" height="24" rx="3"></rect>
        <path d="M24.8722893,19.4434608 L22.5572252,17.1291882 L23.3928023,16.2931955 C23.5782482,16.1057985 23.8334807,16 24.1001187,16 C24.3667567,16 24.6219892,16.1057985 24.8074351,16.2931955 L25.7072874,17.1931904 C26.0975709,17.584 26.0975709,18.2166584 25.7072874,18.6069016 L24.8722893,19.4440272 L24.8722893,19.4434608 Z M18.7001361,25.6142879 L16,26 L16.3850719,23.3000153 L21.7859232,17.900046 L24.1004082,20.2154514 L18.7001361,25.6137215 L18.7001361,25.6142879 Z" id="形状" fill="#FFFFFF" fill-rule="nonzero"></path>
        <path d="M9.74563823,11.56 C9.53738981,11.2772222 9.20080902,11.2772222 8.99314393,11.56 L6.10099921,15.4888889 C5.89275079,15.7711111 6.01699984,16 6.37749711,16 L19.6248966,16 C19.9859772,16 20.1067263,15.7716667 19.8973112,15.49 L15.315846,9.33722223 C15.1046809,9.05388889 14.7657668,9.055 14.5557684,9.33722223 L11.3136263,13.6911111 L9.74505489,11.56 L9.74563823,11.56 Z M7.90931882,7.25 C7.90931882,7.94055556 8.47923116,8.5 9.1821425,8.5 C9.88505384,8.5 10.4543829,7.94055556 10.4543829,7.25 C10.4543829,6.55944444 9.88563716,6 9.18272583,6 C8.4798145,6 7.90990215,6.55944444 7.90990215,7.25 L7.90931882,7.25 Z" id="形状" fill="#FFFFFF" fill-rule="nonzero"></path>
    </g>
</svg>