<?xml version="1.0" encoding="UTF-8"?>
<svg width="30px" height="30px" viewBox="0 0 30 30" version="1.1" xmlns="http://www.w3.org/2000/svg" xmlns:xlink="http://www.w3.org/1999/xlink">
    <!-- Generator: Sketch 63.1 (92452) - https://sketch.com -->
    <title>日志</title>
    <desc>Created with Sketch.</desc>
    <g id="日志" stroke="none" stroke-width="1" fill="none" fill-rule="evenodd">
        <g id="编组-44">
            <rect id="矩形备份-37" x="0" y="0" width="30" height="30"></rect>
            <path d="M23.5,3 C24.8807119,3 26,4.11928813 26,5.5 L26,24.5 C26,25.8807119 24.8807119,27 23.5,27 L6.5,27 C5.11928813,27 4,25.8807119 4,24.5 L4,5.5 C4,4.11928813 5.11928813,3 6.5,3 L23.5,3 Z M20,19 L10,19 C9.44771525,19 9,19.4477153 9,20 L9,20 L9,20.5 C9,21.0522847 9.44771525,21.5 10,21.5 L10,21.5 L20,21.5 C20.5522847,21.5 21,21.0522847 21,20.5 L21,20.5 L21,20 C21,19.4477153 20.5522847,19 20,19 L20,19 Z M14,14 L10,14 C9.44771525,14 9,14.4477153 9,15 L9,15 L9,15.5 C9,16.0522847 9.44771525,16.5 10,16.5 L10,16.5 L14,16.5 C14.5522847,16.5 15,16.0522847 15,15.5 L15,15.5 L15,15 C15,14.4477153 14.5522847,14 14,14 L14,14 Z M20,9 L10,9 C9.44771525,9 9,9.44771525 9,10 L9,10 L9,10.5 C9,11.0522847 9.44771525,11.5 10,11.5 L10,11.5 L20,11.5 C20.5522847,11.5 21,11.0522847 21,10.5 L21,10.5 L21,10 C21,9.44771525 20.5522847,9 20,9 L20,9 Z" id="形状结合" fill="#FAB71C"></path>
        </g>
    </g>
</svg>