<?xml version="1.0" encoding="UTF-8"?>
<svg width="30px" height="30px" viewBox="0 0 30 30" version="1.1" xmlns="http://www.w3.org/2000/svg" xmlns:xlink="http://www.w3.org/1999/xlink">
    <!-- Generator: Sketch 63.1 (92452) - https://sketch.com -->
    <title>水球图</title>
    <desc>Created with Sketch.</desc>
    <g id="水球图" stroke="none" stroke-width="1" fill="none" fill-rule="evenodd">
        <g id="编组-44">
            <rect id="矩形备份-37" x="0" y="0" width="30" height="30"></rect>
            <circle id="椭圆形" stroke="#FC8256" stroke-width="2" cx="15" cy="15" r="12"></circle>
            <path d="M22.3082707,13.1575563 C21.7398496,13.3247588 21.2932331,13.6463023 21.0090226,14.0192926 C20.9007519,14.0707395 20.8330827,14.1221865 20.724812,14.1864952 C19.8180451,14.8810289 18.4646617,15.3697749 17.0030075,15.3697749 C15.2030075,15.3697749 13.6736842,14.7266881 12.7669173,13.7620579 C12.7669173,13.7106109 12.712782,13.659164 12.6586466,13.659164 C12.6045113,13.5562701 12.4827068,13.4405145 12.4285714,13.3890675 C11.6977444,12.5273312 10.5067669,12 9.15338346,12 C8.08421053,12 7.17744361,12.3215434 6.44661654,12.8617363 C6.16240602,13.607717 6,14.5209003 6,15.4340836 C6,16.6688103 6.28421053,17.85209 6.78496241,18.8681672 C7.90827068,21.0160772 9.77593985,22.6752412 12.0225564,23.4726688 C12.0766917,23.4726688 12.1308271,23.5241158 12.1984962,23.5241158 C12.3067669,23.5755627 12.3609023,23.5755627 12.4827068,23.6270096 C13.2676692,23.8456592 14.1744361,24 15.0270677,24 C15.9338346,24 16.8270677,23.8971061 17.6796992,23.6270096 C17.7338346,23.6270096 17.7879699,23.5755627 17.8556391,23.5755627 C17.9639098,23.5241158 18.1398496,23.4726688 18.2481203,23.4083601 C20.2781955,22.5980707 21.9699248,21.1061093 23.0932331,19.1768489 C23.6616541,18.0578778 24,16.7717042 24,15.4212219 C24,14.6109325 23.8917293,13.8649518 23.6616541,13.1189711 C23.3233083,13.0032154 22.8090226,13.0032154 22.3082707,13.1575563 L22.3082707,13.1575563 Z" id="路径" fill="#FC8256" fill-rule="nonzero"></path>
        </g>
    </g>
</svg>