<?xml version="1.0" encoding="UTF-8"?>
<svg width="30px" height="30px" viewBox="0 0 30 30" version="1.1" xmlns="http://www.w3.org/2000/svg" xmlns:xlink="http://www.w3.org/1999/xlink">
    <!-- Generator: Sketch 63.1 (92452) - https://sketch.com -->
    <title>通知</title>
    <desc>Created with Sketch.</desc>
    <g id="通知" stroke="none" stroke-width="1" fill="none" fill-rule="evenodd">
        <g id="编组-44">
            <rect id="矩形备份-37" x="0" y="0" width="30" height="30"></rect>
            <path d="M24.9397983,5 L4.34734417,5 C3.32587151,5 2.5,5.82587151 2.5,6.84734417 L2.5,21.3680127 C2.5,22.3894854 3.32587151,23.2153569 4.34734417,23.2153569 L7.31124489,23.2153569 L7.81383117,25.4430366 C8.04746588,26.475376 9.31072329,26.869295 10.0876945,26.1493741 L13.2662132,23.2153569 L24.9397983,23.2153569 C25.961271,23.2153569 26.7871425,22.3894854 26.7871425,21.3680127 L26.7871425,6.84734417 C26.7871425,5.82858819 25.9585543,5 24.9397983,5 Z M9.23737286,14.9484917 C8.37346779,14.9484917 7.67528036,14.2475876 7.67528036,13.3863992 C7.67528036,12.5252108 8.37618447,11.8243067 9.23737286,11.8243067 C10.1012779,11.8243067 10.7994654,12.5252108 10.7994654,13.3863992 C10.7994654,14.2475876 10.1012779,14.9484917 9.23737286,14.9484917 Z M14.9261062,15.057159 C14.0622012,15.057159 13.3640137,14.3562549 13.3640137,13.4950665 C13.3640137,12.6338781 14.0649178,11.932974 14.9261062,11.932974 C15.7900113,11.932974 16.4881987,12.6338781 16.4881987,13.4950665 C16.4881987,14.3562549 15.7900113,15.057159 14.9261062,15.057159 Z M20.6148396,15.057159 C19.7509345,15.057159 19.0527471,14.3562549 19.0527471,13.4950665 C19.0527471,12.6338781 19.7536512,11.932974 20.6148396,11.932974 C21.4787447,11.932974 22.1769321,12.6338781 22.1769321,13.4950665 C22.1769321,14.3562549 21.4787447,15.057159 20.6148396,15.057159 Z" id="形状" fill="#5A80ED"></path>
        </g>
    </g>
</svg>