<?xml version="1.0" encoding="UTF-8"?>
<svg width="30px" height="30px" viewBox="0 0 30 30" version="1.1" xmlns="http://www.w3.org/2000/svg" xmlns:xlink="http://www.w3.org/1999/xlink">
    <!-- Generator: Sketch 63.1 (92452) - https://sketch.com -->
    <title>图片</title>
    <desc>Created with Sketch.</desc>
    <g id="图片" stroke="none" stroke-width="1" fill="none" fill-rule="evenodd">
        <g id="编组-38">
            <rect id="矩形备份-31" x="0" y="0" width="30" height="30"></rect>
            <path d="M24.5,3 C25.8807119,3 27,4.11928813 27,5.5 L27,24.5 C27,25.8807119 25.8807119,27 24.5,27 L5.5,27 C4.11928813,27 3,25.8807119 3,24.5 L3,5.5 C3,4.11928813 4.11928813,3 5.5,3 L24.5,3 Z M18.7143029,13.1138099 C18.0784267,11.9978642 16.6115045,11.9978642 15.9756283,13.1138099 L15.9756283,13.1138099 L12.5570069,19.0770464 L11.4709807,17.1877976 C11.0806409,16.5119431 10.21182,16.5119431 9.82462808,17.1877976 L9.82462808,17.1877976 L6.86874823,22.3431523 C6.62950769,22.7580955 6.93170627,23.2768507 7.40389155,23.2768507 L7.40389155,23.2768507 L22.7467652,23.2768507 C23.5463323,23.286205 24.0468487,22.4185965 23.6407693,21.717594 L23.6407693,21.717594 Z M11.1964286,10 C10.4571429,10 9.85714286,10.6 9.85714286,11.3392857 C9.85714286,12.0785714 10.4571429,12.6785714 11.1964286,12.6785714 C11.9357143,12.6785714 12.5357143,12.0785714 12.5357143,11.3392857 C12.5357143,10.6 11.9357143,10 11.1964286,10 Z" id="形状" fill="#EE5E5E"></path>
        </g>
    </g>
</svg>