<?xml version="1.0" encoding="UTF-8"?>
<svg width="30px" height="30px" viewBox="0 0 30 30" version="1.1" xmlns="http://www.w3.org/2000/svg" xmlns:xlink="http://www.w3.org/1999/xlink">
    <!-- Generator: Sketch 63.1 (92452) - https://sketch.com -->
    <title>环形进度</title>
    <desc>Created with Sketch.</desc>
    <g id="环形进度" stroke="none" stroke-width="1" fill="none" fill-rule="evenodd">
        <g id="编组-44">
            <rect id="矩形备份-37" x="0" y="0" width="30" height="30"></rect>
            <path d="M24.0805893,8.95041413 C22.1313985,5.96795874 18.7823018,4 14.9778564,4 C8.95946195,4 4.08058929,8.92486775 4.08058929,15 C4.08058929,21.0751322 8.95946195,26 14.9778564,26 C18.737631,26 22.0526873,24.0779845 24.0113511,21.1542224" id="路径" stroke="#FC8256" stroke-width="5" stroke-linecap="round"></path>
            <path d="M13.4296724,15.5416667 C13.8972383,15.5416667 14.2524085,15.4074074 14.495183,15.1388889 C14.7379576,14.8703704 14.8593449,14.4861111 14.8593449,13.9861111 L14.8593449,13.9861111 L14.8593449,11.5555556 C14.8593449,11.0555556 14.7379576,10.6712963 14.495183,10.4027778 C14.2524085,10.1342593 13.8972383,10 13.4296724,10 C12.9621066,10 12.6069364,10.1342593 12.3641618,10.4027778 C12.1213873,10.6712963 12,11.0555556 12,11.5555556 L12,11.5555556 L12,13.9861111 C12,14.4861111 12.1213873,14.8703704 12.3641618,15.1388889 C12.6069364,15.4074074 12.9621066,15.5416667 13.4296724,15.5416667 Z M14.1445087,19.8611111 L17.7996146,10.1388889 L16.8554913,10.1388889 L13.2003854,19.8611111 L14.1445087,19.8611111 Z M13.4296724,14.6666667 C13.105973,14.6666667 12.9441233,14.462963 12.9441233,14.0555556 L12.9441233,14.0555556 L12.9441233,11.4861111 C12.9441233,11.0787037 13.105973,10.875 13.4296724,10.875 C13.7533719,10.875 13.9152216,11.0787037 13.9152216,11.4861111 L13.9152216,11.4861111 L13.9152216,14.0555556 C13.9152216,14.462963 13.7533719,14.6666667 13.4296724,14.6666667 Z M17.5703276,20 C18.0378934,20 18.3930636,19.8657407 18.6358382,19.5972222 C18.8786127,19.3287037 19,18.9444444 19,18.4444444 L19,18.4444444 L19,16.0138889 C19,15.5138889 18.8786127,15.1296296 18.6358382,14.8611111 C18.3930636,14.5925926 18.0378934,14.4583333 17.5703276,14.4583333 C17.1027617,14.4583333 16.7475915,14.5925926 16.504817,14.8611111 C16.2620424,15.1296296 16.1406551,15.5138889 16.1406551,16.0138889 L16.1406551,16.0138889 L16.1406551,18.4444444 C16.1406551,18.9444444 16.2620424,19.3287037 16.504817,19.5972222 C16.7475915,19.8657407 17.1027617,20 17.5703276,20 Z M17.5703276,19.125 C17.2466281,19.125 17.0847784,18.9212963 17.0847784,18.5138889 L17.0847784,18.5138889 L17.0847784,15.9444444 C17.0847784,15.537037 17.2466281,15.3333333 17.5703276,15.3333333 C17.894027,15.3333333 18.0558767,15.537037 18.0558767,15.9444444 L18.0558767,15.9444444 L18.0558767,18.5138889 C18.0558767,18.9212963 17.894027,19.125 17.5703276,19.125 Z" id="%" fill="#FC8256" fill-rule="nonzero"></path>
        </g>
    </g>
</svg>