<?xml version="1.0" encoding="UTF-8"?>
<svg width="30px" height="30px" viewBox="0 0 30 30" version="1.1" xmlns="http://www.w3.org/2000/svg" xmlns:xlink="http://www.w3.org/1999/xlink">
    <!-- Generator: Sketch 63.1 (92452) - https://sketch.com -->
    <title>实时时间</title>
    <desc>Created with Sketch.</desc>
    <g id="实时时间" stroke="none" stroke-width="1" fill="none" fill-rule="evenodd">
        <g id="编组-24">
            <rect id="矩形备份-15" x="0" y="0" width="30" height="30"></rect>
            <path d="M5.5,3 L24.5,3 C25.8807119,3 27,4.11928813 27,5.5 L27,24.5 C27,25.8807119 25.8807119,27 24.5,27 L5.5,27 C4.11928813,27 3,25.8807119 3,24.5 L3,5.5 C3,4.11928813 4.11928813,3 5.5,3 Z M6.672,19.64 C7.32,19.64 7.816,19.456 8.16,19.088 C8.504,18.72 8.676,18.2 8.676,17.528 L8.676,17.528 L8.676,13.112 C8.676,12.44 8.504,11.92 8.16,11.552 C7.816,11.184 7.32,11 6.672,11 C6.024,11 5.528,11.184 5.184,11.552 C4.84,11.92 4.668,12.44 4.668,13.112 L4.668,13.112 L4.668,17.528 C4.668,18.2 4.84,18.72 5.184,19.088 C5.528,19.456 6.024,19.64 6.672,19.64 Z M6.672,18.44 C6.216,18.44 5.988,18.164 5.988,17.612 L5.988,17.612 L5.988,13.028 C5.988,12.476 6.216,12.2 6.672,12.2 C7.128,12.2 7.356,12.476 7.356,13.028 L7.356,13.028 L7.356,17.612 C7.356,18.164 7.128,18.44 6.672,18.44 Z M11.472,19.64 C12.12,19.64 12.616,19.456 12.96,19.088 C13.304,18.72 13.476,18.2 13.476,17.528 L13.476,17.528 L13.476,13.112 C13.476,12.44 13.304,11.92 12.96,11.552 C12.616,11.184 12.12,11 11.472,11 C10.824,11 10.328,11.184 9.984,11.552 C9.64,11.92 9.468,12.44 9.468,13.112 L9.468,13.112 L9.468,17.528 C9.468,18.2 9.64,18.72 9.984,19.088 C10.328,19.456 10.824,19.64 11.472,19.64 Z M11.472,18.44 C11.016,18.44 10.788,18.164 10.788,17.612 L10.788,17.612 L10.788,13.028 C10.788,12.476 11.016,12.2 11.472,12.2 C11.928,12.2 12.156,12.476 12.156,13.028 L12.156,13.028 L12.156,17.612 C12.156,18.164 11.928,18.44 11.472,18.44 Z M15.636,14.948 L15.636,13.676 L14.364,13.676 L14.364,14.948 L15.636,14.948 Z M15.636,19.52 L15.636,18.248 L14.364,18.248 L14.364,19.52 L15.636,19.52 Z M18.528,19.64 C19.176,19.64 19.672,19.456 20.016,19.088 C20.36,18.72 20.532,18.2 20.532,17.528 L20.532,17.528 L20.532,13.112 C20.532,12.44 20.36,11.92 20.016,11.552 C19.672,11.184 19.176,11 18.528,11 C17.88,11 17.384,11.184 17.04,11.552 C16.696,11.92 16.524,12.44 16.524,13.112 L16.524,13.112 L16.524,17.528 C16.524,18.2 16.696,18.72 17.04,19.088 C17.384,19.456 17.88,19.64 18.528,19.64 Z M18.528,18.44 C18.072,18.44 17.844,18.164 17.844,17.612 L17.844,17.612 L17.844,13.028 C17.844,12.476 18.072,12.2 18.528,12.2 C18.984,12.2 19.212,12.476 19.212,13.028 L19.212,13.028 L19.212,17.612 C19.212,18.164 18.984,18.44 18.528,18.44 Z M23.328,19.64 C23.976,19.64 24.472,19.456 24.816,19.088 C25.16,18.72 25.332,18.2 25.332,17.528 L25.332,17.528 L25.332,13.112 C25.332,12.44 25.16,11.92 24.816,11.552 C24.472,11.184 23.976,11 23.328,11 C22.68,11 22.184,11.184 21.84,11.552 C21.496,11.92 21.324,12.44 21.324,13.112 L21.324,13.112 L21.324,17.528 C21.324,18.2 21.496,18.72 21.84,19.088 C22.184,19.456 22.68,19.64 23.328,19.64 Z M23.328,18.44 C22.872,18.44 22.644,18.164 22.644,17.612 L22.644,17.612 L22.644,13.028 C22.644,12.476 22.872,12.2 23.328,12.2 C23.784,12.2 24.012,12.476 24.012,13.028 L24.012,13.028 L24.012,17.612 C24.012,18.164 23.784,18.44 23.328,18.44 Z" id="数字备份" fill="#5A80ED"></path>
        </g>
    </g>
</svg>