<?xml version="1.0" encoding="UTF-8"?>
<svg width="30px" height="30px" viewBox="0 0 30 30" version="1.1" xmlns="http://www.w3.org/2000/svg" xmlns:xlink="http://www.w3.org/1999/xlink">
    <!-- Generator: Sketch 63.1 (92452) - https://sketch.com -->
    <title>玫瑰图</title>
    <desc>Created with Sketch.</desc>
    <g id="玫瑰图" stroke="none" stroke-width="1" fill="none" fill-rule="evenodd">
        <g id="编组-44" transform="translate(15.000000, 15.000000) rotate(-270.000000) translate(-15.000000, -15.000000) ">
            <rect id="矩形备份-37" x="0" y="0" width="30" height="30"></rect>
            <path d="M9.16943513,18.865575 C9.89643342,19.5780665 10.8214089,20.0686856 11.8340137,20.2811831 L11.8340137,20.2811831 L11.8340137,28.9999149 C8.31910676,29.0123286 4.94375754,27.6654697 2.4674196,25.2623734 L2.4674196,25.2623734 Z M15.3132198,19.8186886 L19.4837234,23.8342655 C17.7830667,25.4748709 15.4722507,26.3936099 13.0673144,26.3873917 L13.0673144,26.3873917 L13.0673144,20.371807 C13.8494867,20.3530572 14.6154313,20.1655594 15.3132198,19.8186886 L15.3132198,19.8186886 Z M25.0011212,15.6562384 C25.0011212,18.7468264 23.709401,21.706166 21.4180582,23.8686401 L21.4180582,23.8686401 L16.4361725,19.0499478 C17.4325497,18.1718333 18.042709,16.9562228 18.1303382,15.6562384 L18.1303382,15.6562384 Z M4.74902585,8.87819452 L8.50085634,12.5031511 C7.34869386,14.1656312 7.32272964,16.3218554 8.42945472,18.0124602 L8.42945472,18.0124602 L4.72306163,21.5436679 C2.97696751,19.865563 1.99357249,17.5843403 2.00003162,15.2062438 C2.00330908,12.8281473 2.99319515,10.5500495 4.74902585,8.87819452 L4.74902585,8.87819452 Z M14.1058834,1.00008136 C17.7960488,0.987663958 21.3401655,2.39702209 23.9495701,4.90949202 C26.5492381,7.42508691 28.0032347,10.8312961 27.9999946,14.3781287 L27.9999946,14.3781287 L18.0492,14.3781287 C17.6662277,12.4156522 16.1213563,10.8531709 14.1058834,10.3875515 L14.1058834,10.3875515 Z M12.7557437,3.47200923 L12.7557437,10.2031787 C11.4575324,10.2406782 10.2209862,10.7469222 9.28951967,11.6187867 L9.28951967,11.6187867 L4.32061614,6.83134402 C6.56003053,4.68136975 9.59459931,3.47200923 12.7557437,3.47200923 L12.7557437,3.47200923 Z" id="形状结合" fill="#5A80ED" fill-rule="nonzero"></path>
        </g>
    </g>
</svg>