<?xml version="1.0" encoding="UTF-8"?>
<svg width="30px" height="30px" viewBox="0 0 30 30" version="1.1" xmlns="http://www.w3.org/2000/svg" xmlns:xlink="http://www.w3.org/1999/xlink">
    <!-- Generator: Sketch 63.1 (92452) - https://sketch.com -->
    <title>时间过滤</title>
    <desc>Created with Sketch.</desc>
    <g id="时间过滤" stroke="none" stroke-width="1" fill="none" fill-rule="evenodd">
        <g id="编组-43">
            <rect id="矩形备份-34" x="0" y="0" width="30" height="30"></rect>
            <path d="M26.8972397,3.66508737 C27.0909555,4.13133419 27.0103834,4.5290153 26.658952,4.8581307 L18.2674552,15.2608583 L18.2674552,25.9078032 C18.2887806,26.351805 18.0205369,26.7586387 17.6040212,26.914005 C17.4687545,26.9683789 17.324645,26.9974306 17.1788749,26.9997121 C16.888794,27.0066283 16.6097132,26.8886385 16.4125829,26.6757392 L12.0548332,22.3115318 C11.8461287,22.1116296 11.7294679,21.8342755 11.7325448,21.54531 L11.7325448,15.2608583 L3.341048,4.8581307 C2.98961657,4.5290153 2.90904448,4.13133419 3.10276035,3.66508737 C3.29647621,3.22283855 3.63076464,3 4.10733995,3 L25.8943744,3 C26.3692354,3.00171414 26.7035238,3.22283855 26.8972397,3.66508737 Z" id="路径" fill="#5A80ED" fill-rule="nonzero"></path>
        </g>
    </g>
</svg>