<?xml version="1.0" encoding="UTF-8"?>
<svg width="22px" height="22px" viewBox="0 0 22 22" version="1.1" xmlns="http://www.w3.org/2000/svg" xmlns:xlink="http://www.w3.org/1999/xlink">
    <!-- Generator: Sketch 63.1 (92452) - https://sketch.com -->
    <title>认证</title>
    <desc>Created with Sketch.</desc>
    <g id="认证" stroke="none" stroke-width="1" fill="none" fill-rule="evenodd">
        <g id="编组-73备份">
            <rect id="矩形备份-57" fill="#EE5E5E" x="0" y="0" width="22" height="22" rx="4"></rect>
            <path d="M17.6901728,10.2218546 L16.3538466,8.91130081 L16.3538466,7.25835004 C16.3521593,6.66969717 16.5276365,5.60708596 15.9421501,5.60539928 L12.6485784,5.60539928 L11.8251855,4.36737289 C11.4101145,3.95244851 10.6643365,3.84956076 10.2492654,4.26448513 L9.35500673,5.60708596 L6.88314069,5.60708596 C6.29596705,5.60877264 5.61936753,6.07092419 5.61768025,6.65957706 L5.61768025,8.82359322 L4.31003781,10.2235413 C3.89665406,10.6401524 3.89665406,11.3148262 4.31003781,11.7314372 L5.61768025,13.1499388 L5.61768025,15.313955 C5.61936753,15.9026079 5.88427058,16.3478926 6.47144423,16.3495793 L8.94162299,16.3495793 L10.2475782,17.6888067 C10.6626492,18.1037311 11.3358741,18.1037311 11.7509452,17.6888067 L13.0585876,16.3495793 L15.1170699,16.3495793 C15.7042435,16.3478926 16.350472,15.6985191 16.3521593,15.1098662 L16.3521593,13.0436777 L17.6884855,11.7314372 C18.1035565,11.3131395 18.1035565,10.6401524 17.6901728,10.2218546 L17.6901728,10.2218546 Z M10.9872308,13.764053 L8.00887525,9.29809814 L10.1364623,9.29809814 L10.9792423,11.9578967 L11.8379993,9.29809814 L13.9655863,9.29809814 L10.9872308,13.764053 Z" id="形状" fill="#FFFFFF" fill-rule="nonzero"></path>
        </g>
    </g>
</svg>