<?xml version="1.0" encoding="UTF-8"?>
<svg width="22px" height="22px" viewBox="0 0 22 22" version="1.1" xmlns="http://www.w3.org/2000/svg" xmlns:xlink="http://www.w3.org/1999/xlink">
    <!-- Generator: Sketch 63.1 (92452) - https://sketch.com -->
    <title>调用记录</title>
    <desc>Created with Sketch.</desc>
    <g id="调用记录" stroke="none" stroke-width="1" fill="none" fill-rule="evenodd">
        <g id="编组-71备份-2">
            <rect id="矩形备份-59" fill="#FAB71C" x="0" y="0" width="22" height="22" rx="4"></rect>
            <path d="M17.0536059,7.96414773 L12.7049359,4.1439937 C12.7049359,4.1439937 12.0507679,3.66736809 11.8933257,4.44841723 L11.8887964,6.30341842 C11.8870144,6.30502736 3.7302081,6.70371046 5.42001693,15.0339956 C5.42001693,15.0339956 5.54014052,15.3512907 5.70052311,15.0339956 C5.70052311,15.0339956 7.49717942,9.49519044 11.8735155,10.890126 L11.8735155,12.6087771 C11.8735155,12.6087771 11.9436977,13.6204359 12.8056799,12.9619545 L17.1102596,9.16570691 C17.1102596,9.16570691 18.0235345,8.65781323 17.0540366,7.96413255 L17.0536059,7.96413255 L17.0536059,7.96414773 Z M14.5654109,15.7439782 L6.10358075,15.7439782 C5.49397839,15.7439782 5,16.248912 5,16.8715261 C5,17.494626 5.49397839,18 6.10358075,18 L14.5654109,18 C15.1749984,18 15.6689768,17.494626 15.6689768,16.8715261 C15.6689768,16.248912 15.1749836,15.7439782 14.5654109,15.7439782 Z" id="形状" fill="#FFFFFF" fill-rule="nonzero"></path>
        </g>
    </g>
</svg>