<?xml version="1.0" encoding="UTF-8"?>
<svg width="22px" height="22px" viewBox="0 0 22 22" version="1.1" xmlns="http://www.w3.org/2000/svg" xmlns:xlink="http://www.w3.org/1999/xlink">
    <!-- Generator: Sketch 63.1 (92452) - https://sketch.com -->
    <title>请求报文</title>
    <desc>Created with Sketch.</desc>
    <g id="请求报文" stroke="none" stroke-width="1" fill="none" fill-rule="evenodd">
        <g id="编组-72备份">
            <rect id="矩形备份-58" fill="#FC8256" x="0" y="0" width="22" height="22" rx="4"></rect>
            <path d="M16.2378641,12.9439301 L16.2378641,5.43584468 C16.2378641,4.91899193 15.8188721,4.5 15.3020194,4.5 L8.74129275,4.5 C8.17438411,4.5 7.63802474,4.75694289 7.28274743,5.19871595 L4.91314404,8.1452226 C4.64576496,8.47769774 4.5,8.89154476 4.5,9.31819601 L4.5,16.1040216 C4.5,16.6208743 4.91899193,17.0398663 5.43584468,17.0398663 L13.2087379,17.0398663 L13.2087379,17.0398663 C13.0194175,16.6617799 12.8932039,16.220679 12.8932039,15.7795782 C12.8932039,14.1412037 14.1553398,12.8809157 15.7961165,12.8809157 C15.9223301,12.8809157 16.0485437,12.8809157 16.2378641,12.9439301 Z M12.0400148,6.13837449 L13.6832861,6.13837449 C14.1531117,6.13837449 14.5339806,6.51924336 14.5339806,6.98906893 C14.5339806,7.4588945 14.1531117,7.83976338 13.6832861,7.83976338 L12.0400148,7.83976338 C11.5701893,7.83976338 11.1893204,7.4588945 11.1893204,6.98906893 C11.1893204,6.51924336 11.5701893,6.13837449 12.0400148,6.13837449 Z M11.1893204,10.3288323 C11.1893204,9.85900674 11.5701893,9.47813787 12.0400148,9.47813787 L13.6832861,9.47813787 C14.1531117,9.47813787 14.5339806,9.85900674 14.5339806,10.3288323 C14.5339806,10.7986579 14.1531117,11.1795268 13.6832861,11.1795268 L12.0400148,11.1795268 C11.5701893,11.1795268 11.1893204,10.7986579 11.1893204,10.3288323 Z M15.7961165,14.0972222 C14.8495146,14.0972222 14.092233,14.8533951 14.092233,15.7986111 C14.092233,16.7438272 14.8495146,17.5 15.7961165,17.5 C16.7427184,17.5 17.5,16.7438272 17.5,15.7986111 C17.4368932,14.8533951 16.7427184,14.0972222 15.7961165,14.0972222 Z" id="形状" fill="#FFFFFF" fill-rule="nonzero"></path>
        </g>
    </g>
</svg>