<?xml version="1.0" encoding="UTF-8"?>
<svg width="22px" height="22px" viewBox="0 0 22 22" version="1.1" xmlns="http://www.w3.org/2000/svg" xmlns:xlink="http://www.w3.org/1999/xlink">
    <!-- Generator: Sketch 63.1 (92452) - https://sketch.com -->
    <title>请求头</title>
    <desc>Created with Sketch.</desc>
    <g id="请求头" stroke="none" stroke-width="1" fill="none" fill-rule="evenodd">
        <g id="编组-74备份" fill-rule="nonzero">
            <rect id="矩形" fill="#4689F5" x="0" y="0" width="22" height="22" rx="4"></rect>
            <path d="M16.1002725,9.38219598 L16.1002725,10.611558 L12.41548,12.1320848 C11.9037033,12.3585462 11.5625188,12.8438207 11.5966373,13.3937985 C11.6307557,13.9114246 11.9719402,14.3966991 12.5178354,14.5584573 L12.5178354,14.5584573 L13.9849287,15.0113801 L14.39435,15.1407867 L14.39435,16.1760389 C14.3943501,16.2730939 14.3943501,16.4025004 14.4284685,16.4995553 L14.4284685,16.4995553 L5.18236896,16.4995553 C4.80706604,16.4995553 4.5,16.2083906 4.5,15.8525226 L4.5,15.8525226 L4.5,9.38219598 L16.1002725,9.38219598 Z M15.4179035,15.0113801 L16.6120492,15.4319514 L16.0320356,16.3377971 C15.8614433,16.6289618 15.4179035,16.4995553 15.4179035,16.1760389 L15.4179035,16.1760389 L15.4179035,15.0113801 Z M19.034459,10.3850966 C19.3074066,10.2556901 19.5803542,10.5145031 19.4779989,10.7733162 L19.4779989,10.7733162 L18.2497347,14.6555122 C18.1473794,15.0113801 17.737958,15.2054899 17.3967735,15.0760834 L17.3967735,15.0760834 L15.4179035,14.3319958 L17.055589,12.3908979 L14.3261132,14.1055344 L12.8931383,13.6526116 C12.5860723,13.5555567 12.5860723,13.1673371 12.8590199,13.0379305 L12.8590199,13.0379305 Z M15.4179035,5.5 C15.7932064,5.5 16.1002725,5.7911647 16.1002725,6.14703267 L16.1002725,6.14703267 L16.1002725,8.41164698 L4.5,8.41164698 L4.5,6.14703267 C4.5,5.7911647 4.80706602,5.5 5.18236896,5.5 L5.18236896,5.5 Z M7.40006811,6.47054899 L6.03533018,6.47054899 C5.76238259,6.47054899 5.52355345,6.69701042 5.52355345,6.95582349 C5.52355345,7.21463656 5.76238259,7.44109799 6.03533018,7.44109799 L6.03533018,7.44109799 L7.40006811,7.44109799 C7.67301571,7.44109799 7.91184484,7.21463656 7.91184484,6.95582349 C7.91184484,6.69701042 7.67301571,6.47054899 7.40006811,6.47054899 L7.40006811,6.47054899 Z M14.5649423,6.47054899 L9.44717502,6.47054899 C9.17422743,6.47054899 8.93539829,6.69701042 8.93539829,6.95582349 C8.93539829,7.21463656 9.17422743,7.44109799 9.44717502,7.44109799 L9.44717502,7.44109799 L14.5649423,7.44109799 C14.8378899,7.44109799 15.076719,7.21463656 15.076719,6.95582349 C15.076719,6.69701042 14.8378899,6.47054899 14.5649423,6.47054899 L14.5649423,6.47054899 Z" id="形状结合" fill="#FFFFFF"></path>
        </g>
    </g>
</svg>