<?xml version="1.0" encoding="UTF-8"?>
<svg width="22px" height="22px" viewBox="0 0 22 22" version="1.1" xmlns="http://www.w3.org/2000/svg" xmlns:xlink="http://www.w3.org/1999/xlink">
    <!-- Generator: Sketch 63.1 (92452) - https://sketch.com -->
    <title>响应处理</title>
    <desc>Created with Sketch.</desc>
    <g id="响应处理" stroke="none" stroke-width="1" fill="none" fill-rule="evenodd">
        <g id="编组-71备份">
            <rect id="矩形备份-59" fill="#34C7BE" x="0" y="0" width="22" height="22" rx="4"></rect>
            <path d="M11,4 C14.8659933,4 18,7.13400675 18,11 C18,14.8660115 14.8660115,18 11,18 C7.1339885,18 4,14.8660115 4,11 C4,7.13398852 7.1339885,4 11,4 Z M13.1,14.5 L8.9,14.5 C8.70670034,14.5 8.55,14.6567003 8.55,14.85 C8.55,15.0432997 8.70670034,15.2 8.9,15.2 L8.9,15.2 L13.1,15.2 C13.2932997,15.2 13.45,15.0432997 13.45,14.85 C13.45,14.6567003 13.2932997,14.5 13.1,14.5 L13.1,14.5 Z M12.9993757,6.46710284 L8.83760101,9.62199658 C8.77598446,9.66870591 8.76389976,9.75652139 8.81060908,9.81813795 C8.83707662,9.85305257 8.87836293,9.87356323 8.92217573,9.87356323 L10.4681609,9.87356323 L10.4681609,9.87356323 L8.79178515,13.1039717 C8.7561709,13.172601 8.78293492,13.2571071 8.85156426,13.2927214 C8.89953659,13.317616 8.95755394,13.3126737 9.00062428,13.2800236 L13.162399,10.1251299 C13.2240156,10.0784205 13.2361003,9.99060507 13.1893909,9.92898851 C13.1629234,9.89407389 13.1216371,9.87356323 13.0778243,9.87356323 L11.5318391,9.87356323 L11.5318391,9.87356323 L13.2082149,6.64315479 C13.2438291,6.57452544 13.2170651,6.49001931 13.1484358,6.45440507 C13.1004634,6.42951049 13.0424461,6.43445274 12.9993757,6.46710284 Z" id="形状" fill="#FFFFFF" fill-rule="nonzero"></path>
        </g>
    </g>
</svg>