<?xml version="1.0" encoding="UTF-8"?>
<svg width="22px" height="22px" viewBox="0 0 22 22" version="1.1" xmlns="http://www.w3.org/2000/svg" xmlns:xlink="http://www.w3.org/1999/xlink">
    <!-- Generator: Sketch 63.1 (92452) - https://sketch.com -->
    <title>企业微信</title>
    <desc>Created with Sketch.</desc>
    <g id="企业微信" stroke="none" stroke-width="1" fill="none" fill-rule="evenodd">
        <g id="编组-71">
            <rect id="矩形备份-59" fill="#34C7BE" x="0" y="0" width="22" height="22" rx="4"></rect>
            <path d="M13.6048421,14.5975928 C14.034444,15.0378063 14.5631848,15.28331 15.1497566,15.4272259 C15.5132659,15.4949511 15.7032821,15.8335768 15.7198053,16.1806682 C15.7198053,16.5870192 15.4306502,16.9341106 15.0340946,16.9933701 C14.6540621,17.0441639 14.2575065,16.7986603 14.1748907,16.4092406 C14.0592287,15.8081799 13.8113814,15.28331 13.3817795,14.8430965 C13.3322101,14.7923026 13.3652564,14.6822492 13.3487332,14.5975928 C13.431349,14.5975928 13.5717958,14.5637302 13.6048421,14.5975928 Z M14.3070759,6.92771924 C15.1167103,7.80814623 15.5628354,8.84942045 15.5793585,10.0600076 C15.3810807,9.96688547 15.1580182,9.91609161 14.9266941,9.91609161 L14.8936478,9.91609161 C14.1170597,9.94995418 13.48918,10.5510149 13.3983027,11.3383198 C13.3817795,11.4822358 13.3817795,11.6261517 13.3983027,11.761602 C13.1091476,12.0578996 12.7538998,12.2441437 12.3160364,12.3203345 L12.3077748,12.3203345 C11.6138025,12.4642505 11.1098464,13.1076394 11.1098464,13.8272192 C11.1098464,14.3097609 11.3246473,14.7499744 11.6716335,15.0378063 C11.175939,15.1901879 10.6637213,15.28331 10.1432421,15.3002413 C9.47405453,15.3341038 8.8213901,15.2663787 8.16872567,15.1055314 C8.06958677,15.0886002 7.94566314,15.1055314 7.84652424,15.139394 C7.35082974,15.3848977 6.84687366,15.6473327 6.35117915,15.8928363 C6.16116293,15.9944241 5.98766985,16.0113554 5.82243835,15.8759051 C5.66546842,15.757386 5.64894527,15.5796075 5.66546842,15.3679664 C5.73156102,14.9446842 5.78113047,14.521402 5.82243835,14.0981198 C5.82243835,14.0134634 5.7728689,13.8864787 5.7067763,13.8187535 C5.05411187,13.1499677 4.49232476,12.4134566 4.21143121,11.4822358 C3.68269041,9.63672535 4.16186176,8.05364991 5.46719062,6.73300942 C7.85478582,4.33723214 12.0268812,4.44728552 14.3070759,6.92771924 Z M17.281243,13.0314486 C17.6943217,13.0822425 18,13.4208683 18,13.8441505 C18,14.2505014 17.7604143,14.5806615 17.3638587,14.6568523 C16.8185948,14.75844 16.3311618,15.0124094 15.9428678,15.4102946 C15.8602521,15.4949511 15.7363284,15.5711419 15.6537127,15.4441572 C15.6206664,15.3764321 15.6371895,15.2155848 15.686759,15.164791 C16.0833146,14.7415087 16.3229003,14.2674327 16.4220392,13.6833032 C16.5046549,13.260021 16.8846874,12.9806548 17.281243,13.0314486 Z M14.1914139,12.2695407 C14.1748907,12.3541971 14.207937,12.4811818 14.1583676,12.5319756 C13.7452888,12.9552578 13.5222263,13.4631965 13.4065643,14.0473259 C13.3239485,14.4706081 12.9439161,14.7161118 12.5473605,14.6483867 C12.1508049,14.5806615 11.8533881,14.2251045 11.8533881,13.8272192 C11.8533881,13.4716621 12.109497,13.141502 12.4564831,13.0737769 C13.0265318,12.9721891 13.5222263,12.7182198 13.9353051,12.3034032 C13.9848745,12.2526094 14.1087981,12.2695407 14.1914139,12.2695407 Z M14.9266941,10.6779996 C15.2902034,10.6779996 15.628928,10.9235033 15.7032821,11.3129229 C15.802421,11.8970523 16.0502683,12.404991 16.4550855,12.8282732 C16.5046549,12.879067 16.4716086,13.022983 16.4881318,13.1076394 C16.3889929,13.1076394 16.2650692,13.141502 16.2154998,13.0907081 C15.802421,12.6504947 15.2902034,12.4219223 14.7201547,12.2949376 C14.3401222,12.2102812 14.0840134,11.8208615 14.1335829,11.4314419 C14.1914139,11.0081597 14.5136153,10.6949309 14.9266941,10.6779996 Z" id="形状结合" fill="#FFFFFF" fill-rule="nonzero"></path>
        </g>
    </g>
</svg>