<?xml version="1.0" encoding="UTF-8"?>
<svg width="22px" height="22px" viewBox="0 0 22 22" version="1.1" xmlns="http://www.w3.org/2000/svg" xmlns:xlink="http://www.w3.org/1999/xlink">
    <!-- Generator: Sketch 63.1 (92452) - https://sketch.com -->
    <title>站内信</title>
    <desc>Created with Sketch.</desc>
    <g id="站内信" stroke="none" stroke-width="1" fill="none" fill-rule="evenodd">
        <g id="编组-73">
            <rect id="矩形备份-57" fill="#EE5E5E" x="0" y="0" width="22" height="22" rx="4"></rect>
            <path d="M15.4914286,5 C16.3237143,5 16.9974286,5.6636222 17,6.48500472 L17,13.6013668 C17,14.4210346 16.3262857,15.0863716 15.4948571,15.0863716 L11.3291429,15.0863716 L7.94257143,16.9469144 C7.8099479,17.0198951 7.6486738,17.0174828 7.51829113,16.940568 C7.38790845,16.8636532 7.30775703,16.7236448 7.30742857,16.5722337 L7.30742857,15.0872289 L6.50514286,15.0872289 C5.67457143,15.0872289 5,14.4227494 5,13.6022242 L5,6.48500472 C5,5.6644796 5.672,5 6.50514286,5 L15.4914286,5 Z M11,9.28696513 C10.5441374,9.31193167 10.1872861,9.68896558 10.1872861,10.1456442 C10.1872861,10.6023229 10.5441374,10.9793568 11,11.0043234 C11.4635403,10.9896698 11.8317282,10.6095514 11.8317282,10.1456442 C11.8317282,9.68173712 11.4635403,9.30161868 11,9.28696513 Z M8,9.28696513 C7.54413735,9.31193167 7.18728615,9.68896558 7.18728615,10.1456442 C7.18728615,10.6023229 7.54413735,10.9793568 8,11.0043234 C8.47409701,11.0043234 8.85842857,10.6198796 8.85842857,10.1456442 C8.85842857,9.67140886 8.47409701,9.28696513 8,9.28696513 Z M13.9991429,9.28696513 C13.546773,9.31559817 13.1945233,9.6909513 13.1945233,10.1443582 C13.1945233,10.597765 13.546773,10.9731181 13.9991429,11.0017512 C14.4725298,11.0017512 14.8562857,10.6178832 14.8562857,10.1443582 C14.8562857,9.67083306 14.4725298,9.28696513 13.9991429,9.28696513 Z" id="形状" fill="#FFFFFF" fill-rule="nonzero"></path>
        </g>
    </g>
</svg>