<?xml version="1.0" encoding="UTF-8"?>
<svg width="200px" height="200px" viewBox="0 0 200 200" version="1.1" xmlns="http://www.w3.org/2000/svg" xmlns:xlink="http://www.w3.org/1999/xlink">
    <!-- Generator: Sketch 63.1 (92452) - https://sketch.com -->
    <title>缺省</title>
    <desc>Created with Sketch.</desc>
    <g id="登录" stroke="none" stroke-width="1" fill="none" fill-rule="evenodd">
        <g id="3.0-巡检路线-无数据" transform="translate(-275.000000, -679.000000)" fill-rule="nonzero">
            <g id="缺省" transform="translate(275.000000, 679.000000)">
                <path d="M0,100 C0,155.228475 44.771525,200 100,200 C155.228475,200 200,155.228475 200,100 C200,44.771525 155.228475,0 100,0 C44.771525,0 0,44.771525 0,100 Z" id="路径" fill="#E8E9EC"></path>
                <path d="M42.4399137,53.5176506 L110.618912,41.4958537 C115.669208,40.6053502 118.639608,42.6852465 119.530111,47.7355428 L136.004426,141.166022 C136.894929,146.216318 134.815033,149.186718 129.764737,150.077221 L61.5857386,162.099018 C56.5354423,162.989522 53.5650425,160.909625 52.6745389,155.859329 L36.2002247,62.42885 C35.3097212,57.3785538 37.3896175,54.408154 42.4399137,53.5176506 Z" id="路径" fill="#D3D8DF"></path>
                <path d="M64.2459149,38 L133.476684,38 C138.604889,38 141.168992,40.5641026 141.168992,45.6923078 L141.168992,140.564103 C141.168992,145.692308 138.604889,148.25641 133.476684,148.25641 L64.2459149,148.25641 C59.1177098,148.25641 56.5536073,145.692308 56.5536073,140.564103 L56.5536073,45.6923078 C56.5536073,40.5641027 59.1177098,38 64.2459149,38 Z" id="路径" fill="#FFFFFF"></path>
                <path d="M74.5023253,63.6410258 L120.656171,63.6410258 C122.365573,63.6410258 123.220274,64.4957266 123.220274,66.2051283 L123.220274,66.2051283 C123.220274,67.91453 122.365573,68.7692309 120.656171,68.7692309 L74.5023253,68.7692309 C72.7929236,68.7692309 71.9382227,67.91453 71.9382227,66.2051283 L71.9382227,66.2051283 C71.9382227,64.4957266 72.7929236,63.6410258 74.5023253,63.6410258 Z" id="路径" fill="#E5ECF8"></path>
                <path d="M74.5023253,84.1538463 L120.656171,84.1538463 C122.365573,84.1538463 123.220274,85.0085471 123.220274,86.7179488 L123.220274,86.7179488 C123.220274,88.4273505 122.365573,89.2820514 120.656171,89.2820514 L74.5023253,89.2820514 C72.7929236,89.2820514 71.9382227,88.4273505 71.9382227,86.7179488 L71.9382227,86.7179488 C71.9382227,85.0085471 72.7929236,84.1538463 74.5023253,84.1538463 Z" id="路径" fill="#E5ECF8"></path>
                <path d="M74.5023253,104.666667 L89.8869407,104.666667 C91.5963424,104.666667 92.4510432,105.521368 92.4510432,107.230769 L92.4510432,107.230769 C92.4510432,108.940171 91.5963424,109.794872 89.8869407,109.794872 L74.5023253,109.794872 C72.7929236,109.794872 71.9382227,108.940171 71.9382227,107.230769 L71.9382227,107.230769 C71.9382227,105.521368 72.7929236,104.666667 74.5023253,104.666667 Z" id="路径" fill="#E5ECF8"></path>
                <path d="M121.938223,98.2564104 C137.515146,98.2564104 150.143351,110.884615 150.143351,126.461538 C150.143351,131.207469 148.971099,135.679675 146.900356,139.604397 L163.092069,151.966667 C164.184477,152.800286 164.749173,154.153376 164.573441,155.516239 C164.39771,156.879102 163.508248,158.044688 162.240108,158.573931 C160.971968,159.103175 159.51781,158.915671 158.425402,158.082051 L158.425402,158.082051 L142.41586,145.857134 C137.275366,151.282562 130.001893,154.666667 121.938223,154.666667 C106.361299,154.666667 93.7330944,142.038462 93.7330944,126.461538 C93.7330944,110.884615 106.3613,98.2564104 121.938223,98.2564104 Z M121.938223,105.948718 C110.609305,105.948718 101.425402,115.132621 101.425402,126.461538 C101.425402,137.790456 110.609305,146.974359 121.938223,146.974359 C133.267141,146.974359 142.451043,137.790456 142.451043,126.461538 C142.451043,115.132621 133.267141,105.948718 121.938223,105.948718 Z" id="形状结合" fill="#B6BEC8"></path>
            </g>
        </g>
    </g>
</svg>