<?xml version="1.0" encoding="UTF-8"?>
<svg width="28px" height="28px" viewBox="0 0 28 28" version="1.1" xmlns="http://www.w3.org/2000/svg" xmlns:xlink="http://www.w3.org/1999/xlink">
    <!-- Generator: Sketch 63.1 (92452) - https://sketch.com -->
    <title>职位</title>
    <desc>Created with Sketch.</desc>
    <defs>
        <linearGradient x1="50%" y1="0%" x2="50%" y2="100%" id="linearGradient-1">
            <stop stop-color="#F3D6A2" offset="0%"></stop>
            <stop stop-color="#CAA35B" offset="100%"></stop>
        </linearGradient>
    </defs>
    <g id="登录" stroke="none" stroke-width="1" fill="none" fill-rule="evenodd">
        <g id="4.0-我的-优待办-有配置" transform="translate(-321.000000, -204.000000)" fill-rule="nonzero">
            <g id="编组-4" transform="translate(40.000000, 190.000000)">
                <g id="编组-5">
                    <g id="编组-6" transform="translate(271.000000, 6.000000)">
                        <g id="职位" transform="translate(10.000000, 8.000000)">
                            <path d="M14.01225,0 L14.0035,0 C6.27462547,-0.00262417529 0.00262582482,6.26150047 -4.05862011e-13,13.993 C-0.00262417518,21.7244995 6.26062547,27.9947492 13.993,28 C21.7253745,28.0026242 27.9947492,21.7384995 28,14.007 L28,14.00175 C28,6.27200047 21.7384995,0.00350082471 14.01225,0 Z" id="路径" fill="url(#linearGradient-1)"></path>
                            <path d="M14.55825,9.23037528 C15.0009999,9.23037528 15.4428749,9.54012525 15.5627499,9.93912525 L18.1868748,18.5359997 C18.2997498,18.9026247 18.1772498,19.3908747 17.8981248,19.6734997 L14.618625,23.0089995 C14.4550647,23.1738456 14.2322187,23.266199 14,23.2653799 C13.7678586,23.2658082 13.5451571,23.1735147 13.381375,23.0089995 L10.0983752,19.6734997 C9.82187525,19.3943747 9.69937525,18.9052497 9.81225025,18.5394997 L12.4363751,9.93912525 C12.5562501,9.54275028 12.9981251,9.23037528 13.440875,9.23037528 L14.55825,9.23037528 Z M17.2059998,4.73550055 C17.4991248,4.73550055 17.7248748,4.84487555 17.8246248,5.03125052 C17.9208748,5.21062552 17.8841248,5.4197505 17.7213748,5.6096255 L16.1516249,7.44187539 C15.9153749,7.71487536 15.4271249,7.92400036 15.0176249,7.92400036 L12.9823751,7.92400036 C12.5702501,7.92400036 12.0846251,7.71750036 11.8483751,7.44187539 L10.2821252,5.6096255 C10.1193752,5.4206255 10.0826252,5.21062552 10.1788752,5.03125052 C10.2821252,4.84225052 10.5052502,4.73550055 10.7975002,4.73550055 L17.2059998,4.73550055 Z" id="形状结合" fill="#FFFFFF"></path>
                        </g>
                    </g>
                </g>
            </g>
        </g>
    </g>
</svg>