<?xml version="1.0" encoding="UTF-8"?>
<svg width="22px" height="22px" viewBox="0 0 22 22" version="1.1" xmlns="http://www.w3.org/2000/svg" xmlns:xlink="http://www.w3.org/1999/xlink">
    <!-- Generator: Sketch 63.1 (92452) - https://sketch.com -->
    <title>影响后台数据</title>
    <desc>Created with Sketch.</desc>
    <g id="影响后台数据" stroke="none" stroke-width="1" fill="none" fill-rule="evenodd">
        <g id="编组-105">
            <rect id="矩形备份-72" fill="#FC8256" x="0" y="0" width="22" height="22" rx="4"></rect>
            <path d="M4.88890214,12.9433333 C6.21315977,14.01125 8.60677456,14.5704167 10.9996239,14.5704167 C13.3932387,14.5704167 15.7868535,14.01125 17.1111111,12.9440972 L17.1111111,12.9440972 L17.1111111,14.8240278 L17.0850852,14.8240278 C16.779664,16.1203472 14.182435,17.1111111 10.9996239,17.1111111 C7.81681279,17.1111111 5.22034928,16.1203472 4.91416255,14.8240278 L4.91416255,14.8240278 L4.88890214,14.8240278 Z M6.67090893,14.5704167 C6.39151354,14.5704167 6.16187349,14.7988194 6.16187349,15.0784028 C6.16271416,15.3586075 6.39012538,15.5855499 6.67090893,15.5863889 C6.9510698,15.5863889 7.18070985,15.3579861 7.18070985,15.0784028 C7.18070985,14.7988194 6.9510698,14.5704167 6.67090893,14.5704167 Z M17.1111111,9.38590278 L17.1111111,11.0129861 C17.1111111,12.4101389 14.3860492,13.5536806 10.9996239,13.5536806 C7.61396408,13.5536806 4.88890214,12.4109028 4.88890214,11.0129861 L4.88890214,11.0129861 L4.88890214,9.38590278 C6.21315977,10.4538194 8.60677456,11.0129861 10.9996239,11.0129861 C13.3932387,11.0129861 15.7868535,10.4538194 17.1111111,9.38590278 L17.1111111,9.38590278 Z M6.67090893,11.0129861 C6.39151354,11.0129861 6.16187349,11.2413889 6.16187349,11.5209722 C6.16271416,11.801177 6.39012538,12.0281194 6.67090893,12.0289583 C6.9510698,12.0289583 7.18070985,11.8005556 7.18070985,11.5209722 C7.18070985,11.2413889 6.9510698,11.0129861 6.67090893,11.0129861 Z M11.6112319,4.88888889 C12.2176519,4.91465379 12.8215363,4.98254966 13.4184991,5.09208333 C13.6481391,5.14326389 13.8770137,5.19368056 14.0806279,5.24486111 C14.3917575,5.31921106 14.6980118,5.41258167 14.9976572,5.52444444 C15.277818,5.65048611 15.5572134,5.75284722 15.7868535,5.87965278 C15.8886606,5.95604167 16.0157281,6.00645833 16.1175352,6.08284722 C16.1688214,6.10805556 16.2201077,6.15923611 16.2706285,6.18444444 L16.3462113,6.23559671 C16.3953146,6.26966049 16.4405622,6.30361111 16.4742427,6.33722222 C16.5309981,6.37177553 16.582328,6.41450516 16.6265706,6.46402778 C16.7031173,6.565625 16.779664,6.64201389 16.8562107,6.74361111 C17.0345644,6.97277778 17.1111111,7.20118056 17.1111111,7.45555556 C17.1111111,8.85270833 14.3860492,9.99625 10.9996239,9.99625 C7.61396408,9.99625 4.88889545,8.85347222 4.88889545,7.45555556 C4.88815645,7.23955091 4.94981343,7.02790932 5.06649045,6.84597222 C5.14303713,6.71840278 5.24560969,6.59159722 5.37267718,6.46402778 C5.55026549,6.28680556 5.75464513,6.13402778 6.00954559,5.98201389 C6.0853268,5.93083333 6.18713389,5.87965278 6.26368058,5.82923611 C6.49332063,5.72763889 6.72219521,5.62604167 7.00235607,5.52444444 C7.28251694,5.42284722 7.5879382,5.34645833 7.89335947,5.27006944 C8.09697365,5.21965278 8.32584823,5.19368056 8.55548828,5.14326389 C9.11581001,5.04166667 9.72665254,4.96527778 10.363521,4.94006944 C10.5923955,4.91409722 10.7960097,4.91409722 10.9996239,4.91409722 L11.2034365,4.91316358 C11.3394061,4.9112963 11.4754891,4.90569444 11.6112319,4.88888889 Z" id="形状结合" fill="#FFFFFF" fill-rule="nonzero"></path>
        </g>
    </g>
</svg>