<?xml version="1.0" encoding="UTF-8"?>
<svg width="30px" height="30px" viewBox="0 0 30 30" version="1.1" xmlns="http://www.w3.org/2000/svg" xmlns:xlink="http://www.w3.org/1999/xlink">
    <!-- Generator: Sketch 63.1 (92452) - https://sketch.com -->
    <title>组织</title>
    <desc>Created with Sketch.</desc>
    <g id="组织" stroke="none" stroke-width="1" fill="none" fill-rule="evenodd">
        <g id="编组-39">
            <rect id="矩形备份-32" x="0" y="0" width="30" height="30"></rect>
            <path d="M11.1093164,4.46146571 L11.1093164,9.23729194 C11.1093164,9.49215241 11.3159217,9.69875765 11.5707821,9.69875765 L18.4280653,9.69875765 C18.6829258,9.69875765 18.889531,9.49215241 18.889531,9.23729194 L18.889531,4.46146571 C18.889531,4.20660524 18.6829258,4 18.4280653,4 L11.5707821,4 C11.3159217,4 11.1093164,4.20660524 11.1093164,4.46146571 Z M25.8226015,20.3000699 L21.6800986,20.3000699 C21.4252381,20.3000699 21.2186329,20.5066752 21.2186329,20.7615356 L21.2186329,25.5385343 C21.2186329,25.7933948 21.4252381,26 21.6800986,26 L28.5385343,26 C28.7933948,26 29,25.7933948 29,25.5385343 L29,20.7615356 C29,20.5066752 28.7933948,20.3000699 28.5385343,20.3000699 L25.8226015,20.3000699 L25.8226015,20.3000699 Z M4.17743053,20.3000699 L1.46146571,20.3000699 C1.20660524,20.3000699 1,20.5066752 1,20.7615356 L1,25.5385343 C1,25.7933948 1.20660524,26 1.46146571,26 L8.31990142,26 C8.57476189,26 8.78136713,25.7933948 8.78136713,25.5385343 L8.78136713,20.7615356 C8.78136713,20.5066752 8.57476189,20.3000699 8.31990142,20.3000699 L5.60166346,20.3000699 L5.60166346,20.3000699 L4.17743053,20.3000699 Z M14.2867149,20.3000699 L11.5707821,20.3000699 C11.3159217,20.3000699 11.1093164,20.5066752 11.1093164,20.7615356 L11.1093164,25.5385343 C11.1093164,25.7933948 11.3159217,26 11.5707821,26 L18.4280653,26 C18.6829258,26 18.889531,25.7933948 18.889531,25.5385343 L18.889531,20.7615356 C18.889531,20.5066752 18.6829258,20.3000699 18.4280653,20.3000699 L15.7121325,20.3000699 L15.7121325,20.3000699 L14.2867149,20.3000699 Z M15.7121325,14.1730658 L15.7121325,9.65219067 L14.2867149,9.65219067 L14.2867149,14.1730658 L4.63889624,14.1730658 C4.38403577,14.1730658 4.17743053,14.3796711 4.17743053,14.6345316 L4.17743053,20.3168991 L4.17743053,20.3168991 L5.60166346,20.3168991 L5.60166346,15.7251586 L14.2867149,15.7251586 L14.2867149,20.3168991 L15.7121325,20.3168991 L15.7121325,15.7251586 L24.3983686,15.7251586 L24.3983686,20.3168991 L25.8226015,20.3168991 L25.8226015,14.6345316 C25.8226015,14.3796711 25.6159962,14.1730658 25.3611358,14.1730658 L15.7121325,14.1730658 L15.7121325,14.1730658 Z" id="形状" fill="#FC8256"></path>
        </g>
    </g>
</svg>