<?xml version="1.0" encoding="UTF-8"?>
<svg width="22px" height="22px" viewBox="0 0 22 22" version="1.1" xmlns="http://www.w3.org/2000/svg" xmlns:xlink="http://www.w3.org/1999/xlink">
    <!-- Generator: Sketch 63.1 (92452) - https://sketch.com -->
    <title>影响控件属性</title>
    <desc>Created with Sketch.</desc>
    <g id="影响控件属性" stroke="none" stroke-width="1" fill="none" fill-rule="evenodd">
        <g id="编组-101">
            <rect id="矩形" fill="#5A80ED" x="0" y="0" width="22" height="22" rx="4"></rect>
            <path d="M16.2020571,6.89044277 L11.5424435,4.9960289 C11.3710203,4.9231978 11.186334,4.88678053 11.0000951,4.88898316 C10.8143134,4.89145801 10.6305225,4.92769872 10.4577466,4.9960289 L5.79813308,6.89044277 C5.24286524,7.11178666 4.88142637,7.65243021 4.88900584,8.25014304 L4.88900584,13.7500543 C4.88572541,14.3464842 5.24569392,14.8849283 5.79813308,15.1097545 L10.4577466,17.0041684 C10.6300628,17.0740514 10.8141492,17.1103504 11.0000951,17.1111111 C11.1835647,17.1103223 11.3651449,17.074006 11.5348048,17.0041684 L16.2020571,15.1097545 C16.7517365,14.8815554 17.1102931,14.3452232 17.1110876,13.7500543 L17.1110876,8.25014304 C17.1144648,7.65371311 16.7544962,7.11526895 16.2020571,6.89044277 L16.2020571,6.89044277 Z M10.4042757,15.7284945 L6.22590088,14.0326886 C6.11068876,13.986083 6.03518486,13.8743364 6.03493311,13.7500543 L6.03493311,8.53277737 L10.4271918,10.2896935 L10.4042757,15.7284945 Z M15.9576183,13.7500543 C15.9643949,13.8763891 15.8863895,13.9918378 15.7666506,14.0326886 L11.5729984,15.7208558 L11.5729984,10.2896935 L15.9499796,8.50986107 L15.9576183,13.7500543 Z" id="形状" fill="#FFFFFF" fill-rule="nonzero"></path>
        </g>
    </g>
</svg>