<?xml version="1.0" encoding="UTF-8"?>
<svg width="22px" height="22px" viewBox="0 0 22 22" version="1.1" xmlns="http://www.w3.org/2000/svg" xmlns:xlink="http://www.w3.org/1999/xlink">
    <!-- Generator: Sketch 63.1 (92452) - https://sketch.com -->
    <title>调用外部接口</title>
    <desc>Created with Sketch.</desc>
    <g id="调用外部接口" stroke="none" stroke-width="1" fill="none" fill-rule="evenodd">
        <g id="编组-103">
            <rect id="矩形备份-47" fill="#EE5E5E" x="0" y="0" width="22" height="22" rx="4"></rect>
            <path d="M9.82482743,9.49154544 L10.6475888,10.3143414 C10.7232701,10.3900487 10.7232701,10.5127702 10.6475888,10.5884775 L9.68795901,11.5481476 L10.784845,12.6450797 L11.7444748,11.6854095 C11.8201789,11.6097251 11.9428953,11.6097251 12.0185994,11.6854095 L12.840973,12.5078178 C12.9166543,12.583525 12.9166543,12.7062466 12.840973,12.7819538 L11.8813432,13.741624 L12.840973,14.7012941 C12.9166543,14.7770014 12.9166543,14.8997229 12.840973,14.9754302 L11.8813432,15.9351003 C10.5553093,17.26119 8.5069358,17.4259818 7.00177096,16.4287003 L5.98708358,17.4430426 C5.95071293,17.4795068 5.90132845,17.5 5.84982744,17.5 C5.79832643,17.5 5.74894195,17.4795068 5.7125713,17.4430426 L4.89019761,16.6206344 C4.8239245,16.5544355 4.81445965,16.4503178 4.86770932,16.3732527 L4.89019761,16.3461106 L5.90449726,15.3317683 C4.9072577,13.8265402 5.07165489,11.7780807 6.39807656,10.4516033 L7.35770639,9.49193319 C7.43341049,9.41624877 7.55612684,9.41624877 7.63183095,9.49193319 L8.59146077,10.4516033 L9.5510906,9.49193319 C9.6267947,9.41624877 9.74951106,9.41624877 9.82521516,9.49193319 L9.82482743,9.49154544 Z M16.9540046,4.5570961 L17.7763783,5.37950432 C17.812841,5.4158765 17.8333333,5.46526306 17.8333333,5.51676623 C17.8333333,5.56826941 17.812841,5.61765596 17.7763783,5.65402814 L16.7620787,6.66875814 C17.7376054,8.14141558 17.6015124,10.133652 16.3534121,11.4612926 L16.2681116,11.5485354 L15.3088695,12.5082055 C15.2331654,12.5838899 15.1104491,12.5838899 15.034745,12.5082055 L9.82482743,7.29845685 C9.74914619,7.22274956 9.74914619,7.10002805 9.82482743,7.02432077 L10.7844573,6.06465064 C12.0817992,4.76725416 14.0704624,4.58152407 15.5655463,5.50784809 L15.6644172,5.5710506 L16.6791046,4.55670835 C16.7452431,4.49064286 16.8491059,4.48118557 16.9260881,4.53421911 L16.9532292,4.55670835 L16.9540046,4.5570961 Z" id="形状" fill="#FFFFFF" fill-rule="nonzero"></path>
        </g>
    </g>
</svg>