<?xml version="1.0" encoding="UTF-8"?>
<svg width="22px" height="22px" viewBox="0 0 22 22" version="1.1" xmlns="http://www.w3.org/2000/svg" xmlns:xlink="http://www.w3.org/1999/xlink">
    <!-- Generator: Sketch 63.1 (92452) - https://sketch.com -->
    <title>调用存储过程</title>
    <desc>Created with Sketch.</desc>
    <g id="调用存储过程" stroke="none" stroke-width="1" fill="none" fill-rule="evenodd">
        <g id="编组-107">
            <rect id="矩形备份-73" fill="#34C7BE" x="0" y="0" width="22" height="22" rx="4"></rect>
            <path d="M18.231159,14.5706349 C18.2992752,14.7626984 18.3333333,14.9547619 18.3333333,15.1730159 C18.3333333,16.2468254 17.4733657,17.1111111 16.4090493,17.1111111 L6.81317289,17.1111111 C5.74885652,17.1111111 4.88888889,16.2380952 4.88888889,15.1730159 C4.88888889,14.9634921 4.93146154,14.7626984 4.99106326,14.5706349 L6.61733868,5.98015873 C6.70248399,5.36904762 7.19632679,4.90634921 7.80085849,4.88888889 L15.4213637,4.88888889 C16.0088664,4.90634921 16.5112237,5.3515873 16.596369,5.95396825 L18.231159,14.5706349 Z M7.23889944,13.915873 C6.68545493,13.915873 6.23418479,14.3785714 6.23418479,14.9547619 C6.23418479,15.5309524 6.68545493,15.9936508 7.23889944,15.9936508 L15.9748082,15.9936508 C16.5282528,15.9936508 16.9795229,15.5309524 16.9795229,14.9547619 C16.9795229,14.3785714 16.5282528,13.915873 15.9748082,13.915873 L7.23889944,13.915873 Z M9.99760749,9.61190476 C9.40159032,9.61190476 8.92477658,10.0396825 8.92477658,10.5809524 C8.92477658,11.1222222 9.40159032,11.55 9.99760749,11.55 L13.2246147,11.55 C13.8206319,11.55 14.3059602,11.1134921 14.3059602,10.5809524 C14.3059602,10.0484127 13.8291464,9.61190476 13.2331293,9.61190476 C13.2331293,8.80873016 12.5093941,8.15396825 11.6153684,8.15396825 C10.7213426,8.15396825 9.99760749,8.8 9.99760749,9.61190476 L9.99760749,9.61190476 Z" id="形状" fill="#FFFFFF" fill-rule="nonzero"></path>
        </g>
    </g>
</svg>