<?xml version="1.0" encoding="UTF-8"?>
<svg width="30px" height="30px" viewBox="0 0 30 30" version="1.1" xmlns="http://www.w3.org/2000/svg" xmlns:xlink="http://www.w3.org/1999/xlink">
    <!-- Generator: Sketch 63.1 (92452) - https://sketch.com -->
    <title>设备位置树</title>
    <desc>Created with Sketch.</desc>
    <g id="设备位置树" stroke="none" stroke-width="1" fill="none" fill-rule="evenodd">
        <g id="编组-21">
            <rect id="矩形备份-14" x="0" y="0" width="30" height="30"></rect>
            <path d="M9,3 C9.82842712,3 10.5,3.67157288 10.5,4.5 L10.5,21 L13.5,21 L13.5,4.5 C13.5,3.67157288 14.1715729,3 15,3 L19.5,3 C20.3284271,3 21,3.67157288 21,4.5 L21,25.5 C21,26.3284271 20.3284271,27 19.5,27 L15,27 C14.1715729,27 13.5,26.3284271 13.5,25.5 L13.5,24 L10.5,24 L10.5,25.5 C10.5,26.3284271 9.82842712,27 9,27 L4.5,27 C3.67157288,27 3,26.3284271 3,25.5 L3,4.5 C3,3.67157288 3.67157288,3 4.5,3 L9,3 Z M25.5,3 C26.3284271,3 27,3.67157288 27,4.5 L27,25.5 C27,26.3284271 26.3284271,27 25.5,27 C24.6715729,27 24,26.3284271 24,25.5 L24,4.5 C24,3.67157288 24.6715729,3 25.5,3 Z M6,21 C5.17157288,21 4.5,21.6715729 4.5,22.5 C4.5,23.3284271 5.17157288,24 6,24 C6.82842712,24 7.5,23.3284271 7.5,22.5 C7.5,21.6715729 6.82842712,21 6,21 Z M16.5,21 C15.6715729,21 15,21.6715729 15,22.5 C15,23.3284271 15.6715729,24 16.5,24 C17.3284271,24 18,23.3284271 18,22.5 C18,21.6715729 17.3284271,21 16.5,21 Z M7.5,6 L6,6 C5.20635991,6.00088029 4.55075282,6.61981569 4.50424186,7.41209222 C4.45773089,8.20436875 5.03641442,8.89576376 5.8245,8.9895 L6,9 L7.5,9 C8.32842712,9 9,8.32842712 9,7.5 C9,6.67157288 8.32842712,6 7.5,6 Z M18,6 L16.5,6 C15.7063599,6.00088029 15.0507528,6.61981569 15.0042419,7.41209222 C14.9577309,8.20436875 15.5364144,8.89576376 16.3245,8.9895 L16.5,9 L18,9 C18.8284271,9 19.5,8.32842712 19.5,7.5 C19.5,6.67157288 18.8284271,6 18,6 Z" id="形状" fill="#5A80ED"></path>
        </g>
    </g>
</svg>