<?xml version="1.0" encoding="UTF-8"?>
<svg width="30px" height="30px" viewBox="0 0 30 30" version="1.1" xmlns="http://www.w3.org/2000/svg" xmlns:xlink="http://www.w3.org/1999/xlink">
    <!-- Generator: Sketch 63.1 (92452) - https://sketch.com -->
    <title>故障三维</title>
    <desc>Created with Sketch.</desc>
    <g id="故障三维" stroke="none" stroke-width="1" fill="none" fill-rule="evenodd">
        <g id="编组-21">
            <rect id="矩形备份-14" x="0" y="0" width="30" height="30"></rect>
            <path d="M13.5151119,17.8113838 L8.3180917,14.8722099 C8.08838261,14.7379303 7.80536934,14.7379303 7.57566025,14.8722099 L2.37864004,17.8113838 C2.14515507,17.9442661 2.00046156,18.19418 2,18.4653688 L2,24.3061314 C2.00046156,24.5773203 2.14515507,24.8272341 2.37864004,24.9601164 L7.57566025,27.8992904 C7.80536934,28.0335699 8.08838261,28.0335699 8.3180917,27.8992904 L13.5151119,24.9601164 C13.7485969,24.8272341 13.8932904,24.5773203 13.8937774,24.3061314 L13.8937774,18.4728859 C13.8959859,18.1990098 13.7509231,17.9455783 13.5151119,17.8113838 L13.5151119,17.8113838 Z M12.5573754,19.7357535 L8.69673174,21.9382547 L8.69673174,26.2605693 C8.69673174,26.6757256 8.36433386,27.0122762 7.95430029,27.0122762 C7.54426673,27.0122762 7.21186885,26.6757256 7.21186885,26.2605693 L7.21186885,21.0587576 L11.8297925,18.4277835 C12.1865217,18.2202053 12.6419068,18.3447291 12.8469236,18.705915 C13.0519404,19.067101 12.9289532,19.5281753 12.572224,19.7357535 L12.5573754,19.7357535 Z M21.3180666,11.5346312 L21.3180666,5.69386863 C21.317605,5.42267978 21.1729115,5.17276596 20.9394265,5.03988363 L15.7424063,2.10070964 C15.5126972,1.96643012 15.2296839,1.96643012 14.9999748,2.10070964 L9.80295463,5.03988363 C9.56946965,5.17276596 9.42477615,5.42267978 9.42431458,5.69386863 L9.42431458,11.5346312 C9.42477615,11.8058201 9.56946965,12.0557339 9.80295463,12.1886162 L14.9999748,15.1277902 C15.2296839,15.2620697 15.5126972,15.2620697 15.7424063,15.1277902 L20.9394265,12.1886162 C21.1729115,12.0557339 21.317605,11.8058201 21.3180666,11.5346312 L21.3180666,11.5346312 Z M19.9816899,6.96425328 L16.1210464,9.15923741 L16.1210464,13.4815521 C16.1210464,13.8967083 15.7886485,14.233259 15.3786149,14.233259 C14.9685813,14.233259 14.6361834,13.8967083 14.6361834,13.4815521 L14.6361834,8.27974034 L19.2541071,5.64876622 C19.6108363,5.4411881 20.0662214,5.56571184 20.2712382,5.92689777 C20.476255,6.2880837 20.3532678,6.74915808 19.9965386,6.95673622 L19.9816899,6.96425328 Z M27.6213097,17.8113838 L22.4242895,14.8722099 C22.1945804,14.7379303 21.9115671,14.7379303 21.681858,14.8722099 L16.4848378,17.8113838 C16.2513528,17.9442661 16.1066593,18.19418 16.1061977,18.4653688 L16.1061977,24.3061314 C16.1066593,24.5773203 16.2513528,24.8272341 16.4848378,24.9601164 L21.681858,27.8992904 C21.9115671,28.0335699 22.1945804,28.0335699 22.4242895,27.8992904 L27.6213097,24.9601164 C27.8547946,24.8272341 27.9994881,24.5773203 27.9999751,24.3061314 L27.9999751,18.4728859 C28.0021836,18.1990098 27.8571209,17.9455783 27.6213097,17.8113838 Z M26.6635731,19.7357535 L22.8029295,21.9382547 L22.8029295,26.2605693 C22.8029295,26.6757256 22.4705316,27.0122763 22.060498,27.0122763 C21.6504645,27.0122763 21.3180666,26.6757256 21.3180666,26.2605693 L21.3180666,21.0587576 L25.9359902,18.4277835 C26.2927194,18.2202053 26.7481045,18.3447291 26.9531213,18.705915 C27.1581381,19.0671009 27.0351509,19.5281753 26.6784217,19.7357535 L26.6635731,19.7357535 Z" id="形状" fill="#EE5E5E" fill-rule="nonzero"></path>
        </g>
    </g>
</svg>