<?xml version="1.0" encoding="UTF-8"?>
<svg width="30px" height="30px" viewBox="0 0 30 30" version="1.1" xmlns="http://www.w3.org/2000/svg" xmlns:xlink="http://www.w3.org/1999/xlink">
    <!-- Generator: Sketch 63.1 (92452) - https://sketch.com -->
    <title>设备</title>
    <desc>Created with Sketch.</desc>
    <g id="设备" stroke="none" stroke-width="1" fill="none" fill-rule="evenodd">
        <g id="编组-38">
            <rect id="矩形备份-31" x="0" y="0" width="30" height="30"></rect>
            <path d="M4.5,5 L25.5,5 C26.3288,5 27,5.70000615 27,6.56251374 L27,11.8601812 C27,12.7235221 26.328,13.4235282 25.5,13.4235282 L4.5,13.4235282 C3.67157288,13.4235282 3,12.723967 3,11.8610145 L3,6.56251374 C3,5.69917281 3.672,5 4.5,5 Z M6,8.92709593 C6,9.35189869 6.33059294,9.69626936 6.7384,9.69626936 L11.2616,9.69626936 C11.6694071,9.69626936 12,9.35189869 12,8.92709593 C12,8.50229317 11.6694071,8.1579225 11.2616,8.1579225 L6.7384,8.1579225 C6.33059294,8.1579225 6,8.50229317 6,8.92709593 Z M25.5,16.5798825 C26.3288,16.5798825 27,17.2798887 27,18.1423962 L27,23.4349816 C27,24.2974892 26.328,24.996662 25.5,24.996662 L4.5,24.996662 C3.67157288,24.996662 3,24.2971008 3,23.4341483 L3,18.1423962 C3,17.2790553 3.672,16.5790492 4.5,16.5790492 L25.5,16.5798825 Z M6.73839999,19.7369717 C6.33059294,19.7369717 6,20.0813423 6,20.5061451 C6,20.9309478 6.33059294,21.2753185 6.73839999,21.2753185 L11.2616,21.2753185 C11.6694071,21.2753185 12,20.9309478 12,20.5061451 C12,20.0813423 11.6694071,19.7369717 11.2616,19.7369717 L6.73839999,19.7369717 Z" id="形状" fill="#34C7BE"></path>
        </g>
    </g>
</svg>