<?xml version="1.0" encoding="UTF-8"?>
<svg width="48px" height="48px" viewBox="0 0 48 48" version="1.1" xmlns="http://www.w3.org/2000/svg" xmlns:xlink="http://www.w3.org/1999/xlink">
    <!-- Generator: Sketch 63.1 (92452) - https://sketch.com -->
    <title>路线</title>
    <desc>Created with Sketch.</desc>
    <defs>
        <linearGradient x1="50%" y1="0%" x2="50%" y2="100%" id="linearGradient-1">
            <stop stop-color="#7CE2FB" offset="0%"></stop>
            <stop stop-color="#4689F5" offset="100%"></stop>
        </linearGradient>
    </defs>
    <g id="登录" stroke="none" stroke-width="1" fill="none" fill-rule="evenodd">
        <g id="8.0-用户登录" transform="translate(-60.000000, -266.000000)" fill-rule="nonzero">
            <g id="分组-7-copy-5备份-6" transform="translate(30.000000, 236.000000)">
                <g id="路线" transform="translate(30.000000, 30.000000)">
                    <path d="M37.7582908,0 L10.0685587,0 C4.52965561,0 0,4.52965561 0,10.0685587 L0,37.7582908 C0,43.2971939 4.52965561,47.8268495 10.0685587,47.8268495 L37.7582908,47.8268495 C43.2971939,47.8268495 47.8268495,43.2971939 47.8268495,37.7582908 L47.8268495,10.0685587 C47.8268495,4.52965561 43.2971939,0 37.7582908,0 Z" id="路径" fill="url(#linearGradient-1)"></path>
                    <path d="M28.3331845,27.7454982 L28.3456901,27.1632653 C31.2282269,25.2304922 32.6288522,21.8211284 32.6288522,16.7731092 C32.6288522,11.905162 29.4586869,9 24.1438142,9 L23.8561858,9 C18.5475659,9 15.3711478,11.905162 15.3711478,16.7731092 C15.3711478,21.7971189 16.7842787,25.2064826 19.6918267,27.1512605 L19.6918267,27.7394958 C14.8521661,28.3637455 10,30.212485 10,33.0396158 C10,36.9951981 14.7083519,39 24,39 C33.2916481,39 38,36.9951981 38,33.0396158 C38,30.2184874 33.1603395,28.3697479 28.3331845,27.7454982 Z" id="路径" fill="#FFFFFF"></path>
                </g>
            </g>
        </g>
    </g>
</svg>