<?xml version="1.0" encoding="UTF-8"?>
<svg width="30px" height="30px" viewBox="0 0 30 30" version="1.1" xmlns="http://www.w3.org/2000/svg" xmlns:xlink="http://www.w3.org/1999/xlink">
    <!-- Generator: Sketch 63.1 (92452) - https://sketch.com -->
    <title>卡片</title>
    <desc>Created with Sketch.</desc>
    <g id="卡片" stroke="none" stroke-width="1" fill="none" fill-rule="evenodd">
        <g id="编组-38">
            <rect id="矩形备份-31" x="0" y="0" width="30" height="30"></rect>
            <path d="M27,10.2625 L27,8.84 C27,7.2725 25.7083841,6 24.1173366,6 L5.88266342,6 C4.29161592,6 3,7.2725 3,8.84 L3,10.2625 L27,10.2625 Z M3,12.6325 L3,21.16 C3,22.7275 4.28907836,24 5.88266342,24 L24.1173366,24 C25.7083841,24 27,22.7275 27,21.16 L27,12.6325 L3,12.6325 Z M24.1224117,21.1575 L21.2270605,21.1575 C20.9631547,21.1575 20.7525376,20.9475 20.7525376,20.69 L20.7525376,18.785 C20.7525376,18.525 20.9656922,18.3175 21.2270605,18.3175 L24.1224117,18.3175 C24.3863175,18.3175 24.5969346,18.5275 24.5969346,18.785 L24.5969346,20.69 C24.5969346,20.95 24.3837799,21.1575 24.1224117,21.1575 Z" id="形状" fill="#EE5E5E" fill-rule="nonzero"></path>
        </g>
    </g>
</svg>