<?xml version="1.0" encoding="UTF-8"?>
<svg width="30px" height="30px" viewBox="0 0 30 30" version="1.1" xmlns="http://www.w3.org/2000/svg" xmlns:xlink="http://www.w3.org/1999/xlink">
    <!-- Generator: Sketch 63.1 (92452) - https://sketch.com -->
    <title>柱状图</title>
    <desc>Created with Sketch.</desc>
    <g id="柱状图" stroke="none" stroke-width="1" fill="none" fill-rule="evenodd">
        <g id="编组-44">
            <rect id="矩形备份-37" x="0" y="0" width="30" height="30"></rect>
            <path d="M7.8,8.81818182 C8.86038672,8.81818182 9.72,9.6777951 9.72,10.7381818 L9.72,24.08 C9.72,25.1403867 8.86038672,26 7.8,26 L4.92,26 C3.85961328,26 3,25.1403867 3,24.08 L3,10.7381818 C3,9.6777951 3.85961328,8.81818182 4.92,8.81818182 L7.8,8.81818182 Z M16.44,4 C17.5003867,4 18.36,4.85961328 18.36,5.92 L18.36,24.08 C18.36,25.1403867 17.5003867,26 16.44,26 L13.56,26 C12.4996133,26 11.64,25.1403867 11.64,24.08 L11.64,5.92 C11.64,4.85961328 12.4996133,4 13.56,4 L16.44,4 Z M25.08,12.6363636 C26.1403867,12.6363636 27,13.4959769 27,14.5563636 L27,24.08 C27,25.1403867 26.1403867,26 25.08,26 L22.2,26 C21.1396133,26 20.28,25.1403867 20.28,24.08 L20.28,14.5563636 C20.28,13.4959769 21.1396133,12.6363636 22.2,12.6363636 L25.08,12.6363636 Z" id="形状结合" fill="#EE5E5E"></path>
        </g>
    </g>
</svg>