<?xml version="1.0" encoding="UTF-8"?>
<svg width="30px" height="30px" viewBox="0 0 30 30" version="1.1" xmlns="http://www.w3.org/2000/svg" xmlns:xlink="http://www.w3.org/1999/xlink">
    <!-- Generator: Sketch 63.1 (92452) - https://sketch.com -->
    <title>日历</title>
    <desc>Created with Sketch.</desc>
    <g id="日历" stroke="none" stroke-width="1" fill="none" fill-rule="evenodd">
        <g id="编组-44">
            <rect id="矩形备份-37" x="0" y="0" width="30" height="30"></rect>
            <path d="M13.5937341,20.6250064 L16.4062404,20.6250064 L16.4062404,17.8125096 L13.5937341,17.8125096 L13.5937341,20.6250064 Z M9.37501275,16.4062612 L12.1875191,16.4062612 L12.1875191,13.5937643 L9.37501275,13.5937643 L9.37501275,16.4062612 L9.37501275,16.4062612 Z M9.37501275,20.6250064 L12.1875191,20.6250064 L12.1875191,17.8125096 L9.37501275,17.8125096 L9.37501275,20.6250064 L9.37501275,20.6250064 Z M23.4374936,3.75 L20.6250127,3.75 L20.6250127,5.15624841 C20.6250127,5.93357357 19.9952745,6.56252231 19.2187468,6.56252231 C18.4422192,6.56252231 17.8124809,5.93357357 17.8124809,5.1562739 L17.8124809,3.75 L12.1874681,3.75 L12.1874681,5.15624841 C12.1874681,5.93357357 11.5585203,6.56252231 10.7812277,6.56252231 C10.0045726,6.56252231 9.37496175,5.93357357 9.37496175,5.1562739 L9.37496175,3.75 L6.56250637,3.75 C5.0092981,3.75 3.75,5.00927441 3.75,6.56249681 L3.75,23.4375032 C3.75,24.9907256 5.0092981,26.25 6.56250637,26.25 L23.4374936,26.25 C24.9907274,26.25 26.25,24.9907256 26.25,23.4375032 L26.25,6.56252231 C26.25,5.00927441 24.9907274,3.75 23.4374936,3.75 Z M23.4374936,22.0312803 C23.4374936,22.8086054 22.8077808,23.4375287 22.0312532,23.4375287 L7.96872132,23.4375287 C7.19209168,23.4375287 6.56245538,22.8086054 6.56245538,22.0312803 L6.56245538,12.1875159 C6.56245538,11.4101908 7.19209168,10.781242 7.96872132,10.781242 L22.0312277,10.781242 C22.8077553,10.781242 23.4374936,11.4101908 23.4374936,12.1874904 L23.4374936,22.0312803 L23.4374936,22.0312803 Z M17.8125064,16.4062867 L20.6250127,16.4062867 L20.6250127,13.5937898 L17.8125064,13.5937898 L17.8125064,16.4062867 L17.8125064,16.4062867 Z M13.5937341,16.4062867 L16.4062404,16.4062867 L16.4062404,13.5937898 L13.5937341,13.5937898 L13.5937341,16.4062867 L13.5937341,16.4062867 Z M17.8125064,20.6250319 L20.6250127,20.6250319 L20.6250127,17.8125351 L17.8125064,17.8125351 L17.8125064,20.6250319 L17.8125064,20.6250319 Z" id="形状" fill="#FC8256"></path>
        </g>
    </g>
</svg>