<?xml version="1.0" encoding="UTF-8"?>
<svg width="30px" height="30px" viewBox="0 0 30 30" version="1.1" xmlns="http://www.w3.org/2000/svg" xmlns:xlink="http://www.w3.org/1999/xlink">
    <!-- Generator: Sketch 63.1 (92452) - https://sketch.com -->
    <title>柱线混合</title>
    <desc>Created with Sketch.</desc>
    <g id="柱线混合" stroke="none" stroke-width="1" fill="none" fill-rule="evenodd">
        <g id="编组-44">
            <rect id="矩形备份-37" x="0" y="0" width="30" height="30"></rect>
            <path d="M26.0769231,11.4683848 C26.5867244,11.4683848 27,11.8816604 27,12.3914617 L27,26.0769231 C27,26.5867244 26.5867244,27 26.0769231,27 L24.2307692,27 C23.7209679,27 23.3076923,26.5867244 23.3076923,26.0769231 L23.3076923,12.3914617 C23.3076923,11.8816604 23.7209679,11.4683848 24.2307692,11.4683848 L26.0769231,11.4683848 Z M5.76923077,20.604629 C6.27903208,20.604629 6.69230769,21.0179046 6.69230769,21.527706 L6.69230769,26.0769231 C6.69230769,26.5867244 6.27903208,27 5.76923077,27 L3.92307692,27 C3.41327562,27 3,26.5867244 3,26.0769231 L3,21.527706 C3,21.0179046 3.41327562,20.604629 3.92307692,20.604629 L5.76923077,20.604629 Z M12.2307692,15.1228825 C12.7405705,15.1228825 13.1538462,15.5361581 13.1538462,16.0459594 L13.1538462,26.0769231 C13.1538462,26.5867244 12.7405705,27 12.2307692,27 L10.3846154,27 C9.87481408,27 9.46153846,26.5867244 9.46153846,26.0769231 L9.46153846,16.0459594 C9.46153846,15.5361581 9.87481408,15.1228825 10.3846154,15.1228825 L12.2307692,15.1228825 Z M19.6153846,17.8637558 C20.1251859,17.8637558 20.5384615,18.2770314 20.5384615,18.7868327 L20.5384615,26.0769231 C20.5384615,26.5867244 20.1251859,27 19.6153846,27 L17.7692308,27 C17.2594295,27 16.8461538,26.5867244 16.8461538,26.0769231 L16.8461538,18.7868327 C16.8461538,18.2770314 17.2594295,17.8637558 17.7692308,17.8637558 L19.6153846,17.8637558 Z M26.8557383,3 C26.8923269,3 26.9289154,3 26.965504,3.03563135 C26.9898963,3.05938559 27.0142887,3.09501694 26.9898963,3.13064829 L26.9898963,3.13064829 L26.9898963,9.52053752 C26.9898963,9.5799231 26.9533078,9.60367734 26.9045231,9.63930869 C26.8557383,9.65118581 26.7947574,9.63930869 26.7581688,9.60367734 L26.7581688,9.60367734 L24.331128,7.39453348 L14.915673,15.03152 L9.68350951,10.779512 L3,17.2881724 L3,14.4732955 L9.69570569,7.96463512 L14.9034768,12.2285203 L22.684643,5.89801667 L19.7331661,3.22566523 C19.6965776,3.17815676 19.6843814,3.13064829 19.6965776,3.08313982 C19.7087738,3.03563135 19.7819509,3 19.8307356,3 L19.8307356,3 Z" id="形状结合" fill="#FAB71C" fill-rule="nonzero"></path>
        </g>
    </g>
</svg>