<?xml version="1.0" encoding="UTF-8"?>
<svg width="30px" height="30px" viewBox="0 0 30 30" version="1.1" xmlns="http://www.w3.org/2000/svg" xmlns:xlink="http://www.w3.org/1999/xlink">
    <!-- Generator: Sketch 63.1 (92452) - https://sketch.com -->
    <title>线条</title>
    <desc>Created with Sketch.</desc>
    <g id="线条" stroke="none" stroke-width="1" fill="none" fill-rule="evenodd">
        <g id="编组-24">
            <rect id="矩形备份-15" x="0" y="0" width="30" height="30"></rect>
            <rect id="矩形" fill="#FAB71C" x="3" y="3" width="24" height="24" rx="2.5"></rect>
            <path d="M8.5,19.0336364 L8.5,20.0336364 L5.5,20.0336364 L5.5,19.0336364 L8.5,19.0336364 Z M12.5,19.0336364 L12.5,20.0336364 L9.5,20.0336364 L9.5,19.0336364 L12.5,19.0336364 Z M16.5,19.0336364 L16.5,20.0336364 L13.5,20.0336364 L13.5,19.0336364 L16.5,19.0336364 Z M20.5,19.0336364 L20.5,20.0336364 L17.5,20.0336364 L17.5,19.0336364 L20.5,19.0336364 Z M24.5,19.0336364 L24.5,20.0336364 L21.5,20.0336364 L21.5,19.0336364 L24.5,19.0336364 Z M24.5,16.0336364 L24.5,17.0336364 L5.5,17.0336364 L5.5,16.0336364 L24.5,16.0336364 Z M7.97340539,10 L9.74396491,11.7431501 L7.52659461,13.9386961 L5.75603509,12.195546 L7.97340539,10 Z M12.9734054,10 L14.7439649,11.7431501 L12.5265946,13.9386961 L10.7560351,12.195546 L12.9734054,10 Z M17.9734054,10 L19.7439649,11.7431501 L17.5265946,13.9386961 L15.7560351,12.195546 L17.9734054,10 Z M22.9734054,10 L24.7439649,11.7431501 L22.5265946,13.9386961 L20.7560351,12.195546 L22.9734054,10 Z" id="形状结合" fill="#FFFFFF"></path>
        </g>
    </g>
</svg>