<?xml version="1.0" encoding="UTF-8"?>
<svg width="30px" height="30px" viewBox="0 0 30 30" version="1.1" xmlns="http://www.w3.org/2000/svg" xmlns:xlink="http://www.w3.org/1999/xlink">
    <!-- Generator: Sketch 63.1 (92452) - https://sketch.com -->
    <title>天气</title>
    <desc>Created with Sketch.</desc>
    <g id="天气" stroke="none" stroke-width="1" fill="none" fill-rule="evenodd">
        <g id="编组-44">
            <rect id="矩形备份-37" x="0" y="0" width="30" height="30"></rect>
            <path d="M10.6138254,7.89779201 C11.9811921,7.89640076 13.2938898,8.43455892 14.2667855,9.39537512 C15.7782752,8.3539077 17.6270683,7.79115595 19.5616361,7.91460201 C23.7924165,8.18235822 27.2413718,11.7124518 27.4140804,15.9519256 C27.5079689,18.2649454 26.6791996,20.4556782 25.0801965,22.1207511 C23.4800342,23.7875627 21.3269727,24.7050045 19.0174302,24.7050045 L19.0174302,24.7050045 L8.58536903,24.7050045 C7.01562175,24.7041171 5.52072901,24.0339346 4.47571647,22.8625866 C3.42949722,21.6847872 2.93531923,20.1166576 3.11723029,18.5518271 C3.30500739,16.9087774 4.26243879,15.4552436 5.60875424,14.5766322 C5.14776932,13.0005667 5.45605826,11.2994282 6.44080679,9.98536593 C7.42555532,8.67130362 8.97172627,7.89779201 10.6138254,7.89779201 Z M10.6138254,9.63647165 C8.69664433,9.63647165 7.13647163,11.1966444 7.13647163,13.1138254 C7.13887183,13.3661857 7.16919345,13.6175054 7.22688282,13.8631951 C7.40075051,13.8185691 7.57693645,13.7803182 7.75659972,13.7536585 C8.81979169,13.5922007 9.90699206,13.7457305 10.8838999,14.1952824 C11.2430509,12.8170606 11.9496276,11.5539625 12.9361181,10.5266742 C12.3009215,9.95754732 11.4767886,9.63647165 10.6138254,9.63647165 Z M3.36933843,10.2160306 C3.84946079,10.2160306 4.23867687,10.6052467 4.23867687,11.085369 C4.23867687,11.5654914 3.84946079,11.9547075 3.36933843,11.9547075 C2.88921607,11.9547075 2.5,11.5654914 2.5,11.085369 C2.5,10.6052467 2.88921607,10.2160306 3.36933843,10.2160306 Z M5.1080153,6.73867687 C5.58813766,6.73867687 5.97735373,7.12789294 5.97735373,7.6080153 C5.97735373,8.08813766 5.58813766,8.47735373 5.1080153,8.47735373 C4.62789294,8.47735373 4.23867687,8.08813766 4.23867687,7.6080153 C4.23867687,7.12789294 4.62789294,6.73867687 5.1080153,6.73867687 Z M8.58536903,5 C9.06549139,5 9.45470747,5.38921607 9.45470747,5.86933843 C9.45470747,6.34946079 9.06549139,6.73867687 8.58536903,6.73867687 C8.10524667,6.73867687 7.7160306,6.34946079 7.7160306,5.86933843 C7.7160306,5.38921607 8.10524667,5 8.58536903,5 Z M12.0627228,5 C12.5428451,5 12.9320612,5.38921607 12.9320612,5.86933843 C12.9320612,6.34946079 12.5428451,6.73867687 12.0627228,6.73867687 C11.5826004,6.73867687 11.1933843,6.34946079 11.1933843,5.86933843 C11.1933843,5.38921607 11.5826004,5 12.0627228,5 Z" id="形状结合" fill="#EE5E5E"></path>
        </g>
    </g>
</svg>