<?xml version="1.0" encoding="UTF-8"?>
<svg width="18px" height="18px" viewBox="0 0 18 18" version="1.1" xmlns="http://www.w3.org/2000/svg" xmlns:xlink="http://www.w3.org/1999/xlink">
    <title>文件夹常态</title>
    <g id="文件夹常态" stroke="none" stroke-width="1" fill="none" fill-rule="evenodd">
        <g id="树结构/分组-收起" transform="translate(0.900000, 1.800000)" fill="#FAB71C">
            <path d="M16.2,5.14511719 L16.2,12.8571429 C16.2,13.7092393 15.5092393,14.4 14.6571429,14.4 L1.54285714,14.4 C0.690760672,14.4 3.26396327e-16,13.7092393 0,12.8571429 L0,5.14511719 L16.2,5.14511719 Z M7.10547214,1.27897692e-13 C7.3275422,1.27897692e-13 7.61116348,0.0561225414 7.8056321,0.153296048 L7.91040932,0.216405695 L10.4526706,2.05937151 L15.6539296,2.05937151 C15.9196838,2.05937151 16.1493975,2.26250972 16.1926827,2.51839833 L16.2,2.60544196 L16.2,4.03136906 L0,4.03136906 L0,1.19326505 C0,0.575143641 0.469279289,0.0672317635 1.07120997,0.00615731559 L1.19326505,1.27897692e-13 L7.10547214,1.27897692e-13 Z" id="文件夹-关闭"></path>
        </g>
    </g>
</svg>