<?xml version="1.0" encoding="UTF-8"?>
<svg width="18px" height="18px" viewBox="0 0 18 18" version="1.1" xmlns="http://www.w3.org/2000/svg" xmlns:xlink="http://www.w3.org/1999/xlink">
    <title>文件夹展开</title>
    <g id="文件夹展开" stroke="none" stroke-width="1" fill="none" fill-rule="evenodd">
        <g id="树结构/分组-展开">
            <rect id="矩形" x="0" y="0" width="18" height="18"></rect>
            <path d="M16.0886794,6.6093642 C16.6476242,6.6093642 17.1,7.07359502 17.1,7.64638107 L15.3293316,15.1635146 C15.1930253,15.7274014 14.8751207,16.2 14.3162686,16.2 L1.65942193,16.2 L3.43192546,7.64638105 C3.53653851,7.06453342 3.8942211,6.6093642 4.45307318,6.6093642 L16.0886794,6.6093642 Z M6.99779775,1.8 C7.21986781,1.8 7.50348908,1.85612254 7.69795771,1.95329605 L7.80273493,2.0164057 L10.3449962,3.8588065 L14.5295088,3.8588065 C14.7952631,3.8588065 15.0249768,4.06194471 15.0682619,4.31783332 L15.0755793,4.40487695 L15.0755793,5.83136906 L3.78100009,5.83136906 C3.26513663,5.83136906 2.82756343,6.21805007 2.69850999,6.73654355 L0.9,15.1635146 L0.9,2.99326505 C0.9,2.37514364 1.36927929,1.86723176 1.97120997,1.80615732 L2.09326505,1.8 L6.99779775,1.8 Z" id="文件夹-打开" fill="#FAB71C" fill-rule="nonzero"></path>
        </g>
    </g>
</svg>