<?xml version="1.0" encoding="UTF-8"?>
<svg width="60px" height="60px" viewBox="0 0 60 60" version="1.1" xmlns="http://www.w3.org/2000/svg" xmlns:xlink="http://www.w3.org/1999/xlink">
    <!-- Generator: Sketch 63.1 (92452) - https://sketch.com -->
    <title>知识库(60)/企业文件(选中)</title>
    <desc>Created with Sketch.</desc>
    <g id="知识库(60)/企业文件(选中)" stroke="none" stroke-width="1" fill="none" fill-rule="evenodd">
        <rect id="Rectangle-26-Copy" x="0" y="0" width="60" height="60"></rect>
        <path d="M20,19 L27.5620568,19 L27.5620568,19 L32.7528103,23.8333333 L48,23.8333333 C49.6568542,23.8333333 51,25.1764791 51,26.8333333 L51,45 C51,46.6568542 49.6568542,48 48,48 L20,48 C18.3431458,48 17,46.6568542 17,45 L17,22 C17,20.3431458 18.3431458,19 20,19 Z" id="矩形备份-4" fill="#4689F5"></path>
        <path d="M25.0472467,12 L31.4593539,18 L48,18 C49.6568542,18 51,19.3431458 51,21 L51,45 C51,46.6568542 49.6568542,48 48,48 L12,48 C10.3431458,48 9,46.6568542 9,45 L9,15 C9,13.3431458 10.3431458,12 12,12 L25.0472467,12 Z M23.468,16 L13,16 L13,44 L47,44 L47,22 L29.8797445,22 L23.468,16 Z" id="矩形备份-4" fill="#444444" fill-rule="nonzero"></path>
        <path d="M44,18 L44,33 L38.5,30.0068108 L33,33 L33,18 L44,18 Z M40,22 L37,22 L37,26.268 L38.5,25.4528301 L40,26.269 L40,22 Z" id="矩形备份" fill="#444444" fill-rule="nonzero"></path>
    </g>
</svg>