<?xml version="1.0" encoding="UTF-8"?>
<svg width="30px" height="30px" viewBox="0 0 30 30" version="1.1" xmlns="http://www.w3.org/2000/svg" xmlns:xlink="http://www.w3.org/1999/xlink">
    <!-- Generator: Sketch 63.1 (92452) - https://sketch.com -->
    <title>审批</title>
    <desc>Created with Sketch.</desc>
    <g id="审批" stroke="none" stroke-width="1" fill="none" fill-rule="evenodd">
        <g id="编组-44">
            <rect id="矩形备份-37" x="0" y="0" width="30" height="30"></rect>
            <path d="M21.4906896,16.6244794 C22.8239302,16.6244794 23.9086221,17.7083998 23.9086221,19.040692 C23.9086221,20.1052521 23.2119211,21.0006645 22.2529055,21.3224016 L22.2529055,21.3224016 L22.2529055,22.4509016 L24.729725,22.4509016 C25.4297401,22.4509016 26,23.0197368 26,23.7202729 L26,23.7202729 L26,25.2306287 C26,25.9314195 25.4297401,26.5 24.729725,26.5 L24.729725,26.5 L18.2516541,26.5 C17.5513841,26.5 16.9813791,25.9311647 16.9813791,25.2306287 L16.9813791,25.2306287 L16.9813791,23.7202729 C16.9813791,23.0197368 17.551639,22.4509016 18.2516541,22.4509016 L18.2516541,22.4509016 L20.7284736,22.4509016 L20.7284736,21.3224016 C19.7694581,21.0006645 19.072757,20.1052521 19.072757,19.040692 C19.072757,17.7083998 20.1574489,16.6244794 21.4906896,16.6244794 Z M21.6673087,3.5 C22.6350708,3.5 23.2427666,4.00265557 23.2427666,5.01546609 L23.2427666,5.01546609 L23.2427666,16.0946194 C22.7290993,15.7884215 22.1313079,15.6090843 21.4906896,15.6090843 C19.5968761,15.6090843 18.056639,17.1487352 18.056639,19.040692 C18.056639,19.9575027 18.4239812,20.809864 19.0411467,21.4355064 L19.0411467,21.4355064 L18.2516541,21.4355064 C16.9908112,21.4355064 15.9652611,22.460327 15.9652611,23.7202729 L15.9652611,23.7202729 L15.9652611,25.2303739 C15.9652611,25.6998604 16.1082722,26.1364855 16.3522323,26.4997453 L16.3522323,26.4997453 L5.66226543,26.4997453 C4.61190399,26.4997453 4,25.8982704 4,25.0308977 L4,25.0308977 L4,5.01546609 C4,4.04642336 4.60557006,3.5 5.66226543,3.5 L5.66226543,3.5 Z M14.9269649,18.2492136 L8.14120346,18.2492136 C7.71981785,18.2492136 7.3789875,18.5905657 7.3789875,19.0108874 C7.3789875,19.4314638 7.72007277,19.7725611 8.14120346,19.7725611 L8.14120346,19.7725611 L14.92671,19.7725611 C15.3470759,19.7725611 15.688926,19.4314638 15.6891809,19.0108874 C15.6891809,18.590311 15.3473309,18.2492136 14.9269649,18.2492136 L14.9269649,18.2492136 Z M19.0903466,14.052111 L8.14120346,14.052111 C7.71981785,14.052111 7.3789875,14.3932084 7.3789875,14.8137848 C7.3789875,15.2343612 7.72007277,15.5754585 8.14120346,15.5754585 L8.14120346,15.5754585 L19.0903466,15.5754585 C19.5117322,15.5754585 19.8525625,15.2343612 19.8525625,14.8137848 C19.8525625,14.3932084 19.5114773,14.052111 19.0903466,14.052111 L19.0903466,14.052111 Z M19.0903466,9.59262582 L8.14120346,9.59262582 C7.71981785,9.59262582 7.3789875,9.93397794 7.3789875,10.3542996 C7.3789875,10.774876 7.72007277,11.1159733 8.14120346,11.1159733 L8.14120346,11.1159733 L19.0903466,11.1159733 C19.5117322,11.1159733 19.8525625,10.774876 19.8525625,10.3542996 C19.8525625,9.9337232 19.5114773,9.59262582 19.0903466,9.59262582 L19.0903466,9.59262582 Z" id="形状结合" fill="#EE5E5E"></path>
        </g>
    </g>
</svg>