<?xml version="1.0" encoding="UTF-8"?>
<svg width="30px" height="30px" viewBox="0 0 30 30" version="1.1" xmlns="http://www.w3.org/2000/svg" xmlns:xlink="http://www.w3.org/1999/xlink">
    <!-- Generator: Sketch 63.1 (92452) - https://sketch.com -->
    <title>背景框</title>
    <desc>Created with Sketch.</desc>
    <g id="背景框" stroke="none" stroke-width="1" fill="none" fill-rule="evenodd">
        <g id="编组-22">
            <rect id="矩形备份-17" x="0" y="0" width="30" height="30"></rect>
            <rect id="矩形" fill="#FC8256" x="3" y="3" width="24" height="24" rx="2.5"></rect>
            <path d="M18.2276547,16.8990878 L22.8643289,25.4502123 C23.2465212,26.1469243 22.775447,27.0092225 22.0229133,26.9999255 L7.5825616,26.9999255 C7.13815193,26.9999255 6.85372974,26.4843453 7.07889731,26.0719418 L9.86090186,20.9481405 C10.2253178,20.2764227 11.0430316,20.2764227 11.4104103,20.9481405 L12.4325525,22.8258262 L15.6500785,16.8990878 C16.2485502,15.7899723 17.629183,15.7899723 18.2276547,16.8990878 Z M10.7734231,13 C11.5911369,13 12.2547886,13.6998363 12.2547886,14.5621345 C12.2547886,15.4244328 11.5911369,16.1242691 10.7734231,16.1242691 C9.95570926,16.1242691 9.29205748,15.4244328 9.29205748,14.5621345 C9.29205748,13.6998363 9.95570926,13 10.7734231,13 Z" id="形状结合" fill="#FFFFFF" opacity="0.304292225"></path>
            <path d="M14.9145016,10 L15.8167915,10.9677419 L7.39541911,20 L6.49312921,19.0322581 L14.9145016,10 Z M22.5706854,10 L23.4729753,10.9677419 L15.0516028,20 L14.1493129,19.0322581 L22.5706854,10 Z M9.21068622,12.2580645 L10.1129761,13.2258065 L5.9022899,17.7419355 L5,16.7741935 L9.21068622,12.2580645 Z M16.6372504,12.2580645 L17.5395403,13.2258065 L13.3288541,17.7419355 L12.4265642,16.7741935 L16.6372504,12.2580645 Z M24.0977101,12.2580645 L25,13.2258065 L20.7893138,17.7419355 L19.8870239,16.7741935 L24.0977101,12.2580645 Z" id="形状结合" fill="#FFFFFF"></path>
        </g>
    </g>
</svg>