<?xml version="1.0" encoding="UTF-8"?>
<svg width="30px" height="30px" viewBox="0 0 30 30" version="1.1" xmlns="http://www.w3.org/2000/svg" xmlns:xlink="http://www.w3.org/1999/xlink">
    <!-- Generator: Sketch 63.1 (92452) - https://sketch.com -->
    <title>轮播图</title>
    <desc>Created with Sketch.</desc>
    <g id="轮播图" stroke="none" stroke-width="1" fill="none" fill-rule="evenodd">
        <g id="编组-43">
            <rect id="矩形备份-34" x="0" y="0" width="30" height="30"></rect>
            <path d="M6.60023461,23.4751452 C6.60023461,23.4751452 7.74749676,16.7169238 10.0314634,16.7169238 C12.3189493,16.7169238 12.0467971,18.6041777 13.7641711,18.6041777 C15.4850643,18.6041777 16.1947715,12.7861098 18.5033726,12.7861098 C20.8131468,12.7861098 23.4032846,23.4786187 23.4032846,23.4786187 L6.60023461,23.4786187 L6.60023461,23.4751452 L6.60023461,23.4751452 Z M10.1006745,10.0710114 C11.2620135,10.0710114 12.2004692,10.9799036 12.2004692,12.1076246 C12.2004692,13.2341878 11.2620135,14.1442379 10.1006745,14.1442379 C8.93933555,14.1442379 8.00087982,13.2341878 8.00087982,12.1064668 C8.00087982,10.9799036 8.93933555,10.0710114 10.1006745,10.0710114 L10.1006745,10.0710114 Z M23.3997654,6.00004991 L6.60023461,6.00004991 C5.82600863,6.00004991 5.19841634,6.60911627 5.19841634,7.3582287 L5.19841634,23.6418719 C5.19841634,24.3944578 5.8271817,25 6.60023461,25 L23.4032846,25 C24.1763375,25 24.8051029,24.3944578 24.8051029,23.6418719 L24.8051029,7.3582287 C24.7954407,6.60082159 24.1671785,5.99366457 23.3997654,6.00004991 Z M26.1998827,10.0710031 L27.6110855,10.0710031 C28.3714819,10.0684218 28.9916272,10.6717193 29,11.4221925 L29,19.5721189 C29,20.3200735 28.3618501,20.9233001 27.6110855,20.9233001 L26.1998827,20.9233001 L26.1998827,10.0710031 Z M3.80011731,10.0710114 L2.38891449,10.0710114 C1.63814991,10.0710114 1,10.6765536 1,11.4221925 L1,19.5721189 C1,20.3119687 1.62172692,20.9233001 2.38891449,20.9233001 L3.80011731,20.9233001 L3.80011731,10.0710114 L3.80011731,10.0710114 Z" id="形状" fill="#34C7BE"></path>
        </g>
    </g>
</svg>