<?xml version="1.0" encoding="UTF-8"?>
<svg width="30px" height="30px" viewBox="0 0 30 30" version="1.1" xmlns="http://www.w3.org/2000/svg" xmlns:xlink="http://www.w3.org/1999/xlink">
    <!-- Generator: Sketch 63.1 (92452) - https://sketch.com -->
    <title>数据切换</title>
    <desc>Created with Sketch.</desc>
    <g id="数据切换" stroke="none" stroke-width="1" fill="none" fill-rule="evenodd">
        <g id="编组-33">
            <rect id="矩形备份-26" x="0" y="0" width="30" height="30"></rect>
            <rect id="形状结合" fill="#FC8256" x="3" y="3" width="24" height="24" rx="2"></rect>
            <path d="M20.3525641,16.1775228 C20.775641,16.1775228 21.1987179,16.3330741 21.5192308,16.6441766 C21.8397436,16.955279 22,17.3659343 22,17.7765895 C22,17.7859226 21.9967949,17.7952557 21.9967949,17.8014777 L21.9967949,17.8543652 C21.9967949,17.8699203 21.9935897,17.8854754 21.9935897,17.9041416 C21.9935897,17.9134746 21.9935897,17.9228077 21.9903846,17.9321408 C21.9903846,17.9476959 21.9871795,17.963251 21.9839744,17.9788061 C21.9839744,17.9881392 21.9807692,18.0005833 21.9807692,18.0099164 L21.974359,18.0472487 L21.974359,18.0472487 C21.9711538,18.0596928 21.9679487,18.0752479 21.9679487,18.087692 C21.9647436,18.0970251 21.9647436,18.1063582 21.9615385,18.1125802 C21.9583333,18.1312464 21.9519231,18.1499125 21.9487179,18.1685787 C21.9487179,18.1716897 21.9455128,18.1748007 21.9455128,18.1779117 C21.875,18.4423488 21.7339744,18.6943418 21.5192308,18.9027805 L17.7788462,22.5333463 C17.1378205,23.1555512 16.0897436,23.1555512 15.4519231,22.5333463 C14.8108974,21.9111414 14.8108974,20.8938363 15.4519231,20.2747424 L16.3782051,19.3756562 L9.6474359,19.3756562 C8.74038462,19.3756562 8,18.6570095 8,17.7765895 C8,16.8961696 8.74038462,16.1775228 9.6474359,16.1775228 L20.3525641,16.1775228 Z M14.5416667,7.4666537 C15.1826923,8.08885864 15.1826923,9.10616372 14.5416667,9.72525763 L13.6217949,10.6212327 L20.3525641,10.6212327 C21.2564103,10.6212327 22,11.3398794 22,12.2171884 C22,13.0976084 21.2596154,13.8162551 20.3525641,13.8162551 L9.6474359,13.8162551 C9.22435897,13.8162551 8.80128205,13.6607039 8.48076923,13.3496014 C8.16025641,13.0384989 8,12.6278437 8,12.2171884 L8,12.1425238 C8,12.1269687 8.00320513,12.1083025 8.00320513,12.0927474 C8.00320513,12.0834143 8.00320513,12.0740813 8.00641026,12.0647482 C8.00641026,12.0491931 8.00961538,12.033638 8.01282051,12.0180828 L8.01602564,11.9869726 L8.01602564,11.9869726 C8.01923077,11.9745285 8.01923077,11.9620844 8.0224359,11.9496403 C8.02564103,11.9371962 8.02884615,11.9216411 8.02884615,11.909197 C8.03205128,11.8998639 8.03205128,11.8905308 8.03525641,11.8843088 C8.03846154,11.8656426 8.04487179,11.8469765 8.04807692,11.8283103 C8.04807692,11.8251993 8.05128205,11.8220883 8.05128205,11.8189773 C8.12179487,11.5545402 8.26282051,11.3025472 8.4775641,11.0941085 L12.2147436,7.4666537 C12.8557692,6.84444877 13.9038462,6.84444877 14.5416667,7.4666537 Z" id="形状结合" fill="#FFFFFF" fill-rule="nonzero"></path>
        </g>
    </g>
</svg>