<?xml version="1.0" encoding="UTF-8"?>
<svg width="30px" height="30px" viewBox="0 0 30 30" version="1.1" xmlns="http://www.w3.org/2000/svg" xmlns:xlink="http://www.w3.org/1999/xlink">
    <!-- Generator: Sketch 63.1 (92452) - https://sketch.com -->
    <title>漏斗图</title>
    <desc>Created with Sketch.</desc>
    <g id="漏斗图" stroke="none" stroke-width="1" fill="none" fill-rule="evenodd">
        <g id="编组-44">
            <rect id="矩形备份-37" x="0" y="0" width="30" height="30"></rect>
            <path d="M23.4076231,13.681362 L6.4271626,13.681362 L9.06431254,18.0712172 L20.7008454,18.0712172 L23.4076231,13.681362 L23.4076231,13.681362 Z M24.7972764,11.6050375 L27.7303441,6.84551017 C27.7332453,6.83934897 27.7390476,6.83318777 27.7419487,6.82702657 C27.7796638,6.77465637 27.8144776,6.71920556 27.8463903,6.65759356 L27.8550938,6.63910996 L27.9073146,6.55593375 C27.9189192,6.53745015 27.9276227,6.51896655 27.9363261,6.49740235 C28.1190989,5.94289432 27.89571,5.31753248 27.428624,5.08648747 C27.3096766,5.02487546 27.1820258,4.99715006 27.0514738,5.00023066 L2.90806153,5.00023066 C2.40616171,5.01871426 2,5.50236849 2,6.10000493 C2,6.25095434 2.10734274,6.64219056 2.30462128,6.91328338 C2.36554554,7.00878198 2.52220791,7.2583106 2.53381253,7.2798748 L5.05491626,11.469491 C5.1042359,11.5526673 5.19127055,11.6019569 5.28410751,11.6019569 L24.7972764,11.6050375 L24.7972764,11.6050375 Z M10.3872392,20.3939898 L13.8773288,26.2040017 C13.9208461,26.3303063 13.9846715,26.4442885 14.0601015,26.5397872 C14.1558396,26.6968978 14.2921939,26.8324442 14.4575598,26.9125398 C14.9333492,27.149746 15.4845687,26.887895 15.6818472,26.3272257 L19.3402037,20.3939898 L10.3872392,20.3939898 Z" id="形状" fill="#EE5E5E" fill-rule="nonzero"></path>
        </g>
    </g>
</svg>