<?xml version="1.0" encoding="UTF-8"?>
<svg width="30px" height="30px" viewBox="0 0 30 30" version="1.1" xmlns="http://www.w3.org/2000/svg" xmlns:xlink="http://www.w3.org/1999/xlink">
    <!-- Generator: Sketch 63.1 (92452) - https://sketch.com -->
    <title>指标组件</title>
    <desc>Created with Sketch.</desc>
    <g id="指标组件" stroke="none" stroke-width="1" fill="none" fill-rule="evenodd">
        <g id="编组-44">
            <rect id="矩形备份-37" x="0" y="0" width="30" height="30"></rect>
            <path d="M15,3 C8.37321429,3 3,8.37321429 3,15 C3,16.6526786 3.33482143,18.2303571 3.94017857,19.6633929 L9.81842941,12.1201452 C9.97511054,11.9190846 10.2651175,11.883108 10.4661781,12.0397891 C10.4827466,12.0527005 10.4984144,12.066728 10.5130722,12.0817736 L14.4964286,16.1705357 L14.4964286,16.1705357 L17.5526786,12.3107143 L16.2510333,11.009069 C16.0707913,10.828827 16.0707913,10.536597 16.2510333,10.3563551 C16.3083298,10.2990586 16.3797009,10.2578563 16.457971,10.2368906 L22.3734928,8.65233788 C22.6197132,8.58638441 22.8727801,8.73251963 22.9387335,8.97874003 C22.9596895,9.05697388 22.9596895,9.13934482 22.9387335,9.21757867 L21.3541808,15.1331005 C21.2882274,15.3793209 21.0351605,15.5254561 20.7889401,15.4595026 C20.71067,15.4385369 20.6392989,15.3973346 20.5820024,15.3400381 L19.2616071,14.0196429 L19.2616071,14.0196429 L14.9067904,19.2962458 C14.74454,19.4928397 14.4536393,19.5206807 14.2570454,19.3584304 C14.2442376,19.3478601 14.2320097,19.3366062 14.2204149,19.3247179 L10.7163748,15.7319679 C10.5383998,15.5494872 10.2461926,15.5458346 10.0637119,15.7238097 C10.0488165,15.7383372 10.0349205,15.7538555 10.0221191,15.7702581 L5.21517857,21.9294643 L5.21517857,21.9294643 C7.39017857,24.99375 10.9580357,27 15,27 C21.6267857,27 27,21.6267857 27,15 C27,8.37053571 21.6294643,3 15,3 Z" id="路径" fill="#FAB71C" fill-rule="nonzero"></path>
        </g>
    </g>
</svg>