<?xml version="1.0" encoding="UTF-8"?>
<svg width="30px" height="30px" viewBox="0 0 30 30" version="1.1" xmlns="http://www.w3.org/2000/svg" xmlns:xlink="http://www.w3.org/1999/xlink">
    <!-- Generator: Sketch 63.1 (92452) - https://sketch.com -->
    <title>折线图</title>
    <desc>Created with Sketch.</desc>
    <g id="折线图" stroke="none" stroke-width="1" fill="none" fill-rule="evenodd">
        <g id="编组-44">
            <rect id="矩形备份-37" x="0" y="0" width="30" height="30"></rect>
            <path d="M4.91717869,4 C5.44316417,4 5.86955965,4.42639548 5.86955965,4.95238095 L5.869,23.142 L26.0475763,23.1428571 C26.5735618,23.1428571 26.9999573,23.5692526 26.9999573,24.0952381 L26.9999573,25.047619 C26.9999573,25.5736045 26.5735618,26 26.0475763,26 L4.93339332,25.9998648 C4.92799924,25.9999548 4.92259425,26 4.91717869,26 L3.95238095,26 C3.42639548,26 3,25.5736045 3,25.047619 L3,4.95238095 C3,4.42639548 3.42639548,4 3.95238095,4 L4.91717869,4 Z M24.3193152,8.35266782 C25.0870064,8.99647266 25.2186445,10.1131361 24.6463302,10.9130363 L24.5501048,11.0365888 L17.66496,19.1757345 C16.7956224,20.2034059 15.1763405,20.0288595 14.5336989,18.8817462 L14.4664011,18.7502985 L13.5045013,16.6866667 L11.1897716,19.570475 C10.5629519,20.3510101 9.44515633,20.5105061 8.62744949,19.9612474 L8.50094702,19.8686196 C7.71701978,19.2445122 7.55683067,18.1315534 8.10847639,17.3173848 L8.20150671,17.1914297 L12.44619,11.9058202 C13.3017139,10.8404956 14.9542896,10.9972682 15.6073377,12.1603521 L15.675694,12.2937139 L16.6724952,14.4342857 L21.6237302,8.58245879 C22.3043647,7.77785945 23.5112192,7.67497853 24.3193152,8.35266782 Z" id="形状结合" fill="#5A80ED"></path>
        </g>
    </g>
</svg>