<?xml version="1.0" encoding="UTF-8"?>
<svg width="30px" height="30px" viewBox="0 0 30 30" version="1.1" xmlns="http://www.w3.org/2000/svg" xmlns:xlink="http://www.w3.org/1999/xlink">
    <!-- Generator: Sketch 63.1 (92452) - https://sketch.com -->
    <title>公告</title>
    <desc>Created with Sketch.</desc>
    <g id="公告" stroke="none" stroke-width="1" fill="none" fill-rule="evenodd">
        <g id="编组-44">
            <rect id="矩形备份-37" x="0" y="0" width="30" height="30"></rect>
            <path d="M16.044133,4.10404461 C15.6471449,3.92236471 15.178554,3.98233672 14.841386,4.25485657 L8.34002649,9.52004582 L3.15380325,9.49976117 C2.85560901,9.49976117 2.56829115,9.61441354 2.357108,9.81990585 C2.14411211,10.0253982 2.0235655,10.3049735 2.0235655,10.597778 L2,19.3969059 C2,19.6897104 2.11782751,19.9701677 2.32991703,20.1765419 C2.54110019,20.3846801 2.82932441,20.5002144 3.13023775,20.5002144 L8.37356202,20.5002144 L14.8422924,25.7460009 C15.0489437,25.9135698 15.3072579,26 15.5655721,26 C15.7287178,26 15.8918636,25.9656043 16.0450394,25.8959309 C16.4420275,25.715133 16.6958098,25.3270788 16.6958098,24.9002193 L16.6958098,5.09975628 C16.6958098,4.67377866 16.4420275,4.28572451 16.044133,4.10404461 L16.044133,4.10404461 L16.044133,4.10404461 Z M20.4273165,9.60383024 C19.8699017,9.34718534 19.2073485,9.58089977 18.9363453,10.1206478 C18.6662483,10.6621597 18.9000906,11.3174421 19.4529736,11.5881981 C19.5245764,11.6243576 21.2176672,12.4807226 21.2176672,14.9192901 C21.2176672,17.5245446 19.6342467,18.3879651 19.5816775,18.4161872 C19.0233563,18.6878251 18.796765,19.349281 19.0759255,19.8925569 C19.2753259,20.2788471 19.6732204,20.5010963 20.0892421,20.5010963 C20.2587325,20.5010963 20.4318483,20.4640548 20.5931813,20.385562 C20.7110089,20.3273539 23.4781426,18.9338867 23.4781426,14.9192901 C23.4781426,11.0458042 20.5514885,9.66115642 20.4273165,9.60383024 L20.4273165,9.60383024 L20.4273165,9.60383024 Z M23.9467336,6.37327945 C23.4255735,6.04784312 22.7340166,6.19600925 22.3932232,6.70224353 C22.0542425,7.20847781 22.2028864,7.88933645 22.7213275,8.22271024 C22.8436868,8.30120302 25.7395245,10.2211891 25.7395245,15.0004287 C25.7395245,19.7902517 22.9615143,21.7120016 22.8509377,21.7852028 C22.330684,22.1229863 22.1911037,22.8047269 22.5373353,23.3109611 C22.754863,23.62846 23.1137837,23.8004385 23.479049,23.8004385 C23.6938576,23.8004385 23.9122917,23.7395846 24.1053476,23.6152309 C24.2639615,23.5129257 28,21.0205597 28,14.9995468 C28,8.96706866 24.1125985,6.47646657 23.9467336,6.37327945 L23.9467336,6.37327945 Z" id="形状" fill="#34C7BE"></path>
        </g>
    </g>
</svg>