<?xml version="1.0" encoding="UTF-8"?>
<svg width="30px" height="30px" viewBox="0 0 30 30" version="1.1" xmlns="http://www.w3.org/2000/svg" xmlns:xlink="http://www.w3.org/1999/xlink">
    <!-- Generator: Sketch 63.1 (92452) - https://sketch.com -->
    <title>饼图</title>
    <desc>Created with Sketch.</desc>
    <g id="饼图" stroke="none" stroke-width="1" fill="none" fill-rule="evenodd">
        <g id="编组-44">
            <rect id="矩形备份-37" x="0" y="0" width="30" height="30"></rect>
            <path d="M14.3302512,3.00180795 C14.6471222,2.98405011 14.9572972,3.09771315 15.1876617,3.31600446 C15.4180262,3.53429578 15.5481988,3.83790197 15.547495,4.15525709 L15.5684949,13.7698333 C15.5688902,13.9692589 15.6487007,14.1603149 15.7902836,14.3007663 C15.9318664,14.4412177 16.1235609,14.5194972 16.3229911,14.5183003 L25.8374433,14.4583029 L25.8456933,14.4583029 C26.1599417,14.4583029 26.4659402,14.5880472 26.6811891,14.818287 C26.900188,15.0477769 27.0149374,15.3612631 26.9984375,15.6754992 C26.6421893,22.0262193 21.3764658,27 15.0089977,27 C13.3852559,27 11.8095138,26.683514 10.3290213,26.0580415 L10.3290213,26.0572916 C8.90223932,25.4560723 7.60614102,24.5828704 6.51304043,23.4864049 C4.25745626,21.2352718 2.99302847,18.1774412 3.00002891,14.9907794 C3.00002891,8.62056024 7.97703308,3.35504238 14.3302512,3.00180795 Z M18.4649804,3.00180795 C20.6880353,3.12517311 22.7872626,4.06498128 24.3599508,5.6409416 C25.9354014,7.21388812 26.8749198,9.31290056 26.9984375,11.5356817 C27.0115273,11.7796045 26.9248972,12.0183694 26.7584387,12.1971526 C26.5874396,12.3718949 26.3534407,12.4738904 26.110442,12.4738904 L18.4147306,12.4738904 C17.9264831,12.4738904 17.5259851,12.0756579 17.5259851,11.5874295 L17.5259851,3.88826887 C17.5266471,3.64412801 17.6275526,3.41097335 17.8050853,3.24337318 C17.9826179,3.07577302 18.2211955,2.98843788 18.4649804,3.00180795 Z" id="形状结合" fill="#FAB71C"></path>
        </g>
    </g>
</svg>