<?xml version="1.0" encoding="UTF-8"?>
<svg width="30px" height="30px" viewBox="0 0 30 30" version="1.1" xmlns="http://www.w3.org/2000/svg" xmlns:xlink="http://www.w3.org/1999/xlink">
    <!-- Generator: Sketch 63.1 (92452) - https://sketch.com -->
    <title>雷达图</title>
    <desc>Created with Sketch.</desc>
    <g id="雷达图" stroke="none" stroke-width="1" fill="none" fill-rule="evenodd">
        <g id="编组-44">
            <rect id="矩形备份-37" x="0" y="0" width="30" height="30"></rect>
        </g>
        <path d="M13.0346981,3.16014807 C7.34220896,4.09796896 3,9.04189586 3,15 C3,21.627417 8.372583,27 15,27 C20.9079269,27 25.8186868,22.7306204 26.8153073,17.1088336" id="路径" stroke="#34C7BE" stroke-width="2.5" stroke-linecap="round"></path>
        <path d="M13.3784312,8.188775 C10.2943325,8.92026914 8,11.6921995 8,15 C8,18.8659932 11.1340068,22 15,22 C18.1527784,22 20.8187375,19.9156789 21.6950894,17.0498245 C21.743026,16.8930618 21.7856079,16.7339606 21.8226218,16.5727342" id="路径" stroke="#34C7BE" stroke-width="1.5" stroke-linecap="round"></path>
        <path d="M29,15 C29,7.2680135 22.7319865,1 15,1 L15,15 L29,15 Z" id="椭圆形" stroke="#FFFFFF" fill="#34C7BE"></path>
        <circle id="椭圆形" fill="#34C7BE" cx="15" cy="15" r="3"></circle>
    </g>
</svg>