<?xml version="1.0" encoding="UTF-8"?>
<svg width="30px" height="30px" viewBox="0 0 30 30" version="1.1" xmlns="http://www.w3.org/2000/svg" xmlns:xlink="http://www.w3.org/1999/xlink">
    <!-- Generator: Sketch 63.1 (92452) - https://sketch.com -->
    <title>tab组件</title>
    <desc>Created with Sketch.</desc>
    <g id="tab组件" stroke="none" stroke-width="1" fill="none" fill-rule="evenodd">
        <g id="编组-44">
            <rect id="矩形备份-37" x="0" y="0" width="30" height="30"></rect>
            <path d="M24.6,5 L5.40000002,5 C4.76348044,5 4.15303105,5.26339209 3.70294373,5.73223303 C3.25285642,6.20107398 3,6.83695876 3,7.5 L3,22.5 C3,23.1630412 3.25285642,23.798926 3.70294373,24.267767 C4.15303105,24.7366079 4.76348044,25 5.40000002,25 L24.6,25 C25.2365196,25 25.846969,24.7366079 26.2970563,24.267767 C26.7471436,23.798926 27,23.1630412 27,22.5 L27,7.5 C27,6.83695876 26.7471436,6.20107398 26.2970563,5.73223303 C25.846969,5.26339209 25.2365196,5 24.6,5 L24.6,5 Z M5.40000002,22.5 L5.40000002,8.75 C5.40000002,8.05964407 5.93725831,7.49999999 6.6,7.49999999 L12.6,7.49999999 C13.2627417,7.49999999 13.8,8.05964407 13.8,8.75 L13.8,11.25 C13.8,11.9403559 14.3372583,12.5 15,12.5 L24.6,12.5 L24.6,22.5 L5.40000002,22.5 Z" id="形状" fill="#FC8256" fill-rule="nonzero"></path>
        </g>
    </g>
</svg>