<?xml version="1.0" encoding="UTF-8"?>
<svg width="30px" height="30px" viewBox="0 0 30 30" version="1.1" xmlns="http://www.w3.org/2000/svg" xmlns:xlink="http://www.w3.org/1999/xlink">
    <!-- Generator: Sketch 63.1 (92452) - https://sketch.com -->
    <title>文本</title>
    <desc>Created with Sketch.</desc>
    <g id="文本" stroke="none" stroke-width="1" fill="none" fill-rule="evenodd">
        <g id="编组-18">
            <rect id="矩形" x="0" y="0" width="30" height="30"></rect>
            <path d="M5.5,3 L24.5,3 C25.8807119,3 27,4.11928813 27,5.5 L27,24.5 C27,25.8807119 25.8807119,27 24.5,27 L5.5,27 C4.11928813,27 3,25.8807119 3,24.5 L3,5.5 C3,4.11928813 4.11928813,3 5.5,3 Z M9.416,18 L10.172,15.48 L13.244,15.48 L13.988,18 L15.464,18 L12.536,9.168 L10.928,9.168 L8,18 L9.416,18 Z M12.908,14.388 L10.496,14.388 L10.856,13.2 C11.144,12.24 11.42,11.268 11.672,10.26 L11.72,10.26 C11.996,11.256 12.26,12.24 12.56,13.2 L12.908,14.388 Z M18.344,18.156 C19.136,18.156 19.844,17.76 20.444,17.244 L20.48,17.244 L20.6,18 L21.728,18 L21.728,14.028 C21.728,12.276 20.972,11.232 19.328,11.232 C18.272,11.232 17.348,11.664 16.664,12.096 L17.18,13.032 C17.744,12.672 18.392,12.36 19.088,12.36 C20.06,12.36 20.336,13.032 20.348,13.8 C17.6,14.1 16.4,14.832 16.4,16.248 C16.4,17.412 17.204,18.156 18.344,18.156 Z M18.764,17.064 C18.176,17.064 17.732,16.8 17.732,16.152 C17.732,15.408 18.392,14.916 20.348,14.676 L20.348,16.296 C19.808,16.788 19.34,17.064 18.764,17.064 Z M8.3,19 L21.7,19 C21.8656854,19 22,19.1343146 22,19.3 L22,20 C22,20.1656854 21.8656854,20.3 21.7,20.3 L8.3,20.3 C8.13431458,20.3 8,20.1656854 8,20 L8,19.3 C8,19.1343146 8.13431458,19 8.3,19 Z" id="形状结合" fill="#FAB71C"></path>
        </g>
    </g>
</svg>