<?xml version="1.0" encoding="UTF-8"?>
<svg width="30px" height="30px" viewBox="0 0 30 30" version="1.1" xmlns="http://www.w3.org/2000/svg" xmlns:xlink="http://www.w3.org/1999/xlink">
    <!-- Generator: Sketch 63.1 (92452) - https://sketch.com -->
    <title>欢迎</title>
    <desc>Created with Sketch.</desc>
    <g id="欢迎" stroke="none" stroke-width="1" fill="none" fill-rule="evenodd">
        <g id="编组-44">
            <rect id="矩形备份-37" x="0" y="0" width="30" height="30"></rect>
            <path d="M23.2757487,6.10889551 L23.2199481,6.05323068 C21.01843,3.85160393 17.9947622,2.5 14.6366165,2.5 C11.2784708,2.5 8.24081218,3.85160393 6.05325785,6.05320351 C3.8515496,8.25474876 2.5,11.2923531 2.5,14.6366165 C2.5,17.9947351 3.86556768,21.0323937 6.05323068,23.2339118 C8.25474876,25.4215748 11.2924074,26.7871425 14.6366165,26.7871425 L23.6937103,26.7871425 C24.2092824,26.7871425 24.6273526,26.3690994 24.6273526,25.8535002 L24.6273526,21.5478571 C25.2961456,20.5863959 25.8117719,19.5274331 26.1879781,18.4126695 C26.5781209,17.2282774 26.7871425,15.9602658 26.7871425,14.6505259 C26.7871425,11.3063168 25.4355657,8.29661284 23.2757487,6.10889551 L23.2757487,6.10889551 Z M13.5905851,19.5250695 L14.3310712,15.5904981 L10.9211456,15.5904981 L10.1675378,19.5250695 L8.15795336,19.5250695 L9.94438951,10.1538729 L11.9500076,10.1538729 L11.2515485,13.811071 L14.6757911,13.811071 L15.3790316,10.1538729 L17.3886975,10.1538729 L15.6001967,19.5250695 L13.5905851,19.5250695 Z M19.3971138,19.523032 L17.3876652,19.523032 L18.6867828,12.7248598 L20.6962314,12.7248598 L19.3971138,19.523032 Z M21.1282383,10.7516789 C21.1325844,11.0624551 21.0066967,11.3608731 20.7810732,11.5746365 C20.5554498,11.7884 20.2506754,11.8980063 19.9405862,11.8769017 C19.6779015,11.891235 19.4214796,11.7933882 19.235118,11.6077056 C19.0487277,11.4221052 18.949833,11.16614 18.9630151,10.9034328 C18.9620695,10.5980699 19.0844848,10.3052667 19.3024917,10.0914435 C19.5211647,9.87720648 19.8164001,9.75926493 20.1224952,9.76386595 L20.1235276,9.76386595 C20.3917456,9.74734852 20.654313,9.84561093 20.8458663,10.0339314 C21.0374196,10.2222518 21.1401102,10.4832707 21.1282383,10.7516789 L21.1282383,10.7516789 Z" id="形状" fill="#FAB71C"></path>
        </g>
    </g>
</svg>