<?xml version="1.0" encoding="UTF-8"?>
<svg width="30px" height="30px" viewBox="0 0 30 30" version="1.1" xmlns="http://www.w3.org/2000/svg" xmlns:xlink="http://www.w3.org/1999/xlink">
    <!-- Generator: Sketch 63.1 (92452) - https://sketch.com -->
    <title>表格</title>
    <desc>Created with Sketch.</desc>
    <g id="表格" stroke="none" stroke-width="1" fill="none" fill-rule="evenodd">
        <g id="编组-39">
            <rect id="矩形备份-32" x="0" y="0" width="30" height="30"></rect>
            <path d="M27,24.3333334 C27,25.8060927 25.8060925,27.0000001 24.3333332,27.0000001 L5.66666664,27.0000001 C4.19390732,27.0000001 3,25.8060927 3,24.3333334 L3,5.6666669 C3,4.19390759 4.19390732,3.00000014 5.66666664,3.00000014 L24.3333332,3.00000014 C25.7288329,2.99955864 26.8886708,4.07509754 26.9933332,5.4666669 L27,5.6666669 L27,24.3333334 Z M11,20.3333334 L5.66666664,20.3333334 L5.66666664,24.3333334 L11,24.3333334 L11,20.3333334 Z M17.6666666,20.3333334 L12.3333333,20.3333334 L12.3333333,24.3333334 L17.6666666,24.3333334 L17.6666666,20.3333334 Z M24.3333332,20.3333334 L18.9999999,20.3333334 L18.9999999,24.3333334 L24.3333332,24.3333334 L24.3333332,20.3333334 Z M11,15.0000001 L5.66666664,15.0000001 L5.66666664,19.0000001 L11,19.0000001 L11,15.0000001 Z M17.6666666,15.0000001 L12.3333333,15.0000001 L12.3333333,19.0000001 L17.6666666,19.0000001 L17.6666666,15.0000001 Z M24.3333332,15.0000001 L18.9999999,15.0000001 L18.9999999,19.0000001 L24.3333332,19.0000001 L24.3333332,15.0000001 Z M11,9.66666685 L5.66666664,9.66666685 L5.66666664,13.6666669 L11,13.6666669 L11,9.66666685 Z M17.6666666,9.66666685 L12.3333333,9.66666685 L12.3333333,13.6666669 L17.6666666,13.6666669 L17.6666666,9.66666685 Z M24.3333332,9.66666685 L18.9999999,9.66666685 L18.9999999,13.6666669 L24.3333332,13.6666669 L24.3333332,9.66666685 Z" id="形状" fill="#34C7BE" fill-rule="nonzero"></path>
        </g>
    </g>
</svg>