<?xml version="1.0" encoding="UTF-8"?>
<svg width="24px" height="24px" viewBox="0 0 24 24" version="1.1" xmlns="http://www.w3.org/2000/svg" xmlns:xlink="http://www.w3.org/1999/xlink">
    <!-- Generator: Sketch 63.1 (92452) - https://sketch.com -->
    <title>icon_加载中</title>
    <desc>Created with Sketch.</desc>
    <g id="业务配置" stroke="none" stroke-width="1" fill="none" fill-rule="evenodd">
        <g id="1.0-列表" transform="translate(-708.000000, -408.000000)" fill="#4689F5" fill-rule="nonzero">
            <g id="编组-6" transform="translate(687.000000, 400.000000)">
                <g id="编组-5" transform="translate(13.000000, 0.000000)">
                    <g id="icon_加载中" transform="translate(8.000000, 8.000000)">
                        <path d="M12,0 C12.6024925,0 13.0909091,0.488416637 13.0909091,1.09090909 L13.0909091,4.36363636 C13.0909091,4.75338065 12.882983,5.11351924 12.5454546,5.30839139 C12.2079261,5.50326354 11.7920739,5.50326354 11.4545454,5.30839139 C11.117017,5.11351924 10.9090909,4.75338065 10.9090909,4.36363636 L10.9090909,1.09090909 C10.9090909,0.801582011 11.0240256,0.524105015 11.2286108,0.319519875 C11.4331959,0.114934735 11.7106729,0 12,0 Z" id="路径"></path>
                        <path d="M18,1.60606061 C18.2508732,1.75060944 18.4339927,1.98896001 18.50902,2.26860734 C18.5840473,2.54825468 18.5448275,2.84625726 18.4,3.0969697 L16.7636364,5.93181818 C16.4623901,6.45397831 15.7948874,6.63306441 15.2727273,6.33181818 C14.7505671,6.03057195 14.571481,5.36306922 14.8727273,4.84090909 L16.5090909,2.00757576 C16.6536397,1.75670255 16.8919903,1.57358308 17.1716376,1.49855575 C17.451285,1.42352842 17.7492876,1.46274826 18,1.60757576 L18,1.60606061 Z" id="路径"></path>
                        <path d="M22.3939394,6 C22.5387669,6.25071244 22.5779867,6.54871502 22.5029594,6.82836235 C22.4279321,7.10800969 22.2448126,7.34636025 21.9939394,7.49090909 L19.1590909,9.12727273 C18.6369308,9.42851893 17.9694281,9.24943282 17.6681818,8.72727271 C17.3669356,8.20511259 17.5460217,7.53760987 18.0681818,7.23636364 L20.9015152,5.6 C21.1522276,5.4551725 21.4502302,5.41595266 21.7298775,5.49097999 C22.0095248,5.56600732 22.2478754,5.74912679 22.3924242,6 L22.3939394,6 Z" id="路径"></path>
                        <path d="M24,12 C24,12.2893271 23.8850653,12.5668041 23.6804801,12.7713892 C23.475895,12.9759744 23.198418,13.0909091 22.9090909,13.0909091 L19.6363636,13.0909091 C19.0338712,13.0909091 18.5454546,12.6024924 18.5454546,12 C18.5454546,11.3975076 19.0338712,10.9090909 19.6363636,10.9090909 L22.9090909,10.9090909 C23.5115834,10.9090909 24,11.3975075 24,12 L24,12 Z" id="路径"></path>
                        <path d="M22.3939394,18 C22.2493906,18.2508732 22.01104,18.4339927 21.7313927,18.50902 C21.4517453,18.5840473 21.1537427,18.5448275 20.9030303,18.4 L18.0681818,16.7636364 C17.5460217,16.4623901 17.3669356,15.7948874 17.6681818,15.2727273 C17.969428,14.7505671 18.6369308,14.571481 19.1590909,14.8727273 L21.9924242,16.5090909 C22.2432974,16.6536397 22.4264169,16.8919903 22.5014443,17.1716376 C22.5764716,17.451285 22.5372517,17.7492876 22.3924242,18 L22.3939394,18 Z" id="路径"></path>
                        <path d="M18,22.3939394 C17.7492876,22.5387669 17.451285,22.5779867 17.1716376,22.5029594 C16.8919903,22.4279321 16.6536397,22.2448126 16.5090909,21.9939394 L14.8727273,19.1590909 C14.5714811,18.6369308 14.7505672,17.9694281 15.2727273,17.6681819 C15.7948874,17.3669356 16.4623901,17.5460217 16.7636364,18.0681818 L18.4,20.9015152 C18.5448275,21.1522276 18.5840473,21.4502302 18.50902,21.7298775 C18.4339927,22.0095248 18.2508732,22.2478754 18,22.3924242 L18,22.3939394 Z" id="路径"></path>
                        <path d="M12,24 C11.7106729,24 11.4331959,23.8850653 11.2286108,23.6804801 C11.0240256,23.475895 10.9090909,23.198418 10.9090909,22.9090909 L10.9090909,19.6363636 C10.9090909,19.0338712 11.3975075,18.5454545 12,18.5454545 C12.6024925,18.5454545 13.0909091,19.0338712 13.0909091,19.6363636 L13.0909091,22.9090909 C13.0909091,23.5115834 12.6024925,24 12,24 L12,24 Z" id="路径" opacity="0.851748512"></path>
                        <path d="M6,22.3939394 C5.74912679,22.2493906 5.56600732,22.01104 5.49097999,21.7313927 C5.41595266,21.4517453 5.4551725,21.1537427 5.6,20.9030303 L7.23636364,18.0681818 C7.43123577,17.7304034 7.79150768,17.5222464 8.18146841,17.5221213 C8.57142914,17.5219964 8.93183439,17.7299225 9.12692297,18.067576 C9.32201156,18.4052294 9.32214488,18.8213125 9.12727273,19.1590909 L7.49090909,21.9924242 C7.34636025,22.2432974 7.10800969,22.4264169 6.82836235,22.5014443 C6.54871502,22.5764716 6.25071244,22.5372517 6,22.3924242 L6,22.3939394 Z" id="路径" opacity="0.65"></path>
                        <path d="M1.60606061,18 C1.46123311,17.7492876 1.42201326,17.451285 1.4970406,17.1716376 C1.57206793,16.8919903 1.7551874,16.6536397 2.00606061,16.5090909 L4.84090909,14.8727273 C5.36306922,14.571481 6.03057195,14.7505671 6.33181818,15.2727273 C6.63306441,15.7948874 6.45397831,16.4623901 5.93181818,16.7636364 L3.09848485,18.4 C2.84777241,18.5448275 2.54976983,18.5840473 2.2701225,18.50902 C1.99047516,18.4339927 1.7521246,18.2508732 1.60757576,18 L1.60606061,18 Z" id="路径" opacity="0.45"></path>
                        <path d="M0,12 C0,11.3975075 0.488416637,10.9090909 1.09090909,10.9090909 L4.36363636,10.9090909 C4.96612882,10.9090909 5.45454545,11.3975075 5.45454545,12 C5.45454545,12.6024925 4.96612882,13.0909091 4.36363636,13.0909091 L1.09090909,13.0909091 C0.488416637,13.0909091 0,12.6024925 0,12 Z" id="路径" opacity="0.25"></path>
                        <path d="M1.60606061,6 C1.75060944,5.74912679 1.98896001,5.56600732 2.26860734,5.49097999 C2.54825468,5.41595266 2.84625726,5.4551725 3.0969697,5.6 L5.93181818,7.23636364 C6.26959656,7.43123578 6.4777536,7.79150768 6.47787862,8.1814684 C6.47800353,8.57142913 6.27007743,8.93183436 5.93242402,9.12692295 C5.59477061,9.32201153 5.17868747,9.32214487 4.84090909,9.12727273 L2.00757576,7.49090909 C1.75670255,7.34636025 1.57358308,7.10800969 1.49855575,6.82836235 C1.42352842,6.54871502 1.46274826,6.25071244 1.60757576,6 L1.60606061,6 Z" id="路径" opacity="0.15"></path>
                        <path d="M6,1.60606061 C6.25071244,1.46123311 6.54871502,1.42201326 6.82836235,1.4970406 C7.10800969,1.57206793 7.34636025,1.7551874 7.49090909,2.00606061 L9.12727273,4.84090909 C9.42851895,5.36306922 9.24943285,6.03057195 8.72727273,6.33181818 C8.2051126,6.63306441 7.53760986,6.45397831 7.23636364,5.93181818 L5.6,3.09848485 C5.4551725,2.84777241 5.41595266,2.54976983 5.49097999,2.2701225 C5.56600732,1.99047516 5.74912679,1.7521246 6,1.60757576 L6,1.60606061 Z" id="路径" opacity="0.05"></path>
                    </g>
                </g>
            </g>
        </g>
    </g>
</svg>