<?xml version="1.0" encoding="UTF-8"?>
<svg width="75px" height="69px" viewBox="0 0 75 69" version="1.1" xmlns="http://www.w3.org/2000/svg" xmlns:xlink="http://www.w3.org/1999/xlink">
    <title>AR_离线</title>
    <defs>
        <circle id="path-1" cx="34" cy="34" r="34"></circle>
    </defs>
    <g id="配置设计" stroke="none" stroke-width="1" fill="none" fill-rule="evenodd">
        <g id="8.0-AR眼镜" transform="translate(-978.000000, -176.000000)">
            <g id="编组-15" transform="translate(10.000000, 100.000000)">
                <g id="编组-17" transform="translate(14.000000, 56.000000)">
                    <g id="编组-5备份-12" transform="translate(934.000000, 0.000000)">
                        <g id="AR_离线" transform="translate(20.000000, 20.000000)">
                            <g id="编组-6-+-编组-10-+-编组-11-蒙版" transform="translate(7.000000, 0.057597)">
                                <mask id="mask-2" fill="white">
                                    <use xlink:href="#path-1"></use>
                                </mask>
                                <use id="蒙版" fill="#F0FAFF" xlink:href="#path-1"></use>
                                <g id="编组-11" mask="url(#mask-2)" fill-rule="nonzero">
                                    <g transform="translate(14.353521, 11.700900)">
                                        <path d="M39.3228333,53.1223528 C39.3228333,53.1223528 35.9774344,47.7228225 27.5846868,45.2577468 C19.1918737,42.7927367 3.58012121,45.7873327 -7.27595761e-12,53.1223528 C7.11152034,57.0407843 13.778187,59 20,59 C26.221813,59 32.6627574,57.0407843 39.3228333,53.1223528 Z" id="路径" fill="#7493AE"></path>
                                        <path d="M24.1143434,49.6009286 C25.6034343,48.5372922 25.7421666,46.7023225 25.5805858,44.7951963 C22.0069646,44.1650246 17.5939899,44.3171508 13.4084494,45.189464 C13.6704191,46.5467166 14.0776211,47.8729135 14.9585353,49.1314185 C17.0714293,52.183267 21.7667273,51.7137569 24.1143434,49.6009286 Z" id="路径" fill="#343B46"></path>
                                        <path d="M31.3529141,15.7558225 C31.3529141,15.7558225 21.3692424,14.5644842 13.508707,14.4367822 C14.0156414,18.327459 14.089505,22.3025044 14.3722222,26.2267316 C21.5197929,26.5494336 30.3947222,26.6398427 30.9851717,25.1463528 C31.9828888,22.6226457 31.3529141,15.7558225 31.3529141,15.7558225 Z" id="路径" fill="#333333"></path>
                                        <path d="M4.2077323,16.0292822 C3.60835351,19.4711307 5.33328278,25.6710802 5.33328278,25.6710801 C5.33328278,25.67108 9.44193932,26.0041559 14.3722222,26.2267316 C14.089505,22.3025044 14.0156414,18.3274589 13.508707,14.4367822 C8.5522929,14.3561559 4.43949992,14.6982923 4.2077323,16.0292822 L4.2077323,16.0292822 Z" id="路径" fill="#333333"></path>
                                        <path d="M4.54054545,24.1605852 C4.77566164,23.4347519 6.34045455,23.483469 6.34045455,23.483469 L6.34045455,23.483469 L6.6904697,27.7660498 L4.53017169,27.6357216 C4.53017169,27.6357216 4.30542927,24.8864185 4.54054545,24.1605852 Z M31.8028585,22.6617771 C32.0963434,23.3660751 32.0963434,26.12457 32.0963434,26.1245701 L29.9538384,26.430464 L29.9538384,22.1335701 C29.9537727,22.1335701 31.5093738,21.9574792 31.8028585,22.6617771 Z" id="形状结合" fill="#313F57"></path>
                                        <path d="M28.7509444,26.430464 C28.7509444,26.430464 31.6854646,24.4811863 33.7396616,26.828868 C35.7938585,29.1764842 33.3288484,35.2216811 29.1617576,33.5782973 C24.9947323,31.9349135 28.7509444,26.430464 28.7509444,26.430464 L28.7509444,26.430464 Z M24.1730404,41.5151256 C24.1730404,41.5151256 25.0534293,46.5098831 23.5274394,48.469863 C22.0014495,50.4298428 18.1882474,51.0620498 16.260899,48.8613731 C14.4676212,46.8138075 14.958601,41.3254437 14.958601,41.3254437 L24.1730404,41.5151256 Z" id="形状" fill="#F6DFD4"></path>
                                        <path d="M7.79047975,26.8999741 C7.79047975,26.8999741 4.85595957,24.9506963 2.8017626,27.2983781 C0.747565631,29.6460599 3.21257576,35.6911913 7.37966667,34.0478074 C11.5467576,32.4044235 7.79047982,26.8999741 7.79047975,26.8999741 Z" id="路径" fill="#F6DFD4"></path>
                                        <path d="M6.1079646,32.963161 C5.97776763,32.963161 5.8482272,32.9454993 5.72374242,32.9095195 C5.11989896,32.7348074 4.63522225,32.175676 4.48874242,31.4846407 C4.39912121,31.0614185 4.44540909,30.6469286 4.61966156,30.317267 C4.84000502,29.9000196 5.26637871,29.6400196 5.69951515,29.6402822 C5.70568684,29.6404792 5.71212121,29.6404792 5.7182929,29.6407418 C5.36959091,29.310161 4.9229949,29.0829236 4.4479697,29.025868 C4.25489456,29.0026699 4.11716229,28.8273743 4.14030303,28.6342922 C4.16367679,28.4412619 4.33858588,28.3004942 4.53187879,28.3266256 C5.80430303,28.4793427 6.88271212,29.507065 7.09616156,30.7705599 C7.12439731,30.936737 7.03083703,31.0996002 6.87306061,31.1589185 C6.71601013,31.2173529 6.53788381,31.1578024 6.44937879,31.0140145 C6.16968182,30.5605246 5.9282626,30.3477973 5.68986364,30.3445801 C5.51331316,30.3432013 5.33748485,30.4661104 5.24234848,30.6460751 C5.14511109,30.8303731 5.12219697,31.0763882 5.17793939,31.3386862 C5.26966164,31.7720195 5.56747982,32.1312266 5.91939896,32.2327973 C6.09890399,32.2850599 6.31215654,32.2568933 6.48864139,32.1576205 C6.6305252,32.0775852 6.72822217,31.9613731 6.76354545,31.8304539 C6.8141153,31.6427064 7.00726869,31.5314639 7.19504035,31.5819437 C7.28524093,31.6061671 7.36211304,31.6652527 7.40872497,31.7461862 C7.4553369,31.8271198 7.46786523,31.9232627 7.44355048,32.0134387 C7.35872217,32.3284589 7.14251515,32.5975852 6.83438884,32.7713781 C6.6126823,32.8964982 6.36253959,32.9625382 6.1079646,32.963161 L6.1079646,32.963161 Z M30.6096161,32.3551811 C30.4298484,32.3551811 30.248505,32.3221559 30.0758939,32.256171 C29.7457727,32.1296508 29.4922071,31.8950599 29.3619444,31.5959286 C29.2845314,31.4175207 29.3661987,31.2101211 29.5444697,31.1323933 C29.7237778,31.0555751 29.9305303,31.1369892 30.008005,31.3149185 C30.0621061,31.439666 30.1758232,31.5402519 30.3280808,31.5984892 C30.5165152,31.671171 30.7311464,31.6677569 30.9021818,31.5895599 C31.2350606,31.4373024 31.4771364,31.0381761 31.5047121,30.5963731 C31.5211919,30.3286256 31.462298,30.0885852 31.3391919,29.920767 C31.2188434,29.7566256 31.0170808,29.6624084 30.8522171,29.6878175 C30.61651,29.7260953 30.4092979,29.9718478 30.1995252,30.4613175 C30.1330151,30.6165296 29.9642778,30.7029337 29.8015152,30.6667569 C29.6367513,30.6313247 29.5202357,30.4840558 29.5236565,30.3155599 C29.5497879,29.0342064 30.4658939,27.8594792 31.7020758,27.5220044 C31.8897068,27.4709989 32.0831988,27.5815825 32.1344899,27.7691357 C32.1856119,27.9567816 32.0749837,28.1503516 31.8873585,28.2015498 C31.4260555,28.3274134 31.0175404,28.6176811 30.721101,28.9957316 C30.7270757,28.9948124 30.7332474,28.9936963 30.7394191,28.9927771 C31.1678939,28.9230498 31.6275555,29.1234336 31.9067929,29.5040448 C32.1273333,29.8046205 32.2341565,30.2078831 32.2075656,30.6398377 C32.1637727,31.3447922 31.7662222,31.9691205 31.1946818,32.2302367 C31.0124192,32.3132266 30.8120353,32.3551811 30.6096161,32.3551811 L30.6096161,32.3551811 Z" id="形状" fill="#E9CBBD"></path>
                                        <path d="M29.3965455,19.551166 C29.3965455,19.551166 30.2182374,32.6392115 29.8660555,36.2780953 C29.5139393,39.9169134 24.3491313,44.1427013 18.9495353,43.4384034 C13.550005,42.7341054 8.85470702,40.9146963 7.73959593,34.810868 C6.62448485,28.7070397 6.331,18.4361205 6.331,18.4361205 C6.331,18.4361205 6.331,10.3367922 14.5477222,9.4564034 C22.3221161,8.62335284 28.6922474,12.5082519 29.3965455,19.551166 Z" id="路径" fill="#FFEBE1"></path>
                                        <path d="M5.26539394,21.5542822 C6.3942929,21.0792569 10.844495,19.1259741 13.1018333,16.9463731 C13.1125353,16.936065 13.1288838,16.9466357 13.1248131,16.9608831 L12.3819091,19.5858327 C12.3257071,19.7843125 12.5056717,19.9688074 12.705005,19.9154943 C13.7689697,19.6310044 16.4916161,18.7002569 18.1745909,16.3079943 C18.1845707,16.2938125 18.2055152,16.3040549 18.1990152,16.3201407 L17.4036515,18.2863579 C17.3175758,18.4992166 17.5224242,18.7131256 17.7388282,18.6364387 C18.7306363,18.2848478 20.8613232,17.4129286 22.4308434,15.949969 C22.4354749,15.9453314 22.4427059,15.9445325 22.4482381,15.9480473 C22.4537703,15.951562 22.4561193,15.9584473 22.4538888,15.9646104 L21.6196565,18.5164185 C21.5534091,18.7190347 21.7392171,18.9129185 21.9443939,18.8550751 C22.7619495,18.6247519 24.4310707,17.9648377 25.2177676,16.2894792 C25.2226262,16.2791054 25.2364797,16.277464 25.2419949,16.2875751 C25.4116514,16.5979993 27.2870656,19.9359134 29.8267273,20.5778377 C29.9085917,20.5981084 29.9952138,20.5780267 30.0598081,20.5238024 C30.714207,19.9813478 34.135505,16.7632569 32.8593384,9.69105994 C31.7389091,3.48185284 25.8279141,0.837731628 23.4565959,0.0158427906 C23.1927222,-0.0756167797 22.9856414,0.25003976 23.1789343,0.451605391 L25.1783737,2.53613569 C25.1894696,2.54769128 25.176601,2.56607509 25.1618939,2.55964072 L20.7391364,0.606948851 C20.4995556,0.501176124 20.2675253,0.769054912 20.4064545,0.991105391 L21.8549697,3.30602461 C21.8629141,3.3186963 21.8488636,3.33373171 21.8356667,3.32664072 L20.1554494,2.4279337 C19.9217778,2.30292357 19.6691313,2.55944383 19.7976212,2.79121145 L20.8756364,4.73517102 C20.9835101,4.92971145 20.8192374,5.16167605 20.5996161,5.12622158 C18.8227525,4.83963067 13.0621111,4.30039327 7.97431818,8.16513569 C2.50834346,12.3171913 4.44678788,19.8578478 4.91170199,21.3886307 C4.95844944,21.5425296 5.11707576,21.6166559 5.26539394,21.5542822 Z" id="路径" fill="#444444"></path>
                                        <path d="M30.7226767,31.2512316 L6.78737879,32.7885145 C6.60103816,32.8004652 6.44028385,32.6591108 6.42830303,32.4727721 L5.80758581,22.8085852 C5.79563508,22.6222446 5.93698953,22.4614903 6.12332823,22.4495095 L30.0586262,20.9122266 C30.2449669,20.9002759 30.4057212,21.0416303 30.417702,21.227969 L31.0384191,30.8921559 C31.0503699,31.0784965 30.9090154,31.2392508 30.7226767,31.2512316 L30.7226767,31.2512316 Z" id="路径" fill="#222222"></path>
                                        <path d="M7.57775247,31.5613276 C7.55968735,31.5607184 7.54504614,31.5464752 7.54393939,31.5284337 L7.03479288,23.6024387 C7.03378788,23.5858276 7.05112121,23.5661307 7.06760096,23.5650801 L29.264904,22.1394134 C29.2811868,22.1394134 29.3006868,22.1499842 29.3022626,22.1723074 L29.8112676,30.0982367 C29.8121515,30.1148478 29.7949494,30.1345448 29.7784697,30.1355953 L7.57775247,31.5613276 L7.57775247,31.5613276 Z" id="路径" fill="#444444"></path>
                                        <path d="M19.2721717,38.851964 C18.3439191,38.851964 17.4158636,38.691959 16.6124899,38.3700448 C16.4320316,38.2975068 16.3444191,38.0925195 16.416702,37.9119589 C16.4891839,37.7314459 16.6942264,37.6438098 16.8747879,37.716171 C18.3645353,38.3136457 20.4136768,38.2824589 21.8587121,37.6409943 C22.0359192,37.5616811 22.2445758,37.6421105 22.3234293,37.8200398 C22.3613391,37.9054047 22.3637716,38.0023358 22.3301911,38.0894947 C22.2966107,38.1766536 22.2297702,38.2468953 22.1443838,38.2847569 C21.2942626,38.6621508 20.2829545,38.851964 19.2721717,38.851964 L19.2721717,38.851964 Z" id="路径" fill="#E9CBBD"></path>
                                        <path d="M15.8763485,34.8515751 C16.066514,34.8925124 16.1875175,35.0798224 16.1466565,35.2700044 C16.0784227,35.5874529 15.9503029,35.8906499 15.7753583,36.1646541 L15.6369646,36.0848024 C17.8651514,37.435161 20.9317727,37.3638579 23.0943687,35.9126508 C23.1718641,35.86051 23.2669167,35.8413351 23.3585656,35.8593545 C23.4502145,35.8773739 23.5309322,35.9311076 23.5829191,36.0087064 C23.6349727,36.0862283 23.6540961,36.1812544 23.6360819,36.2728771 C23.6180677,36.3644997 23.5643917,36.4452125 23.4868636,36.4972569 C22.2254697,37.344161 20.724298,37.7703377 19.2233232,37.7703377 C17.8624664,37.7703377 16.5016097,37.4199012 15.318648,36.7153667 C15.0454539,36.9733802 14.7213407,37.1779298 14.3675606,37.3053579 C14.3292653,37.3192001 14.2888514,37.3262653 14.2481313,37.3262368 C14.09969,37.3262617 13.9671759,37.2331919 13.9168282,37.0935498 C13.8850803,37.0056946 13.8895654,36.9088215 13.9292952,36.8242757 C13.969025,36.7397298 14.0407392,36.6744491 14.1286364,36.6428175 C14.7888788,36.4050751 15.3104545,35.8080599 15.4579191,35.1218831 C15.4773387,35.0304269 15.5324112,34.9504832 15.6109448,34.8997501 C15.6894783,34.8490169 15.7849946,34.8316792 15.8763485,34.8515751 Z" id="形状结合" fill="#222222"></path>
                                        <path d="M6.76262624,16.0530498 L10.6104949,16.2362973 C10.8024747,16.2454236 10.8967575,16.0059084 10.7500152,15.8817519 L8.64762624,14.1028528 C8.49655048,13.9750195 8.60140399,13.7287418 8.79830806,13.749161 L14.301904,14.318469 C14.4995302,14.3388882 14.6040555,14.090969 14.451404,13.9637922 L11.381303,11.4053528 C11.2185404,11.2697064 11.3489344,11.0071457 11.5553585,11.0547468 L19.205005,12.8200549 C19.4019747,12.8654893 19.5354545,12.624661 19.3925202,12.4817266 L14.9806616,8.06986799 C14.8380555,7.92726193 14.9705505,7.6869589 15.1672576,7.73134279 L20.4856364,8.93226703 C20.7095253,8.98282261 20.8308586,8.67968625 20.6330353,8.56327708 C19.1723737,7.70363569 16.6594343,6.18355483 15.2967979,5.12333266 C13.0489797,5.4594286 10.4336161,6.29694375 7.97431818,8.16507006 C2.50663636,12.3184387 4.44803533,19.8625751 4.91209593,21.3899437 C4.95864641,21.5430548 5.11655048,21.6167872 5.26401515,21.5547418 C5.94047472,21.2701205 7.81569194,20.4517771 9.69504545,19.371661 C8.72536364,18.6294792 7.25728285,17.090161 6.60485351,16.3901963 C6.48194442,16.2582922 6.58239896,16.0444489 6.76262624,16.0530498 L6.76262624,16.0530498 Z" id="路径" fill="#333333"></path>
                                        <path d="M27.6938081,22.2403276 L27.6808081,22.3250246 C27.6253922,22.6860203 27.3264518,22.9599489 26.962,22.9836913 L9.12672217,24.144565 C8.72383988,24.1707642 8.36779485,23.884594 8.30673732,23.4855044 L27.6938081,22.2403276 L27.6938081,22.2403276 Z" id="路径" fill="#9BA0A8"></path>
                                    </g>
                                </g>
                            </g>
                            <g id="编组-6" transform="translate(0.000000, 19.000000)">
                                <path d="M14.84632,15.9693428 L13.8594034,19.2363807 C13.7519564,19.5920095 13.258055,19.6174186 13.1147595,19.2746913 L11.7229716,15.9473807 C11.6613143,15.80004 11.5172156,15.7041296 11.3574943,15.7041231 L5.99075951,15.7041231 C5.11148678,15.7041231 4.37511561,15.038267 4.28687314,14.1634261 L3.37322913,5.10252458 C3.27700939,4.14800939 3.98353977,3.30064576 4.93982769,3.22372913 L19.7755852,2.03127458 C20.6976004,1.95711549 21.5118731,2.62868367 21.6146913,3.54803977 L22.722055,13.4540398 C22.8311761,14.4306155 22.0979565,15.2985625 21.1168504,15.3540095 L15.2030322,15.6884641 C15.0369222,15.6978386 14.8943954,15.8100657 14.84632,15.9693428 L14.84632,15.9693428 Z" id="形状" fill="#FFFFFF" fill-rule="nonzero"></path>
                                <path d="M19.5855855,10.3876473 L18.5514946,1.79710951 C18.4214946,0.717124697 17.4673735,-0.0710495843 16.3822674,0.0050791266 L1.89810074,1.02173822 C0.784828008,1.09983666 -0.0591871819,2.0577003 0.00325228896,3.17195795 L0.480115925,11.673958 C0.543441644,12.8026928 1.51213865,13.6649277 2.64057801,13.5969731 L10.0747068,13.1491625 C10.2363649,13.1394355 10.3900996,13.220095 10.4739644,13.3586398 L11.8625023,15.6515641 C12.0519871,15.9645489 12.5194948,15.9190489 12.6451614,15.5754352 L13.5257144,13.1679731 C13.5855408,13.0044717 13.7368667,12.8922064 13.9106916,12.882367 L17.6746841,12.6693443 C18.8506916,12.60267 19.7264189,11.557155 19.5855855,10.3876473 L19.5855855,10.3876473 Z" id="路径" fill="#99B3C5" fill-rule="nonzero"></path>
                                <rect id="矩形" fill="#FFFFFF" transform="translate(9.750000, 7.136364) rotate(-5.000000) translate(-9.750000, -7.136364) " x="4.5" y="5.63636364" width="10.5" height="3" rx="1.5"></rect>
                            </g>
                            <g id="编组-10" transform="translate(56.671173, 13.851420)" fill-rule="nonzero">
                                <path d="M15.7928333,0.00410192573 L0.611,1.6623241 C0.26332512,1.70031356 0,1.99396376 0,2.34370799 L0,7.92937465 C0,8.33795544 0.355201995,8.6557989 0.761222171,8.6105615 L16.5073081,6.85766253 C16.8812879,6.81603629 17.1517273,6.48072816 17.1133182,6.10642011 L16.549,0.615430157 C16.510197,0.237182708 16.1708838,-0.0371304488 15.7928333,0.00410192573 L15.7928333,0.00410192573 Z" id="路径" fill="#FFFFFF"></path>
                                <path d="M4.02815858,2.65493245 C4.95601711,2.65493245 5.71073936,3.4096547 5.71073936,4.3374476 C5.71073936,5.26504354 4.95601711,6.01976578 4.02815858,6.01976578 C3.82564156,6.01976578 3.63136744,5.98380674 3.45138672,5.91793986 L2.56821918,7.06311427 C2.50160688,7.14970854 2.39849526,7.20037861 2.28924446,7.20020737 C2.15504545,7.20015857 2.03254532,7.12382061 1.97337901,7.00336845 C1.91421269,6.88291628 1.92867254,6.73930334 2.0106636,6.63306379 L2.85407275,5.54139183 C2.54053295,5.23564828 2.34557779,4.80887382 2.34557779,4.3374476 C2.34557779,3.4096547 3.10030004,2.65493245 4.02815858,2.65493245 Z M4.02815858,3.35916482 C3.48872421,3.35916482 3.04987572,3.79794768 3.04987572,4.3374476 C3.04987572,4.68321477 3.23028428,4.98767936 3.50197377,5.16164453 C3.50400692,5.16318618 3.5064113,5.16440381 3.5088028,5.16564971 C3.65947567,5.26068511 3.83752978,5.31546786 4.02815858,5.31546786 C4.56765858,5.31546786 5.00644143,4.876685 5.00644143,4.3374476 C5.00644143,3.79801323 4.56765858,3.35916482 4.02815858,3.35916482 Z" id="形状结合" fill="#BBC3CD"></path>
                            </g>
                        </g>
                    </g>
                </g>
            </g>
        </g>
    </g>
</svg>