<?xml version="1.0" encoding="UTF-8"?>
<svg width="20px" height="20px" viewBox="0 0 20 20" version="1.1" xmlns="http://www.w3.org/2000/svg" xmlns:xlink="http://www.w3.org/1999/xlink">
    <!-- Generator: Sketch 63.1 (92452) - https://sketch.com -->
    <title>分组关闭</title>
    <desc>Created with Sketch.</desc>
    <defs>
        <linearGradient x1="50%" y1="100%" x2="50%" y2="0%" id="linearGradient-1">
            <stop stop-color="#4689F5" offset="0%"></stop>
            <stop stop-color="#43DBFF" offset="100%"></stop>
        </linearGradient>
    </defs>
    <g id="分组关闭" stroke="none" stroke-width="1" fill="none" fill-rule="evenodd">
        <g id="树结构/分组-收起备份">
            <g id="树结构/分组-收起">
                <rect id="矩形" x="0" y="0" width="20" height="20"></rect>
                <path d="M19,7.71679687 L19,16.2857143 C19,17.2324881 18.2324881,18 17.2857143,18 L2.71428571,18 C1.76751186,18 1,17.2324881 1,16.2857143 L1,7.71679687 L19,7.71679687 Z M8.89496905,2 C9.14171356,2 9.45684831,2.06235838 9.67292456,2.17032894 L9.78934369,2.24045077 L12.6140785,4.28819057 L18.3932551,4.28819057 C18.6885376,4.28819057 18.943775,4.51389969 18.9918696,4.79822037 L19,4.89493551 L19,6.47929896 L1,6.47929896 L1,3.32585005 C1,2.63904849 1.52142143,2.07470196 2.1902333,2.00684146 L2.32585005,2 L8.89496905,2 Z" id="文件夹-关闭" fill="url(#linearGradient-1)"></path>
            </g>
        </g>
    </g>
</svg>