<?xml version="1.0" encoding="UTF-8"?>
<svg width="24px" height="24px" viewBox="0 0 24 24" version="1.1" xmlns="http://www.w3.org/2000/svg" xmlns:xlink="http://www.w3.org/1999/xlink">
    <!-- Generator: Sketch 63.1 (92452) - https://sketch.com -->
    <title>icon/图片文件</title>
    <desc>Created with Sketch.</desc>
    <g id="icon/图片文件" stroke="none" stroke-width="1" fill="none" fill-rule="evenodd">
        <g id="编组-9">
            <rect id="矩形" x="0" y="0" width="24" height="24"></rect>
            <g id="jpg备份" transform="translate(3.500000, 2.000000)">
                <path d="M1.02,0 C0.765,0 0.493,0.1 0.306,0.3 C0.119,0.5 0,0.75 0,1 L0,19 C0,19.25 0.102,19.5166667 0.306,19.7 C0.51,19.9 0.765,20 1.02,20 L15.98,20 C16.235,20 16.507,19.9 16.694,19.7 C16.898,19.5 17,19.25 17,19 L17,5.66666667 L11.22,0 L1.02,0 Z" id="路径" fill="#34C7BE"></path>
                <path d="M17,5.66666667 L12.2173404,5.66666667 C11.9680053,5.66666667 11.7020479,5.56693262 11.5192021,5.36746454 C11.319734,5.18461879 11.22,4.91866135 11.22,4.66932624 L11.22,1.9095836e-14 L17,5.66666667 Z" id="路径" fill-opacity="0.39529611" fill="#FFFFFF" fill-rule="nonzero"></path>
                <path d="M13.4308511,14.829344 L11.3530585,11.6046099 C11.2865691,11.5048759 11.1868351,11.4550089 11.0704787,11.4550089 C10.9541223,11.4550089 10.8543883,11.5214982 10.7878989,11.6046099 L9.67420213,13.3333333 L7.18085106,9.29410461 C7.1143617,9.19437057 7.01462766,9.14450355 6.89827128,9.14450355 C6.78191489,9.14450355 6.68218085,9.21099291 6.61569149,9.29410461 L3.19148936,14.829344 C3.125,14.929078 3.125,15.0620567 3.19148936,15.1617908 C3.25797872,15.2781472 3.35771277,15.3280142 3.47406915,15.3280142 L13.1482713,15.3280142 C13.2646277,15.3280142 13.380984,15.2615248 13.4474734,15.1617908 C13.4973404,15.0454344 13.4973404,14.9124557 13.4308511,14.829344 L13.4308511,14.829344 Z M10.6050532,8.72894504 C10.6050532,9.02587456 10.7634632,9.30024875 11.0206117,9.44871352 C11.2777602,9.59717828 11.5945802,9.59717828 11.8517287,9.44871352 C12.1088772,9.30024875 12.2672872,9.02587456 12.2672872,8.72894504 C12.2672872,8.43201551 12.1088772,8.15764132 11.8517287,8.00917655 C11.5945802,7.86071179 11.2777602,7.86071179 11.0206117,8.00917655 C10.7634632,8.15764132 10.6050532,8.43201551 10.6050532,8.72894504 Z" id="形状" fill="#FFFFFF" fill-rule="nonzero"></path>
            </g>
        </g>
    </g>
</svg>