<?xml version="1.0" encoding="UTF-8"?>
<svg width="120px" height="120px" viewBox="0 0 120 120" version="1.1" xmlns="http://www.w3.org/2000/svg" xmlns:xlink="http://www.w3.org/1999/xlink">
    <!-- Generator: Sketch 63.1 (92452) - https://sketch.com -->
    <title>固定部分</title>
    <desc>Created with Sketch.</desc>
    <defs>
        <linearGradient x1="50%" y1="0%" x2="50%" y2="100%" id="linearGradient-1">
            <stop stop-color="#3C87FF" stop-opacity="0" offset="0%"></stop>
            <stop stop-color="#1FD4FF" offset="100%"></stop>
        </linearGradient>
        <linearGradient x1="100%" y1="50%" x2="0%" y2="50%" id="linearGradient-2">
            <stop stop-color="#4689F5" stop-opacity="0" offset="0%"></stop>
            <stop stop-color="#146FFF" offset="100%"></stop>
        </linearGradient>
        <linearGradient x1="100%" y1="50%" x2="0%" y2="50%" id="linearGradient-3">
            <stop stop-color="#4689F5" stop-opacity="0" offset="0%"></stop>
            <stop stop-color="#1F98FF" offset="100%"></stop>
        </linearGradient>
        <linearGradient x1="50%" y1="0%" x2="50%" y2="73.8261709%" id="linearGradient-4">
            <stop stop-color="#3C87FF" stop-opacity="0" offset="0%"></stop>
            <stop stop-color="#1ED4FF" offset="100%"></stop>
        </linearGradient>
        <linearGradient x1="50%" y1="0%" x2="50%" y2="100%" id="linearGradient-5">
            <stop stop-color="#146FFF" offset="0%"></stop>
            <stop stop-color="#4689F5" stop-opacity="0" offset="100%"></stop>
        </linearGradient>
        <linearGradient x1="50%" y1="0%" x2="50%" y2="99.0894215%" id="linearGradient-6">
            <stop stop-color="#4689F5" stop-opacity="0" offset="0%"></stop>
            <stop stop-color="#146FFF" offset="100%"></stop>
        </linearGradient>
        <linearGradient x1="100%" y1="2.77555756e-15%" x2="0%" y2="100%" id="linearGradient-7">
            <stop stop-color="#2EF1FF" stop-opacity="0.702086976" offset="0%"></stop>
            <stop stop-color="#2EFFFF" offset="48.4735244%"></stop>
            <stop stop-color="#2DF5FF" offset="100%"></stop>
        </linearGradient>
        <linearGradient x1="100%" y1="2.77555756e-15%" x2="0%" y2="100%" id="linearGradient-8">
            <stop stop-color="#2EF1FF" stop-opacity="0" offset="0%"></stop>
            <stop stop-color="#2EFFFF" offset="48.4735244%"></stop>
            <stop stop-color="#0BECFF" stop-opacity="0.700967002" offset="100%"></stop>
        </linearGradient>
        <linearGradient x1="50%" y1="0%" x2="50%" y2="100%" id="linearGradient-9">
            <stop stop-color="#1F98FF" offset="0%"></stop>
            <stop stop-color="#4689F5" stop-opacity="0" offset="100%"></stop>
        </linearGradient>
        <linearGradient x1="100%" y1="2.77555756e-15%" x2="0%" y2="100%" id="linearGradient-10">
            <stop stop-color="#2EF1FF" stop-opacity="0" offset="0%"></stop>
            <stop stop-color="#2FFFFF" offset="48.4735244%"></stop>
            <stop stop-color="#26FFFF" offset="100%"></stop>
        </linearGradient>
        <linearGradient x1="100%" y1="50%" x2="-11.1336622%" y2="50%" id="linearGradient-11">
            <stop stop-color="#4689F5" stop-opacity="0" offset="0%"></stop>
            <stop stop-color="#1540AD" offset="100%"></stop>
        </linearGradient>
    </defs>
    <g id="dataV模块" stroke="none" stroke-width="1" fill="none" fill-rule="evenodd">
        <g id="1.3.2-设计大屏-文本组件-数据配置-静态数据" transform="translate(-720.000000, -365.000000)" fill-rule="nonzero">
            <g id="固定部分" transform="translate(720.000000, 365.000000)">
                <path d="M54,20 C28.5949015,20 8,40.5949015 8,66 C8,91.4050985 28.5949015,112 54,112 C79.4050985,112 100,91.4050985 100,66 C100,40.5949015 79.4050985,20 54,20 Z M54,34 C71.673112,34 86,48.326888 86,66 C86,83.673112 71.673112,98 54,98 C36.326888,98 22,83.673112 22,66 C22,48.326888 36.326888,34 54,34 Z" id="转动部分" fill="url(#linearGradient-1)" transform="translate(54.000000, 66.000000) rotate(-360.000000) translate(-54.000000, -66.000000) "></path>
                <g id="编组-20">
                    <path d="M50.9175865,12.081952 L50.9175865,27.1137164 C31.7706679,28.5705449 16.4885099,43.8527652 15.0317787,62.9995778 L3.92461442e-05,62.9995778 C1.50261515,35.5649324 23.4831612,13.5844412 50.9175865,12.081952 Z" id="路径" fill="url(#linearGradient-2)" opacity="0.702520461"></path>
                    <path d="M50.9175865,29.9995778 L50.9175865,39.741749 C38.5083416,40.6859277 28.6038737,50.5904208 27.6597565,62.9995778 L17.9175865,62.9995778 C18.8914159,45.2190296 33.1371536,30.9733495 50.9175865,29.9995778 Z" id="路径" fill="url(#linearGradient-3)" opacity="0.703613281"></path>
                    <path d="M50.9175865,29.9995778 L50.9176802,33.887725 C35.5011072,35.3100114 23.2280891,47.5830296 21.8058027,62.9996025 L17.9175865,62.9995778 C18.8914159,45.2190296 33.1371536,30.9733495 50.9175865,29.9995778 Z" id="形状结合" fill="url(#linearGradient-4)"></path>
                    <path d="M50.9175473,68.9995386 L50.9175473,84.0313029 C31.7706286,85.4881315 16.4884706,100.770352 15.0317394,119.917164 L4.26325641e-14,119.917164 C1.5025759,92.4825189 23.483122,70.5020278 50.9175473,68.9995386 Z" id="路径" fill="url(#linearGradient-5)" opacity="0.702520461" transform="translate(25.458774, 94.458351) rotate(-90.000000) translate(-25.458774, -94.458351) "></path>
                    <path d="M107.835625,69 L107.835625,84.0317644 C88.6887063,85.4885929 73.4065483,100.770813 71.9498171,119.917626 L56.9180777,119.917626 C58.4206536,92.4829804 80.4011996,70.5024892 107.835625,69 Z" id="路径" fill="url(#linearGradient-6)" opacity="0.702520461" transform="translate(82.376851, 94.458813) rotate(-180.000000) translate(-82.376851, -94.458813) "></path>
                    <path d="M99.5712818,69.000088 C98.0904119,91.876929 79.7950067,110.172334 56.9181657,111.653204 L56.9180777,104.885861 C76.0649963,103.429033 91.3471543,88.1468126 92.8038855,69 Z" id="形状结合" fill="url(#linearGradient-7)" opacity="0.702892485"></path>
                    <path d="M50.9031723,69.000088 C49.4223024,91.876929 31.1268972,110.172334 8.25005618,111.653204 L8.24996817,104.885861 C27.3968868,103.429033 42.6790448,88.1468126 44.135776,69 Z" id="形状结合" fill="url(#linearGradient-8)" opacity="0.702613467" transform="translate(29.576570, 90.326602) rotate(-270.000000) translate(-29.576570, -90.326602) "></path>
                    <path d="M89.9180777,69 L89.9180777,78.7421711 C77.5088327,79.6863499 67.6043648,89.590843 66.6602477,102 L56.9180777,102 C57.8919071,84.2194518 72.1376447,69.9737717 89.9180777,69 Z" id="路径" fill="url(#linearGradient-9)" opacity="0.799455915" transform="translate(73.418078, 85.500000) rotate(-180.000000) translate(-73.418078, -85.500000) "></path>
                    <path d="M89.9180777,69 C88.9442483,86.7805482 74.6985106,101.026228 56.9180777,102 L56.9181547,98.1123045 C72.3349849,96.6901488 84.6082265,84.4169072 86.0303822,69.0000771 L89.9180777,69 Z" id="形状结合" fill="url(#linearGradient-10)" opacity="0.702892485"></path>
                    <path d="M119.918078,0 L119.918078,18 C95.3137921,18 75.321492,37.7462573 74.9241064,62.2558427 L74.9180777,63 L56.9180777,63 C56.9180777,28.5540002 84.5628378,0.564780003 118.876257,0.00844020005 L119.918078,0 Z" id="路径备份-3" fill="url(#linearGradient-11)" transform="translate(88.418078, 31.500000) rotate(-270.000000) translate(-88.418078, -31.500000) "></path>
                    <path d="M37.41,69.28 L37.41,68.57 L33.28,68.57 L33.28,62.14 L32.47,62.14 L32.47,69.28 L37.41,69.28 Z M40.56,69.42 C41.33,69.42 41.95,69.15 42.42,68.61 C42.85,68.11 43.07,67.47 43.07,66.7 C43.07,65.92 42.85,65.28 42.41,64.77 C41.95,64.23 41.33,63.97 40.56,63.97 C39.78,63.97 39.17,64.23 38.71,64.77 C38.27,65.28 38.05,65.92 38.05,66.7 C38.05,67.47 38.27,68.11 38.71,68.61 C39.17,69.15 39.78,69.42 40.56,69.42 Z M40.56,68.75 C40.01,68.75 39.58,68.54 39.28,68.12 C39,67.74 38.87,67.27 38.87,66.7 C38.87,66.12 39,65.65 39.28,65.27 C39.58,64.85 40.01,64.64 40.56,64.64 C41.1,64.64 41.53,64.85 41.85,65.27 C42.12,65.65 42.26,66.12 42.26,66.7 C42.26,67.26 42.12,67.74 41.85,68.12 C41.53,68.54 41.1,68.75 40.56,68.75 Z M45.63,69.42 C46.11,69.42 46.54,69.31 46.92,69.1 C47.24,68.92 47.51,68.69 47.71,68.41 L47.71,69.28 L48.46,69.28 L48.46,65.96 C48.46,65.36 48.3,64.89 48,64.55 C47.64,64.16 47.1,63.97 46.36,63.97 C45.74,63.97 45.25,64.09 44.87,64.33 C44.45,64.59 44.18,65 44.07,65.54 L44.86,65.6 C44.94,65.27 45.11,65.02 45.38,64.86 C45.62,64.7 45.93,64.63 46.31,64.63 C47.21,64.63 47.66,65.06 47.66,65.93 L47.66,66.2 L46.42,66.22 C45.64,66.23 45.04,66.38 44.62,66.66 C44.14,66.96 43.91,67.4 43.91,67.99 C43.91,68.41 44.07,68.76 44.39,69.03 C44.7,69.29 45.11,69.42 45.63,69.42 Z M45.8,68.79 C45.48,68.79 45.22,68.71 45.02,68.56 C44.82,68.4 44.73,68.21 44.73,67.97 C44.73,67.22 45.31,66.84 46.47,66.82 L47.66,66.8 L47.66,67.24 C47.66,67.64 47.47,68 47.1,68.31 C46.72,68.63 46.29,68.79 45.8,68.79 Z M51.85,69.42 C52.63,69.42 53.21,69.09 53.57,68.43 L53.57,69.28 L54.32,69.28 L54.32,62 L53.52,62 L53.52,65.06 C53.12,64.33 52.55,63.97 51.81,63.97 C51.07,63.97 50.5,64.24 50.08,64.8 C49.69,65.3 49.5,65.92 49.5,66.68 C49.5,67.46 49.69,68.1 50.08,68.6 C50.5,69.14 51.09,69.42 51.85,69.42 Z M51.95,68.76 C51.39,68.76 50.97,68.55 50.69,68.15 C50.44,67.79 50.32,67.3 50.32,66.68 C50.32,66.06 50.44,65.58 50.7,65.23 C50.98,64.83 51.41,64.63 51.98,64.63 C52.44,64.63 52.82,64.81 53.11,65.19 C53.39,65.56 53.54,66.05 53.54,66.65 L53.54,66.75 C53.54,67.33 53.41,67.8 53.16,68.16 C52.87,68.56 52.47,68.76 51.95,68.76 Z M56.22,63.35 C56.39,63.35 56.53,63.29 56.65,63.18 C56.77,63.06 56.83,62.92 56.83,62.75 C56.83,62.57 56.77,62.43 56.65,62.33 C56.53,62.21 56.39,62.16 56.22,62.16 C56.05,62.16 55.91,62.21 55.79,62.33 C55.67,62.43 55.62,62.57 55.62,62.75 C55.62,62.92 55.67,63.06 55.79,63.18 C55.91,63.29 56.05,63.35 56.22,63.35 Z M56.62,69.28 L56.62,64.11 L55.82,64.11 L55.82,69.28 L56.62,69.28 Z M58.92,69.28 L58.92,66.16 C58.95,65.69 59.1,65.32 59.38,65.04 C59.64,64.78 59.95,64.65 60.31,64.65 C61.21,64.65 61.67,65.15 61.67,66.16 L61.67,69.28 L62.47,69.28 L62.47,66.1 C62.47,64.68 61.82,63.97 60.54,63.97 C60.2,63.97 59.89,64.05 59.61,64.21 C59.33,64.36 59.1,64.58 58.92,64.87 L58.92,64.11 L58.12,64.11 L58.12,69.28 L58.92,69.28 Z M66.02,71.4 C67.59,71.4 68.38,70.57 68.38,68.92 L68.38,64.11 L67.58,64.11 L67.58,65 C67.2,64.31 66.62,63.97 65.84,63.97 C65.12,63.97 64.55,64.22 64.13,64.73 C63.71,65.21 63.51,65.82 63.51,66.58 C63.51,67.33 63.71,67.94 64.13,68.42 C64.55,68.91 65.12,69.16 65.84,69.16 C66.62,69.16 67.2,68.81 67.58,68.12 L67.58,69.03 C67.58,70.17 67.06,70.75 66.02,70.75 C65.55,70.75 65.2,70.66 64.97,70.49 C64.74,70.33 64.59,70.07 64.53,69.72 L63.73,69.72 C63.82,70.28 64.05,70.7 64.42,70.98 C64.78,71.26 65.32,71.4 66.02,71.4 Z M65.95,68.49 C65.39,68.49 64.98,68.29 64.7,67.91 C64.45,67.57 64.33,67.12 64.33,66.58 C64.33,66 64.47,65.53 64.75,65.19 C65.04,64.81 65.44,64.63 65.96,64.63 C66.47,64.63 66.87,64.81 67.17,65.19 C67.45,65.53 67.59,66 67.59,66.58 C67.59,67.14 67.45,67.6 67.17,67.95 C66.87,68.31 66.47,68.49 65.95,68.49 Z M70.66,69.28 C70.83,69.28 70.98,69.22 71.1,69.11 C71.21,69 71.27,68.86 71.27,68.68 C71.27,68.51 71.21,68.37 71.1,68.26 C70.98,68.14 70.84,68.09 70.66,68.09 C70.49,68.09 70.35,68.14 70.24,68.26 C70.12,68.37 70.06,68.51 70.06,68.68 C70.06,68.85 70.12,68.99 70.24,69.11 C70.35,69.22 70.49,69.28 70.66,69.28 Z M74,69.28 C74.17,69.28 74.32,69.22 74.44,69.11 C74.55,69 74.61,68.86 74.61,68.68 C74.61,68.51 74.55,68.37 74.44,68.26 C74.32,68.14 74.17,68.09 74,68.09 C73.83,68.09 73.69,68.14 73.57,68.26 C73.45,68.37 73.4,68.51 73.4,68.68 C73.4,68.85 73.45,68.99 73.57,69.11 C73.69,69.22 73.83,69.28 74,69.28 Z M77.33,69.28 C77.5,69.28 77.64,69.22 77.76,69.11 C77.88,69 77.94,68.86 77.94,68.68 C77.94,68.51 77.88,68.37 77.76,68.26 C77.64,68.14 77.5,68.09 77.33,68.09 C77.16,68.09 77.02,68.14 76.9,68.26 C76.78,68.37 76.73,68.51 76.73,68.68 C76.73,68.85 76.78,68.99 76.9,69.11 C77.02,69.22 77.16,69.28 77.33,69.28 Z" id="Loading…" fill="#43DBFF"></path>
                </g>
            </g>
        </g>
    </g>
</svg>