<?xml version="1.0" encoding="UTF-8"?>
<svg width="152px" height="36px" viewBox="0 0 152 36" version="1.1" xmlns="http://www.w3.org/2000/svg" xmlns:xlink="http://www.w3.org/1999/xlink">
    <!-- Generator: Sketch 63.1 (92452) - https://sketch.com -->
    <title>移动端 常态</title>
    <desc>Created with Sketch.</desc>
    <g id="dataA模块" stroke="none" stroke-width="1" fill="none" fill-rule="evenodd">
        <g id="移动端-常态" transform="translate(-1.000000, 0.000000)">
            <path d="M138.23456,0.5 L15.7654398,0.5 C14.6764288,0.5 13.649468,1.00690655 12.9871502,1.87136025 L2.26078207,15.8713602 C1.77964177,16.4993421 1.53907162,17.249671 1.53907162,18 C1.53907162,18.750329 1.77964177,19.5006579 2.26078207,20.1286398 L12.9871502,34.1286398 C13.649468,34.9930935 14.6764288,35.5 15.7654398,35.5 L138.23456,35.5 C139.323571,35.5 140.350532,34.9930935 141.01285,34.1286398 L151.739218,20.1286398 C152.220358,19.5006579 152.460928,18.750329 152.460928,18 C152.460928,17.249671 152.220358,16.4993421 151.739218,15.8713602 L141.01285,1.87136025 C140.350532,1.00690655 139.323571,0.5 138.23456,0.5 Z" id="矩形" stroke="#2F437F" fill="#192757"></path>
            <g id="编组-19" transform="translate(24.000000, 10.000000)" opacity="0.60368">
                <g id="移动端">
                    <rect id="矩形" x="0" y="0" width="18" height="18"></rect>
                    <path d="M15,13.625 L15,15.25 C15,16.2164983 14.2164983,17 13.25,17 L4.75,17 C3.78350169,17 3,16.2164983 3,15.25 L3,13.625 L15,13.625 Z M9,14.5 C8.50646895,14.5 8.10638298,14.8917508 8.10638298,15.375 C8.10638298,15.8582492 8.50646895,16.25 9,16.25 C9.49353105,16.25 9.89361702,15.8582492 9.89361702,15.375 C9.89361702,14.8917508 9.49353105,14.5 9,14.5 Z M13.25,1 C14.2164983,1 15,1.78350169 15,2.75 L15,12.875 L3,12.875 L3,2.75 C3,1.78350169 3.78350169,1 4.75,1 L13.25,1 Z" id="形状结合" fill="#FFFFFF"></path>
                </g>
            </g>
        </g>
    </g>
</svg>