<?xml version="1.0" encoding="UTF-8"?>
<svg width="20px" height="20px" viewBox="0 0 20 20" version="1.1" xmlns="http://www.w3.org/2000/svg" xmlns:xlink="http://www.w3.org/1999/xlink">
    <!-- Generator: Sketch 63.1 (92452) - https://sketch.com -->
    <title>分组展开</title>
    <desc>Created with Sketch.</desc>
    <defs>
        <linearGradient x1="50%" y1="100%" x2="50%" y2="0%" id="linearGradient-1">
            <stop stop-color="#4689F5" offset="0%"></stop>
            <stop stop-color="#43DBFF" offset="100%"></stop>
        </linearGradient>
    </defs>
    <g id="分组展开" stroke="none" stroke-width="1" fill="none" fill-rule="evenodd">
        <g id="树结构/分组-展开备份">
            <g id="树结构/分组-展开">
                <rect id="矩形" x="0" y="0" width="20" height="20"></rect>
                <path d="M17.8763105,7.343738 C18.4973602,7.343738 19,7.85955002 19,8.49597897 L17.0325907,16.8483496 C16.8811393,17.4748905 16.5279118,18 15.9069651,18 L1.84380215,18 L3.81325051,8.49597895 C3.92948723,7.84948158 4.32691234,7.343738 4.94785909,7.343738 L17.8763105,7.343738 Z M7.77533083,2 C8.02207534,2 8.33721009,2.06235838 8.55328634,2.17032894 L8.66970548,2.24045077 L11.4944403,4.28756278 L16.1438987,4.28756278 C16.4391812,4.28756278 16.6944186,4.5132719 16.7425133,4.79759258 L16.7506436,4.89430772 L16.7506436,6.47929896 L4.20111121,6.47929896 C3.62792959,6.47929896 3.14173714,6.90894452 2.99834444,7.48504839 L1,16.8483496 L1,3.32585005 C1,2.63904849 1.52142143,2.07470196 2.1902333,2.00684146 L2.32585005,2 L7.77533083,2 Z" id="文件夹-打开" fill="url(#linearGradient-1)" fill-rule="nonzero"></path>
            </g>
        </g>
    </g>
</svg>