<?xml version="1.0" encoding="UTF-8"?>
<svg width="20px" height="20px" viewBox="0 0 20 20" version="1.1" xmlns="http://www.w3.org/2000/svg" xmlns:xlink="http://www.w3.org/1999/xlink">
    <!-- Generator: Sketch 63.1 (92452) - https://sketch.com -->
    <title>密码</title>
    <desc>Created with Sketch.</desc>
    <defs>
        <linearGradient x1="50%" y1="0%" x2="50%" y2="100%" id="linearGradient-1">
            <stop stop-color="#5ED9FF" offset="0%"></stop>
            <stop stop-color="#358FFF" offset="100%"></stop>
        </linearGradient>
    </defs>
    <g id="密码" stroke="none" stroke-width="1" fill="none" fill-rule="evenodd">
        <rect id="矩形" fill="#000000" fill-rule="nonzero" opacity="0" x="0" y="0" width="20" height="20"></rect>
        <path d="M7.09042117,8.47619047 L5.2724562,8.47619047 L5.2724562,5.23809524 C5.2724562,3.42857144 6.72682818,2 8.54479315,2 L11.5444353,2 C13.3624003,2 14.8167723,3.42857142 14.8167723,5.23809524 L14.8167723,8.47619047 L13.0897056,8.47619047 L13.0897056,5.23809524 C13.0897056,4.38095237 12.4534178,3.71428571 11.6353336,3.71428572 L8.54479315,3.71428572 C7.72670891,3.71428572 7.09042117,4.38095239 7.09042117,5.23809524 L7.09042117,8.47619047 Z M9.90826687,18 C6.09054044,18 3,15.8095238 3,10.3809524 C3,9.33333333 3.90898248,8.47619047 4.90886322,8.47619047 L15.089467,8.47619047 C16.180246,8.47619047 16.9983303,9.33333333 16.9983302,10.3809524 C17.0892285,16.1904762 13.4532986,18 9.90826687,18 Z M10.0900634,10.7619048 C9.36287739,10.7619048 8.72658965,11.3333333 8.72658965,12.1904762 C8.72658965,12.6666667 8.99928439,13.1428571 9.36287739,13.3333333 L9.36287739,14.8571429 L10.8172494,14.8571429 L10.8172494,13.3333333 C11.1808423,13.047619 11.4535371,12.6666667 11.4535371,12.1904762 C11.4535371,11.4285714 10.8172494,10.7619048 10.0900634,10.7619048 L10.0900634,10.7619048 Z" id="形状" fill="url(#linearGradient-1)" fill-rule="nonzero"></path>
    </g>
</svg>