<?xml version="1.0" encoding="UTF-8"?>
<svg width="152px" height="36px" viewBox="0 0 152 36" version="1.1" xmlns="http://www.w3.org/2000/svg" xmlns:xlink="http://www.w3.org/1999/xlink">
    <!-- Generator: Sketch 63.1 (92452) - https://sketch.com -->
    <title>pc端 悬停和选中状态</title>
    <desc>Created with Sketch.</desc>
    <defs>
        <path d="M15.7654398,0 L138.23456,0 C139.479144,-7.33405373e-15 140.652814,0.579321768 141.409748,1.56726885 L152.136116,15.5672689 C153.235866,17.0026559 153.235866,18.9973441 152.136116,20.4327311 L141.409748,34.4327311 C140.652814,35.4206782 139.479144,36 138.23456,36 L15.7654398,36 C14.5208557,36 13.3471863,35.4206782 12.5902517,34.4327311 L1.86388356,20.4327311 C0.764134302,18.9973441 0.764134302,17.0026559 1.86388356,15.5672689 L12.5902517,1.56726885 C13.3471863,0.579321768 14.5208557,-6.59552042e-16 15.7654398,0 Z" id="path-1"></path>
        <filter x="-4.5%" y="-22.2%" width="109.0%" height="144.4%" filterUnits="objectBoundingBox" id="filter-2">
            <feGaussianBlur stdDeviation="8" in="SourceAlpha" result="shadowBlurInner1"></feGaussianBlur>
            <feOffset dx="0" dy="0" in="shadowBlurInner1" result="shadowOffsetInner1"></feOffset>
            <feComposite in="shadowOffsetInner1" in2="SourceAlpha" operator="arithmetic" k2="-1" k3="1" result="shadowInnerInner1"></feComposite>
            <feColorMatrix values="0 0 0 0 0.274509804   0 0 0 0 0.537254902   0 0 0 0 0.960784314  0 0 0 1 0" type="matrix" in="shadowInnerInner1"></feColorMatrix>
        </filter>
        <radialGradient cx="50%" cy="100%" fx="50%" fy="100%" r="100%" gradientTransform="translate(0.500000,1.000000),scale(0.138462,1.000000),rotate(-90.000000),scale(1.000000,3.546209),translate(-0.500000,-1.000000)" id="radialGradient-3">
            <stop stop-color="#43DBFF" offset="0%"></stop>
            <stop stop-color="#4689F5" stop-opacity="0" offset="100%"></stop>
        </radialGradient>
        <radialGradient cx="50%" cy="100%" fx="50%" fy="100%" r="57.4606094%" gradientTransform="translate(0.500000,1.000000),scale(0.153846,1.000000),rotate(-90.000000),scale(1.000000,5.499097),translate(-0.500000,-1.000000)" id="radialGradient-4">
            <stop stop-color="#43DBFF" offset="0%"></stop>
            <stop stop-color="#4689F5" stop-opacity="0" offset="100%"></stop>
        </radialGradient>
        <linearGradient x1="50%" y1="100%" x2="50%" y2="0%" id="linearGradient-5">
            <stop stop-color="#4689F5" offset="0%"></stop>
            <stop stop-color="#43DBFF" offset="100%"></stop>
        </linearGradient>
    </defs>
    <g id="dataA模块" stroke="none" stroke-width="1" fill="none" fill-rule="evenodd">
        <g id="pc端-悬停和选中状态" transform="translate(-1.000000, 0.000000)">
            <g id="矩形">
                <use fill="#131E45" fill-rule="evenodd" xlink:href="#path-1"></use>
                <use fill="black" fill-opacity="1" filter="url(#filter-2)" xlink:href="#path-1"></use>
                <path stroke-opacity="0.600278628" stroke="#4689F5" stroke-width="1" d="M138.23456,0.5 L15.7654398,0.5 C14.6764288,0.5 13.649468,1.00690655 12.9871502,1.87136025 L2.26078207,15.8713602 C1.77964177,16.4993421 1.53907162,17.249671 1.53907162,18 C1.53907162,18.750329 1.77964177,19.5006579 2.26078207,20.1286398 L12.9871502,34.1286398 C13.649468,34.9930935 14.6764288,35.5 15.7654398,35.5 L138.23456,35.5 C139.323571,35.5 140.350532,34.9930935 141.01285,34.1286398 L151.739218,20.1286398 C152.220358,19.5006579 152.460928,18.750329 152.460928,18 C152.460928,17.249671 152.220358,16.4993421 151.739218,15.8713602 L141.01285,1.87136025 C140.350532,1.00690655 139.323571,0.5 138.23456,0.5 Z" stroke-linejoin="square"></path>
            </g>
            <rect id="矩形" fill="url(#radialGradient-3)" x="11.5" y="18" width="130" height="18"></rect>
            <rect id="矩形备份" fill="url(#radialGradient-4)" transform="translate(76.500000, 10.000000) scale(1, -1) translate(-76.500000, -10.000000) " x="11.5" y="0" width="130" height="20"></rect>
            <g id="编组-18" transform="translate(28.000000, 10.000000)">
                <g id="pc端">
                    <rect id="矩形" x="0" y="0" width="18" height="18"></rect>
                    <path d="M1.5,11.3187157 C1.5,12.1080658 2.1440932,12.7548943 2.93010525,12.7548943 L7.220421,12.7548943 L7.220421,14.5528583 L4.70954918,14.5528583 C4.31654316,14.5528583 3.98903814,14.8817541 3.98903814,15.2764291 C3.98903814,15.6711042 4.31654316,16 4.70954918,16 L13.2792638,16 C13.6722699,16 13.9997749,15.6711042 13.9997749,15.2764291 C13.9997749,14.8817541 13.6722699,14.5528583 13.2792638,14.5528583 L10.768392,14.5528583 L10.768392,12.7548943 L15.0587078,12.7548943 C15.8447198,12.7548943 16.488813,12.1080658 16.488813,11.3187157 L16.488813,10.5951449 L1.5,10.5951449 L1.5,11.3187157 Z M15.0805414,2 L2.93010525,2 C2.1440932,2 1.5,2.6468285 1.5,3.43617854 L1.5,9.89350039 L16.4998666,9.89350039 L16.4998666,3.43617854 C16.5106467,2.6468285 15.8665535,2 15.0805414,2 Z" id="形状" fill="url(#linearGradient-5)" fill-rule="nonzero"></path>
                </g>
            </g>
        </g>
    </g>
</svg>