<?xml version="1.0" encoding="UTF-8"?>
<svg width="276px" height="496px" viewBox="0 0 276 496" version="1.1" xmlns="http://www.w3.org/2000/svg" xmlns:xlink="http://www.w3.org/1999/xlink">
    <!-- Generator: Sketch 63.1 (92452) - https://sketch.com -->
    <title>编组 21</title>
    <desc>Created with Sketch.</desc>
    <defs>
        <path d="M232,0 C247.463973,-2.84068575e-15 260,12.536027 260,28 L260,452 C260,467.463973 247.463973,480 232,480 L28,480 C12.536027,480 1.8937905e-15,467.463973 0,452 L0,28 C-1.8937905e-15,12.536027 12.536027,2.84068575e-15 28,0 L232,0 Z M224,13 L36,13 C22.745166,13 12,23.745166 12,37 L12,37 L12,443 C12,456.254834 22.745166,467 36,467 L36,467 L224,467 C237.254834,467 248,456.254834 248,443 L248,443 L248,37 C248,23.745166 237.254834,13 224,13 L224,13 Z" id="path-1"></path>
        <filter x="-4.6%" y="-2.5%" width="109.2%" height="105.0%" filterUnits="objectBoundingBox" id="filter-2">
            <feOffset dx="0" dy="0" in="SourceAlpha" result="shadowOffsetOuter1"></feOffset>
            <feGaussianBlur stdDeviation="4" in="shadowOffsetOuter1" result="shadowBlurOuter1"></feGaussianBlur>
            <feComposite in="shadowBlurOuter1" in2="SourceAlpha" operator="out" result="shadowBlurOuter1"></feComposite>
            <feColorMatrix values="0 0 0 0 0.0117647059   0 0 0 0 0.0431372549   0 0 0 0 0.156862745  0 0 0 0.703288899 0" type="matrix" in="shadowBlurOuter1"></feColorMatrix>
        </filter>
    </defs>
    <g id="dataA模块" stroke="none" stroke-width="1" fill="none" fill-rule="evenodd">
        <g id="2.2.2-移动端大屏设计-预览" transform="translate(-477.000000, -176.000000)">
            <g id="编组复制-3备份" transform="translate(400.000000, 100.000000)">
                <g id="编组-21" transform="translate(85.000000, 84.000000)">
                    <g id="形状结合">
                        <use fill="black" fill-opacity="1" filter="url(#filter-2)" xlink:href="#path-1"></use>
                        <path stroke="#2F437F" stroke-width="1" d="M232,0.5 C239.593915,0.5 246.468915,3.57804234 251.445436,8.55456352 C256.421958,13.5310847 259.5,20.4060847 259.5,28 L259.5,28 L259.5,452 C259.5,459.593915 256.421958,466.468915 251.445436,471.445436 C246.468915,476.421958 239.593915,479.5 232,479.5 L232,479.5 L28,479.5 C20.4060847,479.5 13.5310847,476.421958 8.55456352,471.445436 C3.57804234,466.468915 0.5,459.593915 0.5,452 L0.5,452 L0.5,28 C0.5,20.4060847 3.57804234,13.5310847 8.55456352,8.55456352 C13.5310847,3.57804234 20.4060847,0.5 28,0.5 L28,0.5 Z M224,12.5 L36,12.5 C29.2846669,12.5 23.2003625,15.2015467 18.7739684,19.6279408 C14.3723346,24.0295746 11.6095596,30.1375705 11.5000638,36.9920138 L11.5,443 C11.5,449.715333 14.2015467,455.799637 18.6279408,460.226032 C23.0295746,464.627665 29.1375705,467.39044 35.9920138,467.499936 L224,467.5 C230.715333,467.5 236.799637,464.798453 241.226032,460.372059 C245.627665,455.970425 248.39044,449.862429 248.499936,443.007986 L248.5,37 C248.5,30.2345118 245.757744,24.1095118 241.324116,19.6758839 C236.890488,15.2422559 230.765488,12.5 224,12.5 Z" stroke-linejoin="square" fill="#192757" fill-rule="evenodd"></path>
                    </g>
                    <rect id="矩形" x="12" y="13" width="236" height="454" rx="24"></rect>
                    <path d="M191,12 L187.919945,20.7268239 C186.163578,25.7031964 181.686129,29 176.683994,29 L83.3160056,29 C78.3138709,29 73.8364222,25.7031964 72.0800555,20.7268239 L69,12 L69,12" id="路径" stroke="#2F437F" fill="#192757"></path>
                </g>
            </g>
        </g>
    </g>
</svg>