<?xml version="1.0" encoding="UTF-8"?>
<svg width="246px" height="200px" viewBox="0 0 246 200" version="1.1" xmlns="http://www.w3.org/2000/svg" xmlns:xlink="http://www.w3.org/1999/xlink">
    <!-- Generator: Sketch 63.1 (92452) - https://sketch.com -->
    <title>编组 7备份</title>
    <desc>Created with Sketch.</desc>
    <defs>
        <circle id="path-1" cx="92.6592397" cy="91.7288557" r="91.7288557"></circle>
        <linearGradient x1="50%" y1="0%" x2="50%" y2="100%" id="linearGradient-3">
            <stop stop-color="#FFFFFF" stop-opacity="0.399284309" offset="0%"></stop>
            <stop stop-color="#FFFFFF" offset="100%"></stop>
        </linearGradient>
        <linearGradient x1="50%" y1="0%" x2="50%" y2="100%" id="linearGradient-4">
            <stop stop-color="#FDC177" offset="0%"></stop>
            <stop stop-color="#FA8E42" offset="100%"></stop>
        </linearGradient>
        <linearGradient x1="50%" y1="0%" x2="50%" y2="100%" id="linearGradient-5">
            <stop stop-color="#FDC177" offset="0%"></stop>
            <stop stop-color="#FA8E42" offset="100%"></stop>
        </linearGradient>
        <linearGradient x1="50%" y1="0%" x2="50%" y2="100%" id="linearGradient-6">
            <stop stop-color="#FDC177" offset="0%"></stop>
            <stop stop-color="#FA8E42" offset="100%"></stop>
        </linearGradient>
    </defs>
    <g id="登录" stroke="none" stroke-width="1" fill="none" fill-rule="evenodd">
        <g id="4.3-关于版本" transform="translate(-252.000000, -602.000000)">
            <g id="编组-2" transform="translate(70.000000, 552.000000)">
                <g id="矩形">
                    <g id="编组-7备份" transform="translate(182.000000, 50.000000)">
                        <g id="路径-85-+-路径-84蒙版" transform="translate(31.718870, 15.547264)">
                            <mask id="mask-2" fill="white">
                                <use xlink:href="#path-1"></use>
                            </mask>
                            <use id="蒙版" fill="#5794F7" xlink:href="#path-1"></use>
                            <polygon id="矩形" fill="url(#linearGradient-3)" opacity="0.802106585" mask="url(#mask-2)" points="87.419236 93.2835821 97.8992434 93.2835821 112.870682 183.457711 72.4477969 183.457711"></polygon>
                            <path d="M-13.2786291,95.7547537 C2.56297583,96.2958566 13.602214,99.9782515 19.8390853,106.801938 C26.0759566,113.625625 28.7473522,122.852604 27.8532721,134.482874 C34.2276465,133.44639 40.8399681,134.224072 47.6902372,136.81592 C54.5405062,139.407769 58.4223606,149.877901 59.3358003,168.226318 C63.8604609,163.191334 69.5777387,160.673842 76.4876336,160.673842 C83.3975286,160.673842 88.5799498,165.374267 92.0348973,174.775116 C97.0354015,165.374267 104.013324,160.673842 112.968665,160.673842 C121.924005,160.673842 126.621641,163.780117 127.061572,169.992669 C130.833339,149.94653 135.780734,138.109932 141.903757,134.482874 C148.02678,130.855817 153.75437,130.075837 159.086525,132.142935 C159.260006,118.674511 164.143794,108.312604 173.73789,101.057214 C183.331986,93.8018242 192.348921,92.0343375 200.788696,95.7547537 L200.788696,193.838615 L-13.2786291,193.838615 L-13.2786291,95.7547537 Z" id="路径-85" fill="#4689F5" mask="url(#mask-2)"></path>
                            <path d="M-20.8357852,103.548 C-7.25168269,101.94991 7.07794737,102.66533 14.9893581,108.830846 C24.0363576,115.881348 27.7530665,126.748966 26.1394848,141.433701 C38.7104956,140.164593 47.694184,142.237735 53.09055,147.653128 C58.486916,153.06852 60.7569533,159.624656 59.9006618,167.321536 C66.1217166,164.671466 72.1689493,164.008949 78.04236,165.333984 C83.9157707,166.659019 88.5799498,169.806063 92.0348973,174.775116 C96.2832544,169.256319 101.983918,166.109275 109.136887,165.333984 C116.289857,164.558693 122.264752,166.111588 127.061572,169.992669 C127.078077,160.550756 130.267511,153.104242 136.629873,147.653128 C142.992234,142.202013 150.984175,140.128871 160.605693,141.433701 C160.513045,130.200996 163.921618,121.531381 170.83141,115.424855 C177.741203,109.318329 187.726965,106.849896 200.788696,108.019556 L200.788696,193.838615 L-20.8357852,193.838615 L-20.8357852,103.548 Z" id="路径-84" fill="#FFFFFF" mask="url(#mask-2)"></path>
                            <path d="M119.089588,101.057214 C119.94824,101.057214 120.644314,101.753289 120.644314,102.61194 L120.643682,105.721214 L123.753767,105.721393 C124.612419,105.721393 125.308493,106.417468 125.308493,107.276119 C125.308493,108.134771 124.612419,108.830846 123.753767,108.830846 L120.643682,108.830214 L120.644314,111.940299 C120.644314,112.79895 119.94824,113.495025 119.089588,113.495025 C118.230936,113.495025 117.534862,112.79895 117.534862,111.940299 L117.534682,108.830214 L114.425409,108.830846 C113.566757,108.830846 112.870682,108.134771 112.870682,107.276119 C112.870682,106.417468 113.566757,105.721393 114.425409,105.721393 L117.534682,105.721214 L117.534862,102.61194 C117.534862,101.753289 118.230936,101.057214 119.089588,101.057214 Z" id="形状结合" fill="#FAB71C" mask="url(#mask-2)"></path>
                            <path d="M70.8930706,132.151741 C71.7517222,132.151741 72.4477969,132.847816 72.4477969,133.706468 L72.4468914,135.260741 L74.0025233,135.261194 C74.861175,135.261194 75.5572497,135.957269 75.5572497,136.81592 C75.5572497,137.674572 74.861175,138.370647 74.0025233,138.370647 L72.4468914,138.369741 L72.4477969,139.925373 C72.4477969,140.784025 71.7517222,141.4801 70.8930706,141.4801 C70.0344189,141.4801 69.3383442,140.784025 69.3383442,139.925373 L69.3378914,138.369741 L67.7836178,138.370647 C66.9249662,138.370647 66.2288914,137.674572 66.2288914,136.81592 C66.2288914,135.957269 66.9249662,135.261194 67.7836178,135.261194 L69.3378914,135.260741 L69.3383442,133.706468 C69.3383442,132.847816 70.0344189,132.151741 70.8930706,132.151741 Z" id="形状结合备份" fill="#FAB71C" mask="url(#mask-2)"></path>
                        </g>
                        <path d="M45.4380784,123.336884 C54.5836444,130.579764 58.3408466,141.743914 56.709685,156.829332 C69.4176564,155.525596 78.4992216,157.655306 83.9543807,163.218461 C89.4095398,168.781616 91.704309,175.516642 90.8386883,183.423537 C97.1275211,180.701158 103.240638,180.020563 109.178039,181.381753 C115.115441,182.742942 119.830436,185.975856 123.323025,191.080493 C127.617667,185.411112 133.380439,182.178198 140.61134,181.381753 C147.842241,180.585307 153.882232,182.180574 158.731313,186.167553 C158.747998,176.468011 161.972181,168.818313 168.40386,163.218461 C174.835539,157.618609 182.914551,155.488899 192.640896,156.829332 C192.547238,145.290135 195.992947,136.383962 202.978021,130.110816 C206.287382,127.138749 210.294708,125.005585 215,123.711322 C206.757602,167.173237 169.12827,200 123.954169,200 C76.8207942,200 37.9008387,164.263987 31.9999796,117.99984 C37.3026758,118.904099 41.9776981,120.596417 45.4380784,123.336884 Z" id="形状结合" fill="#FFFFFF"></path>
                        <circle id="椭圆形" stroke="#F9A04E" stroke-width="4" cx="7.77363184" cy="76.181592" r="5.77363184"></circle>
                        <path d="M239.427861,90.1741294 C240.286512,90.1741294 240.982587,90.8702041 240.982587,91.7288557 L240.981955,94.8381294 L244.09204,94.8383085 C244.950691,94.8383085 245.646766,95.5343832 245.646766,96.3930348 C245.646766,97.2516865 244.950691,97.9477612 244.09204,97.9477612 L240.981955,97.9471294 L240.982587,101.057214 C240.982587,101.915866 240.286512,102.61194 239.427861,102.61194 C238.569209,102.61194 237.873134,101.915866 237.873134,101.057214 L237.872955,97.9471294 L234.763682,97.9477612 C233.90503,97.9477612 233.208955,97.2516865 233.208955,96.3930348 C233.208955,95.5343832 233.90503,94.8383085 234.763682,94.8383085 L237.872955,94.8381294 L237.873134,91.7288557 C237.873134,90.8702041 238.569209,90.1741294 239.427861,90.1741294 Z" id="形状结合备份-2" fill="#FAB71C"></path>
                        <g id="编组-4" transform="translate(85.509950, 0.000000)">
                            <path d="M15.4528719,69.579705 C5.15095731,71.99526 2.14587883e-12,76.4543838 2.14587883e-12,82.9570763 C2.14587883e-12,92.711115 3.48393165,95.4098306 5.06362851,99.0655321 C6.64332538,102.721234 5.49684798,107.062914 9.7373669,107.062914 C12.5643795,107.062914 16.3209047,102.183972 21.0069424,92.4260891 L15.4528719,69.579705 Z" id="路径-83" fill="url(#linearGradient-4)"></path>
                            <path d="M71.4992093,69.579705 C61.1972947,71.99526 56.0463374,76.4543838 56.0463374,82.9570763 C56.0463374,92.711115 59.530269,95.4098306 61.1099659,99.0655321 C62.6896627,102.721234 61.5431853,107.062914 65.7837043,107.062914 C68.6107169,107.062914 72.3672421,102.183972 77.0532798,92.4260891 L71.4992093,69.579705 Z" id="路径-83备份" fill="url(#linearGradient-4)" transform="translate(66.549809, 88.321309) scale(-1, 1) translate(-66.549809, -88.321309) "></path>
                            <path d="M38.9443473,111.302017 C54.4000773,111.302017 66.9294219,88.9698332 66.9294219,60.6343284 C66.9294219,32.2988235 52.9845854,8.83759622e-14 38.9443473,8.83759622e-14 C24.9041092,8.83759622e-14 10.9592727,32.2988235 10.9592727,60.6343284 C10.9592727,88.9698332 23.4886174,111.302017 38.9443473,111.302017 Z" id="椭圆形" fill="#FEEFDC"></path>
                            <path d="M26.5065364,102.61194 L49.8274319,102.61194 C51.5447352,102.61194 52.9368846,104.00409 52.9368846,105.721393 L52.9368846,107.276119 C52.9368846,109.852074 50.8486605,111.940299 48.2727055,111.940299 L28.0612627,111.940299 C25.4853078,111.940299 23.3970836,109.852074 23.3970836,107.276119 L23.3970836,105.721393 C23.3970836,104.00409 24.789233,102.61194 26.5065364,102.61194 Z" id="矩形" fill="#3B73CD"></path>
                            <path d="M57.6980568,18.602683 C52.6766236,7.57328865 45.1716788,3.55271368e-14 38.9443473,3.55271368e-14 C32.7170159,3.55271368e-14 25.2222143,7.56826489 20.2012688,18.5917077 L57.6980568,18.602683 Z" id="椭圆形" fill="url(#linearGradient-5)"></path>
                            <circle id="椭圆形" fill="url(#linearGradient-6)" cx="38.9443473" cy="46.641791" r="13.9925373"></circle>
                            <circle id="椭圆形" fill="#FFFFFF" cx="38.9443473" cy="46.641791" r="7.77363184"></circle>
                            <path d="M37.572461,76.181592 L40.3162336,76.181592 C42.8921886,76.181592 44.9804127,78.2698162 44.9804127,80.8457711 C44.9804127,80.9055407 44.9792638,80.9653047 44.9769667,81.0250301 L43.7810234,112.119557 C43.6847019,114.623914 41.6264985,116.604478 39.1202903,116.604478 L38.7684044,116.604478 C36.2621961,116.604478 34.2039927,114.623914 34.1076713,112.119557 L32.9117279,81.0250301 C32.8127259,78.4509783 34.8191502,76.28404 37.3932021,76.1850381 C37.4529274,76.1827409 37.5126915,76.181592 37.572461,76.181592 Z" id="矩形" fill="#F9A04E"></path>
                        </g>
                    </g>
                </g>
            </g>
        </g>
    </g>
</svg>