<?xml version="1.0" encoding="UTF-8"?>
<svg width="22px" height="22px" viewBox="0 0 22 22" version="1.1" xmlns="http://www.w3.org/2000/svg" xmlns:xlink="http://www.w3.org/1999/xlink">
    <!-- Generator: Sketch 63.1 (92452) - https://sketch.com -->
    <title>阿里云短信</title>
    <desc>Created with Sketch.</desc>
    <g id="阿里云短信" stroke="none" stroke-width="1" fill="none" fill-rule="evenodd">
        <g id="编组-72">
            <rect id="矩形备份-58" fill="#FC8256" x="0" y="0" width="22" height="22" rx="4"></rect>
            <path d="M16.5352533,8.93979592 C16.2414836,8.2494898 15.8155953,7.62959184 15.2731318,7.09387755 C14.7337769,6.56122449 14.1011618,6.14336735 13.4001559,5.85102041 C12.6742806,5.54795918 11.9033296,5.39489796 11.1075091,5.39489796 C10.456242,5.39489796 9.8189639,5.49744898 9.21277254,5.70102041 C7.7967717,5.0505102 6.16160937,5 5.69219965,5 C5.65800424,5 5.57717873,5 5.54609199,5.00306122 C5.36112591,5.00918367 5.1917032,5.10255102 5.09222564,5.25408163 C4.99119375,5.40561224 4.9725417,5.59693878 5.03937819,5.76683673 L6.03881676,8.24030612 C5.50101622,9.13265306 5.21812692,10.155102 5.21812692,11.197449 C5.21812692,11.9841837 5.3735606,12.7433673 5.68131929,13.4566327 C5.97508895,14.1454082 6.3994229,14.7668367 6.94344079,15.3010204 C7.48279567,15.8336735 8.11541075,16.2515306 8.81641665,16.5438776 C9.54229195,16.8469388 10.313243,17 11.1075091,17 C11.9048839,17 12.675835,16.8469388 13.4032646,16.5438776 C14.1011618,16.2545918 14.7322226,15.8352041 15.2746861,15.3010204 C15.814041,14.7683673 16.2399293,14.1469388 16.5368076,13.455102 C16.8445663,12.7403061 17,11.9780612 17,11.1959184 C16.9968913,10.4122449 16.843012,9.65306122 16.5352533,8.93979592 Z M11.48055,10.1489796 C11.48055,10.4612245 11.22253,10.7168367 10.903891,10.7168367 C10.5868063,10.7168367 10.327232,10.4612245 10.327232,10.1489796 L10.327232,9.30561224 C10.327232,8.99336735 10.585252,8.7377551 10.903891,8.7377551 C11.2209757,8.7377551 11.48055,8.99183673 11.48055,9.30561224 L11.48055,10.1489796 Z M14.2037481,10.1489796 C14.2037481,10.4612245 13.9457282,10.7168367 13.6270891,10.7168367 C13.3084501,10.7168367 13.0504301,10.4612245 13.0504301,10.1489796 L13.0504301,9.30561224 C13.0504301,8.99336735 13.3100044,8.7377551 13.6270891,8.7377551 C13.9441738,8.7377551 14.2037481,8.99183673 14.2037481,9.30561224 L14.2037481,10.1489796 Z" id="形状" fill="#FFFFFF" fill-rule="nonzero"></path>
        </g>
    </g>
</svg>