<?xml version="1.0" encoding="UTF-8"?>
<svg width="58px" height="58px" viewBox="0 0 58 58" version="1.1" xmlns="http://www.w3.org/2000/svg" xmlns:xlink="http://www.w3.org/1999/xlink">
    <!-- Generator: Sketch 63.1 (92452) - https://sketch.com -->
    <title>流程</title>
    <desc>Created with Sketch.</desc>
    <defs>
        <linearGradient x1="50%" y1="0%" x2="50%" y2="100%" id="linearGradient-1">
            <stop stop-color="#7CE2FB" offset="0%"></stop>
            <stop stop-color="#4689F5" offset="100%"></stop>
        </linearGradient>
    </defs>
    <g id="登录" stroke="none" stroke-width="1" fill="none" fill-rule="evenodd">
        <g id="5.0-通知消息-未读状态" transform="translate(-60.000000, -416.000000)">
            <g id="分组-7-copy-5备份-6" transform="translate(30.000000, 396.000000)">
                <g id="流程" transform="translate(30.000000, 20.000000)">
                    <rect id="矩形备份-2" fill="url(#linearGradient-1)" x="0" y="0" width="58" height="58" rx="29"></rect>
                    <path d="M14.9375,32.75 L24.3125,32.75 C24.830267,32.75 25.25,33.169733 25.25,33.6875 L25.25,43.0625 C25.25,43.580267 24.830267,44 24.3125,44 L14.9375,44 C14.419733,44 14,43.580267 14,43.0625 L14,33.6875 C14,33.169733 14.419733,32.75 14.9375,32.75 Z M33.6875,32.75 L43.0625,32.75 C43.580267,32.75 44,33.169733 44,33.6875 L44,43.0625 C44,43.580267 43.580267,44 43.0625,44 L33.6875,44 C33.169733,44 32.75,43.580267 32.75,43.0625 L32.75,33.6875 C32.75,33.169733 33.169733,32.75 33.6875,32.75 Z M20.5625,29 L20.5625,32.75 L18.6875,32.75 L18.6875,29 C18.6875,28.0494222 19.3990758,27.2493426 20.343125,27.138125 L20.5625,27.125 L28.0625,27.125 L28.0625,25.25 L24.3125,25.25 C23.794733,25.25 23.375,24.830267 23.375,24.3125 L23.375,14.9375 C23.375,14.419733 23.794733,14 24.3125,14 L33.6875,14 C34.205267,14 34.625,14.419733 34.625,14.9375 L34.625,24.3125 C34.625,24.830267 34.205267,25.25 33.6875,25.25 L29.9375,25.25 L29.9375,27.125 L37.4375,27.125 C38.3880778,27.1251254 39.1881574,27.8365758 39.299375,28.780625 L39.3125,29 L39.3125,32.75 L37.4375,32.75 L37.4375,29 L20.5625,29 Z" id="形状" fill="#FFFFFF" fill-rule="nonzero"></path>
                </g>
            </g>
        </g>
    </g>
</svg>