<?xml version="1.0" encoding="UTF-8"?>
<svg width="58px" height="58px" viewBox="0 0 58 58" version="1.1" xmlns="http://www.w3.org/2000/svg" xmlns:xlink="http://www.w3.org/1999/xlink">
    <!-- Generator: Sketch 63.1 (92452) - https://sketch.com -->
    <title>消息</title>
    <desc>Created with Sketch.</desc>
    <defs>
        <linearGradient x1="50%" y1="0%" x2="50%" y2="100%" id="linearGradient-1">
            <stop stop-color="#7CE2FB" offset="0%"></stop>
            <stop stop-color="#4689F5" offset="100%"></stop>
        </linearGradient>
    </defs>
    <g id="登录" stroke="none" stroke-width="1" fill="none" fill-rule="evenodd">
        <g id="5.3-通知消息-系统消息" transform="translate(-60.000000, -416.000000)">
            <g id="分组-7-copy-5备份-6" transform="translate(30.000000, 396.000000)">
                <g id="消息" transform="translate(30.000000, 20.000000)">
                    <g id="Group-2">
                        <circle id="Oval-Copy" fill="url(#linearGradient-1)" cx="29" cy="29" r="29"></circle>
                        <path d="M40.5869094,32.9622995 L40.5869094,25.9232086 C40.5869094,20.7763676 36.7549761,16.4777767 31.6279365,15.4120267 L31.6279365,15.1589358 C31.6279365,13.8420722 30.5325335,12.7941176 29.1820637,12.7941176 C27.831594,12.7941176 26.7401455,13.8598676 26.7401455,15.1589358 L26.7401455,15.4120267 C21.6111285,16.4777767 17.7791953,20.7565949 17.7791953,25.9212313 L17.7791953,32.9464813 C17.7791953,34.0834131 17.2512664,35.076004 16.4109302,35.7265267 C16.3199762,35.7996858 16.2646128,35.8352767 16.0095461,36.0152086 C15.5933405,36.3092594 15.3479883,36.7888815 15.353017,37.2984586 C15.353017,38.164504 16.084682,38.8863316 16.976427,38.8863316 L41.4114275,38.8863316 C41.837405,38.8914819 42.2479731,38.7270338 42.5525279,38.4291546 C42.8570828,38.1312753 43.0305897,37.7244507 43.0347594,37.2984586 C43.0337898,36.7535748 42.7510627,36.2479542 42.2873544,35.9618222 C42.2141957,35.9262313 42.1944231,35.8886631 42.141037,35.8708677 C41.1705847,35.222135 40.588227,34.1315993 40.5888866,32.9642767 L40.5869094,32.9622995 Z M33.2512683,40.4759358 L25.1128591,40.4759358 C25.1128591,42.6430267 26.9378716,44.4304813 29.1820637,44.4304813 C31.428233,44.4304813 33.2512683,42.6608222 33.2512683,40.4759358 L33.2512683,40.4759358 Z" id="形状" fill="#FFFFFF" fill-rule="nonzero"></path>
                    </g>
                </g>
            </g>
        </g>
    </g>
</svg>