<?xml version="1.0" encoding="UTF-8"?>
<svg width="30px" height="30px" viewBox="0 0 30 30" version="1.1" xmlns="http://www.w3.org/2000/svg" xmlns:xlink="http://www.w3.org/1999/xlink">
    <!-- Generator: Sketch 63.1 (92452) - https://sketch.com -->
    <title>上传图片 视频</title>
    <desc>Created with Sketch.</desc>
    <g id="上传图片-视频" stroke="none" stroke-width="1" fill="none" fill-rule="evenodd">
        <g id="编组-38">
            <rect id="矩形备份-31" x="0" y="0" width="30" height="30"></rect>
            <path d="M25,3 C26.1045695,3 27,3.8954305 27,5 L27,25 C27,26.1045695 26.1045695,27 25,27 L5,27 C3.8954305,27 3,26.1045695 3,25 L3,5 C3,3.8954305 3.8954305,3 5,3 L25,3 Z M6.85714286,21.2678571 L5.46428571,21.2678571 C5.2875,21.2678571 5.14285714,21.4125 5.14285714,21.5892857 L5.14285714,21.5892857 L5.14285714,22.9821429 C5.14285714,23.1589286 5.2875,23.3035714 5.46428571,23.3035714 L5.46428571,23.3035714 L6.85714286,23.3035714 C7.03392857,23.3035714 7.17857143,23.1589286 7.17857143,22.9821429 L7.17857143,22.9821429 L7.17857143,21.5892857 C7.17857143,21.4125 7.03392857,21.2678571 6.85714286,21.2678571 L6.85714286,21.2678571 Z M24.5357143,21.2678571 L23.1428571,21.2678571 C22.9660714,21.2678571 22.8214286,21.4125 22.8214286,21.5892857 L22.8214286,21.5892857 L22.8214286,22.9821429 C22.8214286,23.1589286 22.9660714,23.3035714 23.1428571,23.3035714 L23.1428571,23.3035714 L24.5357143,23.3035714 C24.7125,23.3035714 24.8571429,23.1589286 24.8571429,22.9821429 L24.8571429,22.9821429 L24.8571429,21.5892857 C24.8571429,21.4125 24.7125,21.2678571 24.5357143,21.2678571 L24.5357143,21.2678571 Z M17.9357143,14.6169643 C17.3946429,13.6660714 16.1464286,13.6660714 15.6053571,14.6169643 L15.6053571,14.6169643 L12.6964286,19.6982143 L11.7723214,18.0883929 C11.4401786,17.5125 10.7008929,17.5125 10.3714286,18.0883929 L10.3714286,18.0883929 L7.85625,22.48125 C7.65267857,22.8348214 7.90982143,23.2768507 8.31160714,23.2768507 L8.31160714,23.2768507 L21.3669643,23.2768507 C22.0473214,23.2848214 22.4732143,22.5455357 22.1276786,21.9482143 L22.1276786,21.9482143 Z M6.85714286,17.625 L5.46428571,17.625 C5.2875,17.625 5.14285714,17.7696429 5.14285714,17.9464286 L5.14285714,17.9464286 L5.14285714,19.3392857 C5.14285714,19.5160714 5.2875,19.6607143 5.46428571,19.6607143 L5.46428571,19.6607143 L6.85714286,19.6607143 C7.03392857,19.6607143 7.17857143,19.5160714 7.17857143,19.3392857 L7.17857143,19.3392857 L7.17857143,17.9464286 C7.17857143,17.7696429 7.03392857,17.625 6.85714286,17.625 L6.85714286,17.625 Z M24.5357143,17.625 L23.1428571,17.625 C22.9660714,17.625 22.8214286,17.7696429 22.8214286,17.9464286 L22.8214286,17.9464286 L22.8214286,19.3392857 C22.8214286,19.5160714 22.9660714,19.6607143 23.1428571,19.6607143 L23.1428571,19.6607143 L24.5357143,19.6607143 C24.7125,19.6607143 24.8571429,19.5160714 24.8571429,19.3392857 L24.8571429,19.3392857 L24.8571429,17.9464286 C24.8571429,17.7696429 24.7125,17.625 24.5357143,17.625 L24.5357143,17.625 Z M6.85714286,13.9821429 L5.46428571,13.9821429 C5.2875,13.9821429 5.14285714,14.1267857 5.14285714,14.3035714 L5.14285714,14.3035714 L5.14285714,15.6964286 C5.14285714,15.8732143 5.2875,16.0178571 5.46428571,16.0178571 L5.46428571,16.0178571 L6.85714286,16.0178571 C7.03392857,16.0178571 7.17857143,15.8732143 7.17857143,15.6964286 L7.17857143,15.6964286 L7.17857143,14.3035714 C7.17857143,14.1267857 7.03392857,13.9821429 6.85714286,13.9821429 L6.85714286,13.9821429 Z M24.5357143,13.9821429 L23.1428571,13.9821429 C22.9660714,13.9821429 22.8214286,14.1267857 22.8214286,14.3035714 L22.8214286,14.3035714 L22.8214286,15.6964286 C22.8214286,15.8732143 22.9660714,16.0178571 23.1428571,16.0178571 L23.1428571,16.0178571 L24.5357143,16.0178571 C24.7125,16.0178571 24.8571429,15.8732143 24.8571429,15.6964286 L24.8571429,15.6964286 L24.8571429,14.3035714 C24.8571429,14.1267857 24.7125,13.9821429 24.5357143,13.9821429 L24.5357143,13.9821429 Z M11.1964286,11.2741071 C10.4571429,11.2741071 9.85714286,11.8741071 9.85714286,12.6133929 C9.85714286,13.3526786 10.4571429,13.9526786 11.1964286,13.9526786 C11.9357143,13.9526786 12.5357143,13.3526786 12.5357143,12.6133929 C12.5357143,11.8741071 11.9357143,11.2741071 11.1964286,11.2741071 Z M6.85714286,10.3392857 L5.46428571,10.3392857 C5.2875,10.3392857 5.14285714,10.4839286 5.14285714,10.6607143 L5.14285714,10.6607143 L5.14285714,12.0535714 C5.14285714,12.2303571 5.2875,12.375 5.46428571,12.375 L5.46428571,12.375 L6.85714286,12.375 C7.03392857,12.375 7.17857143,12.2303571 7.17857143,12.0535714 L7.17857143,12.0535714 L7.17857143,10.6607143 C7.17857143,10.4839286 7.03392857,10.3392857 6.85714286,10.3392857 L6.85714286,10.3392857 Z M24.5357143,10.3392857 L23.1428571,10.3392857 C22.9660714,10.3392857 22.8214286,10.4839286 22.8214286,10.6607143 L22.8214286,10.6607143 L22.8214286,12.0535714 C22.8214286,12.2303571 22.9660714,12.375 23.1428571,12.375 L23.1428571,12.375 L24.5357143,12.375 C24.7125,12.375 24.8571429,12.2303571 24.8571429,12.0535714 L24.8571429,12.0535714 L24.8571429,10.6607143 C24.8571429,10.4839286 24.7125,10.3392857 24.5357143,10.3392857 L24.5357143,10.3392857 Z M6.85714286,6.69642857 L5.46428571,6.69642857 C5.2875,6.69642857 5.14285714,6.84107143 5.14285714,7.01785714 L5.14285714,7.01785714 L5.14285714,8.41071429 C5.14285714,8.5875 5.2875,8.73214286 5.46428571,8.73214286 L5.46428571,8.73214286 L6.85714286,8.73214286 C7.03392857,8.73214286 7.17857143,8.5875 7.17857143,8.41071429 L7.17857143,8.41071429 L7.17857143,7.01785714 C7.17857143,6.84107143 7.03392857,6.69642857 6.85714286,6.69642857 L6.85714286,6.69642857 Z M24.5357143,6.69642857 L23.1428571,6.69642857 C22.9660714,6.69642857 22.8214286,6.84107143 22.8214286,7.01785714 L22.8214286,7.01785714 L22.8214286,8.41071429 C22.8214286,8.5875 22.9660714,8.73214286 23.1428571,8.73214286 L23.1428571,8.73214286 L24.5357143,8.73214286 C24.7125,8.73214286 24.8571429,8.5875 24.8571429,8.41071429 L24.8571429,8.41071429 L24.8571429,7.01785714 C24.8571429,6.84107143 24.7125,6.69642857 24.5357143,6.69642857 L24.5357143,6.69642857 Z" id="形状" fill="#34C7BE"></path>
        </g>
    </g>
</svg>