<?xml version="1.0" encoding="UTF-8"?>
<svg width="30px" height="30px" viewBox="0 0 30 30" version="1.1" xmlns="http://www.w3.org/2000/svg" xmlns:xlink="http://www.w3.org/1999/xlink">
    <!-- Generator: Sketch 63.1 (92452) - https://sketch.com -->
    <title>移动RFID</title>
    <desc>Created with Sketch.</desc>
    <g id="移动RFID" stroke="none" stroke-width="1" fill="none" fill-rule="evenodd">
        <g id="编组-45">
            <rect id="矩形备份-38" x="0" y="0" width="30" height="30"></rect>
            <path d="M8.50046159,4.00131995 C4.51962804,6.17045478 2.025678,10.3764116 2.00019708,14.9637816 C1.97471616,19.5511517 4.42178436,23.7854066 8.37826814,26 L9.6781984,23.851083 C6.58669593,22.0254879 4.66073796,18.6909628 4.60067085,15.0600588 C4.59008304,11.3761469 6.59275865,7.99027868 9.80039182,6.26903462 L8.50046159,4.00131995 Z M21.4997641,4.00131995 L20.1998338,6.14891701 C23.3927931,7.94567123 25.3811933,11.353338 25.3995548,15.0600588 C25.3392321,18.6908899 23.4133424,22.0252969 20.3220273,23.851083 L21.6219575,26 C25.5783537,23.7850201 28.0252829,19.550604 27.9998029,14.9631252 C27.9743229,10.3756463 25.4805129,6.16952512 21.4997641,4 L21.4997641,4.00131995 Z M11.1003221,8.45623086 C8.75309228,9.81219839 7.27422697,12.3149778 7.20053134,15.0560989 C7.22630574,17.7483964 8.66691177,20.2214959 10.9781286,21.5411292 L12.2780589,19.3922122 C10.7397408,18.5091536 9.79195024,16.8504453 9.80039182,15.0560989 C9.86950812,13.2202957 10.8476056,11.5443069 12.4002523,10.601188 L11.1003221,8.45623086 Z M18.8999036,8.45623086 L17.5999733,10.6038279 C19.15262,11.5469468 20.1307175,13.2229357 20.1998338,15.0587388 C20.2082754,16.8530852 19.2604849,18.5117936 17.7221668,19.3948521 L19.022097,21.5437691 C21.3333139,20.2241358 22.7739199,17.7510364 22.7996943,15.0587388 C22.7249824,12.3179189 21.2463935,9.81560715 18.8999036,8.45887082 L18.8999036,8.45623086 Z M15.0001128,12.5138297 C13.6272872,12.5644223 12.5498171,13.7266859 12.5829734,15.1211902 C12.6161297,16.5156946 13.7475812,17.6238058 15.1212117,17.6070683 C16.4948423,17.5903308 17.5997813,16.4549695 17.5999733,15.0600588 C17.574359,13.6279923 16.4104386,12.4880818 15.0001128,12.5138297 Z" id="形状" fill="#5A80ED"></path>
        </g>
    </g>
</svg>