<?xml version="1.0" encoding="UTF-8"?>
<svg width="30px" height="30px" viewBox="0 0 30 30" version="1.1" xmlns="http://www.w3.org/2000/svg" xmlns:xlink="http://www.w3.org/1999/xlink">
    <!-- Generator: Sketch 63.1 (92452) - https://sketch.com -->
    <title>数据多选框</title>
    <desc>Created with Sketch.</desc>
    <g id="数据多选框" stroke="none" stroke-width="1" fill="none" fill-rule="evenodd">
        <g id="编组-36">
            <rect id="矩形备份-27" x="0" y="0" width="30" height="30"></rect>
            <path d="M25,3 C26.1045695,3 27,3.8954305 27,5 L27,25 C27,26.1045695 26.1045695,27 25,27 L5,27 C3.8954305,27 3,26.1045695 3,25 L3,5 C3,3.8954305 3.8954305,3 5,3 L25,3 Z M13.6331727,16.2667204 C13.2281911,15.8912096 12.595477,15.9151004 12.2199662,16.320082 L12.2199662,16.320082 L9.03100029,19.601681 L7.7138829,18.2604156 L7.62048094,18.1763238 C7.23114495,17.8675357 6.66367319,17.8898022 6.2997349,18.2467984 C5.90546842,18.6335443 5.89937178,19.2666799 6.28611768,19.6609464 L6.28611768,19.6609464 L8.33674897,21.7514538 L8.43336712,21.8381057 C8.83633271,22.1551444 9.42562194,22.1175241 9.78391559,21.7311109 L9.78391559,21.7311109 L13.6865342,17.6799269 L13.7661089,17.5826478 C14.0561146,17.1791266 14.0070018,16.6133458 13.6331727,16.2667204 Z M22.1765598,18 L16.8234402,18 L16.7274097,18.0067277 C16.317881,18.0644928 16,18.4871642 16,19 C16,19.5522847 16.3686667,20 16.8234402,20 L16.8234402,20 L22.1765598,20 L22.2725903,19.9932723 C22.682119,19.9355072 23,19.5128358 23,19 C23,18.4477153 22.6313333,18 22.1765598,18 L22.1765598,18 Z M13.6331727,8.26672045 C13.2281911,7.89120963 12.595477,7.91510041 12.2199662,8.32008198 L12.2199662,8.32008198 L9.03100029,11.601681 L7.7138829,10.2604156 L7.62048094,10.1763238 C7.23114495,9.8675357 6.66367319,9.88980218 6.2997349,10.2467984 C5.90546842,10.6335443 5.89937178,11.2666799 6.28611768,11.6609464 L6.28611768,11.6609464 L8.33674897,13.7514538 L8.43336712,13.8381057 C8.83633271,14.1551444 9.42562194,14.1175241 9.78391559,13.7311109 L9.78391559,13.7311109 L13.6865342,9.67992692 L13.7661089,9.58264777 C14.0561146,9.17912663 14.0070018,8.61334581 13.6331727,8.26672045 Z M22.1765598,11 L16.8234402,11 L16.7274097,11.0067277 C16.317881,11.0644928 16,11.4871642 16,12 C16,12.5522847 16.3686667,13 16.8234402,13 L16.8234402,13 L22.1765598,13 L22.2725903,12.9932723 C22.682119,12.9355072 23,12.5128358 23,12 C23,11.4477153 22.6313333,11 22.1765598,11 L22.1765598,11 Z" id="形状结合" fill="#EE5E5E"></path>
        </g>
    </g>
</svg>