<?xml version="1.0" encoding="UTF-8"?>
<svg width="30px" height="30px" viewBox="0 0 30 30" version="1.1" xmlns="http://www.w3.org/2000/svg" xmlns:xlink="http://www.w3.org/1999/xlink">
    <!-- Generator: Sketch 63.1 (92452) - https://sketch.com -->
    <title>分割线</title>
    <desc>Created with Sketch.</desc>
    <g id="分割线" stroke="none" stroke-width="1" fill="none" fill-rule="evenodd">
        <g id="编组-28">
            <rect id="矩形备份-23" x="0" y="0" width="30" height="30"></rect>
            <path d="M24.8571429,18.2857143 C25.7644678,18.2857143 26.5,19.0212465 26.5,19.9285714 L26.5,24.8571429 C26.5,25.7644678 25.7644678,26.5 24.8571429,26.5 L5.14285714,26.5 C4.2355322,26.5 3.5,25.7644678 3.5,24.8571429 L3.5,19.9285714 C3.5,19.0212465 4.2355322,18.2857143 5.14285714,18.2857143 L24.8571429,18.2857143 Z M24.8303659,14.1785714 C25.2840283,14.1785714 25.6517944,14.5463375 25.6517944,15 C25.6517944,15.4536625 25.2840283,15.8214286 24.8303659,15.8214286 L24.8303659,15.8214286 L5.14285714,15.8214286 C4.68919467,15.8214286 4.32142857,15.4536625 4.32142857,15 C4.32142857,14.5463375 4.68919467,14.1785714 5.14285714,14.1785714 L5.14285714,14.1785714 Z M24.8571429,3.5 C25.7644678,3.5 26.5,4.2355322 26.5,5.14285714 L26.5,10.0714286 C26.5,10.9787535 25.7644678,11.7142857 24.8571429,11.7142857 L5.14285714,11.7142857 C4.2355322,11.7142857 3.5,10.9787535 3.5,10.0714286 L3.5,5.14285714 C3.5,4.2355322 4.2355322,3.5 5.14285714,3.5 L24.8571429,3.5 Z" id="分割线-面备份" fill="#5A80ED"></path>
        </g>
    </g>
</svg>