<?xml version="1.0" encoding="UTF-8"?>
<svg width="30px" height="30px" viewBox="0 0 30 30" version="1.1" xmlns="http://www.w3.org/2000/svg" xmlns:xlink="http://www.w3.org/1999/xlink">
    <!-- Generator: Sketch 63.1 (92452) - https://sketch.com -->
    <title>多行文本</title>
    <desc>Created with Sketch.</desc>
    <g id="多行文本" stroke="none" stroke-width="1" fill="none" fill-rule="evenodd">
        <g id="编组-19">
            <rect id="矩形备份-13" x="0" y="0" width="30" height="30"></rect>
            <path d="M25,3 C26.1045695,3 27,3.8954305 27,5 L27,25 C27,26.1045695 26.1045695,27 25,27 L5,27 C3.8954305,27 3,26.1045695 3,25 L3,5 C3,3.8954305 3.8954305,3 5,3 L25,3 Z M22.5555556,18.3333333 L7.44444444,18.3333333 L7.36455499,18.3400464 C7.15722236,18.3753264 7,18.5454501 7,18.75 L7,18.75 L7,19.5833333 L7.00716476,19.6581984 C7.04481756,19.8525103 7.22637037,20 7.44444444,20 L7.44444444,20 L22.5555556,20 L22.635445,19.9932869 C22.8427776,19.958007 23,19.7878832 23,19.5833333 L23,19.5833333 L23,18.75 L22.9928394,18.6751036 C22.9552074,18.4807293 22.7737421,18.3333333 22.5555556,18.3333333 L22.5555556,18.3333333 Z M22.5555556,15 L16.3333333,15 L16.2534439,15.0067131 C16.0461113,15.041993 15.8888889,15.2121168 15.8888889,15.4166667 L15.8888889,15.4166667 L15.8888889,16.25 L15.8960537,16.3248651 C15.9337064,16.519177 16.1152593,16.6666667 16.3333333,16.6666667 L16.3333333,16.6666667 L22.5555556,16.6666667 L22.635445,16.6599536 C22.8427776,16.6246736 23,16.4545499 23,16.25 L23,16.25 L23,15.4166667 L22.9928394,15.3417703 C22.9552074,15.147396 22.7737421,15 22.5555556,15 L22.5555556,15 Z M13.6666667,10 L7.44444444,10 L7.36455499,10.0067131 C7.15722236,10.041993 7,10.2121168 7,10.4166667 L7,10.4166667 L7,11.25 L7.00716476,11.3248651 C7.04481756,11.519177 7.22637037,11.6666667 7.44444444,11.6666667 L7.44444444,11.6666667 L9.66666667,11.6666667 L9.66666667,16.25 L9.67383143,16.3248651 C9.71148422,16.519177 9.89303704,16.6666667 10.1111111,16.6666667 L10.1111111,16.6666667 L11,16.6666667 L11.0798895,16.6599536 C11.2872221,16.6246736 11.4444444,16.4545499 11.4444444,16.25 L11.4444444,16.25 L11.4444444,11.6666667 L13.6666667,11.6666667 L13.7465561,11.6599536 C13.9538887,11.6246736 14.1111111,11.4545499 14.1111111,11.25 L14.1111111,11.25 L14.1111111,10.4166667 L14.1039505,10.3417703 C14.0663186,10.147396 13.8848532,10 13.6666667,10 L13.6666667,10 Z M22.5555556,11.6666667 L16.3333333,11.6666667 L16.2534439,11.6733797 C16.0461113,11.7086597 15.8888889,11.8787834 15.8888889,12.0833333 L15.8888889,12.0833333 L15.8888889,12.9166667 L15.8960537,12.9915318 C15.9337064,13.1858436 16.1152593,13.3333333 16.3333333,13.3333333 L16.3333333,13.3333333 L22.5555556,13.3333333 L22.635445,13.3266203 C22.8427776,13.2913403 23,13.1212166 23,12.9166667 L23,12.9166667 L23,12.0833333 L22.9928394,12.008437 C22.9552074,11.8140626 22.7737421,11.6666667 22.5555556,11.6666667 L22.5555556,11.6666667 Z" id="形状结合" fill="#EE5E5E"></path>
        </g>
    </g>
</svg>