<?xml version="1.0" encoding="UTF-8"?>
<svg width="30px" height="30px" viewBox="0 0 30 30" version="1.1" xmlns="http://www.w3.org/2000/svg" xmlns:xlink="http://www.w3.org/1999/xlink">
    <!-- Generator: Sketch 63.1 (92452) - https://sketch.com -->
    <title>下拉复选</title>
    <desc>Created with Sketch.</desc>
    <g id="下拉复选" stroke="none" stroke-width="1" fill="none" fill-rule="evenodd">
        <g id="编组-36">
            <rect id="矩形备份-27" x="0" y="0" width="30" height="30"></rect>
            <path d="M25,3 C26.1045695,3 27,3.8954305 27,5 L27,25 C27,26.1045695 26.1045695,27 25,27 L5,27 C3.8954305,27 3,26.1045695 3,25 L3,5 C3,3.8954305 3.8954305,3 5,3 L25,3 Z M12.6689337,17.266716 C12.2639521,16.8912052 11.631238,16.915096 11.2557272,17.3200775 L11.2557272,17.3200775 L10.031,18.641 L8.71388261,17.2997346 L8.62048065,17.2156428 C8.23114466,16.9068547 7.6636729,16.9291212 7.29973461,17.2861174 C6.90546813,17.6728633 6.89937149,18.3059989 7.28611739,18.7002654 L7.28611739,18.7002654 L9.33674868,20.7907728 L9.43336683,20.8774247 C9.83633242,21.1944634 10.4256216,21.1568431 10.7839153,20.7704299 L10.7839153,20.7704299 L12.7222952,18.6799225 L12.8018699,18.5826433 C13.0918755,18.1791222 13.0427628,17.6133414 12.6689337,17.266716 Z M22.3684492,18 L15.8675283,18 L15.7509071,18.0067277 C15.2535684,18.0644928 14.8675283,18.4871642 14.8675283,19 C14.8675283,19.5522847 15.3152435,20 15.8675283,20 L15.8675283,20 L22.3684492,20 L22.4850703,19.9932723 C22.982409,19.9355072 23.3684492,19.5128358 23.3684492,19 C23.3684492,18.4477153 22.9207339,18 22.3684492,18 L22.3684492,18 Z M12.6689337,10.266716 C12.2639521,9.89120518 11.631238,9.91509596 11.2557272,10.3200775 L11.2557272,10.3200775 L10.031,11.641 L8.71388261,10.2997346 L8.62048065,10.2156428 C8.23114466,9.9068547 7.6636729,9.92912118 7.29973461,10.2861174 C6.90546813,10.6728633 6.89937149,11.3059989 7.28611739,11.7002654 L7.28611739,11.7002654 L9.33674868,13.7907728 L9.43336683,13.8774247 C9.83633242,14.1944634 10.4256216,14.1568431 10.7839153,13.7704299 L10.7839153,13.7704299 L12.7222952,11.6799225 L12.8018699,11.5826433 C13.0918755,11.1791222 13.0427628,10.6133414 12.6689337,10.266716 Z M22.3684492,11 L15.8675283,11 L15.7509071,11.0067277 C15.2535684,11.0644928 14.8675283,11.4871642 14.8675283,12 C14.8675283,12.5522847 15.3152435,13 15.8675283,13 L15.8675283,13 L22.3684492,13 L22.4850703,12.9932723 C22.982409,12.9355072 23.3684492,12.5128358 23.3684492,12 C23.3684492,11.4477153 22.9207339,11 22.3684492,11 L22.3684492,11 Z" id="形状结合" fill="#EE5E5E"></path>
        </g>
    </g>
</svg>