<?xml version="1.0" encoding="UTF-8"?>
<svg width="30px" height="30px" viewBox="0 0 30 30" version="1.1" xmlns="http://www.w3.org/2000/svg" xmlns:xlink="http://www.w3.org/1999/xlink">
    <!-- Generator: Sketch 63.1 (92452) - https://sketch.com -->
    <title>富文本</title>
    <desc>Created with Sketch.</desc>
    <g id="富文本" stroke="none" stroke-width="1" fill="none" fill-rule="evenodd">
        <g id="编组-29">
            <rect id="矩形备份-22" x="0" y="0" width="30" height="30"></rect>
            <path d="M25.03125,3 C26.1185606,3 27,3.8814394 27,4.96875 L27,4.96875 L27,25.03125 C27,26.1185606 26.1185606,27 25.03125,27 L25.03125,27 L4.96875,27 C3.8814394,27 3,26.1185606 3,25.03125 L3,25.03125 L3,4.96875 C3,3.8814394 3.8814394,3 4.96875,3 L4.96875,3 Z M7.56715625,21.3215 C6.88003125,21.3215 6.323,21.8785313 6.323,22.5656563 C6.323,23.2527813 6.88003125,23.8098125 7.56715625,23.8098125 C8.25428125,23.8098125 8.8113125,23.2527813 8.8113125,22.5656563 C8.8113125,21.8785313 8.25428125,21.3215 7.56715625,21.3215 Z M22.3534062,21.3215 C21.6662812,21.3215 21.10925,21.8785313 21.10925,22.5656563 C21.10925,23.2527813 21.6662812,23.8098125 22.3534062,23.8098125 C23.0405312,23.8098125 23.5975625,23.2527813 23.5975625,22.5656563 C23.5975625,21.8785313 23.0405312,21.3215 22.3534062,21.3215 Z M16.3050937,9.1631875 L13.7352812,9.1631875 L9.98115625,19.4207188 L12.3513125,19.4207188 L13.1064687,17.07 L16.8344375,17.07 L17.6023125,19.4207188 L19.9867187,19.4207188 L16.3050937,9.1631875 Z M14.993625,10.9314688 C15.0242812,11.3023125 15.077375,11.6006563 15.152125,11.8256875 L15.152125,11.8256875 L16.3177812,15.3816875 L13.58275,15.3816875 L14.755125,11.7987813 C14.8478437,11.5206563 14.9069062,11.2320313 14.9338125,10.9314688 L14.9338125,10.9314688 Z M7.56715625,6.32290625 C6.88003125,6.32290625 6.323,6.8799375 6.323,7.5670625 C6.323,8.2541875 6.88003125,8.81121875 7.56715625,8.81121875 C8.25428125,8.81121875 8.8113125,8.2541875 8.8113125,7.5670625 C8.8113125,6.8799375 8.25428125,6.32290625 7.56715625,6.32290625 Z M22.3534062,6.32290625 C21.6662812,6.32290625 21.10925,6.8799375 21.10925,7.5670625 C21.10925,8.2541875 21.6662812,8.81121875 22.3534062,8.81121875 C23.0405312,8.81121875 23.5975625,8.2541875 23.5975625,7.5670625 C23.5975625,6.8799375 23.0405312,6.32290625 22.3534062,6.32290625 Z" id="富文本框备份" fill="#5A80ED"></path>
        </g>
    </g>
</svg>